<svg xmlns="http://www.w3.org/2000/svg" width="606.2" height="819.4" viewBox="0 0 606.2 819.4"><defs><style>.a{fill:#fff;}.b{fill:none;stroke:#d9c8db;stroke-miterlimit:10;stroke-width:2px;}.c.d.e.f.g.h.i.j.k.l.m.n.o{isolation:isolate;}.c.d.e.f.g.i.j.k{font-size:55px;}.c.e{fill:#e96b5d;}.c.d.e.f.g.k{font-family:LustDisplay-Didone Lust Didone;}.d.f{fill:#9b4a8d;}.e{letter-spacing:0.02em;}.f{letter-spacing:0.02em;}.g{fill:#9b4a8c;}.h{font-size:45px;fill:#0cb6ea;font-family:Lust-Italic Lust;font-style:italic;}.i.k{fill:#50ae58;}.i.j{font-family:Lust-Regular Lust;letter-spacing:0.05em;}.j{fill:#ef8916;}.l.m{font-size:29.99px;}.l.n{font-family:Arial-BoldMT Arial;font-weight:700;}.m.o{font-family:ArialMT Arial; margin-left: auto; margin-right: auto; width: 40%;}.n{font-size:20px;}.o{font-size:18px;}</style></defs><rect class="a" width="606.2" height="819.4"/><text class="n">
<tspan class="n" text-anchor="middle" x="50%" y="42%">recipient goes here 0x addr</tspan></text>
<text transform="translate(75 352.85)" font-size="18" font-family="ArialMT Arial">
<tspan text-anchor="middle" x="37.5%" y="200">16466822393434timestamp</tspan>
<tspan text-anchor="middle" x="37.5%" y="260">13370000000000000value</tspan>
<tspan text-anchor="middle" x="37.5%" y="320">0x0000000000address</tspan>
<tspan text-anchor="middle" x="37.5%" y="120">message text goes here"message"</tspan>
<tspan text-anchor="middle" x="37.5%" y="220">signature timestamp</tspan>
<tspan text-anchor="middle" x="37.5%" y="340">contract</tspan>
<tspan text-anchor="middle" x="37.5%" y="280">value (wei)</tspan>
<tspan text-anchor="middle" x="37.5%" y="140">message</tspan></text>
<rect class="b" x="21.9" y="169.5" width="562.4" height="562.4"/> <text class="c" transform="translate(46.22 98.93)">P</text> <text class="d" transform="translate(89.26 98.93)">R</text> <text class="e" transform="translate(137.67 98.93) scale(0.94 1)">O</text> <text class="f" transform="translate(185.46 98.93) scale(0.95 1)">O</text> <text class="g" transform="translate(236.25 98.93)">F</text> <text class="h" transform="translate(280.85 101.19)">o</text> <text class="h" transform="translate(295.45 100.19)"><tspan xml:space="preserve"> f</tspan></text> <text class="i" transform="translate(339.58 98.93)">ST</text> <text class="j" transform="translate(416.88 98.93)">AK</text> <text class="k" transform="translate(515.35 98.93)">E</text> <text class="l" transform="translate(235.15 265)">vitalik.eth</text> <text class="m" transform="translate(263.48 295)">signer</text> <text class="m" transform="translate(245.64 373)">recipient</text><path class="a" d="M305.5811.7H275.7V740.8h52.4v70.9H305.7a19.6619.660011.6-4c-1.8-2.1.6-3.2.6a1.621.62001-1.4-1.6c-.1-1.2.3-1.91.1-2.2h2.6V806h-1.9a.55.55000-.5.3c-.1.3.2.3.5.4a2.312.310002.2-.73.923.920011-.8c1-.51-1.51.3-2.4h-6.2v-3.2h1.5v1.6h2.2v-1.5h1.4v1.5c1.3.21.3.21.7-10-.1.1-.3.1-.4.2-.7.5-1.5.8-2.3l-7.7.9v-1.6l6.5-.7-6.5-.6V794h.4l7.9.9c.10.40.4-.1.3-.7.5-1.4.8-2.2H303v-3.2h1.4v1.7h2.2v-1.5H308v1.5h3.1v-1.6h1.4v2.6h.1l9.6-27.4-9.7-3.1c0.5-.4.5-.7.5-10-2.1-3.1.1-.40-.7.1-.6.6h4.3v1.6h-8.2a.76.76000-.5.2c-.3.7-.51.4-.82.1a2.12.10011.4-.7h6.8a1.51.50011.414.34.300101.61.361.36001-1.51.2h-6.8a1.511.51001-1.5-1.25.285.28001-.1-1.3l-1438.2.6.2124.4ZM280.1759h43.5V744.8H280.1Zm27.69.2h3.2c.10.3-.2.4-.3-.1-.1-.3-.2-.4-.3h-6.5a.22.22000-.2.2.37.37000.1.3.75.75000.5.1Zm1.7-7.8-4-1.2-.41.3c.901.9-.22.41.4-1.11.2-.92-1.1Zm-5.12.3h2.5c0-.4-.1-.6-.5-.6h-1.4c-.50-.7.1-.6.6Z"/> <path d="M305.5811.7l-4.2-1.6-12-4.3-.6-.214-38.2a6.156.15000.11.31.421.420001.51.2h6.8a1.421.420001.5-1.24.34.30000-1.61.51.5000-1.4-1h-6.8a2.12.1000-1.4.71818001.8-2.1.76.76001.5-.2h8.2v-1.7h-4.3c0-.5.2-.6.6-.610203.1-.1.30.70.7-.5l9.73.1c-3.29.2-6.418.3-9.627.4h-.1v-2.7h-1.4V791h-3.1v-1.6h-1.5V791h-2.2v-1.7H303v3.2h9.5c-.3.8-.51.5-.82.20.1-.3.1-.4.1l-7.9-.9H303v1.6l6.5.6-6.5.7v1.6l7.7-.9c-.3.8-.51.6-.82.30.1-.1.3-.1.4-.41.2-.41.2-1.71v-1.5h-1.4v1.6h-2.3v-1.6h-1.5v3.2h6.2c-.4.9-.41.9-1.32.4a3.923.92000-1.82.582.58001-2.2.7c-.20-.50-.5-.4a.55.55001.5-.3h2v-1.5H304c-.8.2-1.21-1.12.1a1.531.530001.31.6c1.1.12.3.33.2-.6a19.6619.66000-1.64Zm3.9-27.3-6.2.9a.76.76000-.4.2v2.1h9.5v-1.3h-7c.4-.1.9-.11.3-.21.8-.23.6-.55.4-.7q.150.3-.3v-2h-9.6v1.3Zm-3-8.9H304a1.191.19000-1.214.844.8400001.71.161.160001.114.144.140003.7-.9c.2-.2.4-.3.6-.5a2.862.860012.3-.8c.30.7-.2.7.3s-.5.3-.7.3h-1.9v1.6a22.5522.550002.601.491.490001.3-1.41.91.9000-.9-2.21.271.27000-.6-.14.444.44000-41.2c-.1.1-.2.2-.3.2a2.62.6001-2.4.7.85.85001-.5-.3c-.1-.3.2-.3.5-.3h1.9Zm-3.4-4.7v4h1.4v-1.2h8.1V772h-8.1v-1.2Z"/> <path d="M280.1759V744.8h43.5V759Zm26.4-11v-1.6h-2.1a1.451.45000-1.51.4c-.21.2.22.212.3a4.244.240003.6-.6l1.4-1.1a3.13.10012.3-.4c.20.3.2.2.4a.22.22001-.2.2h-2.3v1.5a24.3224.320002.70c.9-.11.2-.81.2-1.9s-.4-1.7-1.2-1.8h-.2a4.734.73000-4.11.2c-.1.1-.3.2-.4.3a2.692.69001-2.3.7c-.20-.50-.5-.30-.1.3-.3.5-.3Zm4.65.2H308v-1.6h-1.5v1.6h-2.1v-1.7H303v3.2h9.5v-3.3h-1.4Zm1.43.3H303V758h9.5Z"/> <path d="M307.7768.2h-3.1a.9.9001-.5-.1.37.37001-.1-.3.22.22001.2-.2h6.6c.1.1.3.2.4.3-.1.1-.3.3-.4.3Z"/> <path d="M309.4760.4c-.8.1-1.60-21-.5-1.2-1.5-.9-2.4-1l.4-1.3Z"/> <path d="M304.3762.7c0-.5.1-.6.6-.6h1.4c.50.6.2.5.6Z"/> <path class="a" d="M309.4784.4h-6.5v-1.3h9.6v2q0.15-.3.3c-1.8.2-3.6.5-5.4.7a5.855.85000-1.3.2h7v1.3H303v-2.1c0-.1.2-.2.4-.2Z"/> <path class="a" d="M306.5775.5v1.6h-1.9c-.20-.50-.5.30.1.3.3.5.3a2.62.60002.4-.7c.1-.1.2-.2.3-.2a4.194.190014-1.21.421.42001.6.222001.92.21.491.49001-1.31.422.5322.53001-2.60v-1.5h1.9c.30.7.2.7-.3s-.4-.3-.7-.3a2.742.74000-2.3.8c-.2.2-.4.3-.6.5a4.144.14001-3.7.91.091.09001-1.1-14.844.840010-1.71.191.190011.2-1A5.115.11001306.5775.5Z"/> <path class="a" d="M303770.8h1.4V772h8.1v1.6h-8.1v1.2H303Z"/> <path class="a" d="M306.5748h-1.9a.55.55000-.5.3c-.1.3.2.3.5.3a2.492.490002.3-.7c.1-.1.3-.2.4-.3a4.454.450014.1-1.2h.2a1.611.610011.21.8c01-.41.8-1.21.9a24.324.3001-2.70v-1.5h2.3c.20.3-.2.2-.4a.22.22000-.2-.23.13.1000-2.3.4l-1.41.1c-1.11-2.4.8-3.6.6-.8-.1-1.2-1.1-1-2.3a1.451.450011.5-1.4h2.1Z"/> <path class="a" d="M311.1753.2v-1.7h1.4v3.3H303v-3.2h1.4v1.7h2.2v-1.6H308v1.6Z"/> <path class="a" d="M312.5756.5V758H303v-1.5Z"/></svg>
