<svg width="1400" height="1900" viewBox="0 0 1400 1900" fill="none" xmlns="http://www.w3.org/2000/svg">
<g clip-path="url(#clip0_168_8330)">
<rect width="1400" height="1900" fill="#2BCFD9"/>
<path d="M1072.45 877.894C1359.88 877.894 1592.89 644.882 1592.89 357.447C1592.89 70.0121 1359.88 -163 1072.45 -163C785.012 -163 552 70.0121 552 357.447C552 644.882 785.012 877.894 1072.45 877.894Z" fill="#2BCFD9" stroke="#2FD8E2" stroke-width="2" stroke-miterlimit="10"/>
<path d="M1240.11 -118.86L890.29 -117.543L622.82 108.424L563.199 453.302L739.427 756.018L1068.82 874.272L1397.23 753.383L1571.15 449.679L1509.23 105.13L1240.11 -118.86Z" stroke="#2FD8E2" stroke-width="2" stroke-miterlimit="10"/>
<path d="M1191.36 16.521L939.699 17.5092L747.66 179.902L704.839 427.938L831.327 645.34L1068.16 730.653L1304.34 643.693L1429.51 425.303L1384.71 177.596L1191.36 16.521Z" stroke="#2FD8E2" stroke-width="2" stroke-miterlimit="10"/>
<path d="M1137.01 606.142L1314.88 428.597L1249.66 186.161L1007.23 120.941L829.683 298.486L894.574 541.251L1137.01 606.142Z" stroke="#2FD8E2" stroke-width="2" stroke-miterlimit="10"/>
<path d="M1509.23 105.129L1384.72 177.597" stroke="#2FD8E2" stroke-width="2" stroke-miterlimit="10"/>
<path d="M1397.23 753.383L1304.34 643.694" stroke="#2FD8E2" stroke-width="2" stroke-miterlimit="10"/>
<path d="M1068.82 874.27L1068.16 730.653" stroke="#2FD8E2" stroke-width="2" stroke-miterlimit="10"/>
<path d="M739.427 756.017L831.328 645.34" stroke="#2FD8E2" stroke-width="2" stroke-miterlimit="10"/>
<path d="M563.198 453.301L704.839 427.937" stroke="#2FD8E2" stroke-width="2" stroke-miterlimit="10"/>
<path d="M747.662 179.902L622.821 108.423" stroke="#2FD8E2" stroke-width="2" stroke-miterlimit="10"/>
<path d="M890.292 -117.542L939.702 17.5107" stroke="#2FD8E2" stroke-width="2" stroke-miterlimit="10"/>
<path d="M1191.36 16.5218L1240.11 -118.86" stroke="#2FD8E2" stroke-width="2" stroke-miterlimit="10"/>
<path d="M1112.31 513.91L1072.12 354.153L1182.14 253.357L1222.65 403.892L1112.31 513.91Z" fill="#2BCFD9" stroke="#2FD8E2" stroke-width="2" stroke-miterlimit="10"/>
<path d="M921.584 323.19L1072.12 354.153L1182.14 253.358L1031.93 213.171L921.584 323.19Z" fill="#2BCFD9" stroke="#2FD8E2" stroke-width="2" stroke-miterlimit="10"/>
<path d="M1112.3 513.911L962.1 473.724L921.584 323.19L1072.12 354.153L1112.3 513.911Z" fill="#2BCFD9" stroke="#2FD8E2" stroke-width="2" stroke-miterlimit="10"/>
<path d="M894.573 541.25L921.254 514.569" stroke="#2FD8E2" stroke-width="2" stroke-linecap="round" stroke-linejoin="round"/>
<path d="M921.255 514.569L935.09 500.405" stroke="#2FD8E2" stroke-width="2" stroke-linecap="round" stroke-linejoin="round" stroke-dasharray="19.06 19.06"/>
<path d="M935.088 500.404L962.099 473.723" stroke="#2FD8E2" stroke-width="2" stroke-linecap="round" stroke-linejoin="round"/>
<path d="M829.682 298.484L866.245 308.366" stroke="#2FD8E2" stroke-width="2" stroke-linecap="round" stroke-linejoin="round"/>
<path d="M866.245 308.366L885.021 313.637" stroke="#2FD8E2" stroke-width="2" stroke-linecap="round" stroke-linejoin="round" stroke-dasharray="19.06 19.06"/>
<path d="M885.02 313.636L921.583 323.189" stroke="#2FD8E2" stroke-width="2" stroke-linecap="round" stroke-linejoin="round"/>
<path d="M1112.31 513.911L1122.19 550.803" stroke="#2FD8E2" stroke-width="2" stroke-linecap="round" stroke-linejoin="round"/>
<path d="M1122.19 550.802L1127.46 569.578" stroke="#2FD8E2" stroke-width="2" stroke-linecap="round" stroke-linejoin="round" stroke-dasharray="19.06 19.06"/>
<path d="M1127.46 569.58L1137.01 606.143" stroke="#2FD8E2" stroke-width="2" stroke-linecap="round" stroke-linejoin="round"/>
<path d="M1222.65 403.893L1259.22 413.775" stroke="#2FD8E2" stroke-width="2" stroke-linecap="round" stroke-linejoin="round"/>
<path d="M1259.22 413.774L1278.32 418.715" stroke="#2FD8E2" stroke-width="2" stroke-linecap="round" stroke-linejoin="round" stroke-dasharray="19.06 19.06"/>
<path d="M1278.32 418.715L1314.88 428.597" stroke="#2FD8E2" stroke-width="2" stroke-linecap="round" stroke-linejoin="round"/>
<path d="M1249.66 186.161L1222.98 212.842" stroke="#2FD8E2" stroke-width="2" stroke-linecap="round" stroke-linejoin="round"/>
<path d="M1222.98 212.842L1209.15 226.677" stroke="#2FD8E2" stroke-width="2" stroke-linecap="round" stroke-linejoin="round" stroke-dasharray="19.06 19.06"/>
<path d="M1209.15 226.677L1182.14 253.358" stroke="#2FD8E2" stroke-width="2" stroke-linecap="round" stroke-linejoin="round"/>
<path d="M1007.23 120.94L1017.11 157.504" stroke="#2FD8E2" stroke-width="2" stroke-linecap="round" stroke-linejoin="round"/>
<path d="M1017.11 157.503L1022.05 176.608" stroke="#2FD8E2" stroke-width="2" stroke-linecap="round" stroke-linejoin="round" stroke-dasharray="19.06 19.06"/>
<path d="M1022.05 176.608L1031.93 213.171" stroke="#2FD8E2" stroke-width="2" stroke-linecap="round" stroke-linejoin="round"/>
<path d="M1384.71 177.596L1571.15 449.678L1304.34 643.693L1068.82 874.27L831.327 645.34L563.198 453.301L747.661 179.902" stroke="#2FD8E2" stroke-width="2" stroke-miterlimit="10" stroke-linecap="round" stroke-linejoin="round"/>
<path d="M757.203 181.878C757.203 188.603 751.752 194.054 745.027 194.054C738.303 194.054 732.852 188.603 732.852 181.878C732.852 175.154 738.303 169.702 745.027 169.702C751.752 169.702 757.203 175.154 757.203 181.878Z" fill="#2BCFD9" stroke="#2FD8E2" stroke-width="2"/>
<path d="M1394.59 179.244C1394.59 185.968 1389.13 191.419 1382.41 191.419C1375.69 191.419 1370.23 185.968 1370.23 179.244C1370.23 172.519 1375.69 167.068 1382.41 167.068C1389.13 167.068 1394.59 172.519 1394.59 179.244Z" fill="#2BCFD9" stroke="#2FD8E2" stroke-width="2"/>
<path d="M1247.03 200.984C1254.31 200.984 1260.2 195.085 1260.2 187.808C1260.2 180.531 1254.31 174.632 1247.03 174.632C1239.75 174.632 1233.85 180.531 1233.85 187.808C1233.85 195.085 1239.75 200.984 1247.03 200.984Z" fill="#2BCFD9" stroke="#2FD8E2" stroke-width="2" stroke-miterlimit="10"/>
<path d="M958.478 489.536C965.754 489.536 971.653 483.637 971.653 476.36C971.653 469.083 965.754 463.184 958.478 463.184C951.201 463.184 945.302 469.083 945.302 476.36C945.302 483.637 951.201 489.536 958.478 489.536Z" fill="#2BCFD9" stroke="#2FD8E2" stroke-width="2" stroke-miterlimit="10"/>
<path d="M837.905 645.34C837.905 652.065 832.454 657.516 825.73 657.516C819.005 657.516 813.554 652.065 813.554 645.34C813.554 638.616 819.005 633.165 825.73 633.165C832.454 633.165 837.905 638.616 837.905 645.34Z" fill="#2BCFD9" stroke="#2FD8E2" stroke-width="2"/>
<path d="M1313.88 645.339C1313.88 652.064 1308.43 657.515 1301.71 657.515C1294.98 657.515 1289.53 652.064 1289.53 645.339C1289.53 638.615 1294.98 633.164 1301.71 633.164C1308.43 633.164 1313.88 638.615 1313.88 645.339Z" fill="#2BCFD9" stroke="#2FD8E2" stroke-width="2"/>
<path d="M1454.21 426.95C1454.21 442.043 1441.97 454.278 1426.88 454.278C1411.79 454.278 1399.55 442.043 1399.55 426.95C1399.55 411.857 1411.79 399.622 1426.88 399.622C1441.97 399.622 1454.21 411.857 1454.21 426.95Z" fill="#2BCFD9" stroke="#2FD8E2" stroke-width="2"/>
<path d="M1090.22 730.984C1090.22 746.077 1077.99 758.312 1062.9 758.312C1047.8 758.312 1035.57 746.077 1035.57 730.984C1035.57 715.891 1047.8 703.656 1062.9 703.656C1077.99 703.656 1090.22 715.891 1090.22 730.984Z" fill="#2BCFD9" stroke="#2FD8E2" stroke-width="2"/>
<path d="M730.852 434.527C730.852 449.62 718.616 461.855 703.523 461.855C688.431 461.855 676.195 449.62 676.195 434.527C676.195 419.434 688.431 407.199 703.523 407.199C718.616 407.199 730.852 419.434 730.852 434.527Z" fill="#2BCFD9" stroke="#2FD8E2" stroke-width="2"/>
<g filter="url(#filter0_f_168_8330)">
<circle cx="-69.5404" cy="207.02" r="159.82" fill="#7AE9B2"/>
</g>
<g filter="url(#filter1_f_168_8330)">
<circle cx="605.82" cy="559.82" r="159.82" fill="#CAFFF0"/>
</g>
<circle cx="741.76" cy="420.52" r="4.88" fill="#CAFFF0"/>
<circle cx="475.799" cy="632.8" r="4.88" fill="#CAFFF0"/>
<g filter="url(#filter2_f_168_8330)">
<circle cx="59.7797" cy="697.46" r="8.54" fill="#CAFFF0"/>
</g>
<g filter="url(#filter3_f_168_8330)">
<circle cx="597.8" cy="266.8" r="8.54" fill="#CAFFF0"/>
</g>
<circle cx="331.839" cy="186.28" r="4.88" fill="#CAFFF0"/>
<g filter="url(#filter4_f_168_8330)">
<circle cx="1276.82" cy="1164.82" r="159.82" fill="#5BF1CD"/>
</g>
<path d="M113.447 1842.89C400.882 1842.89 633.894 1609.88 633.894 1322.45C633.894 1035.01 400.882 802 113.447 802C-173.988 802 -407 1035.01 -407 1322.45C-407 1609.88 -173.988 1842.89 113.447 1842.89Z" fill="#2BCFD9" stroke="#2FD8E2" stroke-width="2" stroke-miterlimit="10"/>
<path d="M281.11 846.14L-68.7097 847.457L-336.18 1073.42L-395.801 1418.3L-219.573 1721.02L109.823 1839.27L438.232 1718.38L612.154 1414.68L550.227 1070.13L281.11 846.14Z" stroke="#2FD8E2" stroke-width="2" stroke-miterlimit="10"/>
<path d="M232.358 981.521L-19.3011 982.509L-211.34 1144.9L-254.161 1392.94L-127.673 1610.34L109.164 1695.65L345.341 1608.69L470.512 1390.3L425.714 1142.6L232.358 981.521Z" stroke="#2FD8E2" stroke-width="2" stroke-miterlimit="10"/>
<path d="M178.01 1571.14L355.884 1393.6L290.664 1151.16L48.2275 1085.94L-129.317 1263.49L-64.4262 1506.25L178.01 1571.14Z" stroke="#2FD8E2" stroke-width="2" stroke-miterlimit="10"/>
<path d="M550.229 1070.13L425.717 1142.6" stroke="#2FD8E2" stroke-width="2" stroke-miterlimit="10"/>
<path d="M612.154 1414.68L470.513 1390.3" stroke="#2FD8E2" stroke-width="2" stroke-miterlimit="10"/>
<path d="M438.234 1718.38L345.344 1608.69" stroke="#2FD8E2" stroke-width="2" stroke-miterlimit="10"/>
<path d="M109.823 1839.27L109.165 1695.65" stroke="#2FD8E2" stroke-width="2" stroke-miterlimit="10"/>
<path d="M232.36 981.522L281.111 846.14" stroke="#2FD8E2" stroke-width="2" stroke-miterlimit="10"/>
<path d="M153.305 1478.91L113.119 1319.15L223.137 1218.36L263.653 1368.89L153.305 1478.91Z" fill="#2BCFD9" stroke="#2FD8E2" stroke-width="2" stroke-miterlimit="10"/>
<path d="M-37.416 1288.19L113.118 1319.15L223.137 1218.36L72.9319 1178.17L-37.416 1288.19Z" fill="#2BCFD9" stroke="#2FD8E2" stroke-width="2" stroke-miterlimit="10"/>
<path d="M153.305 1478.91L3.09981 1438.72L-37.416 1288.19L113.118 1319.15L153.305 1478.91Z" fill="#2BCFD9" stroke="#2FD8E2" stroke-width="2" stroke-miterlimit="10"/>
<path d="M-23.9116 1465.4L3.09892 1438.72" stroke="#2FD8E2" stroke-width="2" stroke-linecap="round" stroke-linejoin="round"/>
<path d="M153.305 1478.91L163.187 1515.8" stroke="#2FD8E2" stroke-width="2" stroke-linecap="round" stroke-linejoin="round"/>
<path d="M163.186 1515.8L168.456 1534.58" stroke="#2FD8E2" stroke-width="2" stroke-linecap="round" stroke-linejoin="round" stroke-dasharray="19.06 19.06"/>
<path d="M168.459 1534.58L178.012 1571.14" stroke="#2FD8E2" stroke-width="2" stroke-linecap="round" stroke-linejoin="round"/>
<path d="M263.654 1368.89L300.217 1378.77" stroke="#2FD8E2" stroke-width="2" stroke-linecap="round" stroke-linejoin="round"/>
<path d="M300.218 1378.77L319.323 1383.72" stroke="#2FD8E2" stroke-width="2" stroke-linecap="round" stroke-linejoin="round" stroke-dasharray="19.06 19.06"/>
<path d="M319.321 1383.72L355.884 1393.6" stroke="#2FD8E2" stroke-width="2" stroke-linecap="round" stroke-linejoin="round"/>
<path d="M290.662 1151.16L263.981 1177.84" stroke="#2FD8E2" stroke-width="2" stroke-linecap="round" stroke-linejoin="round"/>
<path d="M263.983 1177.84L250.148 1191.68" stroke="#2FD8E2" stroke-width="2" stroke-linecap="round" stroke-linejoin="round" stroke-dasharray="19.06 19.06"/>
<path d="M250.149 1191.68L223.138 1218.36" stroke="#2FD8E2" stroke-width="2" stroke-linecap="round" stroke-linejoin="round"/>
<path d="M48.2275 1085.94L58.1094 1122.5" stroke="#2FD8E2" stroke-width="2" stroke-linecap="round" stroke-linejoin="round"/>
<path d="M58.1089 1122.5L63.0498 1141.61" stroke="#2FD8E2" stroke-width="2" stroke-linecap="round" stroke-linejoin="round" stroke-dasharray="19.06 19.06"/>
<path d="M63.0508 1141.61L72.9327 1178.17" stroke="#2FD8E2" stroke-width="2" stroke-linecap="round" stroke-linejoin="round"/>
<path d="M425.714 1142.6L612.153 1414.68L345.341 1608.69L109.822 1839.27L-127.673 1610.34L-395.802 1418.3L-211.339 1144.9" stroke="#2FD8E2" stroke-width="2" stroke-miterlimit="10" stroke-linecap="round" stroke-linejoin="round"/>
<path d="M435.586 1144.24C435.586 1150.97 430.135 1156.42 423.41 1156.42C416.686 1156.42 411.234 1150.97 411.234 1144.24C411.234 1137.52 416.686 1132.07 423.41 1132.07C430.135 1132.07 435.586 1137.52 435.586 1144.24Z" fill="#2BCFD9" stroke="#2FD8E2" stroke-width="2"/>
<path d="M288.028 1165.98C295.305 1165.98 301.204 1160.09 301.204 1152.81C301.204 1145.53 295.305 1139.63 288.028 1139.63C280.752 1139.63 274.853 1145.53 274.853 1152.81C274.853 1160.09 280.752 1165.98 288.028 1165.98Z" fill="#2BCFD9" stroke="#2FD8E2" stroke-width="2" stroke-miterlimit="10"/>
<path d="M-0.52239 1454.54C6.75445 1454.54 12.6535 1448.64 12.6535 1441.36C12.6535 1434.08 6.75445 1428.18 -0.52239 1428.18C-7.79923 1428.18 -13.6982 1434.08 -13.6982 1441.36C-13.6982 1448.64 -7.79923 1454.54 -0.52239 1454.54Z" fill="#2BCFD9" stroke="#2FD8E2" stroke-width="2" stroke-miterlimit="10"/>
<path d="M354.883 1610.34C354.883 1617.06 349.432 1622.52 342.707 1622.52C335.983 1622.52 330.531 1617.06 330.531 1610.34C330.531 1603.61 335.983 1598.16 342.707 1598.16C349.432 1598.16 354.883 1603.61 354.883 1610.34Z" fill="#2BCFD9" stroke="#2FD8E2" stroke-width="2"/>
<path d="M495.206 1391.95C495.206 1407.04 482.971 1419.28 467.878 1419.28C452.785 1419.28 440.55 1407.04 440.55 1391.95C440.55 1376.86 452.785 1364.62 467.878 1364.62C482.971 1364.62 495.206 1376.86 495.206 1391.95Z" fill="#2BCFD9" stroke="#2FD8E2" stroke-width="2"/>
<path d="M131.224 1695.98C131.224 1711.08 118.988 1723.31 103.896 1723.31C88.8026 1723.31 76.5674 1711.08 76.5674 1695.98C76.5674 1680.89 88.8026 1668.66 103.896 1668.66C118.988 1668.66 131.224 1680.89 131.224 1695.98Z" fill="#2BCFD9" stroke="#2FD8E2" stroke-width="2"/>
</g>
<defs>
<filter id="filter0_f_168_8330" x="-473.36" y="-196.8" width="807.64" height="807.64" filterUnits="userSpaceOnUse" color-interpolation-filters="sRGB">
<feFlood flood-opacity="0" result="BackgroundImageFix"/>
<feBlend mode="normal" in="SourceGraphic" in2="BackgroundImageFix" result="shape"/>
<feGaussianBlur stdDeviation="122" result="effect1_foregroundBlur_168_8330"/>
</filter>
<filter id="filter1_f_168_8330" x="132" y="86" width="947.64" height="947.64" filterUnits="userSpaceOnUse" color-interpolation-filters="sRGB">
<feFlood flood-opacity="0" result="BackgroundImageFix"/>
<feBlend mode="normal" in="SourceGraphic" in2="BackgroundImageFix" result="shape"/>
<feGaussianBlur stdDeviation="157" result="effect1_foregroundBlur_168_8330"/>
</filter>
<filter id="filter2_f_168_8330" x="46.3597" y="684.04" width="26.8401" height="26.8401" filterUnits="userSpaceOnUse" color-interpolation-filters="sRGB">
<feFlood flood-opacity="0" result="BackgroundImageFix"/>
<feBlend mode="normal" in="SourceGraphic" in2="BackgroundImageFix" result="shape"/>
<feGaussianBlur stdDeviation="2.44" result="effect1_foregroundBlur_168_8330"/>
</filter>
<filter id="filter3_f_168_8330" x="584.38" y="253.38" width="26.8401" height="26.8401" filterUnits="userSpaceOnUse" color-interpolation-filters="sRGB">
<feFlood flood-opacity="0" result="BackgroundImageFix"/>
<feBlend mode="normal" in="SourceGraphic" in2="BackgroundImageFix" result="shape"/>
<feGaussianBlur stdDeviation="2.44" result="effect1_foregroundBlur_168_8330"/>
</filter>
<filter id="filter4_f_168_8330" x="803" y="691" width="947.64" height="947.64" filterUnits="userSpaceOnUse" color-interpolation-filters="sRGB">
<feFlood flood-opacity="0" result="BackgroundImageFix"/>
<feBlend mode="normal" in="SourceGraphic" in2="BackgroundImageFix" result="shape"/>
<feGaussianBlur stdDeviation="157" result="effect1_foregroundBlur_168_8330"/>
</filter>
<clipPath id="clip0_168_8330">
<rect width="1400" height="1900" fill="white"/>
</clipPath>
</defs>
</svg>
