<svg class="bubbles" width="1736" height="824" viewBox="0 0 1736 824" fill="none" xmlns="http://www.w3.org/2000/svg">
    <style>
        .bubbles {
        position: absolute;
        bottom: 0;
        left: 0;
        right: 0;
    }

  .bubbleGreen {
      animation: moveBubble 12s ease-in infinite alternate;
  }

  .bubbleYellow {
      animation: moveBubble 12s ease-out infinite alternate;
  }
  @keyframes moveBubble {
      from {
          transform: translateX(-554px);
      }
  }
    </style>
    <circle cx="1653" cy="29" r="23" fill="#FFCC00"
class="bubbleYellow" stroke="#0E0333" />
    <circle cx="469" cy="178" r="23" fill="#FFCC00"
class="bubbleYellow" stroke="#0E0333" />
    <circle cx="533" cy="535" r="16" fill="#FFCC00"
class="bubbleYellow" stroke="#0E0333" />
    <circle cx="397.5" cy="765.5" r="7.5" fill="#FFCC00"
class="bubbleYellow" stroke="#0E0333" />
    <circle cx="1496.5" cy="143.5" r="7.5" fill="#FFCC00"
class="bubbleYellow" stroke="#0E0333" />
    <circle cx="396.5" cy="8.5" r="7.5" fill="#FFCC00"
class="bubbleYellow" stroke="#0E0333" />
    <circle cx="876.5" cy="8.5" r="7.5" fill="#FFCC00"
class="bubbleYellow" stroke="#0E0333" />
    <circle cx="1038.5" cy="792.5" r="7.5" fill="#FFCC00"
class="bubbleYellow" stroke="#0E0333" />
    <circle cx="1719" cy="323" r="16" fill="#FFCC00"
class="bubbleYellow" stroke="#0E0333" />
    <circle cx="1578" cy="463" r="29" fill="#FFCC00"
class="bubbleYellow" stroke="#0E0333" />
    <circle cx="204.5" cy="679.5" r="31.5" fill="#02E2AC"
class="bubbleGreen" stroke="#0E0333" />
    <circle cx="15" cy="66" r="14" fill="#02E2AC"
class="bubbleGreen" stroke="#0E0333" />
    <circle cx="748" cy="651" r="24" fill="#02E2AC"
class="bubbleGreen" stroke="#0E0333" />
    <circle cx="1167" cy="82" r="16" fill="#02E2AC"
class="bubbleGreen" stroke="#0E0333" />
    <circle cx="260" cy="327" r="12" fill="#02E2AC"
class="bubbleGreen" stroke="#0E0333" />
    <circle cx="29" cy="428" r="12" fill="#02E2AC"
class="bubbleGreen" stroke="#0E0333" />
    <circle cx="1450.5" cy="325.5" r="11.5" fill="#02E2AC"
class="bubbleGreen" stroke="#0E0333" />
    <circle cx="1327.5" cy="33.5" r="11.5" fill="#02E2AC"
class="bubbleGreen" stroke="#0E0333" />
    <circle cx="1664.5" cy="627.5" r="11.5" fill="#02E2AC"
class="bubbleGreen" stroke="#0E0333" />
    <circle cx="1419.5" cy="810.5" r="12.5" fill="#02E2AC"
class="bubbleGreen" stroke="#0E0333" />
</svg>