<svg width="1400" height="1578" viewBox="0 0 1400 1578" fill="none" xmlns="http://www.w3.org/2000/svg">
<path d="M78.9355 1367.24L78.9356 1577.22" stroke="#2FD8E2" stroke-width="3" stroke-miterlimit="10"/>
<path d="M78.9355 1029.9L78.9355 1239.88" stroke="#2FD8E2" stroke-width="3" stroke-miterlimit="10"/>
<path d="M15.2542 1303.56H-189.557" stroke="#2FD8E2" stroke-width="3" stroke-miterlimit="10"/>
<path d="M350.869 1303.56L144.337 1303.56" stroke="#2FD8E2" stroke-width="3" stroke-miterlimit="10"/>
<path d="M78.9294 1445.07V1486.53" stroke="#2FD8E2" stroke-width="3" stroke-miterlimit="10"/>
<path d="M78.9294 1119.29V1160.75" stroke="#2FD8E2" stroke-width="3" stroke-miterlimit="10"/>
<path d="M261.787 1302.91L220.323 1302.91" stroke="#2FD8E2" stroke-width="3" stroke-miterlimit="10"/>
<path d="M79.09 1366.23C113.79 1366.23 141.92 1338.1 141.92 1303.4C141.92 1268.7 113.79 1240.57 79.09 1240.57C44.3899 1240.57 16.26 1268.7 16.26 1303.4C16.26 1338.1 44.3899 1366.23 79.09 1366.23Z" stroke="#2FD8E2" stroke-width="3" stroke-miterlimit="10"/>
<path d="M79.0899 1517.32C197.235 1517.32 293.01 1421.54 293.01 1303.4C293.01 1185.25 197.235 1089.48 79.0899 1089.48C-39.0551 1089.48 -134.831 1185.25 -134.831 1303.4C-134.831 1421.54 -39.0551 1517.32 79.0899 1517.32Z" stroke="#2FD8E2" stroke-width="3" stroke-miterlimit="10"/>
<path d="M79.0899 1546.4C213.298 1546.4 322.095 1437.6 322.095 1303.4C322.095 1169.19 213.298 1060.39 79.0899 1060.39C-55.1181 1060.39 -163.915 1169.19 -163.915 1303.4C-163.915 1437.6 -55.1181 1546.4 79.0899 1546.4Z" stroke="#2FD8E2" stroke-width="3" stroke-miterlimit="10"/>
<path d="M79.0905 1575.49C229.362 1575.49 351.181 1453.67 351.181 1303.4C351.181 1153.12 229.362 1031.3 79.0905 1031.3C-71.1809 1031.3 -193 1153.12 -193 1303.4C-193 1453.67 -71.1809 1575.49 79.0905 1575.49Z" stroke="#2FD8E2" stroke-width="3" stroke-miterlimit="10"/>
<path d="M141.92 1303.4C186.918 1314.27 228.533 1336.09 263.068 1366.92C284.692 1386.4 303.099 1409.18 317.61 1434.41" stroke="#2FD8E2" stroke-width="3" stroke-miterlimit="10"/>
<path d="M142.616 1303.56C179.291 1292.21 213.607 1274.17 243.874 1250.34C272.5 1227.77 297.053 1200.35 316.448 1169.31" stroke="#2FD8E2" stroke-width="3" stroke-miterlimit="10"/>
<path d="M141.92 1303.4C213.274 1311.47 281.621 1336.67 341.145 1376.84" stroke="#2FD8E2" stroke-width="3" stroke-miterlimit="10"/>
<path d="M141.92 1303.4C180.653 1295.96 218.843 1285.94 256.237 1273.4C285.911 1263.45 315.036 1251.93 343.488 1238.88" stroke="#2FD8E2" stroke-width="3" stroke-miterlimit="10"/>
<path d="M78.9348 1238.16C89.3658 1193.3 110.521 1151.76 140.521 1117.23C159.481 1095.61 181.68 1077.17 206.297 1062.6" stroke="#2FD8E2" stroke-width="3" stroke-miterlimit="10"/>
<path d="M78.7051 1238.27C67.4005 1201.92 49.5482 1167.94 26.0277 1138C3.75518 1109.69 -23.2464 1085.44 -53.7832 1066.33" stroke="#2FD8E2" stroke-width="3" stroke-miterlimit="10"/>
<path d="M78.9348 1238.16C86.472 1167.35 110.68 1099.45 149.5 1040.23" stroke="#2FD8E2" stroke-width="3" stroke-miterlimit="10"/>
<path d="M78.9357 1238.16C71.3233 1199.77 61.1313 1161.93 48.4281 1124.9C38.3457 1095.51 26.6979 1066.67 13.5337 1038.51" stroke="#2FD8E2" stroke-width="3" stroke-miterlimit="10"/>
<path d="M15.254 1303.56C-29.7086 1292.7 -71.2913 1270.92 -105.799 1240.14C-127.406 1220.69 -145.799 1197.95 -160.299 1172.76" stroke="#2FD8E2" stroke-width="3" stroke-miterlimit="10"/>
<path d="M15.2546 1303.56C-55.9891 1325.8 -117.06 1373.44 -156.856 1437.81" stroke="#2FD8E2" stroke-width="3" stroke-miterlimit="10"/>
<path d="M15.2553 1303.56C-28.6852 1298.47 -71.6343 1286.78 -112.18 1268.86C-136.805 1257.96 -160.399 1244.8 -182.672 1229.55" stroke="#2FD8E2" stroke-width="3" stroke-miterlimit="10"/>
<path d="M15.3332 1302.74C-54.1977 1316.09 -121.872 1337.75 -186.232 1367.25" stroke="#2FD8E2" stroke-width="3" stroke-miterlimit="10"/>
<path d="M78.9352 1367.24C68.3635 1412.1 46.9225 1453.64 16.5172 1488.17C-2.69953 1509.79 -25.1988 1528.23 -50.1477 1542.79" stroke="#2FD8E2" stroke-width="3" stroke-miterlimit="10"/>
<path d="M78.9351 1367.24C101.095 1439.35 148.119 1501.03 211.46 1541.07" stroke="#2FD8E2" stroke-width="3" stroke-miterlimit="10"/>
<path d="M78.9344 1367.24C74.1075 1411.13 62.7407 1454.06 45.2078 1494.61C34.5333 1519.25 21.6267 1542.86 6.64795 1565.17" stroke="#2FD8E2" stroke-width="3" stroke-miterlimit="10"/>
<path d="M78.9351 1367.24C92.5988 1436.15 114.557 1503.18 144.337 1566.89" stroke="#2FD8E2" stroke-width="3" stroke-miterlimit="10"/>
<path d="M168.519 1303.39C170.385 1352.75 128.478 1392.82 79.0895 1392.82C67.3454 1392.82 55.7163 1390.51 44.8662 1386.02C34.0161 1381.52 24.1574 1374.94 15.8531 1366.63C7.54874 1358.33 0.96137 1348.47 -3.5329 1337.62C-8.02717 1326.77 -10.3403 1315.14 -10.3403 1303.39C-10.3403 1291.65 -8.02717 1280.02 -3.5329 1269.17C0.96137 1258.32 7.54874 1248.46 15.8531 1240.16C24.1574 1231.85 34.0161 1225.27 44.8662 1220.77C55.7163 1216.28 67.3454 1213.96 79.0895 1213.96C128.077 1214.24 166.698 1255.23 168.519 1303.39Z" fill="#2BCFD9" stroke="#2FD8E2" stroke-width="3" stroke-miterlimit="10"/>
<path d="M128.228 1277.49C111.371 1244.57 72.6235 1230.73 41.6825 1246.58C10.7414 1262.42 -0.676215 1301.95 16.1805 1334.87C33.0373 1367.79 71.7851 1381.63 102.726 1365.79C133.667 1349.94 145.085 1310.41 128.228 1277.49Z" fill="#2BCFD9" stroke="#5BF1CD" stroke-width="3" stroke-miterlimit="10"/>
<path d="M140.501 1273.33C123.644 1240.41 84.896 1226.57 53.9549 1242.42C23.0138 1258.26 11.5962 1297.79 28.453 1330.71C45.3098 1363.63 84.0575 1377.47 114.999 1361.62C145.94 1345.78 157.357 1306.25 140.501 1273.33Z" fill="#2BCFD9" stroke="#5BF1CD" stroke-width="3" stroke-miterlimit="10"/>
<path d="M128.507 1279.47C115.244 1253.57 84.7793 1242.67 60.4614 1255.13C36.1434 1267.58 27.1814 1298.67 40.4441 1324.57C53.7067 1350.47 84.1718 1361.37 108.49 1348.92C132.808 1336.46 141.77 1305.37 128.507 1279.47Z" fill="#2BCFD9" stroke="#5BF1CD" stroke-width="3" stroke-miterlimit="10"/>
<path d="M95.9398 1334.36L63.9079 1307.67L75.1367 1267.51L107.169 1294.2L95.9398 1334.36Z" stroke="white" stroke-width="3"/>
<path d="M63.9084 1307.67L89.2099 1312.73L107.169 1294.21" stroke="white" stroke-width="3"/>
<path d="M75.1365 1267.51L95.9396 1334.37" stroke="white" stroke-width="3"/>
<path d="M1360.45 1132.2C1647.88 1132.2 1880.89 878.976 1880.89 566.609C1880.89 254.242 1647.88 1.01807 1360.45 1.01807C1073.01 1.01807 840 254.242 840 566.609C840 878.976 1073.01 1132.2 1360.45 1132.2Z" fill="#2BCFD9" stroke="#2FD8E2" stroke-width="2" stroke-miterlimit="10"/>
<path d="M1528.11 48.9866L1178.29 50.4184L910.82 295.985L851.199 670.778L1027.43 999.752L1356.82 1128.26L1685.23 996.888L1859.15 666.841L1797.23 292.405L1528.11 48.9866Z" stroke="#2FD8E2" stroke-width="2" stroke-miterlimit="10"/>
<path d="M1479.36 196.111L1227.7 197.184L1035.66 373.663L992.839 643.214L1119.33 879.473L1356.16 972.187L1592.34 877.683L1717.51 640.35L1672.71 371.157L1479.36 196.111Z" stroke="#2FD8E2" stroke-width="2" stroke-miterlimit="10"/>
<path d="M1425.01 836.876L1602.88 643.93L1537.66 380.465L1295.23 309.588L1117.68 502.533L1182.57 766.356L1425.01 836.876Z" stroke="#2FD8E2" stroke-width="2" stroke-miterlimit="10"/>
<path d="M1356.82 1128.26L1356.16 972.187" stroke="#2FD8E2" stroke-width="2" stroke-miterlimit="10"/>
<path d="M1027.43 999.751L1119.33 879.473" stroke="#2FD8E2" stroke-width="2" stroke-miterlimit="10"/>
<path d="M851.198 670.777L992.839 643.213" stroke="#2FD8E2" stroke-width="2" stroke-miterlimit="10"/>
<path d="M1035.66 373.664L910.821 295.985" stroke="#2FD8E2" stroke-width="2" stroke-miterlimit="10"/>
<path d="M1178.29 50.4192L1227.7 197.186" stroke="#2FD8E2" stroke-width="2" stroke-miterlimit="10"/>
<path d="M1400.31 736.644L1360.12 563.029L1470.14 453.49L1510.65 617.082L1400.31 736.644Z" fill="#2BCFD9" stroke="#2FD8E2" stroke-width="2" stroke-miterlimit="10"/>
<path d="M1209.58 529.38L1360.12 563.029L1470.14 453.491L1319.93 409.818L1209.58 529.38Z" fill="#2BCFD9" stroke="#2FD8E2" stroke-width="2" stroke-miterlimit="10"/>
<path d="M1400.3 736.644L1250.1 692.972L1209.58 529.38L1360.12 563.029L1400.3 736.644Z" fill="#2BCFD9" stroke="#2FD8E2" stroke-width="2" stroke-miterlimit="10"/>
<path d="M1182.57 766.355L1209.25 737.36" stroke="#2FD8E2" stroke-width="2" stroke-linecap="round" stroke-linejoin="round"/>
<path d="M1209.26 737.359L1223.09 721.967" stroke="#2FD8E2" stroke-width="2" stroke-linecap="round" stroke-linejoin="round" stroke-dasharray="19.06 19.06"/>
<path d="M1223.09 721.966L1250.1 692.971" stroke="#2FD8E2" stroke-width="2" stroke-linecap="round" stroke-linejoin="round"/>
<path d="M1117.68 502.532L1154.24 513.271" stroke="#2FD8E2" stroke-width="2" stroke-linecap="round" stroke-linejoin="round"/>
<path d="M1154.24 513.271L1173.02 518.998" stroke="#2FD8E2" stroke-width="2" stroke-linecap="round" stroke-linejoin="round" stroke-dasharray="19.06 19.06"/>
<path d="M1173.02 518.998L1209.58 529.379" stroke="#2FD8E2" stroke-width="2" stroke-linecap="round" stroke-linejoin="round"/>
<path d="M1400.31 736.644L1410.19 776.737" stroke="#2FD8E2" stroke-width="2" stroke-linecap="round" stroke-linejoin="round"/>
<path d="M1295.23 309.588L1305.11 349.322" stroke="#2FD8E2" stroke-width="2" stroke-linecap="round" stroke-linejoin="round"/>
<path d="M1305.11 349.322L1310.05 370.084" stroke="#2FD8E2" stroke-width="2" stroke-linecap="round" stroke-linejoin="round" stroke-dasharray="19.06 19.06"/>
<path d="M1310.05 370.084L1319.93 409.819" stroke="#2FD8E2" stroke-width="2" stroke-linecap="round" stroke-linejoin="round"/>
<path d="M1672.71 371.157L1859.15 666.84L1592.34 877.683L1356.82 1128.26L1119.33 879.473L851.198 670.777L1035.66 373.663" stroke="#2FD8E2" stroke-width="2" stroke-miterlimit="10" stroke-linecap="round" stroke-linejoin="round"/>
<path d="M1045.2 375.811C1045.2 383.247 1039.68 389.13 1033.03 389.13C1026.38 389.13 1020.85 383.247 1020.85 375.811C1020.85 368.375 1026.38 362.492 1033.03 362.492C1039.68 362.492 1045.2 368.375 1045.2 375.811Z" fill="#2BCFD9" stroke="#2FD8E2" stroke-width="2"/>
<path d="M1246.48 710.155C1253.75 710.155 1259.65 703.744 1259.65 695.836C1259.65 687.928 1253.75 681.518 1246.48 681.518C1239.2 681.518 1233.3 687.928 1233.3 695.836C1233.3 703.744 1239.2 710.155 1246.48 710.155Z" fill="#2BCFD9" stroke="#2FD8E2" stroke-width="2" stroke-miterlimit="10"/>
<path d="M1125.91 879.474C1125.91 886.91 1120.38 892.793 1113.73 892.793C1107.08 892.793 1101.55 886.91 1101.55 879.474C1101.55 872.038 1107.08 866.155 1113.73 866.155C1120.38 866.155 1125.91 872.038 1125.91 879.474Z" fill="#2BCFD9" stroke="#2FD8E2" stroke-width="2"/>
<path d="M1378.22 972.546C1378.22 989.076 1365.91 1002.33 1350.9 1002.33C1335.88 1002.33 1323.57 989.076 1323.57 972.546C1323.57 956.016 1335.88 942.76 1350.9 942.76C1365.91 942.76 1378.22 956.016 1378.22 972.546Z" fill="#2BCFD9" stroke="#2FD8E2" stroke-width="2"/>
<path d="M1018.85 650.374C1018.85 666.904 1006.54 680.159 991.523 680.159C976.507 680.159 964.195 666.904 964.195 650.374C964.195 633.844 976.507 620.589 991.523 620.589C1006.54 620.589 1018.85 633.844 1018.85 650.374Z" fill="#2BCFD9" stroke="#2FD8E2" stroke-width="2"/>
<path d="M480.018 1329.33C480.018 1329.82 479.919 1330.28 479.722 1330.7C479.549 1331.12 479.303 1331.49 478.982 1331.81C478.661 1332.11 478.279 1332.35 477.835 1332.55C477.416 1332.72 476.972 1332.81 476.503 1332.81C476.01 1332.81 475.553 1332.72 475.134 1332.55C474.715 1332.35 474.345 1332.11 474.024 1331.81C473.703 1331.49 473.444 1331.12 473.247 1330.7C473.074 1330.28 472.988 1329.82 472.988 1329.33V1324.82C472.988 1323.88 473.296 1323.09 473.913 1322.45C474.554 1321.81 475.344 1321.49 476.281 1321.49H478.649V1324.37H476.873C476.207 1324.37 475.874 1324.74 475.874 1325.48V1325.93C475.973 1325.88 476.084 1325.85 476.207 1325.85C476.33 1325.83 476.454 1325.82 476.577 1325.82C477.613 1325.82 478.439 1326.15 479.056 1326.81C479.697 1327.46 480.018 1328.29 480.018 1329.33ZM471.656 1329.33C471.656 1329.82 471.557 1330.28 471.36 1330.7C471.187 1331.12 470.941 1331.49 470.62 1331.81C470.299 1332.11 469.917 1332.35 469.473 1332.55C469.054 1332.72 468.61 1332.81 468.141 1332.81C467.648 1332.81 467.191 1332.72 466.772 1332.55C466.353 1332.35 465.983 1332.11 465.662 1331.81C465.341 1331.49 465.082 1331.12 464.885 1330.7C464.712 1330.28 464.626 1329.82 464.626 1329.33V1324.82C464.626 1323.88 464.934 1323.09 465.551 1322.45C466.192 1321.81 466.982 1321.49 467.919 1321.49H470.287V1324.37H468.511C467.845 1324.37 467.512 1324.74 467.512 1325.48V1325.93C467.611 1325.88 467.722 1325.85 467.845 1325.85C467.968 1325.83 468.092 1325.82 468.215 1325.82C469.251 1325.82 470.077 1326.15 470.694 1326.81C471.335 1327.46 471.656 1328.29 471.656 1329.33ZM485.653 1322H504.301V1326.67H497.419V1347.9H492.535V1326.67H485.653V1322ZM513.933 1347.9H509.271V1322H513.933V1332.51H514.599C515.067 1331.4 515.758 1330.55 516.671 1329.96C517.583 1329.34 518.706 1329.03 520.038 1329.03C520.95 1329.03 521.789 1329.18 522.554 1329.48C523.318 1329.77 523.984 1330.22 524.552 1330.81C525.119 1331.4 525.563 1332.17 525.884 1333.1C526.204 1334.02 526.365 1335.1 526.365 1336.36V1347.9H521.703V1337.47C521.703 1336.16 521.382 1335.14 520.741 1334.4C520.124 1333.64 519.224 1333.25 518.04 1333.25C516.658 1333.25 515.622 1333.72 514.932 1334.66C514.266 1335.57 513.933 1336.8 513.933 1338.36V1347.9ZM543.729 1345.24C543.235 1346.4 542.545 1347.23 541.657 1347.72C540.769 1348.19 539.733 1348.42 538.549 1348.42C537.439 1348.42 536.39 1348.21 535.404 1347.79C534.442 1347.37 533.591 1346.76 532.851 1345.94C532.111 1345.13 531.519 1344.14 531.075 1342.98C530.655 1341.82 530.446 1340.5 530.446 1339.02V1338.43C530.446 1336.98 530.655 1335.67 531.075 1334.51C531.494 1333.35 532.061 1332.36 532.777 1331.55C533.492 1330.74 534.318 1330.12 535.256 1329.7C536.218 1329.26 537.241 1329.03 538.327 1329.03C539.634 1329.03 540.682 1329.26 541.472 1329.7C542.286 1330.14 542.927 1330.84 543.396 1331.77H544.062V1329.55H548.724V1342.35C548.724 1343.09 549.057 1343.46 549.723 1343.46H550.426V1347.9H547.244C546.405 1347.9 545.714 1347.66 545.172 1347.16C544.654 1346.67 544.395 1346.03 544.395 1345.24H543.729ZM539.585 1343.98C540.941 1343.98 542.027 1343.54 542.841 1342.65C543.655 1341.74 544.062 1340.5 544.062 1338.95V1338.51C544.062 1336.95 543.655 1335.73 542.841 1334.84C542.027 1333.93 540.941 1333.47 539.585 1333.47C538.228 1333.47 537.143 1333.93 536.329 1334.84C535.515 1335.73 535.108 1336.95 535.108 1338.51V1338.95C535.108 1340.5 535.515 1341.74 536.329 1342.65C537.143 1343.54 538.228 1343.98 539.585 1343.98ZM559.169 1347.9H554.507V1329.55H559.169V1332.29H559.835C560.254 1331.25 560.933 1330.45 561.87 1329.89C562.807 1329.32 563.905 1329.03 565.163 1329.03C566.051 1329.03 566.877 1329.18 567.642 1329.48C568.431 1329.75 569.122 1330.18 569.714 1330.77C570.306 1331.37 570.762 1332.12 571.083 1333.03C571.428 1333.94 571.601 1335.03 571.601 1336.29V1347.9H566.939V1337.47C566.939 1336.16 566.618 1335.14 565.977 1334.4C565.36 1333.64 564.46 1333.25 563.276 1333.25C561.895 1333.25 560.859 1333.72 560.168 1334.66C559.502 1335.57 559.169 1336.8 559.169 1338.36V1347.9ZM583.304 1336.29H584.192L589.076 1329.55H594.182V1329.77L588.262 1338.17V1338.84L594.774 1347.68V1347.9H589.446L584.192 1340.73H583.304V1347.9H578.642V1322H583.304V1336.29ZM634.905 1329.55H639.567V1352.42C639.567 1353.26 639.296 1353.95 638.753 1354.49C638.235 1355.03 637.557 1355.3 636.718 1355.3H625.803V1350.86H633.906C634.572 1350.86 634.905 1350.49 634.905 1349.75V1345.24H634.239C633.425 1347.36 631.674 1348.42 628.985 1348.42C628.072 1348.42 627.221 1348.27 626.432 1347.98C625.643 1347.68 624.952 1347.23 624.36 1346.61C623.768 1345.99 623.299 1345.23 622.954 1344.32C622.633 1343.38 622.473 1342.28 622.473 1341.02V1329.55H627.135V1340.06C627.135 1341.37 627.443 1342.39 628.06 1343.13C628.677 1343.85 629.602 1344.2 630.835 1344.2C632.241 1344.2 633.265 1343.76 633.906 1342.87C634.572 1341.96 634.905 1340.73 634.905 1339.17V1329.55ZM663.11 1338.95C663.11 1340.48 662.851 1341.84 662.333 1343.02C661.815 1344.18 661.112 1345.17 660.224 1345.98C659.336 1346.77 658.313 1347.37 657.153 1347.79C656.019 1348.21 654.822 1348.42 653.564 1348.42C652.306 1348.42 651.098 1348.21 649.938 1347.79C648.804 1347.37 647.792 1346.77 646.904 1345.98C646.016 1345.17 645.313 1344.18 644.795 1343.02C644.277 1341.84 644.018 1340.48 644.018 1338.95V1338.51C644.018 1337 644.277 1335.67 644.795 1334.51C645.313 1333.33 646.016 1332.33 646.904 1331.51C647.792 1330.7 648.804 1330.08 649.938 1329.66C651.098 1329.24 652.306 1329.03 653.564 1329.03C654.822 1329.03 656.019 1329.24 657.153 1329.66C658.313 1330.08 659.336 1330.7 660.224 1331.51C661.112 1332.33 661.815 1333.33 662.333 1334.51C662.851 1335.67 663.11 1337 663.11 1338.51V1338.95ZM653.564 1343.98C654.23 1343.98 654.859 1343.87 655.451 1343.65C656.043 1343.43 656.561 1343.11 657.005 1342.69C657.449 1342.27 657.795 1341.76 658.041 1341.17C658.313 1340.55 658.448 1339.86 658.448 1339.1V1338.36C658.448 1337.59 658.313 1336.92 658.041 1336.32C657.795 1335.71 657.449 1335.19 657.005 1334.77C656.561 1334.35 656.043 1334.03 655.451 1333.81C654.859 1333.59 654.23 1333.47 653.564 1333.47C652.898 1333.47 652.269 1333.59 651.677 1333.81C651.085 1334.03 650.567 1334.35 650.123 1334.77C649.679 1335.19 649.322 1335.71 649.05 1336.32C648.804 1336.92 648.68 1337.59 648.68 1338.36V1339.1C648.68 1339.86 648.804 1340.55 649.05 1341.17C649.322 1341.76 649.679 1342.27 650.123 1342.69C650.567 1343.11 651.085 1343.43 651.677 1343.65C652.269 1343.87 652.898 1343.98 653.564 1343.98ZM680.215 1329.55H684.877V1347.9H680.215V1345.24H679.549C678.735 1347.36 676.984 1348.42 674.295 1348.42C673.383 1348.42 672.532 1348.27 671.742 1347.98C670.953 1347.68 670.262 1347.23 669.67 1346.61C669.078 1345.99 668.61 1345.23 668.264 1344.32C667.944 1343.38 667.783 1342.28 667.783 1341.02V1329.55H672.445V1340.06C672.445 1341.37 672.754 1342.39 673.37 1343.13C673.987 1343.85 674.912 1344.2 676.145 1344.2C677.551 1344.2 678.575 1343.76 679.216 1342.87C679.882 1341.96 680.215 1340.73 680.215 1339.17V1329.55ZM712.946 1329.55H718.163V1325.78C718.163 1324.72 718.521 1323.83 719.236 1323.11C719.951 1322.37 720.839 1322 721.9 1322H729.374V1326.44H723.824C723.158 1326.44 722.825 1326.81 722.825 1327.55V1329.55H730.04V1333.99H722.825V1347.9H718.163V1333.99H712.946V1329.55ZM753.731 1338.95C753.731 1340.48 753.472 1341.84 752.954 1343.02C752.436 1344.18 751.733 1345.17 750.845 1345.98C749.957 1346.77 748.934 1347.37 747.774 1347.79C746.64 1348.21 745.443 1348.42 744.185 1348.42C742.927 1348.42 741.719 1348.21 740.559 1347.79C739.425 1347.37 738.413 1346.77 737.525 1345.98C736.637 1345.17 735.934 1344.18 735.416 1343.02C734.898 1341.84 734.639 1340.48 734.639 1338.95V1338.51C734.639 1337 734.898 1335.67 735.416 1334.51C735.934 1333.33 736.637 1332.33 737.525 1331.51C738.413 1330.7 739.425 1330.08 740.559 1329.66C741.719 1329.24 742.927 1329.03 744.185 1329.03C745.443 1329.03 746.64 1329.24 747.774 1329.66C748.934 1330.08 749.957 1330.7 750.845 1331.51C751.733 1332.33 752.436 1333.33 752.954 1334.51C753.472 1335.67 753.731 1337 753.731 1338.51V1338.95ZM744.185 1343.98C744.851 1343.98 745.48 1343.87 746.072 1343.65C746.664 1343.43 747.182 1343.11 747.626 1342.69C748.07 1342.27 748.416 1341.76 748.662 1341.17C748.934 1340.55 749.069 1339.86 749.069 1339.1V1338.36C749.069 1337.59 748.934 1336.92 748.662 1336.32C748.416 1335.71 748.07 1335.19 747.626 1334.77C747.182 1334.35 746.664 1334.03 746.072 1333.81C745.48 1333.59 744.851 1333.47 744.185 1333.47C743.519 1333.47 742.89 1333.59 742.298 1333.81C741.706 1334.03 741.188 1334.35 740.744 1334.77C740.3 1335.19 739.943 1335.71 739.671 1336.32C739.425 1336.92 739.301 1337.59 739.301 1338.36V1339.1C739.301 1339.86 739.425 1340.55 739.671 1341.17C739.943 1341.76 740.3 1342.27 740.744 1342.69C741.188 1343.11 741.706 1343.43 742.298 1343.65C742.89 1343.87 743.519 1343.98 744.185 1343.98ZM757.517 1329.55H765.287V1332.22H765.953C766.298 1331.21 766.878 1330.43 767.692 1329.89C768.53 1329.32 769.529 1329.03 770.689 1329.03C772.514 1329.03 773.982 1329.61 775.092 1330.77C776.202 1331.91 776.757 1333.65 776.757 1335.99V1336.8L771.947 1337.25V1336.73C771.947 1335.72 771.688 1334.92 771.17 1334.33C770.652 1333.71 769.875 1333.4 768.839 1333.4C767.803 1333.4 766.989 1333.76 766.397 1334.47C765.805 1335.19 765.509 1336.21 765.509 1337.54V1343.46H769.727V1347.9H757.073V1343.46H760.847V1333.99H757.517V1329.55ZM809.561 1334.73C809.561 1335.32 809.869 1335.76 810.486 1336.03C811.103 1336.27 812.225 1336.48 813.853 1336.66C815.728 1336.85 817.257 1337.42 818.441 1338.36C819.625 1339.27 820.217 1340.55 820.217 1342.21V1342.43C820.217 1344.25 819.551 1345.71 818.219 1346.79C816.887 1347.88 815.012 1348.42 812.595 1348.42C811.164 1348.42 809.943 1348.24 808.932 1347.87C807.921 1347.5 807.082 1347.04 806.416 1346.5C805.75 1345.93 805.232 1345.31 804.862 1344.65C804.517 1343.96 804.282 1343.29 804.159 1342.65L808.451 1341.24C808.648 1342.03 809.055 1342.72 809.672 1343.32C810.313 1343.91 811.288 1344.2 812.595 1344.2C813.754 1344.2 814.544 1344.03 814.963 1343.69C815.407 1343.32 815.629 1342.92 815.629 1342.5C815.629 1342.26 815.567 1342.03 815.444 1341.84C815.345 1341.61 815.148 1341.42 814.852 1341.24C814.556 1341.05 814.149 1340.89 813.631 1340.76C813.138 1340.64 812.509 1340.54 811.744 1340.47C809.672 1340.3 808.019 1339.76 806.786 1338.88C805.577 1337.96 804.973 1336.63 804.973 1334.88V1334.66C804.973 1333.75 805.17 1332.94 805.565 1332.25C805.96 1331.56 806.478 1330.98 807.119 1330.51C807.76 1330.02 808.5 1329.65 809.339 1329.4C810.178 1329.16 811.041 1329.03 811.929 1329.03C813.088 1329.03 814.087 1329.18 814.926 1329.48C815.789 1329.75 816.517 1330.12 817.109 1330.59C817.701 1331.03 818.182 1331.54 818.552 1332.11C818.922 1332.65 819.206 1333.18 819.403 1333.7L815.185 1335.4C814.963 1334.73 814.581 1334.21 814.038 1333.84C813.495 1333.45 812.792 1333.25 811.929 1333.25C811.14 1333.25 810.548 1333.4 810.153 1333.7C809.758 1333.97 809.561 1334.31 809.561 1334.73ZM838.802 1329.55H843.464V1347.9H838.802V1345.24H838.136C837.322 1347.36 835.571 1348.42 832.882 1348.42C831.97 1348.42 831.119 1348.27 830.329 1347.98C829.54 1347.68 828.849 1347.23 828.257 1346.61C827.665 1345.99 827.197 1345.23 826.851 1344.32C826.531 1343.38 826.37 1342.28 826.37 1341.02V1329.55H831.032V1340.06C831.032 1341.37 831.341 1342.39 831.957 1343.13C832.574 1343.85 833.499 1344.2 834.732 1344.2C836.138 1344.2 837.162 1343.76 837.803 1342.87C838.469 1341.96 838.802 1340.73 838.802 1339.17V1329.55ZM852.726 1355.3H848.064V1329.55H852.726V1332.22H853.392C853.885 1331.21 854.6 1330.43 855.538 1329.89C856.475 1329.32 857.671 1329.03 859.127 1329.03C860.212 1329.03 861.236 1329.24 862.198 1329.66C863.184 1330.08 864.035 1330.7 864.751 1331.51C865.491 1332.3 866.07 1333.28 866.49 1334.44C866.934 1335.6 867.156 1336.92 867.156 1338.4V1339.06C867.156 1340.57 866.946 1341.9 866.527 1343.06C866.107 1344.22 865.54 1345.2 864.825 1346.02C864.109 1346.81 863.258 1347.41 862.272 1347.83C861.31 1348.23 860.261 1348.42 859.127 1348.42C858.288 1348.42 857.56 1348.34 856.944 1348.16C856.327 1347.99 855.784 1347.76 855.316 1347.46C854.872 1347.16 854.489 1346.83 854.169 1346.46C853.873 1346.07 853.614 1345.66 853.392 1345.24H852.726V1355.3ZM857.61 1343.98C859.065 1343.98 860.237 1343.54 861.125 1342.65C862.037 1341.74 862.494 1340.5 862.494 1338.95V1338.51C862.494 1336.95 862.037 1335.73 861.125 1334.84C860.237 1333.93 859.065 1333.47 857.61 1333.47C856.154 1333.47 854.97 1333.94 854.058 1334.88C853.17 1335.79 852.726 1337 852.726 1338.51V1338.95C852.726 1340.46 853.17 1341.68 854.058 1342.61C854.97 1343.53 856.154 1343.98 857.61 1343.98ZM875.381 1355.3H870.719V1329.55H875.381V1332.22H876.047C876.54 1331.21 877.256 1330.43 878.193 1329.89C879.13 1329.32 880.327 1329.03 881.782 1329.03C882.867 1329.03 883.891 1329.24 884.853 1329.66C885.84 1330.08 886.691 1330.7 887.406 1331.51C888.146 1332.3 888.726 1333.28 889.145 1334.44C889.589 1335.6 889.811 1336.92 889.811 1338.4V1339.06C889.811 1340.57 889.601 1341.9 889.182 1343.06C888.763 1344.22 888.195 1345.2 887.48 1346.02C886.765 1346.81 885.914 1347.41 884.927 1347.83C883.965 1348.23 882.917 1348.42 881.782 1348.42C880.943 1348.42 880.216 1348.34 879.599 1348.16C878.982 1347.99 878.44 1347.76 877.971 1347.46C877.527 1347.16 877.145 1346.83 876.824 1346.46C876.528 1346.07 876.269 1345.66 876.047 1345.24H875.381V1355.3ZM880.265 1343.98C881.72 1343.98 882.892 1343.54 883.78 1342.65C884.693 1341.74 885.149 1340.5 885.149 1338.95V1338.51C885.149 1336.95 884.693 1335.73 883.78 1334.84C882.892 1333.93 881.72 1333.47 880.265 1333.47C878.81 1333.47 877.626 1333.94 876.713 1334.88C875.825 1335.79 875.381 1337 875.381 1338.51V1338.95C875.381 1340.46 875.825 1341.68 876.713 1342.61C877.626 1343.53 878.81 1343.98 880.265 1343.98ZM912.318 1338.95C912.318 1340.48 912.059 1341.84 911.541 1343.02C911.023 1344.18 910.32 1345.17 909.432 1345.98C908.544 1346.77 907.521 1347.37 906.361 1347.79C905.227 1348.21 904.03 1348.42 902.772 1348.42C901.514 1348.42 900.306 1348.21 899.146 1347.79C898.012 1347.37 897 1346.77 896.112 1345.98C895.224 1345.17 894.521 1344.18 894.003 1343.02C893.485 1341.84 893.226 1340.48 893.226 1338.95V1338.51C893.226 1337 893.485 1335.67 894.003 1334.51C894.521 1333.33 895.224 1332.33 896.112 1331.51C897 1330.7 898.012 1330.08 899.146 1329.66C900.306 1329.24 901.514 1329.03 902.772 1329.03C904.03 1329.03 905.227 1329.24 906.361 1329.66C907.521 1330.08 908.544 1330.7 909.432 1331.51C910.32 1332.33 911.023 1333.33 911.541 1334.51C912.059 1335.67 912.318 1337 912.318 1338.51V1338.95ZM902.772 1343.98C903.438 1343.98 904.067 1343.87 904.659 1343.65C905.251 1343.43 905.769 1343.11 906.213 1342.69C906.657 1342.27 907.003 1341.76 907.249 1341.17C907.521 1340.55 907.656 1339.86 907.656 1339.1V1338.36C907.656 1337.59 907.521 1336.92 907.249 1336.32C907.003 1335.71 906.657 1335.19 906.213 1334.77C905.769 1334.35 905.251 1334.03 904.659 1333.81C904.067 1333.59 903.438 1333.47 902.772 1333.47C902.106 1333.47 901.477 1333.59 900.885 1333.81C900.293 1334.03 899.775 1334.35 899.331 1334.77C898.887 1335.19 898.53 1335.71 898.258 1336.32C898.012 1336.92 897.888 1337.59 897.888 1338.36V1339.1C897.888 1339.86 898.012 1340.55 898.258 1341.17C898.53 1341.76 898.887 1342.27 899.331 1342.69C899.775 1343.11 900.293 1343.43 900.885 1343.65C901.477 1343.87 902.106 1343.98 902.772 1343.98ZM916.103 1329.55H923.873V1332.22H924.539C924.885 1331.21 925.464 1330.43 926.278 1329.89C927.117 1329.32 928.116 1329.03 929.275 1329.03C931.101 1329.03 932.568 1329.61 933.678 1330.77C934.788 1331.91 935.343 1333.65 935.343 1335.99V1336.8L930.533 1337.25V1336.73C930.533 1335.72 930.274 1334.92 929.756 1334.33C929.238 1333.71 928.461 1333.4 927.425 1333.4C926.389 1333.4 925.575 1333.76 924.983 1334.47C924.391 1335.19 924.095 1336.21 924.095 1337.54V1343.46H928.313V1347.9H915.659V1343.46H919.433V1333.99H916.103V1329.55ZM939.129 1329.55H944.568V1322H949.23V1329.55H955.853V1333.99H949.23V1342.35C949.23 1343.09 949.563 1343.46 950.229 1343.46H955.187V1347.9H947.417C946.578 1347.9 945.887 1347.63 945.345 1347.09C944.827 1346.55 944.568 1345.86 944.568 1345.02V1333.99H939.129V1329.55ZM962.635 1343.46H968.851V1333.99H963.079V1329.55H973.513V1343.46H978.841V1347.9H962.635V1343.46ZM974.66 1324.11C974.66 1324.61 974.561 1325.08 974.364 1325.52C974.191 1325.94 973.945 1326.31 973.624 1326.63C973.303 1326.93 972.921 1327.17 972.477 1327.37C972.058 1327.54 971.614 1327.63 971.145 1327.63C970.652 1327.63 970.195 1327.54 969.776 1327.37C969.357 1327.17 968.987 1326.93 968.666 1326.63C968.345 1326.31 968.086 1325.94 967.889 1325.52C967.716 1325.08 967.63 1324.61 967.63 1324.11C967.63 1323.62 967.716 1323.16 967.889 1322.74C968.086 1322.3 968.345 1321.93 968.666 1321.63C968.987 1321.31 969.357 1321.07 969.776 1320.89C970.195 1320.7 970.652 1320.6 971.145 1320.6C971.614 1320.6 972.058 1320.7 972.477 1320.89C972.921 1321.07 973.303 1321.31 973.624 1321.63C973.945 1321.93 974.191 1322.3 974.364 1322.74C974.561 1323.16 974.66 1323.62 974.66 1324.11ZM989.619 1347.9H984.957V1329.55H989.619V1332.29H990.285C990.705 1331.25 991.383 1330.45 992.32 1329.89C993.258 1329.32 994.355 1329.03 995.613 1329.03C996.501 1329.03 997.328 1329.18 998.092 1329.48C998.882 1329.75 999.572 1330.18 1000.16 1330.77C1000.76 1331.37 1001.21 1332.12 1001.53 1333.03C1001.88 1333.94 1002.05 1335.03 1002.05 1336.29V1347.9H997.389V1337.47C997.389 1336.16 997.069 1335.14 996.427 1334.4C995.811 1333.64 994.91 1333.25 993.726 1333.25C992.345 1333.25 991.309 1333.72 990.618 1334.66C989.952 1335.57 989.619 1336.8 989.619 1338.36V1347.9ZM1020.71 1345.24H1020.04C1019.85 1345.66 1019.6 1346.07 1019.3 1346.46C1019.03 1346.83 1018.66 1347.16 1018.19 1347.46C1017.75 1347.76 1017.21 1347.99 1016.57 1348.16C1015.95 1348.34 1015.2 1348.42 1014.31 1348.42C1013.17 1348.42 1012.11 1348.23 1011.13 1347.83C1010.17 1347.41 1009.31 1346.81 1008.57 1346.02C1007.86 1345.2 1007.29 1344.22 1006.87 1343.06C1006.48 1341.9 1006.28 1340.57 1006.28 1339.06V1338.4C1006.28 1336.92 1006.49 1335.6 1006.91 1334.44C1007.35 1333.28 1007.95 1332.3 1008.69 1331.51C1009.45 1330.7 1010.33 1330.08 1011.31 1329.66C1012.32 1329.24 1013.38 1329.03 1014.49 1329.03C1015.97 1329.03 1017.15 1329.32 1018.01 1329.89C1018.87 1330.43 1019.55 1331.21 1020.04 1332.22H1020.71V1329.55H1025.37V1352.42C1025.37 1353.26 1025.1 1353.95 1024.56 1354.49C1024.04 1355.03 1023.36 1355.3 1022.52 1355.3H1010.17V1350.86H1019.71C1020.38 1350.86 1020.71 1350.49 1020.71 1349.75V1345.24ZM1015.83 1343.98C1017.28 1343.98 1018.45 1343.53 1019.34 1342.61C1020.25 1341.68 1020.71 1340.46 1020.71 1338.95V1338.51C1020.71 1337 1020.25 1335.79 1019.34 1334.88C1018.45 1333.94 1017.28 1333.47 1015.83 1333.47C1014.37 1333.47 1013.19 1333.93 1012.27 1334.84C1011.39 1335.73 1010.94 1336.95 1010.94 1338.51V1338.95C1010.94 1340.5 1011.39 1341.74 1012.27 1342.65C1013.19 1343.54 1014.37 1343.98 1015.83 1343.98ZM467.586 1415.3H462.924V1389.55H467.586V1392.22H468.252C468.745 1391.21 469.461 1390.43 470.398 1389.89C471.335 1389.32 472.532 1389.03 473.987 1389.03C475.072 1389.03 476.096 1389.24 477.058 1389.66C478.045 1390.08 478.896 1390.7 479.611 1391.51C480.351 1392.3 480.931 1393.28 481.35 1394.44C481.794 1395.6 482.016 1396.92 482.016 1398.4V1399.06C482.016 1400.57 481.806 1401.9 481.387 1403.06C480.968 1404.22 480.4 1405.2 479.685 1406.02C478.97 1406.81 478.119 1407.41 477.132 1407.83C476.17 1408.23 475.122 1408.42 473.987 1408.42C473.148 1408.42 472.421 1408.34 471.804 1408.16C471.187 1407.99 470.645 1407.76 470.176 1407.46C469.732 1407.16 469.35 1406.83 469.029 1406.46C468.733 1406.07 468.474 1405.66 468.252 1405.24H467.586V1415.3ZM472.47 1403.98C473.925 1403.98 475.097 1403.54 475.985 1402.65C476.898 1401.74 477.354 1400.5 477.354 1398.95V1398.51C477.354 1396.95 476.898 1395.73 475.985 1394.84C475.097 1393.93 473.925 1393.47 472.47 1393.47C471.015 1393.47 469.831 1393.94 468.918 1394.88C468.03 1395.79 467.586 1397 467.586 1398.51V1398.95C467.586 1400.46 468.03 1401.68 468.918 1402.61C469.831 1403.53 471.015 1403.98 472.47 1403.98ZM498.973 1389.55H503.635V1407.9H498.973V1405.24H498.307C497.493 1407.36 495.742 1408.42 493.053 1408.42C492.141 1408.42 491.29 1408.27 490.5 1407.98C489.711 1407.68 489.02 1407.23 488.428 1406.61C487.836 1405.99 487.368 1405.23 487.022 1404.32C486.702 1403.38 486.541 1402.28 486.541 1401.02V1389.55H491.203V1400.06C491.203 1401.37 491.512 1402.39 492.128 1403.13C492.745 1403.85 493.67 1404.2 494.903 1404.2C496.309 1404.2 497.333 1403.76 497.974 1402.87C498.64 1401.96 498.973 1400.73 498.973 1399.17V1389.55ZM513.082 1407.9H508.42V1382H513.082V1392.22H513.748C514.241 1391.21 514.956 1390.43 515.894 1389.89C516.831 1389.32 518.027 1389.03 519.483 1389.03C520.568 1389.03 521.592 1389.24 522.554 1389.66C523.54 1390.08 524.391 1390.7 525.107 1391.51C525.847 1392.3 526.426 1393.28 526.846 1394.44C527.29 1395.6 527.512 1396.92 527.512 1398.4V1399.06C527.512 1400.57 527.302 1401.9 526.883 1403.06C526.463 1404.22 525.896 1405.2 525.181 1406.02C524.465 1406.81 523.614 1407.41 522.628 1407.83C521.666 1408.23 520.617 1408.42 519.483 1408.42C518.644 1408.42 517.916 1408.34 517.3 1408.16C516.683 1407.99 516.14 1407.76 515.672 1407.46C515.228 1407.16 514.845 1406.83 514.525 1406.46C514.229 1406.07 513.97 1405.66 513.748 1405.24H513.082V1407.9ZM517.966 1403.98C519.421 1403.98 520.593 1403.54 521.481 1402.65C522.393 1401.74 522.85 1400.5 522.85 1398.95V1398.51C522.85 1396.95 522.393 1395.73 521.481 1394.84C520.593 1393.93 519.421 1393.47 517.966 1393.47C516.51 1393.47 515.326 1393.94 514.414 1394.88C513.526 1395.79 513.082 1397 513.082 1398.51V1398.95C513.082 1400.46 513.526 1401.68 514.414 1402.61C515.326 1403.53 516.51 1403.98 517.966 1403.98ZM531.741 1403.46H538.179V1386.44H531.963V1382H542.841V1403.46H548.835V1407.9H531.741V1403.46ZM554.84 1403.46H561.056V1393.99H555.284V1389.55H565.718V1403.46H571.046V1407.9H554.84V1403.46ZM566.865 1384.11C566.865 1384.61 566.766 1385.08 566.569 1385.52C566.396 1385.94 566.15 1386.31 565.829 1386.63C565.508 1386.93 565.126 1387.17 564.682 1387.37C564.263 1387.54 563.819 1387.63 563.35 1387.63C562.857 1387.63 562.4 1387.54 561.981 1387.37C561.562 1387.17 561.192 1386.93 560.871 1386.63C560.55 1386.31 560.291 1385.94 560.094 1385.52C559.921 1385.08 559.835 1384.61 559.835 1384.11C559.835 1383.62 559.921 1383.16 560.094 1382.74C560.291 1382.3 560.55 1381.93 560.871 1381.63C561.192 1381.31 561.562 1381.07 561.981 1380.89C562.4 1380.7 562.857 1380.6 563.35 1380.6C563.819 1380.6 564.263 1380.7 564.682 1380.89C565.126 1381.07 565.508 1381.31 565.829 1381.63C566.15 1381.93 566.396 1382.3 566.569 1382.74C566.766 1383.16 566.865 1383.62 566.865 1384.11ZM595.07 1401.17C594.651 1403.34 593.652 1405.09 592.073 1406.42C590.519 1407.76 588.435 1408.42 585.82 1408.42C584.464 1408.42 583.193 1408.21 582.009 1407.79C580.85 1407.37 579.839 1406.77 578.975 1405.98C578.112 1405.19 577.434 1404.22 576.94 1403.06C576.447 1401.9 576.2 1400.58 576.2 1399.1V1398.65C576.2 1397.17 576.447 1395.84 576.94 1394.66C577.434 1393.47 578.112 1392.46 578.975 1391.62C579.863 1390.79 580.887 1390.14 582.046 1389.7C583.23 1389.26 584.488 1389.03 585.82 1389.03C588.386 1389.03 590.458 1389.7 592.036 1391.03C593.64 1392.36 594.651 1394.12 595.07 1396.29L590.482 1397.47C590.334 1396.39 589.866 1395.45 589.076 1394.66C588.287 1393.87 587.177 1393.47 585.746 1393.47C585.08 1393.47 584.451 1393.6 583.859 1393.84C583.267 1394.09 582.749 1394.45 582.305 1394.92C581.861 1395.36 581.504 1395.92 581.232 1396.58C580.986 1397.22 580.862 1397.95 580.862 1398.77V1398.99C580.862 1399.8 580.986 1400.53 581.232 1401.17C581.504 1401.79 581.861 1402.31 582.305 1402.72C582.749 1403.14 583.267 1403.46 583.859 1403.69C584.451 1403.88 585.08 1403.98 585.746 1403.98C587.177 1403.98 588.262 1403.63 589.002 1402.91C589.767 1402.19 590.26 1401.23 590.482 1400.02L595.07 1401.17ZM635.571 1405.24H634.905C634.708 1405.66 634.461 1406.07 634.165 1406.46C633.894 1406.83 633.524 1407.16 633.055 1407.46C632.611 1407.76 632.068 1407.99 631.427 1408.16C630.81 1408.34 630.058 1408.42 629.17 1408.42C628.035 1408.42 626.975 1408.23 625.988 1407.83C625.026 1407.41 624.175 1406.81 623.435 1406.02C622.72 1405.2 622.152 1404.22 621.733 1403.06C621.338 1401.9 621.141 1400.57 621.141 1399.06V1398.4C621.141 1396.92 621.351 1395.6 621.77 1394.44C622.214 1393.28 622.806 1392.3 623.546 1391.51C624.311 1390.7 625.186 1390.08 626.173 1389.66C627.184 1389.24 628.245 1389.03 629.355 1389.03C630.835 1389.03 632.007 1389.32 632.87 1389.89C633.733 1390.43 634.412 1391.21 634.905 1392.22H635.571V1389.55H640.233V1412.42C640.233 1413.26 639.962 1413.95 639.419 1414.49C638.901 1415.03 638.223 1415.3 637.384 1415.3H625.026V1410.86H634.572C635.238 1410.86 635.571 1410.49 635.571 1409.75V1405.24ZM630.687 1403.98C632.142 1403.98 633.314 1403.53 634.202 1402.61C635.115 1401.68 635.571 1400.46 635.571 1398.95V1398.51C635.571 1397 635.115 1395.79 634.202 1394.88C633.314 1393.94 632.142 1393.47 630.687 1393.47C629.232 1393.47 628.048 1393.93 627.135 1394.84C626.247 1395.73 625.803 1396.95 625.803 1398.51V1398.95C625.803 1400.5 626.247 1401.74 627.135 1402.65C628.048 1403.54 629.232 1403.98 630.687 1403.98ZM663.11 1398.95C663.11 1400.48 662.851 1401.84 662.333 1403.02C661.815 1404.18 661.112 1405.17 660.224 1405.98C659.336 1406.77 658.313 1407.37 657.153 1407.79C656.019 1408.21 654.822 1408.42 653.564 1408.42C652.306 1408.42 651.098 1408.21 649.938 1407.79C648.804 1407.37 647.792 1406.77 646.904 1405.98C646.016 1405.17 645.313 1404.18 644.795 1403.02C644.277 1401.84 644.018 1400.48 644.018 1398.95V1398.51C644.018 1397 644.277 1395.67 644.795 1394.51C645.313 1393.33 646.016 1392.33 646.904 1391.51C647.792 1390.7 648.804 1390.08 649.938 1389.66C651.098 1389.24 652.306 1389.03 653.564 1389.03C654.822 1389.03 656.019 1389.24 657.153 1389.66C658.313 1390.08 659.336 1390.7 660.224 1391.51C661.112 1392.33 661.815 1393.33 662.333 1394.51C662.851 1395.67 663.11 1397 663.11 1398.51V1398.95ZM653.564 1403.98C654.23 1403.98 654.859 1403.87 655.451 1403.65C656.043 1403.43 656.561 1403.11 657.005 1402.69C657.449 1402.27 657.795 1401.76 658.041 1401.17C658.313 1400.55 658.448 1399.86 658.448 1399.1V1398.36C658.448 1397.59 658.313 1396.92 658.041 1396.32C657.795 1395.71 657.449 1395.19 657.005 1394.77C656.561 1394.35 656.043 1394.03 655.451 1393.81C654.859 1393.59 654.23 1393.47 653.564 1393.47C652.898 1393.47 652.269 1393.59 651.677 1393.81C651.085 1394.03 650.567 1394.35 650.123 1394.77C649.679 1395.19 649.322 1395.71 649.05 1396.32C648.804 1396.92 648.68 1397.59 648.68 1398.36V1399.1C648.68 1399.86 648.804 1400.55 649.05 1401.17C649.322 1401.76 649.679 1402.27 650.123 1402.69C650.567 1403.11 651.085 1403.43 651.677 1403.65C652.269 1403.87 652.898 1403.98 653.564 1403.98ZM685.765 1398.95C685.765 1400.48 685.506 1401.84 684.988 1403.02C684.47 1404.18 683.767 1405.17 682.879 1405.98C681.991 1406.77 680.968 1407.37 679.808 1407.79C678.674 1408.21 677.477 1408.42 676.219 1408.42C674.961 1408.42 673.753 1408.21 672.593 1407.79C671.459 1407.37 670.447 1406.77 669.559 1405.98C668.671 1405.17 667.968 1404.18 667.45 1403.02C666.932 1401.84 666.673 1400.48 666.673 1398.95V1398.51C666.673 1397 666.932 1395.67 667.45 1394.51C667.968 1393.33 668.671 1392.33 669.559 1391.51C670.447 1390.7 671.459 1390.08 672.593 1389.66C673.753 1389.24 674.961 1389.03 676.219 1389.03C677.477 1389.03 678.674 1389.24 679.808 1389.66C680.968 1390.08 681.991 1390.7 682.879 1391.51C683.767 1392.33 684.47 1393.33 684.988 1394.51C685.506 1395.67 685.765 1397 685.765 1398.51V1398.95ZM676.219 1403.98C676.885 1403.98 677.514 1403.87 678.106 1403.65C678.698 1403.43 679.216 1403.11 679.66 1402.69C680.104 1402.27 680.45 1401.76 680.696 1401.17C680.968 1400.55 681.103 1399.86 681.103 1399.1V1398.36C681.103 1397.59 680.968 1396.92 680.696 1396.32C680.45 1395.71 680.104 1395.19 679.66 1394.77C679.216 1394.35 678.698 1394.03 678.106 1393.81C677.514 1393.59 676.885 1393.47 676.219 1393.47C675.553 1393.47 674.924 1393.59 674.332 1393.81C673.74 1394.03 673.222 1394.35 672.778 1394.77C672.334 1395.19 671.977 1395.71 671.705 1396.32C671.459 1396.92 671.335 1397.59 671.335 1398.36V1399.1C671.335 1399.86 671.459 1400.55 671.705 1401.17C671.977 1401.76 672.334 1402.27 672.778 1402.69C673.222 1403.11 673.74 1403.43 674.332 1403.65C674.924 1403.87 675.553 1403.98 676.219 1403.98ZM703.611 1405.24H702.945C702.747 1405.66 702.501 1406.07 702.205 1406.46C701.933 1406.83 701.563 1407.16 701.095 1407.46C700.651 1407.76 700.108 1407.99 699.467 1408.16C698.85 1408.34 698.098 1408.42 697.21 1408.42C696.075 1408.42 695.014 1408.23 694.028 1407.83C693.066 1407.41 692.215 1406.81 691.475 1406.02C690.759 1405.2 690.192 1404.22 689.773 1403.06C689.378 1401.9 689.181 1400.57 689.181 1399.06V1398.4C689.181 1396.92 689.39 1395.6 689.81 1394.44C690.254 1393.28 690.846 1392.3 691.586 1391.51C692.35 1390.7 693.226 1390.08 694.213 1389.66C695.224 1389.24 696.285 1389.03 697.395 1389.03C698.875 1389.03 700.046 1389.32 700.91 1389.89C701.773 1390.43 702.451 1391.21 702.945 1392.22H703.611V1382H708.273V1407.9H703.611V1405.24ZM698.727 1403.98C700.182 1403.98 701.354 1403.53 702.242 1402.61C703.154 1401.68 703.611 1400.46 703.611 1398.95V1398.51C703.611 1397 703.154 1395.79 702.242 1394.88C701.354 1393.94 700.182 1393.47 698.727 1393.47C697.271 1393.47 696.087 1393.93 695.175 1394.84C694.287 1395.73 693.843 1396.95 693.843 1398.51V1398.95C693.843 1400.5 694.287 1401.74 695.175 1402.65C696.087 1403.54 697.271 1403.98 698.727 1403.98ZM718.94 1394.73C718.94 1395.32 719.248 1395.76 719.865 1396.03C720.482 1396.27 721.604 1396.48 723.232 1396.66C725.107 1396.85 726.636 1397.42 727.82 1398.36C729.004 1399.27 729.596 1400.55 729.596 1402.21V1402.43C729.596 1404.25 728.93 1405.71 727.598 1406.79C726.266 1407.88 724.391 1408.42 721.974 1408.42C720.543 1408.42 719.322 1408.24 718.311 1407.87C717.3 1407.5 716.461 1407.04 715.795 1406.5C715.129 1405.93 714.611 1405.31 714.241 1404.65C713.896 1403.96 713.661 1403.29 713.538 1402.65L717.83 1401.24C718.027 1402.03 718.434 1402.72 719.051 1403.32C719.692 1403.91 720.667 1404.2 721.974 1404.2C723.133 1404.2 723.923 1404.03 724.342 1403.69C724.786 1403.32 725.008 1402.92 725.008 1402.5C725.008 1402.26 724.946 1402.03 724.823 1401.84C724.724 1401.61 724.527 1401.42 724.231 1401.24C723.935 1401.05 723.528 1400.89 723.01 1400.76C722.517 1400.64 721.888 1400.54 721.123 1400.47C719.051 1400.3 717.398 1399.76 716.165 1398.88C714.956 1397.96 714.352 1396.63 714.352 1394.88V1394.66C714.352 1393.75 714.549 1392.94 714.944 1392.25C715.339 1391.56 715.857 1390.98 716.498 1390.51C717.139 1390.02 717.879 1389.65 718.718 1389.4C719.557 1389.16 720.42 1389.03 721.308 1389.03C722.467 1389.03 723.466 1389.18 724.305 1389.48C725.168 1389.75 725.896 1390.12 726.488 1390.59C727.08 1391.03 727.561 1391.54 727.931 1392.11C728.301 1392.65 728.585 1393.18 728.782 1393.7L724.564 1395.4C724.342 1394.73 723.96 1394.21 723.417 1393.84C722.874 1393.45 722.171 1393.25 721.308 1393.25C720.519 1393.25 719.927 1393.4 719.532 1393.7C719.137 1393.97 718.94 1394.31 718.94 1394.73ZM746.627 1382V1400.06H741.743V1382H746.627ZM747.7 1404.91C747.7 1405.4 747.602 1405.87 747.404 1406.31C747.232 1406.73 746.985 1407.1 746.664 1407.42C746.344 1407.72 745.961 1407.95 745.517 1408.13C745.098 1408.32 744.654 1408.42 744.185 1408.42C743.692 1408.42 743.236 1408.32 742.816 1408.13C742.397 1407.95 742.027 1407.72 741.706 1407.42C741.386 1407.1 741.127 1406.73 740.929 1406.31C740.757 1405.87 740.67 1405.4 740.67 1404.91C740.67 1404.41 740.757 1403.96 740.929 1403.54C741.127 1403.09 741.386 1402.72 741.706 1402.43C742.027 1402.11 742.397 1401.86 742.816 1401.69C743.236 1401.49 743.692 1401.39 744.185 1401.39C744.654 1401.39 745.098 1401.49 745.517 1401.69C745.961 1401.86 746.344 1402.11 746.664 1402.43C746.985 1402.72 747.232 1403.09 747.404 1403.54C747.602 1403.96 747.7 1404.41 747.7 1404.91ZM759.145 1384.96C759.145 1384.5 759.231 1384.05 759.404 1383.63C759.601 1383.19 759.86 1382.82 760.181 1382.52C760.501 1382.2 760.871 1381.96 761.291 1381.78C761.71 1381.59 762.166 1381.49 762.66 1381.49C763.128 1381.49 763.572 1381.59 763.992 1381.78C764.436 1381.96 764.818 1382.2 765.139 1382.52C765.459 1382.82 765.706 1383.19 765.879 1383.63C766.076 1384.05 766.175 1384.5 766.175 1384.96V1389.48C766.175 1390.42 765.854 1391.21 765.213 1391.85C764.596 1392.49 763.819 1392.81 762.882 1392.81H760.514V1389.92H762.29C762.956 1389.92 763.289 1389.55 763.289 1388.81V1388.37C763.091 1388.44 762.882 1388.48 762.66 1388.48C762.166 1388.48 761.71 1388.39 761.291 1388.22C760.871 1388.02 760.501 1387.76 760.181 1387.44C759.86 1387.12 759.601 1386.75 759.404 1386.33C759.231 1385.91 759.145 1385.46 759.145 1384.96ZM767.507 1384.96C767.507 1384.5 767.593 1384.05 767.766 1383.63C767.963 1383.19 768.222 1382.82 768.543 1382.52C768.863 1382.2 769.233 1381.96 769.653 1381.78C770.072 1381.59 770.528 1381.49 771.022 1381.49C771.49 1381.49 771.934 1381.59 772.354 1381.78C772.798 1381.96 773.18 1382.2 773.501 1382.52C773.821 1382.82 774.068 1383.19 774.241 1383.63C774.438 1384.05 774.537 1384.5 774.537 1384.96V1389.48C774.537 1390.42 774.216 1391.21 773.575 1391.85C772.958 1392.49 772.181 1392.81 771.244 1392.81H768.876V1389.92H770.652C771.318 1389.92 771.651 1389.55 771.651 1388.81V1388.37C771.453 1388.44 771.244 1388.48 771.022 1388.48C770.528 1388.48 770.072 1388.39 769.653 1388.22C769.233 1388.02 768.863 1387.76 768.543 1387.44C768.222 1387.12 767.963 1386.75 767.766 1386.33C767.593 1385.91 767.507 1385.46 767.507 1384.96Z" fill="#FFE171"/>
<path d="M422.934 1315.52L433.068 1324.78C433.428 1325.11 433.866 1325.32 434.332 1325.39C434.798 1325.45 435.272 1325.37 435.699 1325.16C436.125 1324.94 436.485 1324.6 436.738 1324.17C436.991 1323.74 437.125 1323.24 437.125 1322.73V1269.46C437.125 1268.75 436.865 1268.07 436.402 1267.57C435.939 1267.06 435.311 1266.78 434.656 1266.78H380.344C379.689 1266.78 379.061 1267.06 378.598 1267.57C378.135 1268.07 377.875 1268.75 377.875 1269.46V1312.39C377.875 1313.1 378.135 1313.78 378.598 1314.29C379.061 1314.79 379.689 1315.07 380.344 1315.07H421.797L422.934 1315.52Z" stroke="#FFE171" stroke-width="2.44" stroke-linecap="round" stroke-linejoin="round"/>
<path d="M417.375 1285.56H397.625" stroke="white" stroke-width="2.4375" stroke-linecap="round"/>
<path d="M417.375 1296.29H397.625" stroke="white" stroke-width="2.4375" stroke-linecap="round"/>
</svg>
