<svg width="388" height="373" viewBox="0 0 388 373" fill="none" xmlns="http://www.w3.org/2000/svg">
<mask id="mask0_230_3888" style="mask-type:alpha" maskUnits="userSpaceOnUse" x="0" y="0" width="388" height="373">
<path d="M172 371.5C222.928 371.5 280.402 306.214 280.402 294.295C529.571 170.691 273.778 0 222.851 0C171.923 0 0 352.581 0 364.5C0 376.419 121.072 371.5 172 371.5Z" fill="#6F3FF5"/>
</mask>
<g mask="url(#mask0_230_3888)">
<path d="M186.71 158.935C189.467 156.603 194.666 152.49 201.62 152.348C203.573 152.308 206.473 152.287 208.921 154.139C213.193 157.369 212.986 163.956 212.838 168.696C212.684 173.64 211.678 178.521 209.865 183.123C206.458 191.642 197.744 213.434 183.225 226.42C180.925 228.477 176.657 231.943 176.366 236.955C176.199 239.85 177.463 241.462 176.874 245.836C176.395 249.401 175.252 250.588 176.064 251.735C177.175 253.304 179.825 251.817 185.739 252.384C190.639 252.853 191.187 254.101 193.474 253.391C196.532 252.442 196.989 249.766 200.267 246.301C203.389 243.001 206.4 241.808 209.463 240.234C224.623 232.441 244.45 213.546 248.308 216.494C253.003 220.082 236.934 258.236 206.652 291.711C168.437 333.956 118.566 355.999 89.6549 349.16C87.6137 348.678 66.1544 343.602 66.1844 337.045C66.1903 335.755 67.0248 335.046 68.4803 332.899C72.5879 326.84 73.3741 321.524 74.459 317.811C76.7288 310.046 88.9364 279.327 112.335 259.032C116.043 255.816 120.558 252.343 127.21 245.668C135.465 237.385 140.111 231.097 142.523 227.631C144.389 224.95 146.245 222.05 148.669 217.828C158.532 200.644 157.763 196.445 164.883 184.114C164.882 184.114 172.459 170.991 186.71 158.935Z" fill="#3DC5CC" stroke="#5BF1CD" stroke-miterlimit="10"/>
<path d="M254.9 111.416C285.059 152.551 300.918 174.05 305.713 174.141C305.932 174.148 306.149 174.099 306.344 173.999C309.51 172.284 307.503 163.158 304.458 149.305C302.908 142.246 299.012 125.255 287.23 107.206C281.912 99.0602 279.645 97.8373 273.807 87.9987C270.395 82.2471 265.707 77.157 263.302 70.9188C262.466 68.7525 261.691 66.292 259.449 65.3043C256.074 63.812 251.065 66.423 248.285 69.5645C247.791 70.1248 247.346 70.7262 246.954 71.3621C242.81 78.0525 245.064 87.5525 246.202 92.3679C247.829 99.2246 250.784 105.696 254.9 111.416Z" fill="#CAFFF0" stroke="#5BF1CD" stroke-miterlimit="10"/>
<path d="M261.21 68.2249C258.227 67.776 254.688 70.698 253.676 73.8807C253.331 74.9656 253.062 76.4789 256.987 84.7242C261.132 93.431 262.369 94.6575 263.909 95.5193C264.945 96.0991 267.912 97.9763 270.87 96.8149C271.725 96.4656 272.493 95.9315 273.117 95.2509C273.742 94.5704 274.209 93.7601 274.484 92.8782C275.385 89.8195 273.126 87.4433 269.816 81.9927C263.951 72.3369 264.298 68.6893 261.21 68.2249Z" stroke="#5BF1CD" stroke-miterlimit="10"/>
<path opacity="0.27" d="M254.901 111.416C285.059 152.551 300.919 174.05 305.713 174.141C300.298 155.22 291.119 132.683 284.473 121.397C281.361 116.11 277.128 110.621 270.824 98.7998C267.617 92.7811 263.102 87.5042 260.054 81.4057C259.269 79.8362 257.532 76.2288 253.676 73.8807C251.42 72.5043 249.799 72.3927 248.149 71.8438C247.741 71.7092 247.342 71.5482 246.954 71.362C242.811 78.0524 245.064 87.5524 246.202 92.3678C247.829 99.2246 250.785 105.696 254.901 111.416Z" fill="#2FD2D9"/>
<path d="M264.178 270.25C270.225 271.813 279.914 263.775 284.577 257.671C288.28 252.818 289.425 248.369 291.15 242.474C293.286 235.179 295.959 228.06 298.536 220.899C299.985 216.893 301.406 212.877 302.688 208.811C314.505 171.381 316.139 173.281 315.305 168.413C313.423 157.444 306.748 157.244 283.996 128.787C282.696 127.163 277.467 120.122 266.993 106.033C248.751 81.4859 239.627 69.2092 238.015 66.1667C237.108 64.4479 233.576 59.3425 226.504 49.1358C223.203 44.367 221.337 41.7613 217.79 40.6978C211.63 38.8426 205.691 43.2283 205.124 43.647C202.591 45.5721 200.672 48.1915 199.601 51.1867C196.43 59.5216 200.204 68.348 201.797 71.8019C211.305 92.4126 241.668 135.7 244.333 139.555C280.367 191.716 247.234 265.875 264.178 270.25Z" fill="#CAFFF0" stroke="#5BF1CD" stroke-miterlimit="10"/>
<path d="M238.018 66.1651C236.726 68.2413 235.133 70.1138 233.29 71.721C231.371 73.3915 229.986 74.5978 228.211 74.9992C223.322 76.1049 218.34 70.4542 215.93 67.7199C212.783 64.1501 207.869 58.5765 209.548 52.992C210.64 49.3601 214.167 46.8968 215.446 46.0039C217.507 44.5647 218.667 43.7549 220.201 43.7747C223.459 43.8169 225.475 47.5479 230.841 55.7066C232.399 58.0755 234.837 61.7137 238.018 66.1651Z" stroke="#5BF1CD" stroke-miterlimit="10"/>
<path opacity="0.27" d="M264.178 270.25C270.225 271.813 279.915 263.775 284.577 257.671C288.28 252.818 289.425 248.369 291.151 242.473C293.286 235.179 295.959 228.059 298.537 220.899C298.021 219.765 297.594 218.593 297.259 217.394C293.749 204.889 301.331 194.46 303.969 187.53C313.125 163.507 278.301 141.371 230.826 70.5557C219.329 53.4181 214.651 44.6882 205.124 43.6468C202.592 45.5719 200.673 48.1912 199.601 51.1865C196.431 59.5214 200.204 68.3478 201.797 71.8016C211.305 92.4123 241.668 135.699 244.333 139.554C280.368 191.716 247.235 265.875 264.178 270.25Z" fill="#2FD2D9"/>
<path d="M240.554 292.979C243.47 295.36 248.471 295.202 253.462 293.526C253.468 293.522 253.473 293.529 253.48 293.524C253.842 293.401 254.212 293.274 254.579 293.129C258.287 291.741 261.686 289.636 264.581 286.936C271.213 280.53 268.887 274.762 276.373 250.671C279.903 239.32 281.662 233.644 283.855 229.137C289.012 218.516 294.871 211.522 292.195 204.352C292.016 203.864 291.904 203.687 288.994 199.447C283.207 191.04 280.309 186.831 278.862 184.821C273.521 177.42 275.254 179.535 256.512 153.057C250.311 144.303 246.172 138.497 240.121 132.001C239.002 130.796 237.881 129.642 236.174 127.665C231.308 122.018 229.453 118.705 224.567 111.584C215.583 98.4927 212.85 96.6186 209.804 96.328C207.755 96.131 206.134 96.6993 204.216 97.3738C198.495 99.3858 194.352 103.812 192.791 106.817C190.215 111.771 192.466 117.134 206.217 143.12C214.436 158.651 218.539 166.415 221.427 171.303C225.444 178.106 228.151 182.136 231.498 189.166C232.248 190.74 233.383 193.216 235.318 196.503C238.367 201.697 240.652 204.249 242.003 206.246C245.667 211.67 245.849 218.122 245.298 226.311C243.892 247.086 238.617 266.172 237.54 278.861C236.96 285.604 237.561 290.544 240.554 292.979Z" fill="#CAFFF0" stroke="#5BF1CD" stroke-miterlimit="10"/>
<path d="M229.176 118.759C229.985 120.22 232.347 124.485 230.776 128.293C228.879 132.89 222.552 133.67 220.429 133.563C219.501 133.504 218.583 133.335 217.695 133.059C216.673 132.727 215.713 132.228 214.854 131.583C212.379 129.728 210.149 127.567 208.217 125.151C205.328 121.519 203.147 117.376 201.788 112.938C201.237 111.167 201.206 109.276 201.699 107.488C202.192 105.7 203.188 104.092 204.569 102.854C207.784 99.9932 210.296 99.8413 211.204 99.8486C217.188 99.8985 221.99 107.446 228.372 117.474C228.515 117.7 228.831 118.136 229.176 118.759Z" stroke="#5BF1CD" stroke-miterlimit="10"/>
<path opacity="0.27" d="M253.461 293.526C253.468 293.522 253.472 293.528 253.479 293.524C253.866 293.458 254.238 293.324 254.578 293.129C258.918 290.676 263.134 277.621 270.965 253.409C280.609 223.572 278.203 214.303 276.718 210.114C275.323 206.184 274.589 206.29 265.471 191.6C257.048 178.036 252.183 169.105 249.999 165.357C238.59 145.827 203.303 101.906 192.79 106.817C190.214 111.771 192.466 117.134 206.217 143.12C214.435 158.651 218.539 166.415 221.426 171.303C225.443 178.106 228.15 182.136 231.498 189.166C232.247 190.741 233.383 193.216 235.318 196.503C238.367 201.698 240.652 204.249 242.003 206.246C245.666 211.67 245.848 218.122 245.298 226.311C243.892 247.086 238.617 266.172 237.54 278.861C243.491 288.554 249.022 294.192 253.461 293.526Z" fill="#2FD2D9"/>
<path d="M33.1536 459.417L33.2783 459.489C33.2795 459.485 33.2818 459.482 33.285 459.48C48.122 466.75 78.8923 462.142 110.276 446.664C118.587 442.587 126.571 437.875 134.158 432.57C133.64 419.926 133.235 409.848 132.988 403.466C132.932 401.258 133.438 399.071 134.459 397.112C135.855 394.502 138.084 392.433 140.791 391.234C146.714 386.052 152.639 380.868 158.564 375.682C170.515 365.223 182.463 354.767 194.409 344.313L244.528 307.353L246.864 305.633L250.482 301.928C250.604 301.228 250.762 300.521 250.933 299.796C251.617 296.915 252.585 293.798 253.071 289.984C253.072 289.956 253.076 289.927 253.084 289.9C253.093 289.872 253.098 289.844 253.098 289.815C253.887 283.569 254.581 276.328 254.942 268.289C255.84 248.332 256.288 238.346 251.741 228.223C250.185 224.754 241.1 216.468 223.031 199.836C210.711 188.491 204.835 183.667 196.212 179.863C192.979 178.434 191.042 177.892 188.315 176.687C186.636 175.946 185.36 175.255 184.478 174.799C173.075 168.837 170.6 165.342 165.915 165.676C161.896 165.96 158.321 168.915 156.707 172.066C154.42 176.528 156.136 181.261 157.506 185.044C160.982 194.643 168.606 200.426 173.485 203.988C173.772 204.197 174.053 204.404 174.32 204.596C182.162 210.315 183.557 208.82 189.002 213.957C195.245 219.841 193.401 221.781 200.313 229.023C206.912 235.934 212.42 238.173 211.936 242.42C211.681 244.656 210.046 245.034 209.023 248.795C208.096 252.187 208.968 253.56 208.913 257.128C208.889 258.515 208.71 260.747 203.679 272.865C201.496 278.112 200.409 280.73 200.124 281.133C194.797 288.52 185.099 286.126 171.688 289.956C160.165 293.245 161.451 296.687 146.753 303.178C133.429 309.07 128.359 308.013 113.987 312.061C106.403 314.203 88.8934 319.136 72.3618 331.392C63.9648 337.621 41.2448 354.455 40.8634 376.813C40.7495 383.75 42.9422 381.739 46.0815 401.403C46.6125 404.738 47.029 407.784 47.3262 410.61C48.4004 420.792 47.9586 428.07 46.0918 435.404C44.9007 440.056 44.1372 440.833 43.4211 443.547C42.4678 447.179 38.3939 451.811 34.1149 458.002C33.7975 458.465 33.4733 458.936 33.1536 459.417Z" fill="#CAFFF0" stroke="#5BF1CD" stroke-miterlimit="10"/>
<path opacity="0.27" d="M110.275 446.664C118.587 442.587 126.571 437.875 134.157 432.57C133.639 419.925 133.234 409.848 132.988 403.466C132.931 401.258 133.437 399.071 134.459 397.112C135.855 394.502 138.083 392.433 140.79 391.234C146.714 386.052 152.638 380.868 158.564 375.682C170.514 365.223 182.463 354.766 194.409 344.313L244.527 307.353C247.224 305.369 249.417 302.781 250.933 299.796C252.461 296.787 253.198 293.439 253.072 290.067C253.07 290.04 253.072 290.011 253.07 289.984C253.071 289.955 253.076 289.927 253.084 289.899C253.092 289.872 253.097 289.843 253.098 289.815L246.459 298.4L243.691 251.278C243.248 243.731 240.063 236.606 234.734 231.243L202.239 198.554L156.706 172.066L156.121 171.725C153.972 176.242 155.82 180.949 157.506 185.044C161.451 194.646 168.817 200.539 173.485 203.988C173.772 204.197 174.052 204.404 174.319 204.595C182.162 210.315 183.556 208.82 189.002 213.956C195.244 219.841 193.4 221.781 200.312 229.022C206.911 235.934 212.419 238.173 211.936 242.42C211.68 244.656 210.046 245.033 209.023 248.795C208.095 252.186 208.967 253.56 208.912 257.128C208.889 258.515 208.709 260.747 203.679 272.865C201.495 278.112 200.409 280.73 200.123 281.133C194.797 288.52 185.098 286.126 171.688 289.956C160.165 293.245 161.45 296.687 146.752 303.178C133.429 309.07 128.359 308.012 113.987 312.061C106.403 314.203 88.8929 319.136 72.3613 331.392C63.9643 337.621 41.2443 354.455 40.8628 376.813C40.7489 383.75 42.9417 381.739 46.0809 401.403C46.612 404.737 47.0285 407.783 47.3257 410.61C48.3999 420.792 47.9582 428.069 46.0913 435.404C45.3498 438.292 38.9962 449.375 34.1144 458.002C33.8325 458.503 33.5529 458.997 33.2845 459.48C48.1215 466.749 78.8918 462.141 110.275 446.664Z" fill="#CAFFF0"/>
<path d="M185.314 176.489L173.738 184.298C172.963 184.818 172.067 185.13 171.136 185.204C170.205 185.278 169.271 185.113 168.423 184.723C168.003 184.531 167.577 184.319 167.147 184.085C160.994 180.725 158.286 174.958 157.281 172.402C158.124 170.709 159.645 168.421 162.266 167.207C167.207 164.917 172.831 167.933 176.958 170.146C180.056 171.813 182.875 173.953 185.314 176.489V176.489Z" stroke="#5BF1CD" stroke-miterlimit="10"/>
<path d="M201.365 290.967C199.749 288.246 199.093 285.062 199.5 281.923" stroke="#5BF1CD" stroke-miterlimit="10"/>
<path d="M181.602 275.381C183.158 269.906 185.583 264.715 188.784 260.009C190.515 257.471 192.465 255.091 194.611 252.893" stroke="#5BF1CD" stroke-miterlimit="10"/>
<path d="M159.664 250.844L176.064 251.735" stroke="#5BF1CD" stroke-miterlimit="10"/>
</g>
</svg>
