<svg width="254" height="78" viewBox="0 0 254 78" fill="none" xmlns="http://www.w3.org/2000/svg">
<path d="M10.8085 0.5H243.192C248.887 0.5 253.5 5.09512 253.5 10.7586V67.2415C253.5 72.9052 248.887 77.5 243.192 77.5H10.8085C5.11308 77.5 0.5 72.9052 0.5 67.2415V10.7586C0.5 5.09512 5.11309 0.5 10.8085 0.5Z" fill="#fb5c37" stroke="#fb3a25"/>
<path d="M67.1018 50.7242C67.1018 49.0781 67.4828 47.6015 68.2448 46.2943C69.0233 44.9871 70.0686 43.9704 71.3819 43.2442C72.7118 42.5019 74.1625 42.1307 75.7354 42.1307C77.5347 42.1307 79.132 42.5745 80.5259 43.4621C81.9364 44.3336 82.9579 45.5762 83.5904 47.19H80.2585C79.8207 46.3024 79.2126 45.6407 78.4347 45.205C77.6562 44.7693 76.7569 44.5514 75.7354 44.5514C74.6168 44.5514 73.6197 44.8016 72.7441 45.3019C71.8686 45.8021 71.1792 46.5202 70.6767 47.4562C70.1907 48.3922 69.9471 49.4816 69.9471 50.7242C69.9471 51.9668 70.1907 53.0561 70.6767 53.9921C71.1792 54.9281 71.8686 55.6543 72.7441 56.1707C73.6197 56.671 74.6168 56.9211 75.7354 56.9211C76.7569 56.9211 77.6562 56.7033 78.4347 56.2676C79.2126 55.8319 79.8207 55.1702 80.2585 54.2826H83.5904C82.9579 55.8964 81.9364 57.139 80.5259 58.0104C79.132 58.8819 77.5347 59.3176 75.7354 59.3176C74.1466 59.3176 72.6953 58.9545 71.3819 58.2283C70.0686 57.4859 69.0233 56.4612 68.2448 55.1541C67.4828 53.8469 67.1018 52.3702 67.1018 50.7242ZM97.0982 59.3419C95.5254 59.3419 94.0747 58.9787 92.7448 58.2525C91.4315 57.5102 90.3862 56.4854 89.6077 55.1782C88.8457 53.8549 88.4647 52.3702 88.4647 50.7242C88.4647 49.0781 88.8457 47.6015 89.6077 46.2943C90.3862 44.9871 91.4315 43.9704 92.7448 43.2442C94.0747 42.5019 95.5254 42.1307 97.0982 42.1307C98.6869 42.1307 100.138 42.5019 101.451 43.2442C102.781 43.9704 103.826 44.9871 104.588 46.2943C105.35 47.6015 105.731 49.0781 105.731 50.7242C105.731 52.3702 105.35 53.8549 104.588 55.1782C103.826 56.4854 102.781 57.5102 101.451 58.2525C100.138 58.9787 98.6869 59.3419 97.0982 59.3419ZM97.0982 56.9454C98.2168 56.9454 99.2139 56.6952 100.089 56.1949C100.965 55.6785 101.646 54.9523 102.132 54.0163C102.635 53.0642 102.886 51.9668 102.886 50.7242C102.886 49.4816 102.635 48.3922 102.132 47.4562C101.646 46.5202 100.965 45.8021 100.089 45.3019C99.2139 44.8016 98.2168 44.5514 97.0982 44.5514C95.9796 44.5514 94.9826 44.8016 94.107 45.3019C93.2314 45.8021 92.5421 46.5202 92.0396 47.4562C91.5536 48.3922 91.31 49.4816 91.31 50.7242C91.31 51.9668 91.5536 53.0642 92.0396 54.0163C92.5421 54.9523 93.2314 55.6785 94.107 56.1949C94.9826 56.6952 95.9796 56.9454 97.0982 56.9454ZM128.815 42.3486V59.1724H126.042V47.6499L120.886 59.1724H118.965L113.785 47.6499V59.1724H111.013V42.3486H114.004L119.938 55.5414L125.848 42.3486H128.815ZM152.813 42.3486V59.1724H150.041V47.6499L144.886 59.1724H142.964L137.784 47.6499V59.1724H135.012V42.3486H138.003L143.937 55.5414L149.847 42.3486H152.813ZM161.759 42.3486V53.0722C161.759 54.3471 162.091 55.3074 162.756 55.9529C163.437 56.5984 164.377 56.9211 165.577 56.9211C166.793 56.9211 167.733 56.5984 168.398 55.9529C169.079 55.3074 169.419 54.3471 169.419 53.0722V42.3486H172.192V53.0239C172.192 54.3956 171.892 55.5575 171.292 56.5096C170.692 57.4618 169.889 58.1719 168.884 58.6399C167.879 59.1079 166.769 59.3419 165.552 59.3419C164.337 59.3419 163.226 59.1079 162.221 58.6399C161.232 58.1719 160.446 57.4618 159.862 56.5096C159.278 55.5575 158.986 54.3956 158.986 53.0239V42.3486H161.759ZM192.241 59.1724H189.469L181.128 46.609V59.1724H178.355V42.3244H181.128L189.469 54.8636V42.3244H192.241V59.1724ZM201.208 42.3486V59.1724H198.436V42.3486H201.208ZM218.321 42.3486V44.5999H213.822V59.1724H211.05V44.5999H206.526V42.3486H218.321ZM236.207 42.3486L230.613 53.0722V59.1724H227.84V53.0722L222.223 42.3486H225.311L229.227 50.6031L233.142 42.3486H236.207Z" fill="#FFFFFF"/>
<path d="M73.1087 26.4823C73.5196 26.5468 73.8926 26.7136 74.2272 26.9826C74.5734 27.2515 74.8433 27.5851 75.0381 27.9831C75.2432 28.3812 75.3464 28.8061 75.3464 29.258C75.3464 29.8283 75.2005 30.3446 74.9086 30.8073C74.6168 31.2591 74.1894 31.6195 73.6277 31.8885C73.0763 32.1467 72.4224 32.2758 71.6659 32.2758H67.4504V21.0277H71.5035C72.271 21.0277 72.9249 21.1568 73.4652 21.415C74.0056 21.6624 74.411 22.0013 74.6815 22.4317C74.9514 22.862 75.0869 23.3461 75.0869 23.8841C75.0869 24.5511 74.9031 25.1052 74.5356 25.5463C74.179 25.9766 73.7034 26.2886 73.1087 26.4823ZM68.9256 25.8852H71.4064C72.0982 25.8852 72.633 25.7238 73.0116 25.4011C73.3895 25.0783 73.5788 24.6318 73.5788 24.0616C73.5788 23.4914 73.3895 23.0449 73.0116 22.7222C72.633 22.3994 72.0872 22.238 71.374 22.238H68.9256V25.8852ZM71.5364 31.0655C72.271 31.0655 72.8443 30.8933 73.2546 30.549C73.6655 30.2048 73.8707 29.726 73.8707 29.1128C73.8707 28.4888 73.6545 27.9993 73.2222 27.6443C72.7899 27.2784 72.2117 27.0955 71.4876 27.0955H68.9256V31.0655H71.5364ZM78.9177 21.0277V28.1445C78.9177 29.145 79.1607 29.8874 79.6473 30.3715C80.1443 30.8557 80.8306 31.0978 81.7062 31.0978C82.5708 31.0978 83.2461 30.8557 83.7327 30.3715C84.2297 29.8874 84.4788 29.145 84.4788 28.1445V21.0277H85.954V28.1283C85.954 29.0643 85.7647 29.8551 85.3867 30.5006C85.0082 31.1354 84.4947 31.6088 83.8463 31.9208C83.2088 32.2328 82.4896 32.3888 81.6897 32.3888C80.8899 32.3888 80.1657 32.2328 79.5173 31.9208C78.8798 31.6088 78.3718 31.1354 77.9933 30.5006C77.6257 29.8551 77.4419 29.0643 77.4419 28.1283V21.0277H78.9177ZM89.9716 21.0277V32.2758H88.4958V21.0277H89.9716ZM94.5289 31.0816H98.4849V32.2758H93.0538V21.0277H94.5289V31.0816ZM107.574 21.0277V22.2219H104.494V32.2758H103.018V22.2219H99.9215V21.0277H107.574ZM119.533 26.4823C119.944 26.5468 120.317 26.7136 120.652 26.9826C120.997 27.2515 121.268 27.5851 121.463 27.9831C121.668 28.3812 121.77 28.8061 121.77 29.258C121.77 29.8283 121.624 30.3446 121.333 30.8073C121.041 31.2591 120.614 31.6195 120.052 31.8885C119.501 32.1467 118.847 32.2758 118.09 32.2758H113.875V21.0277H117.928C118.696 21.0277 119.349 21.1568 119.89 21.415C120.43 21.6624 120.836 22.0013 121.105 22.4317C121.376 22.862 121.511 23.3461 121.511 23.8841C121.511 24.5511 121.327 25.1052 120.96 25.5463C120.603 25.9766 120.127 26.2886 119.533 26.4823ZM115.35 25.8852H117.831C118.523 25.8852 119.058 25.7238 119.436 25.4011C119.814 25.0783 120.003 24.6318 120.003 24.0616C120.003 23.4914 119.814 23.0449 119.436 22.7222C119.058 22.3994 118.512 22.238 117.799 22.238H115.35V25.8852ZM117.96 31.0655C118.696 31.0655 119.268 30.8933 119.679 30.549C120.09 30.2048 120.295 29.726 120.295 29.1128C120.295 28.4888 120.079 27.9993 119.647 27.6443C119.215 27.2784 118.636 27.0955 117.912 27.0955H115.35V31.0655H117.96ZM131.648 21.0277L127.968 28.0315V32.2758H126.493V28.0315L122.796 21.0277H124.434L127.222 26.7243L130.011 21.0277H131.648ZM143.997 21.0277V22.2219H140.916V32.2758H139.441V22.2219H136.344V21.0277H143.997ZM154.438 21.0277V32.2758H152.962V27.1763H147.206V32.2758H145.731V21.0277H147.206V25.9659H152.962V21.0277H154.438ZM158.35 22.2219V25.982H162.468V27.1923H158.35V31.0655H162.954V32.2758H156.875V21.0115H162.954V22.2219H158.35ZM177.584 24.2875C177.271 23.6313 176.816 23.1256 176.222 22.7706C175.628 22.4048 174.936 22.2219 174.147 22.2219C173.357 22.2219 172.644 22.4048 172.007 22.7706C171.38 23.1256 170.883 23.642 170.515 24.3198C170.159 24.9868 169.98 25.7615 169.98 26.6437C169.98 27.5259 170.159 28.3005 170.515 28.9675C170.883 29.6346 171.38 30.151 172.007 30.5168C172.644 30.8718 173.357 31.0493 174.147 31.0493C175.249 31.0493 176.157 30.7212 176.871 30.0649C177.584 29.4086 178 28.521 178.119 27.4022H173.611V26.208H179.692V27.3376C179.605 28.2628 179.313 29.1128 178.816 29.8874C178.319 30.6513 177.665 31.2591 176.854 31.711C176.043 32.1521 175.141 32.3726 174.147 32.3726C173.099 32.3726 172.142 32.1306 171.277 31.6464C170.413 31.1515 169.726 30.4683 169.218 29.5969C168.721 28.7255 168.472 27.7411 168.472 26.6437C168.472 25.5463 168.721 24.5619 169.218 23.6904C169.726 22.8083 170.413 22.125 171.277 21.6409C172.142 21.146 173.099 20.8986 174.147 20.8986C175.347 20.8986 176.405 21.1944 177.324 21.7862C178.254 22.3779 178.93 23.2117 179.351 24.2875H177.584ZM183.847 21.0277V32.2758H182.372V21.0277H183.847ZM194.047 21.0277V22.2219H190.966V32.2758H189.491V22.2219H186.394V21.0277H194.047ZM195.392 26.6437C195.392 25.5463 195.641 24.5619 196.138 23.6904C196.635 22.8083 197.311 22.1197 198.165 21.6248C199.029 21.1299 199.986 20.8824 201.034 20.8824C202.266 20.8824 203.342 21.1783 204.261 21.77C205.179 22.3618 205.849 23.2009 206.271 24.2875H204.504C204.19 23.6098 203.736 23.088 203.142 22.7222C202.558 22.3563 201.856 22.1735 201.034 22.1735C200.245 22.1735 199.537 22.3563 198.911 22.7222C198.284 23.088 197.792 23.6098 197.435 24.2875C197.078 24.9546 196.9 25.74 196.9 26.6437C196.9 27.5366 197.078 28.322 197.435 28.9998C197.792 29.6668 198.284 30.1833 198.911 30.549C199.537 30.9148 200.245 31.0978 201.034 31.0978C201.856 31.0978 202.558 30.9203 203.142 30.5652C203.736 30.1994 204.19 29.6776 204.504 28.9998H206.271C205.849 30.0757 205.179 30.9095 204.261 31.5012C203.342 32.0822 202.266 32.3726 201.034 32.3726C199.986 32.3726 199.029 32.1306 198.165 31.6464C197.311 31.1515 196.635 30.4683 196.138 29.5969C195.641 28.7255 195.392 27.7411 195.392 26.6437ZM213.672 32.3888C212.624 32.3888 211.667 32.1467 210.802 31.6626C209.938 31.1677 209.251 30.4845 208.743 29.613C208.246 28.7308 207.998 27.7411 207.998 26.6437C207.998 25.5463 208.246 24.5619 208.743 23.6904C209.251 22.8083 209.938 22.125 210.802 21.6409C211.667 21.146 212.624 20.8986 213.672 20.8986C214.731 20.8986 215.693 21.146 216.558 21.6409C217.423 22.125 218.104 22.8028 218.601 23.6743C219.098 24.5458 219.347 25.5355 219.347 26.6437C219.347 27.7518 219.098 28.7416 218.601 29.613C218.104 30.4845 217.423 31.1677 216.558 31.6626C215.693 32.1467 214.731 32.3888 213.672 32.3888ZM213.672 31.1139C214.461 31.1139 215.169 30.931 215.796 30.5652C216.434 30.1994 216.931 29.6776 217.288 28.9998C217.655 28.322 217.839 27.5366 217.839 26.6437C217.839 25.74 217.655 24.9546 217.288 24.2875C216.931 23.6098 216.439 23.088 215.812 22.7222C215.185 22.3563 214.472 22.1735 213.672 22.1735C212.872 22.1735 212.159 22.3563 211.532 22.7222C210.905 23.088 210.408 23.6098 210.04 24.2875C209.684 24.9546 209.505 25.74 209.505 26.6437C209.505 27.5366 209.684 28.322 210.04 28.9998C210.408 29.6776 210.905 30.1994 211.532 30.5652C212.17 30.931 212.883 31.1139 213.672 31.1139ZM223.336 21.0277V32.2758H221.861V21.0277H223.336ZM235.303 32.2758H233.827L227.894 23.3193V32.2758H226.418V21.0115H227.894L233.827 29.952V21.0115H235.303V32.2758Z" fill="#FFFFFF"/>
<path fill-rule="evenodd" clip-rule="evenodd" d="M49.199 48.5187C50.1332 49.2607 50.9331 49.8996 51.426 50.3006C51.5962 50.4394 51.7331 50.6136 51.8268 50.8104C51.9206 51.0075 51.9688 51.2225 51.968 51.4401L51.9529 58.1391C51.9089 58.3969 51.7733 58.631 51.5705 58.7998C51.3679 58.9687 51.1109 59.0613 50.8453 59.0615H36.2815C25.3718 59.0615 16.2804 50.2749 16.3664 39.5369C16.4225 32.6262 20.1561 26.579 25.7363 23.1956V16.6379C25.7363 16.3853 25.789 16.1354 25.8911 15.9037C25.9933 15.672 26.1426 15.4634 26.33 15.2907C26.5173 15.1182 26.7387 14.9853 26.9803 14.9005C27.2221 14.8156 27.4788 14.7804 27.7348 14.7972C28.7308 14.8608 29.4839 15.7185 29.4839 16.7007V21.4324C30.9972 20.9055 32.5705 20.5639 34.1685 20.4153V16.6379C34.1685 16.3853 34.2212 16.1352 34.3234 15.9037C34.4255 15.672 34.5749 15.4633 34.7623 15.2907C34.9497 15.1182 35.1712 14.9853 35.4128 14.9005C35.6544 14.8156 35.9113 14.7805 36.1673 14.7972C37.1633 14.8608 37.9164 15.7185 37.9164 16.7007V20.4135C42.6588 20.8549 46.9121 22.9523 50.0693 26.1128C50.6605 26.7044 51.2127 27.3326 51.7226 27.9936C52.1142 28.501 52.0261 28.8924 51.4873 29.2459L49.3051 30.9899C51.0416 33.5708 51.9684 36.5982 51.9695 39.6945C51.976 42.8456 51.0091 45.9228 49.199 48.5187ZM46.3176 46.2386C47.5935 44.2879 48.2727 42.0162 48.2727 39.6945C48.2727 37.3199 47.5421 35.0655 46.3359 33.2009L41.7909 36.5848C42.314 37.5222 42.5923 38.5728 42.6008 39.6422C42.6093 40.7117 42.3478 41.7665 41.8397 42.7117L41.9854 42.8265C42.6233 43.3278 44.4212 44.7416 46.3176 46.2386ZM48.2219 55.3724L48.2418 52.6645L38.9978 45.4561C38.0816 45.913 37.0687 46.1507 36.0417 46.1499C32.4195 46.1499 29.483 43.2597 29.483 39.6942C29.483 36.1285 32.4195 33.2384 36.0417 33.2384C37.053 33.2373 38.0507 33.4674 38.9562 33.9108L46.6063 27.9873C43.7623 25.3839 40.232 24.0157 36.0417 24.0157C33.7796 24.0141 31.5434 24.4886 29.483 25.4073V31.3938C29.483 31.6464 29.4302 31.8962 29.3283 32.128C29.2261 32.3597 29.0766 32.5683 28.8893 32.7408C28.702 32.9133 28.4806 33.0462 28.239 33.1311C27.9973 33.2161 27.7406 33.2512 27.4846 33.2345C26.4886 33.1709 25.7355 32.3131 25.7355 31.3306V27.7449C22.3162 30.6048 20.1375 34.8584 20.114 39.6154C20.0706 48.2812 27.4341 55.3724 36.2385 55.3724H48.2219ZM38.3789 41.2314C38.6877 40.7764 38.8527 40.2414 38.8527 39.6942C38.8527 38.9604 38.5564 38.2566 38.0293 37.7376C37.5022 37.2188 36.7872 36.9272 36.0417 36.9272C35.4856 36.9272 34.9421 37.0896 34.4798 37.3935C34.0176 37.6976 33.6573 38.1298 33.4445 38.6353C33.2319 39.141 33.1761 39.6973 33.2846 40.234C33.3931 40.7708 33.6609 41.2638 34.0539 41.6507C34.447 42.0377 34.948 42.3012 35.4931 42.408C36.0384 42.5147 36.6037 42.46 37.1174 42.2505C37.6309 42.0411 38.07 41.6865 38.3789 41.2314Z" fill="#FFFFFF"/>
</svg>
