<svg width="799" height="816" viewBox="0 0 799 816" fill="none" xmlns="http://www.w3.org/2000/svg">
<path d="M248.754 670.705L386.966 593.786L340.469 510.722L297.857 585.053L248.754 670.705Z" fill="#02E2AC" stroke="#0E0333" stroke-miterlimit="10" stroke-linejoin="round"/>
<path d="M381.538 439.085L348.184 497.265L394.694 580.305L381.538 439.085Z" fill="#02E2AC" stroke="#0E0333" stroke-miterlimit="10" stroke-linejoin="round"/>
<path d="M386.966 593.786L340.469 510.722L297.857 585.053L386.966 593.786Z" fill="#11BC92" stroke="#0E0333" stroke-miterlimit="10" stroke-linejoin="round"/>
<path d="M297.857 585.053L340.469 510.722L245.792 511.701L248.754 670.705L297.857 585.053Z" fill="#02E2AC" stroke="#0E0333" stroke-miterlimit="10" stroke-linejoin="round"/>
<path d="M253.521 498.22L348.184 497.265L381.538 439.085L253.521 498.22Z" fill="#02E2AC" stroke="#0E0333" stroke-miterlimit="10" stroke-linejoin="round"/>
<path d="M297.857 585.053L340.469 510.722L245.792 511.701L297.857 585.053Z" fill="#11BC92" stroke="#0E0333" stroke-miterlimit="10" stroke-linejoin="round"/>
<path d="M97.9609 407.666L233.206 489.758L281.391 407.665L196.161 407.668L97.9609 407.666Z" fill="#02E2AC" stroke="#0E0333" stroke-miterlimit="10" stroke-linejoin="round"/>
<path d="M363.531 407.667L296.826 407.668L248.665 489.754L363.531 407.667Z" fill="#02E2AC" stroke="#0E0333" stroke-miterlimit="10" stroke-linejoin="round"/>
<path d="M233.21 489.75L281.391 407.665L196.161 407.668L233.21 489.75Z" fill="#11BC92" stroke="#0E0333" stroke-miterlimit="10" stroke-linejoin="round"/>
<path d="M196.161 407.668L281.391 407.665L233.21 325.58L97.9608 407.666L196.161 407.668Z" fill="#02E2AC" stroke="#0E0333" stroke-miterlimit="10" stroke-linejoin="round"/>
<path d="M248.67 325.576L296.825 407.668L363.531 407.667L248.67 325.576Z" fill="#02E2AC" stroke="#0E0333" stroke-miterlimit="10" stroke-linejoin="round"/>
<path d="M196.161 407.667L281.391 407.665L233.21 325.58L196.161 407.667Z" fill="#11BC92" stroke="#0E0333" stroke-miterlimit="10" stroke-linejoin="round"/>
<path d="M248.754 144.632L245.791 303.635L340.468 304.614L297.855 230.278L248.754 144.632Z" fill="#02E2AC" stroke="#0E0333" stroke-miterlimit="10" stroke-linejoin="round"/>
<path d="M381.54 376.253L348.188 318.074L253.517 317.12L381.54 376.253Z" fill="#02E2AC" stroke="#0E0333" stroke-miterlimit="10" stroke-linejoin="round"/>
<path d="M245.791 303.635L340.468 304.614L297.856 230.278L245.791 303.635Z" fill="#11BC92" stroke="#0E0333" stroke-miterlimit="10" stroke-linejoin="round"/>
<path d="M297.855 230.278L340.468 304.614L386.965 221.55L248.754 144.632L297.855 230.278Z" fill="#02E2AC" stroke="#0E0333" stroke-miterlimit="10" stroke-linejoin="round"/>
<path d="M394.696 235.027L348.188 318.074L381.54 376.253L394.696 235.027Z" fill="#02E2AC" stroke="#0E0333" stroke-miterlimit="10" stroke-linejoin="round"/>
<path d="M297.855 230.278L340.468 304.614L386.965 221.55L297.855 230.278Z" fill="#11BC92" stroke="#0E0333" stroke-miterlimit="10" stroke-linejoin="round"/>
<path d="M550.34 144.637L412.132 221.548L458.629 304.612L501.241 230.281L550.34 144.637Z" fill="#02E2AC" stroke="#0E0333" stroke-miterlimit="10" stroke-linejoin="round"/>
<path d="M417.56 376.249L450.909 318.077L404.404 235.029L417.56 376.249Z" fill="#02E2AC" stroke="#0E0333" stroke-miterlimit="10" stroke-linejoin="round"/>
<path d="M412.132 221.548L458.629 304.612L501.241 230.281L412.132 221.548Z" fill="#11BC92" stroke="#0E0333" stroke-miterlimit="10" stroke-linejoin="round"/>
<path d="M501.241 230.281L458.629 304.612L553.306 303.633L550.34 144.637L501.241 230.281Z" fill="#02E2AC" stroke="#0E0333" stroke-miterlimit="10" stroke-linejoin="round"/>
<path d="M545.577 317.114L450.909 318.077L417.56 376.249L545.577 317.114Z" fill="#02E2AC" stroke="#0E0333" stroke-miterlimit="10" stroke-linejoin="round"/>
<path d="M501.241 230.281L458.629 304.612L553.306 303.633L501.241 230.281Z" fill="#11BC92" stroke="#0E0333" stroke-miterlimit="10" stroke-linejoin="round"/>
<path d="M701.137 407.668L565.888 325.584L517.707 407.669L602.937 407.667L701.137 407.668Z" fill="#02E2AC" stroke="#0E0333" stroke-miterlimit="10" stroke-linejoin="round"/>
<path d="M435.568 407.667L502.273 407.666L550.433 325.58L435.568 407.667Z" fill="#02E2AC" stroke="#0E0333" stroke-miterlimit="10" stroke-linejoin="round"/>
<path d="M565.888 325.584L517.707 407.669L602.937 407.667L565.888 325.584Z" fill="#11BC92" stroke="#0E0333" stroke-miterlimit="10" stroke-linejoin="round"/>
<path d="M602.937 407.667L517.707 407.669L565.888 489.754L701.137 407.668L602.937 407.667Z" fill="#02E2AC" stroke="#0E0333" stroke-miterlimit="10" stroke-linejoin="round"/>
<path d="M550.428 489.758L502.273 407.666L435.567 407.667L550.428 489.758Z" fill="#02E2AC" stroke="#0E0333" stroke-miterlimit="10" stroke-linejoin="round"/>
<path d="M602.937 407.666L517.707 407.669L565.888 489.754L602.937 407.666Z" fill="#11BC92" stroke="#0E0333" stroke-miterlimit="10" stroke-linejoin="round"/>
<path d="M550.344 670.702L553.307 511.699L458.63 510.72L501.243 585.056L550.344 670.702Z" fill="#02E2AC" stroke="#0E0333" stroke-miterlimit="10" stroke-linejoin="round"/>
<path d="M417.558 439.081L450.91 497.26L545.581 498.214L417.558 439.081Z" fill="#02E2AC" stroke="#0E0333" stroke-miterlimit="10" stroke-linejoin="round"/>
<path d="M553.307 511.699L458.63 510.72L501.243 585.056L553.307 511.699Z" fill="#11BC92" stroke="#0E0333" stroke-miterlimit="10" stroke-linejoin="round"/>
<path d="M501.243 585.056L458.63 510.72L412.129 593.792L550.344 670.702L501.243 585.056Z" fill="#02E2AC" stroke="#0E0333" stroke-miterlimit="10" stroke-linejoin="round"/>
<path d="M404.402 580.307L450.91 497.26L417.558 439.081L404.402 580.307Z" fill="#02E2AC" stroke="#0E0333" stroke-miterlimit="10" stroke-linejoin="round"/>
<path d="M501.243 585.056L458.63 510.72L412.133 593.784L501.243 585.056Z" fill="#11BC92" stroke="#0E0333" stroke-miterlimit="10" stroke-linejoin="round"/>
<path d="M342.333 385.93L342.402 385.918C342.842 385.863 343.279 385.785 343.711 385.685C343.911 385.644 344.11 385.623 344.302 385.578C344.708 385.469 345.105 385.302 345.501 385.155C345.699 385.082 345.908 385.025 346.103 384.94C346.297 384.854 346.736 384.596 347.044 384.44C347.352 384.284 347.538 384.194 347.774 384.037C348.009 383.881 348.234 383.687 348.466 383.519C348.698 383.35 349.04 383.098 349.3 382.862C349.3 382.862 349.327 382.815 349.345 382.784C349.541 382.605 349.698 382.403 349.883 382.207C350.068 382.011 350.377 381.709 350.595 381.438C350.812 381.167 350.964 380.92 351.123 380.698C351.281 380.476 351.497 380.172 351.659 379.89C351.821 379.607 351.978 379.332 352.086 379.018C352.193 378.703 352.401 378.468 352.458 378.187C352.515 377.906 352.663 377.521 352.764 377.182C352.865 376.843 352.935 376.685 352.991 376.424C352.991 376.424 353.018 376.377 353.036 376.346C353.1 375.995 353.147 375.641 353.175 375.286C353.29 374.717 353.319 374.134 353.262 373.557C353.255 373.207 353.272 372.85 353.237 372.495C353.202 372.139 353.151 372.047 353.116 371.817C353.081 371.588 352.987 371.009 352.872 370.629C352.819 370.431 352.727 370.23 352.662 370.035C352.537 369.616 352.388 369.204 352.215 368.802L352.195 368.728L255.955 157.183L389.616 346.915L389.686 346.956C389.926 347.274 390.181 347.58 390.451 347.872C390.613 348.06 390.754 348.268 390.925 348.44C391.178 348.682 391.443 348.909 391.719 349.122C391.934 349.31 392.143 349.525 392.371 349.689C392.599 349.854 392.862 349.975 393.112 350.12C393.361 350.265 393.72 350.474 394.024 350.65C394.328 350.827 394.476 350.84 394.7 350.939C395.043 351.139 395.427 351.267 395.81 351.396L395.881 351.437C396.11 351.508 396.342 351.538 396.569 351.596C396.932 351.7 397.299 351.785 397.671 351.85C397.969 351.893 398.269 351.921 398.569 351.933C398.907 351.961 399.235 352.005 399.57 352.001C399.905 351.997 400.197 351.958 400.513 351.932C400.83 351.907 401.157 351.898 401.474 351.852C401.791 351.806 402.145 351.698 402.472 351.616C402.8 351.534 402.999 351.514 403.261 351.436L403.349 351.393C403.67 351.286 403.968 351.146 404.283 351.015C404.597 350.883 404.856 350.794 405.127 350.647C405.398 350.501 405.546 350.388 405.751 350.267C406.086 350.064 406.436 349.87 406.756 349.637C406.888 349.535 407.008 349.417 407.131 349.31C407.5 349.012 407.877 348.698 408.202 348.384C408.279 348.251 408.407 348.136 408.507 348.017C408.843 347.664 409.155 347.29 409.441 346.895C409.441 346.895 409.441 346.895 409.472 346.84L543.165 157.152L446.93 368.536C446.664 369.119 446.443 369.723 446.27 370.34C446.243 370.387 446.211 370.442 446.18 370.497C446.031 371.053 445.921 371.62 445.853 372.192C445.808 372.27 445.83 372.377 445.824 372.478C445.765 373.044 445.745 373.612 445.763 374.181L445.783 374.381C445.809 374.931 445.878 375.478 445.988 376.018C445.993 376.072 446 376.125 446.011 376.178L446.031 376.305C446.088 376.568 446.194 376.818 446.264 377.078C446.333 377.339 446.442 377.747 446.56 378.067C446.678 378.387 446.835 378.656 446.971 378.945C447.107 379.233 447.231 379.525 447.384 379.803C447.537 380.08 447.765 380.37 447.943 380.641C448.12 380.911 448.268 381.144 448.456 381.378C448.643 381.613 448.962 381.945 449.225 382.213C449.487 382.481 449.53 382.568 449.714 382.738L449.784 382.779C450.078 383.044 450.403 383.275 450.724 383.514C450.934 383.636 451.104 383.829 451.31 383.96C451.516 384.09 451.919 384.313 452.223 384.49C452.527 384.667 452.722 384.78 452.963 384.921C453.205 385.061 453.508 385.112 453.777 385.205C454.098 385.34 454.427 385.458 454.76 385.557C454.995 385.62 455.251 385.644 455.494 385.691C455.877 385.767 456.263 385.855 456.656 385.895L456.726 385.936L686.712 407.645L456.762 429.391L456.68 429.407C456.538 429.419 456.403 429.455 456.257 429.475C455.825 429.538 455.397 429.614 454.976 429.714L454.418 429.871C454.035 429.981 453.659 430.111 453.29 430.262C453.129 430.325 452.955 430.392 452.798 430.468C452.274 430.705 451.768 430.982 451.284 431.294C451.284 431.294 451.253 431.349 451.235 431.381C450.772 431.685 450.334 432.026 449.924 432.398C449.864 432.437 449.807 432.482 449.755 432.53C449.71 432.609 449.621 432.672 449.548 432.745C449.244 433.039 448.964 433.347 448.682 433.676C448.601 433.817 448.465 433.927 448.361 434.054C448.018 434.496 447.703 434.96 447.419 435.443C447.146 435.932 446.904 436.439 446.696 436.959C446.615 437.101 446.588 437.274 446.531 437.429C446.394 437.831 446.265 438.237 446.163 438.649L446.082 438.937C446.068 439.007 446.058 439.079 446.053 439.15C445.94 439.698 445.865 440.252 445.829 440.81C445.817 440.838 445.802 440.865 445.784 440.889C445.757 441.467 445.772 442.046 445.83 442.622C445.843 442.798 445.87 442.97 445.896 443.142C445.956 443.542 446.037 443.939 446.139 444.33C446.174 444.518 446.221 444.702 446.28 444.883C446.39 445.321 446.529 445.752 446.695 446.172C446.744 446.304 446.78 446.441 446.841 446.57L446.868 446.649L543.14 658.138L409.478 468.406L409.408 468.366C409.177 468.043 408.909 467.751 408.652 467.455C408.49 467.266 408.341 467.054 408.17 466.881C407.999 466.708 407.645 466.419 407.38 466.192C407.115 465.965 406.952 465.796 406.724 465.632C406.496 465.468 406.225 465.342 405.983 465.202C405.688 465.009 405.384 464.832 405.071 464.671C404.86 464.549 404.619 464.481 404.395 464.383C404.051 464.183 403.668 464.054 403.292 463.93L403.222 463.889C402.992 463.819 402.76 463.788 402.526 463.725C402.164 463.618 401.796 463.534 401.424 463.472C401.128 463.426 400.835 463.412 400.525 463.389C400.193 463.348 399.86 463.325 399.525 463.321C399.202 463.321 398.89 463.359 398.574 463.385C398.257 463.41 397.93 463.419 397.613 463.465C397.296 463.511 396.95 463.624 396.615 463.701C396.279 463.778 396.088 463.803 395.833 463.885L395.714 463.931L395.569 463.983C395.051 464.165 394.545 464.382 394.055 464.631L393.88 464.718C393.378 464.981 392.897 465.282 392.439 465.618C392.394 465.696 392.283 465.726 392.207 465.786C391.75 466.132 391.317 466.51 390.914 466.919C390.887 466.966 390.855 467.021 390.824 467.076C390.378 467.517 389.967 467.992 389.594 468.496L255.932 658.129L352.212 446.667C352.212 446.667 352.235 446.627 352.244 446.612C352.43 446.196 352.569 445.754 352.712 445.324C352.802 445.167 352.854 444.967 352.897 444.783C353.001 444.363 353.082 443.938 353.138 443.51C353.175 443.301 353.227 443.101 353.252 442.895C353.293 442.532 353.279 442.158 353.293 441.789C353.307 441.42 353.326 441.242 353.314 440.974C353.302 440.705 353.24 440.376 353.194 440.077C353.147 439.777 353.13 439.391 353.065 439.049C353.065 439.049 353.088 439.01 353.047 438.955C352.99 438.691 352.884 438.441 352.815 438.181C352.746 437.921 352.637 437.513 352.519 437.193C352.401 436.873 352.243 436.603 352.112 436.307C351.98 436.011 351.852 435.727 351.695 435.457C351.537 435.188 351.325 434.887 351.14 434.611C350.955 434.336 350.807 434.104 350.62 433.869C350.432 433.634 350.108 433.31 349.846 433.042C349.584 432.775 349.541 432.687 349.357 432.517L349.287 432.477C348.988 432.213 348.674 431.968 348.347 431.741C348.136 431.619 347.966 431.426 347.76 431.296C347.465 431.103 347.161 430.926 346.848 430.765C346.606 430.625 346.357 430.48 346.107 430.335C345.858 430.19 345.574 430.14 345.298 430.042C345.021 429.944 344.644 429.787 344.31 429.698C343.977 429.609 343.819 429.611 343.581 429.556C343.342 429.501 342.812 429.392 342.419 429.352L342.349 429.311L112.379 407.611L342.333 385.93Z" fill="#FFEEA8" stroke="#0E0333" stroke-miterlimit="10" stroke-linejoin="round"/>
<path d="M377.933 465.265L377.921 465.195C377.865 464.752 377.788 464.312 377.689 463.877C377.644 463.683 377.628 463.475 377.583 463.282C377.464 462.872 377.324 462.469 377.163 462.074C377.09 461.875 377.034 461.664 376.949 461.468C376.864 461.272 376.616 460.835 376.453 460.52C376.29 460.206 376.208 460.022 376.061 459.79C375.913 459.558 375.706 459.322 375.538 459.088C375.37 458.855 375.121 458.51 374.886 458.249L374.808 458.203C374.63 458.006 374.43 457.847 374.236 457.661C374.041 457.474 373.741 457.164 373.472 456.945C373.202 456.725 372.957 456.572 372.698 456.39C372.439 456.208 372.176 456.013 371.895 455.85C371.615 455.687 371.342 455.528 371.03 455.42C370.718 455.312 370.484 455.103 370.166 455.022C369.848 454.942 369.505 454.816 369.168 454.714C368.831 454.613 368.674 454.542 368.415 454.486L368.337 454.441C367.989 454.375 367.638 454.328 367.285 454.3C366.72 454.185 366.142 454.155 365.568 454.212C365.221 454.22 364.867 454.203 364.514 454.238C364.161 454.274 364.069 454.325 363.841 454.36C363.613 454.395 363.039 454.49 362.661 454.605C362.464 454.658 362.265 454.752 362.072 454.817C361.655 454.943 361.246 455.093 360.847 455.267L360.773 455.287L150.828 552.273L339.224 417.664L339.264 417.593C339.585 417.361 339.875 417.09 340.169 416.832C340.356 416.668 340.566 416.518 340.738 416.346C340.91 416.174 341.197 415.817 341.423 415.551C341.648 415.284 341.815 415.12 341.978 414.89C342.141 414.66 342.262 414.395 342.428 414.105C342.619 413.808 342.795 413.501 342.955 413.186C343.077 412.974 343.144 412.73 343.242 412.505C343.401 412.137 343.568 411.773 343.691 411.394C343.71 411.371 343.725 411.344 343.736 411.316C343.806 411.085 343.836 410.851 343.894 410.623C343.989 410.259 344.087 409.887 344.146 409.513C344.205 409.139 344.21 408.912 344.236 408.613C344.262 408.314 344.3 407.938 344.296 407.601C344.292 407.263 344.253 406.969 344.228 406.65C344.202 406.332 344.194 406.002 344.148 405.683C344.103 405.363 343.995 405.007 343.914 404.678C343.833 404.348 343.812 404.147 343.731 403.891L343.692 403.795C343.586 403.472 343.447 403.171 343.312 402.862C343.207 402.57 343.087 402.283 342.952 402.004C342.84 401.782 342.695 401.582 342.574 401.376C342.372 401.038 342.18 400.686 341.949 400.363C341.848 400.231 341.73 400.11 341.624 399.986C341.337 399.611 341.028 399.253 340.7 398.915C340.568 398.837 340.454 398.709 340.34 398.6C339.99 398.262 339.618 397.948 339.226 397.66L339.171 397.628L150.82 262.987L360.715 359.904C361.294 360.173 361.893 360.395 362.506 360.569L362.662 360.66C363.214 360.81 363.777 360.92 364.344 360.989L364.629 361.018C365.19 361.081 365.755 361.102 366.319 361.08L366.518 361.059C367.065 361.033 367.608 360.964 368.144 360.853L368.302 360.83L368.429 360.809C368.69 360.752 368.934 360.653 369.197 360.576C369.46 360.498 369.861 360.396 370.178 360.277C370.496 360.159 370.764 360 371.05 359.863C371.337 359.726 371.626 359.601 371.902 359.447C372.177 359.293 372.461 359.071 372.742 358.889C373.023 358.707 373.238 358.549 373.471 358.36C373.704 358.171 374.034 357.85 374.3 357.586C374.467 357.421 374.653 357.278 374.816 357.101C374.835 357.077 374.85 357.051 374.861 357.023C375.125 356.726 375.354 356.399 375.591 356.076C375.713 355.864 375.905 355.693 376.034 355.485C376.225 355.188 376.401 354.882 376.561 354.566C376.705 354.315 376.849 354.064 377.011 353.781C377.173 353.499 377.201 353.232 377.301 352.966C377.402 352.7 377.554 352.307 377.643 351.971C377.732 351.636 377.729 351.477 377.776 351.232C377.851 350.847 377.939 350.458 377.979 350.062L378.019 349.992L399.571 118.382L421.119 350.042L421.134 350.124C421.146 350.267 421.182 350.403 421.201 350.551C421.256 350.985 421.335 351.416 421.439 351.841C421.484 352.034 421.538 352.212 421.595 352.402C421.704 352.788 421.833 353.167 421.983 353.539C422.046 353.701 422.112 353.876 422.188 354.035C422.423 354.562 422.698 355.072 423.008 355.559L423.094 355.608C423.401 356.069 423.741 356.508 424.109 356.921C424.148 356.981 424.192 357.038 424.24 357.091C424.307 357.164 424.378 357.234 424.453 357.299C424.745 357.607 425.053 357.898 425.377 358.171L425.753 358.495C426.192 358.841 426.653 359.157 427.133 359.443C427.618 359.719 428.121 359.962 428.638 360.172L429.104 360.338C429.501 360.483 429.906 360.607 430.316 360.708C430.41 360.741 430.505 360.768 430.602 360.79C430.672 360.804 430.742 360.814 430.814 360.819C431.356 360.937 431.907 361.012 432.462 361.045L432.54 361.09C433.114 361.118 433.689 361.102 434.261 361.044C434.435 361.03 434.606 361.004 434.777 360.978C435.174 360.917 435.568 360.835 435.957 360.732C436.141 360.697 436.322 360.652 436.501 360.598C436.922 360.473 437.336 360.326 437.742 360.158C437.878 360.101 438.013 360.064 438.142 360.003L438.22 359.975L648.173 262.994L459.778 397.603L459.737 397.674C459.417 397.906 459.126 398.177 458.833 398.436C458.645 398.599 458.435 398.749 458.263 398.921C458.092 399.094 457.804 399.45 457.579 399.716C457.353 399.983 457.186 400.148 457.023 400.377C456.86 400.607 456.735 400.88 456.573 401.163C456.382 401.46 456.206 401.766 456.046 402.081C455.925 402.293 455.858 402.537 455.76 402.762C455.601 403.131 455.434 403.494 455.31 403.873C455.293 403.894 455.279 403.918 455.27 403.943C455.2 404.175 455.169 404.408 455.107 404.644C455.001 405.009 454.917 405.379 454.855 405.754C454.809 406.052 454.796 406.348 454.773 406.659C454.751 406.97 454.701 407.329 454.705 407.666C454.709 408.004 454.748 408.298 454.773 408.617C454.799 408.935 454.807 409.265 454.853 409.584C454.898 409.904 455.011 410.252 455.087 410.59C455.164 410.927 455.189 411.12 455.27 411.376L455.316 411.497L455.375 411.647C455.548 412.17 455.76 412.678 456.011 413.168L456.092 413.351C456.359 413.852 456.659 414.335 456.99 414.795L457.158 415.028C457.501 415.489 457.877 415.925 458.282 416.331L458.438 416.422C458.895 416.87 459.386 417.281 459.906 417.652L648.203 552.261L438.238 455.303L438.175 455.267C437.763 455.079 437.324 454.939 436.897 454.795C436.718 454.744 436.538 454.66 436.359 454.609C435.943 454.504 435.521 454.423 435.095 454.366C434.888 454.329 434.689 454.276 434.485 454.251C434.125 454.209 433.753 454.224 433.382 454.217C433.011 454.211 432.844 454.177 432.577 454.189C432.31 454.201 431.984 454.263 431.687 454.31C431.389 454.357 431.005 454.374 430.666 454.439C430.666 454.439 430.628 454.416 430.573 454.458C430.311 454.515 430.063 454.622 429.804 454.692C429.546 454.761 429.14 454.871 428.823 454.99C428.505 455.109 428.238 455.267 427.943 455.4C427.649 455.532 427.367 455.661 427.099 455.82C426.832 455.978 426.533 456.192 426.26 456.378C425.986 456.565 425.756 456.713 425.523 456.902C425.289 457.091 424.968 457.417 424.702 457.681C424.436 457.946 424.344 457.997 424.18 458.174C424.163 458.195 424.149 458.219 424.14 458.244C423.879 458.546 423.635 458.862 423.41 459.191C423.288 459.403 423.097 459.575 422.967 459.782C422.776 460.079 422.6 460.386 422.441 460.701C422.301 460.944 422.157 461.195 421.991 461.486C421.824 461.776 421.797 462.023 421.7 462.301C421.603 462.579 421.447 462.96 421.358 463.296C421.27 463.632 421.272 463.79 421.218 464.031C421.142 464.416 421.055 464.805 421.015 465.2C421.015 465.2 420.988 465.247 420.974 465.271L399.427 696.872L377.933 465.265Z" fill="#FFCC00" stroke="#0E0333" stroke-miterlimit="10" stroke-linejoin="round"/>
<path d="M448.402 393.366C450.717 389.331 452.219 384.877 452.823 380.257C453.427 375.637 453.12 370.943 451.922 366.443C450.723 361.943 448.656 357.724 445.837 354.029C443.019 350.334 439.505 347.235 435.497 344.908C431.492 342.578 427.07 341.065 422.485 340.457C417.899 339.848 413.24 340.156 408.772 341.361C404.305 342.567 400.117 344.647 396.448 347.483C392.779 350.319 389.701 353.855 387.389 357.89L362.736 400.893L423.726 436.355L448.402 393.366Z" fill="#02E2AC" stroke="#0E0333" stroke-miterlimit="10" stroke-linejoin="round"/>
<path d="M362.76 400.906L338.107 443.909C333.439 452.051 332.173 461.727 334.585 470.809C336.998 479.891 342.893 487.637 350.974 492.344C359.063 497.044 368.674 498.317 377.694 495.881C386.714 493.446 394.404 487.502 399.073 479.358L423.726 436.355L362.76 400.906Z" fill="#B3FFED" stroke="#0E0333" stroke-miterlimit="10" stroke-linejoin="round"/>
<path d="M430.057 342.321C436.422 347.675 440.706 355.12 442.157 363.344C443.607 371.567 442.129 380.042 437.985 387.277L413.332 430.28L423.763 436.345L448.416 393.342C450.726 389.308 452.224 384.854 452.825 380.237C453.426 375.619 453.118 370.927 451.918 366.43C450.719 361.932 448.651 357.716 445.833 354.024C443.016 350.331 439.503 347.233 435.497 344.908C433.759 343.893 431.939 343.028 430.057 342.321Z" fill="#11BC92" stroke="#0E0333" stroke-miterlimit="10" stroke-linejoin="round"/>
<path d="M413.318 430.303L388.665 473.306C384.518 480.538 377.969 486.064 370.173 488.91C362.376 491.756 353.832 491.739 346.047 488.862C347.593 490.169 349.25 491.339 350.997 492.357C359.086 497.058 368.697 498.33 377.717 495.895C386.737 493.46 394.427 487.516 399.097 479.371L423.75 436.368L413.318 430.303Z" fill="#11BC92" stroke="#0E0333" stroke-miterlimit="10" stroke-linejoin="round"/>
</svg>
