<svg width="178" height="64" viewBox="0 0 178 64" fill="none" xmlns="http://www.w3.org/2000/svg">
<path d="M49.9987 51.3345C47.2195 49.0441 37.6048 41.3835 36.3274 40.3649C37.0521 38.9982 37.4252 37.4733 37.413 35.9272C37.4009 34.3811 37.004 32.8622 36.2579 31.507L46.9469 23.4305L50.0735 20.9C50.8431 20.3908 50.9687 19.8335 50.4102 19.0895C49.6817 18.1344 48.8936 17.226 48.0506 16.3698C43.4315 11.6726 37.2974 8.75532 30.7317 8.13323V2.76307C30.7412 2.07448 30.4896 1.40776 30.0272 0.896476C29.5649 0.385196 28.926 0.0671259 28.2385 0.00599217C27.8728 -0.0185116 27.506 0.0323087 27.1608 0.155293C26.8157 0.278278 26.4995 0.470798 26.2321 0.720883C25.9647 0.970967 25.7517 1.27327 25.6063 1.609C25.461 1.94472 25.3864 2.3067 25.3872 2.67241V8.13323C23.1082 8.34792 20.8644 8.84227 18.7066 9.60509V2.76307C18.7161 2.07448 18.4644 1.40776 18.0021 0.896476C17.5397 0.385196 16.9008 0.0671259 16.2134 0.00599217C15.8477 -0.0185116 15.4809 0.0323087 15.1357 0.155293C14.7905 0.278278 14.4744 0.470798 14.207 0.720883C13.9396 0.970967 13.7266 1.27327 13.5812 1.609C13.4359 1.94472 13.3613 2.3067 13.3621 2.67241V12.1515C9.31116 14.6369 5.95973 18.1088 3.62255 22.2413C1.28537 26.3737 0.0391283 31.0311 0.000866925 35.776C-0.122057 51.2999 12.8437 64 28.4015 64H49.1703C49.5489 63.9996 49.9152 63.8655 50.2042 63.6215C50.4933 63.3775 50.6865 63.0393 50.7496 62.6668L50.7709 52.9824C50.7719 52.6679 50.7032 52.3571 50.5697 52.0722C50.4362 51.7873 50.2412 51.5354 49.9987 51.3345ZM45.4291 58.6672H28.3401C15.7805 58.6672 5.2839 48.4175 5.35873 35.888C5.37066 32.6207 6.09233 29.3949 7.47401 26.4327C8.85568 23.4705 10.8645 20.8425 13.3621 18.7296V23.9131C13.3527 24.6017 13.6043 25.2684 14.0666 25.7797C14.529 26.291 15.1679 26.609 15.8553 26.6702C16.221 26.6947 16.5878 26.6438 16.933 26.5209C17.2782 26.3979 17.5943 26.2054 17.8617 25.9553C18.1292 25.7052 18.3422 25.4029 18.4875 25.0672C18.6329 24.7314 18.7074 24.3695 18.7066 24.0037V15.3512C21.6445 14.0216 24.8336 13.3352 28.0595 13.3381C34.0346 13.3381 39.0692 15.3166 43.1256 19.0789L32.2148 27.6434C30.7863 26.9361 29.2002 26.6051 27.6073 26.6817C26.0144 26.7583 24.4676 27.2401 23.1138 28.0812C21.7601 28.9223 20.6444 30.0949 19.8727 31.4875C19.101 32.88 18.699 34.4464 18.7049 36.0376C18.7107 37.6289 19.1242 39.1922 19.9062 40.5791C20.6881 41.966 21.8124 43.1303 23.1723 43.9615C24.5322 44.7926 26.0825 45.2631 27.676 45.328C29.2694 45.3929 30.853 45.0503 32.2763 44.3325L32.14 44.4552L45.4291 54.6675V58.6672ZM32.0679 36.0026C32.0679 36.7937 31.8328 37.567 31.3923 38.2247C30.9519 38.8824 30.3259 39.3951 29.5934 39.6978C28.861 40.0005 28.055 40.0797 27.2775 39.9254C26.4999 39.7711 25.7857 39.3901 25.2251 38.8308C24.6646 38.2714 24.2828 37.5588 24.1281 36.7829C23.9735 36.0071 24.0528 35.2029 24.3562 34.472C24.6596 33.7412 25.1734 33.1165 25.8326 32.6771C26.4917 32.2376 27.2667 32.003 28.0595 32.003C29.1226 32.003 30.1421 32.4244 30.8938 33.1745C31.6456 33.9245 32.0679 34.9419 32.0679 36.0026Z" fill="#F0EBFF"/>
<path d="M45.3994 36.1942C45.4032 39.556 44.4126 42.8467 42.5476 45.667C43.983 46.7973 45.4565 47.957 46.753 48.9831C49.3485 45.2454 50.7475 40.8326 50.7708 36.31C50.7941 31.7874 49.4406 27.3609 46.8838 23.5977L42.6021 26.7855C44.4358 29.5933 45.4069 32.8596 45.3994 36.1942Z" fill="#02E2AC"/>
<path d="M78.0463 34.9709H86.2624C86.2624 35.8322 86.2272 36.6145 86.1568 37.3178C86.0862 38.0212 85.9454 38.6743 85.7342 39.2772C85.4386 40.1241 85.0373 40.8777 84.5304 41.538C84.0235 42.184 83.425 42.7294 82.7351 43.1745C82.0593 43.6051 81.313 43.9353 80.4963 44.1649C79.6797 44.3946 78.8207 44.5095 77.9196 44.5095C76.6805 44.5095 75.5471 44.3014 74.5192 43.885C73.5053 43.4688 72.6324 42.8874 71.9001 42.141C71.168 41.3802 70.5977 40.4758 70.1894 39.4279C69.781 38.3657 69.5769 37.1959 69.5769 35.9183C69.5769 34.6551 69.7741 33.4995 70.1683 32.4516C70.5766 31.3894 71.1469 30.485 71.8791 29.7386C72.6253 28.9922 73.5195 28.4108 74.5615 27.9946C75.6034 27.5782 76.765 27.3701 78.0463 27.3701C79.7078 27.3701 81.1651 27.7362 82.4183 28.4683C83.6715 29.2003 84.6642 30.3343 85.3964 31.8703L81.4679 33.5283C81.1018 32.6382 80.6231 31.9994 80.0317 31.6119C79.4543 31.2244 78.7926 31.0306 78.0463 31.0306C77.4268 31.0306 76.8636 31.1526 76.3567 31.3965C75.8498 31.6263 75.4132 31.9636 75.0472 32.4086C74.6952 32.8392 74.4136 33.3631 74.2024 33.9804C74.0052 34.5976 73.9067 35.2866 73.9067 36.0475C73.9067 36.7364 73.9912 37.3752 74.1601 37.9638C74.3432 38.5523 74.6107 39.0619 74.9627 39.4925C75.3147 39.9232 75.7512 40.2605 76.2722 40.5046C76.7932 40.7342 77.3987 40.8491 78.0886 40.8491C78.497 40.8491 78.8911 40.806 79.2714 40.7199C79.6515 40.6193 79.9894 40.4686 80.2851 40.2677C80.5949 40.0524 80.8483 39.7797 81.0455 39.4495C81.2426 39.1194 81.3763 38.7174 81.4467 38.2438H78.0463V34.9709Z" fill="#F0EBFF"/>
<path d="M95.1307 27.7124V43.9474H90.991V27.7124H95.1307Z" fill="#F0EBFF"/>
<path d="M106.61 31.2866V43.9474H102.47V31.2866H99.0698V27.7124H110.011V31.2866H106.61Z" fill="#F0EBFF"/>
<path d="M125.288 33.2484C124.331 32.0568 123.148 31.4611 121.74 31.4611C121.12 31.4611 120.543 31.576 120.008 31.8057C119.487 32.0354 119.036 32.3512 118.656 32.7531C118.276 33.1407 117.973 33.6072 117.748 34.1526C117.537 34.6982 117.431 35.2866 117.431 35.9183C117.431 36.5642 117.537 37.1599 117.748 37.7054C117.973 38.2508 118.276 38.7246 118.656 39.1265C119.05 39.5284 119.508 39.8443 120.029 40.0739C120.55 40.3036 121.113 40.4185 121.719 40.4185C123.042 40.4185 124.232 39.8443 125.288 38.6958V43.6912L124.866 43.8419C124.232 44.0717 123.641 44.2368 123.091 44.3372C122.542 44.4521 122 44.5095 121.465 44.5095C120.367 44.5095 119.311 44.3014 118.297 43.885C117.297 43.4543 116.41 42.8586 115.636 42.0979C114.876 41.3227 114.263 40.4112 113.798 39.3633C113.334 38.3011 113.101 37.1456 113.101 35.8968C113.101 34.6479 113.327 33.5068 113.777 32.4732C114.242 31.4253 114.854 30.5281 115.615 29.7817C116.389 29.0209 117.283 28.4323 118.297 28.0161C119.311 27.5854 120.374 27.3701 121.486 27.3701C122.12 27.3701 122.739 27.4419 123.345 27.5854C123.964 27.7146 124.612 27.9228 125.288 28.2099V33.2484Z" fill="#F0EBFF"/>
<path d="M133.858 35.9399C133.858 36.5857 133.977 37.1814 134.217 37.727C134.456 38.2724 134.78 38.7461 135.188 39.148C135.597 39.5499 136.068 39.8658 136.603 40.0955C137.152 40.3108 137.73 40.4185 138.335 40.4185C138.941 40.4185 139.511 40.3108 140.046 40.0955C140.595 39.8658 141.074 39.5499 141.482 39.148C141.905 38.7461 142.235 38.2724 142.475 37.727C142.714 37.1814 142.834 36.5857 142.834 35.9399C142.834 35.2939 142.714 34.6982 142.475 34.1526C142.235 33.6072 141.905 33.1335 141.482 32.7316C141.074 32.3297 140.595 32.021 140.046 31.8057C139.511 31.576 138.941 31.4611 138.335 31.4611C137.73 31.4611 137.152 31.576 136.603 31.8057C136.068 32.021 135.597 32.3297 135.188 32.7316C134.78 33.1335 134.456 33.6072 134.217 34.1526C133.977 34.6982 133.858 35.2939 133.858 35.9399ZM129.528 35.9399C129.528 34.734 129.746 33.6144 130.183 32.5808C130.619 31.5329 131.225 30.6215 131.999 29.8463C132.773 29.0711 133.696 28.4683 134.766 28.0376C135.85 27.5927 137.04 27.3701 138.335 27.3701C139.617 27.3701 140.799 27.5927 141.883 28.0376C142.968 28.4683 143.897 29.0711 144.671 29.8463C145.46 30.6215 146.072 31.5329 146.509 32.5808C146.945 33.6144 147.164 34.734 147.164 35.9399C147.164 37.1456 146.945 38.2724 146.509 39.3203C146.072 40.3539 145.46 41.2581 144.671 42.0333C143.897 42.8085 142.968 43.4185 141.883 43.8635C140.799 44.2941 139.617 44.5095 138.335 44.5095C137.04 44.5095 135.85 44.2941 134.766 43.8635C133.696 43.4185 132.773 42.8085 131.999 42.0333C131.225 41.2581 130.619 40.3539 130.183 39.3203C129.746 38.2724 129.528 37.1456 129.528 35.9399Z" fill="#F0EBFF"/>
<path d="M156.03 27.7124V43.9474H151.891V27.7124H156.03Z" fill="#F0EBFF"/>
<path d="M161.47 43.9474V27.7124H165.609L173.255 37.6386V27.7124H177.373V43.9474H173.255L165.609 34.0212V43.9474H161.47Z" fill="#F0EBFF"/>
</svg>
