<svg xmlns="http://www.w3.org/2000/svg" xmlns:xlink="http://www.w3.org/1999/xlink" width="158.75" height="42.86" viewBox="0 0 158.75 42.86">
  <defs>
    <linearGradient id="a" x1="-210.36" y1="404.49" x2="-209.23" y2="405.22" gradientTransform="matrix(22.35, 0, 0, -22.33, 4722.32, 9055.04)" gradientUnits="userSpaceOnUse">
      <stop offset="0" stop-color="#5bf1cd"/>
      <stop offset="1" stop-color="#5bf1cd"/>
    </linearGradient>
  </defs>
  <g>
    <path d="M61.53,11.29h2.6L65.86,17l3.75-5.68h2.64l-2,11.43H67.53l1.09-6.16-2.38,3.6H64.43l-1.1-3.6-1.09,6.16H59.52Z" transform="translate(-5.62 -3.57)" fill="#5bf1cd"/>
    <path d="M75.2,15.37c.3-1.74.64-2.48,1.42-3.2a4.77,4.77,0,0,1,3.52-1.07c2.69,0,4,1,4,3.14A11.55,11.55,0,0,1,84,16l-.46,2.63c-.31,1.74-.64,2.48-1.43,3.2a4.7,4.7,0,0,1-3.39,1.07,4.49,4.49,0,0,1-3.23-.86,2.83,2.83,0,0,1-.9-2.28A9.68,9.68,0,0,1,74.73,18Zm5.92.55a11.23,11.23,0,0,0,.14-1.3c0-.88-.37-1.23-1.28-1.23-1.25,0-1.68.54-2,2.53l-.38,2.17a7.53,7.53,0,0,0-.15,1.33c0,.85.39,1.2,1.28,1.2,1.25,0,1.68-.54,2-2.53Z" transform="translate(-5.62 -3.57)" fill="#5bf1cd"/>
    <path d="M87.45,15.37c.31-1.74.64-2.48,1.43-3.2A4.77,4.77,0,0,1,92.4,11.1c2.69,0,4,1,4,3.14A11.55,11.55,0,0,1,96.21,16l-.47,2.63c-.3,1.74-.64,2.48-1.42,3.2a4.7,4.7,0,0,1-3.39,1.07,4.5,4.5,0,0,1-3.24-.86,2.83,2.83,0,0,1-.89-2.28A9.68,9.68,0,0,1,87,18Zm5.92.55a9.41,9.41,0,0,0,.15-1.3c0-.88-.37-1.23-1.28-1.23-1.25,0-1.68.54-2,2.53l-.39,2.17a7.51,7.51,0,0,0-.14,1.33c0,.85.38,1.2,1.28,1.2,1.25,0,1.68-.54,2-2.53Z" transform="translate(-5.62 -3.57)" fill="#5bf1cd"/>
    <path d="M100.7,11.29h2.77L105.79,18,107,11.29h2.75l-2,11.43H105l-2.32-6.67-1.2,6.67H98.68Z" transform="translate(-5.62 -3.57)" fill="#5bf1cd"/>
    <path d="M113.13,19.42c.35.88,1,1.22,2.16,1.22s1.71-.48,1.71-1.36c0-.48-.27-.74-1-.91a6.48,6.48,0,0,1-2.75-1.06,2.48,2.48,0,0,1-1-2.18c0-2.53,1.65-4,4.4-4,2.1,0,3.37.64,3.94,2l-2.34,1.32a1.74,1.74,0,0,0-1.74-1,1.31,1.31,0,0,0-1,.33,1.23,1.23,0,0,0-.4.94c0,.6.35.84,1.71,1.22,2.27.61,3,1.3,3,2.85a4.24,4.24,0,0,1-1.12,3.07A5.13,5.13,0,0,1,115.17,23a6.49,6.49,0,0,1-3.4-.82,2.6,2.6,0,0,1-1-1.31Z" transform="translate(-5.62 -3.57)" fill="#5bf1cd"/>
    <path d="M124.38,11.29h2.85l-.8,4.51h2.85l.8-4.51h2.85l-2,11.43h-2.85l.82-4.63H126l-.82,4.63h-2.85Z" transform="translate(-5.62 -3.57)" fill="#5bf1cd"/>
    <path d="M135.84,15.37c.3-1.74.64-2.48,1.42-3.2a4.77,4.77,0,0,1,3.52-1.07c2.69,0,4,1,4,3.14a11.55,11.55,0,0,1-.19,1.77l-.46,2.63c-.31,1.74-.64,2.48-1.43,3.2a4.7,4.7,0,0,1-3.39,1.07,4.49,4.49,0,0,1-3.23-.86,2.83,2.83,0,0,1-.9-2.28,9.68,9.68,0,0,1,.19-1.77Zm5.92.55a11.23,11.23,0,0,0,.14-1.3c0-.88-.37-1.23-1.28-1.23-1.25,0-1.68.54-2,2.53l-.38,2.17a7.53,7.53,0,0,0-.15,1.33c0,.85.39,1.2,1.28,1.2,1.25,0,1.68-.54,2-2.53Z" transform="translate(-5.62 -3.57)" fill="#5bf1cd"/>
    <path d="M150.43,13.58h-3l.4-2.29h8.74l-.4,2.29h-2.94l-1.57,9.14h-2.85Z" transform="translate(-5.62 -3.57)" fill="#5bf1cd"/>
    <path d="M68,36.51a4.13,4.13,0,0,1-1.18,2.36A4.65,4.65,0,0,1,63.42,40a4.06,4.06,0,0,1-3-.88,2.83,2.83,0,0,1-.88-2.23A11.15,11.15,0,0,1,59.75,35l.45-2.55c.32-1.76.64-2.5,1.41-3.2A4.54,4.54,0,0,1,65,28.19a4.22,4.22,0,0,1,2.89.82,2.9,2.9,0,0,1,.9,2.13,4.2,4.2,0,0,1-.07.62L66,31.94v-.28c0-.84-.35-1.18-1.22-1.18-1.12,0-1.53.56-1.89,2.55l-.36,2.09a6.51,6.51,0,0,0-.16,1.39c0,.82.33,1.16,1.2,1.16a1.77,1.77,0,0,0,1.81-1.48Z" transform="translate(-5.62 -3.57)" fill="#5bf1cd"/>
    <path d="M71.61,32.42c.3-1.75.64-2.48,1.42-3.2a4.75,4.75,0,0,1,3.53-1.08c2.68,0,4,1,4,3.14a13.27,13.27,0,0,1-.19,1.78l-.47,2.62c-.3,1.75-.64,2.48-1.42,3.2A4.68,4.68,0,0,1,75.08,40a4.45,4.45,0,0,1-3.23-.87,2.81,2.81,0,0,1-.9-2.27,9.71,9.71,0,0,1,.2-1.78Zm5.92.54a9.41,9.41,0,0,0,.15-1.3c0-.88-.37-1.23-1.28-1.23-1.25,0-1.69.55-2,2.53L74,35.14a7.53,7.53,0,0,0-.15,1.33c0,.84.39,1.2,1.28,1.2,1.25,0,1.68-.55,2-2.53Z" transform="translate(-5.62 -3.57)" fill="#5bf1cd"/>
    <path d="M84.84,28.34h2.85l-1.62,9.13H90.7l-.4,2.29H82.83Z" transform="translate(-5.62 -3.57)" fill="#5bf1cd"/>
    <path d="M95.26,28.34h2.87l-1.62,9.13h4.62l-.41,2.29H93.25Z" transform="translate(-5.62 -3.57)" fill="#5bf1cd"/>
    <path d="M105.71,28.34h7.42l-.4,2.28h-4.6l-.4,2.23h3.86l-.4,2.29h-3.86l-.41,2.33h4.67l-.4,2.29H103.7Z" transform="translate(-5.62 -3.57)" fill="#5bf1cd"/>
    <path d="M123.45,36.51a4.13,4.13,0,0,1-1.18,2.36A4.65,4.65,0,0,1,118.83,40a4.06,4.06,0,0,1-3-.88,2.83,2.83,0,0,1-.88-2.23,11.15,11.15,0,0,1,.21-1.82l.45-2.55c.32-1.76.64-2.5,1.41-3.2a4.52,4.52,0,0,1,3.34-1.09,4.26,4.26,0,0,1,2.9.82,2.9,2.9,0,0,1,.9,2.13,4.2,4.2,0,0,1-.07.62l-2.64.18v-.28c0-.84-.35-1.18-1.22-1.18-1.12,0-1.54.56-1.89,2.55L118,35.12a7.22,7.22,0,0,0-.16,1.39c0,.82.34,1.16,1.2,1.16a1.78,1.78,0,0,0,1.81-1.48Z" transform="translate(-5.62 -3.57)" fill="#5bf1cd"/>
    <path d="M129.61,30.62h-2.94l.4-2.28h8.73l-.4,2.28h-2.94l-1.62,9.1H128Z" transform="translate(-5.62 -3.57)" fill="#5bf1cd"/>
    <path d="M138.57,28.34h2.85l-2,11.42h-2.85Z" transform="translate(-5.62 -3.57)" fill="#5bf1cd"/>
    <path d="M144.06,28.34h2.78l.91,7.71,3.64-7.71h2.9l-5.88,11.38H145.9Z" transform="translate(-5.62 -3.57)" fill="#5bf1cd"/>
    <path d="M157,28.34h7.39l-.4,2.28H159.4l-.4,2.23h3.86l-.4,2.29H158.6l-.41,2.33h4.67l-.4,2.29H155Z" transform="translate(-5.62 -3.57)" fill="#5bf1cd"/>
    <path d="M29.43,22.32a12.18,12.18,0,0,0,17.25,0,13,13,0,0,0,1.52-1.86A12.2,12.2,0,0,1,31.28,3.57a12.17,12.17,0,0,0-1.85,18.75Z" transform="translate(-5.62 -3.57)" fill="url(#a)"/>
    <path d="M32.58,29.8,23.5,40.5c-6,7.08-5.15,7.94,1.92,1.91l16-13.71A17.79,17.79,0,0,1,32.58,29.8Z" transform="translate(-5.62 -3.57)" fill="#5bf1cd"/>
    <path d="M25.92,25.86c-.49-.49-1.24-1.31-1.66-1.83L13.58,36.48c-7.68,8.75-6.82,9.61,1.91,1.92L28.13,27.86C27.56,27.39,26.47,26.41,25.92,25.86Z" transform="translate(-5.62 -3.57)" fill="#5bf1cd"/>
    <path d="M22.88,11,9.63,26.54c-6,7.08-5.16,7.94,1.91,1.91l10.54-9A17.88,17.88,0,0,1,22.88,11Z" transform="translate(-5.62 -3.57)" fill="#5bf1cd"/>
  </g>
</svg>
