<svg width="31" height="25" viewBox="0 0 31 25" fill="none" xmlns="http://www.w3.org/2000/svg">
<path d="M27.2566 6.22301C27.2751 6.49302 27.2751 6.76553 27.2751 7.03804C27.2751 15.3809 21.0098 25 9.55336 25C6.16629 25.005 2.84954 24.0207 0 22.1649C0.491175 22.2241 0.985353 22.2542 1.47999 22.2549C4.28528 22.2582 7.01004 21.3045 9.21543 19.5473C7.91555 19.523 6.6557 19.0874 5.61228 18.3012C4.56887 17.5151 3.79414 16.418 3.39659 15.1634C4.32968 15.3461 5.29171 15.3093 6.20858 15.0558C4.79915 14.7671 3.5316 13.9933 2.62078 12.8656C1.70997 11.7378 1.21194 10.3255 1.21113 8.86811V8.78811C2.07747 9.27685 3.04687 9.54777 4.03792 9.57814C2.72001 8.68469 1.78747 7.31588 1.43004 5.75022C1.07262 4.18456 1.31716 2.53969 2.11393 1.15031C3.67772 3.10052 5.62866 4.69561 7.84011 5.83205C10.0516 6.96848 12.4741 7.62085 14.9504 7.74682C14.6407 6.39355 14.7796 4.97455 15.3457 3.70936C15.9117 2.44416 16.8733 1.40329 18.0818 0.747762C19.2902 0.0922357 20.6781 -0.141405 22.0307 0.0829867C23.3833 0.307378 24.6253 0.977295 25.5644 1.9891C26.9589 1.71019 28.2962 1.19189 29.5185 0.456537C29.0537 1.91834 28.0807 3.15914 26.7805 3.94792C28.0149 3.8 29.2205 3.46544 30.3572 2.95538C29.5228 4.22216 28.4729 5.32857 27.2566 6.22301Z" fill="#E6FFF9"/>
</svg>
