<svg width="353" height="549" viewBox="0 0 353 549" fill="none" xmlns="http://www.w3.org/2000/svg">
<path d="M78.9355 338.241L78.9356 548.216" stroke="#2FD8E2" stroke-width="3" stroke-miterlimit="10"/>
<path d="M78.9355 0.904663L78.9355 210.88" stroke="#2FD8E2" stroke-width="3" stroke-miterlimit="10"/>
<path d="M15.2542 274.561H-189.557" stroke="#2FD8E2" stroke-width="3" stroke-miterlimit="10"/>
<path d="M350.869 274.561L144.337 274.561" stroke="#2FD8E2" stroke-width="3" stroke-miterlimit="10"/>
<path d="M78.9294 416.07V457.533" stroke="#2FD8E2" stroke-width="3" stroke-miterlimit="10"/>
<path d="M78.9294 90.2867V131.75" stroke="#2FD8E2" stroke-width="3" stroke-miterlimit="10"/>
<path d="M261.787 273.91L220.323 273.91" stroke="#2FD8E2" stroke-width="3" stroke-miterlimit="10"/>
<path d="M79.09 337.225C113.79 337.225 141.92 309.095 141.92 274.395C141.92 239.695 113.79 211.565 79.09 211.565C44.3899 211.565 16.26 239.695 16.26 274.395C16.26 309.095 44.3899 337.225 79.09 337.225Z" stroke="#2FD8E2" stroke-width="3" stroke-miterlimit="10"/>
<path d="M79.0899 488.316C197.235 488.316 293.01 392.541 293.01 274.396C293.01 156.251 197.235 60.4753 79.0899 60.4753C-39.0551 60.4753 -134.831 156.251 -134.831 274.396C-134.831 392.541 -39.0551 488.316 79.0899 488.316Z" stroke="#2FD8E2" stroke-width="3" stroke-miterlimit="10"/>
<path d="M79.0899 517.4C213.298 517.4 322.095 408.603 322.095 274.395C322.095 140.187 213.298 31.39 79.0899 31.39C-55.1181 31.39 -163.915 140.187 -163.915 274.395C-163.915 408.603 -55.1181 517.4 79.0899 517.4Z" stroke="#2FD8E2" stroke-width="3" stroke-miterlimit="10"/>
<path d="M79.0905 546.486C229.362 546.486 351.181 424.667 351.181 274.395C351.181 124.124 229.362 2.30457 79.0905 2.30457C-71.1809 2.30457 -193 124.124 -193 274.395C-193 424.667 -71.1809 546.486 79.0905 546.486Z" stroke="#2FD8E2" stroke-width="3" stroke-miterlimit="10"/>
<path d="M141.92 274.395C186.918 285.268 228.533 307.088 263.068 337.916C284.692 357.398 303.099 380.177 317.61 405.407" stroke="#2FD8E2" stroke-width="3" stroke-miterlimit="10"/>
<path d="M142.616 274.56C179.291 263.209 213.607 245.171 243.874 221.336C272.5 198.765 297.053 171.354 316.448 140.314" stroke="#2FD8E2" stroke-width="3" stroke-miterlimit="10"/>
<path d="M141.92 274.395C213.274 282.475 281.621 307.671 341.145 347.84" stroke="#2FD8E2" stroke-width="3" stroke-miterlimit="10"/>
<path d="M141.92 274.396C180.653 266.958 218.843 256.937 256.237 244.399C285.911 234.447 315.036 222.927 343.488 209.885" stroke="#2FD8E2" stroke-width="3" stroke-miterlimit="10"/>
<path d="M78.9348 209.158C89.3658 164.301 110.521 122.761 140.521 88.2294C159.481 66.6072 181.68 48.1715 206.297 33.6047" stroke="#2FD8E2" stroke-width="3" stroke-miterlimit="10"/>
<path d="M78.7051 209.273C67.4005 172.918 49.5482 138.936 26.0277 108.999C3.75518 80.686 -23.2464 56.4379 -53.7832 37.3271" stroke="#2FD8E2" stroke-width="3" stroke-miterlimit="10"/>
<path d="M78.9348 209.158C86.472 138.353 110.68 70.4516 149.5 11.2303" stroke="#2FD8E2" stroke-width="3" stroke-miterlimit="10"/>
<path d="M78.9357 209.158C71.3233 170.771 61.1313 132.934 48.4281 95.8986C38.3457 66.5091 26.6979 37.6721 13.5337 9.50952" stroke="#2FD8E2" stroke-width="3" stroke-miterlimit="10"/>
<path d="M15.254 274.56C-29.7086 263.704 -71.2913 241.919 -105.799 211.14C-127.406 191.688 -145.799 168.946 -160.299 143.756" stroke="#2FD8E2" stroke-width="3" stroke-miterlimit="10"/>
<path d="M15.2546 274.56C-55.9891 296.804 -117.06 344.439 -156.856 408.806" stroke="#2FD8E2" stroke-width="3" stroke-miterlimit="10"/>
<path d="M15.2553 274.56C-28.6852 269.472 -71.6343 257.778 -112.18 239.863C-136.805 228.956 -160.399 215.798 -182.672 200.552" stroke="#2FD8E2" stroke-width="3" stroke-miterlimit="10"/>
<path d="M15.3332 273.738C-54.1977 287.087 -121.872 308.746 -186.232 338.249" stroke="#2FD8E2" stroke-width="3" stroke-miterlimit="10"/>
<path d="M78.9352 338.241C68.3635 383.097 46.9225 424.637 16.5172 459.169C-2.69953 480.791 -25.1988 499.227 -50.1477 513.794" stroke="#2FD8E2" stroke-width="3" stroke-miterlimit="10"/>
<path d="M78.9351 338.241C101.095 410.352 148.119 472.033 211.46 512.072" stroke="#2FD8E2" stroke-width="3" stroke-miterlimit="10"/>
<path d="M78.9344 338.241C74.1075 382.128 62.7407 425.056 45.2078 465.614C34.5333 490.247 21.6267 513.863 6.64795 536.168" stroke="#2FD8E2" stroke-width="3" stroke-miterlimit="10"/>
<path d="M78.9351 338.241C92.5988 407.152 114.557 474.182 144.337 537.889" stroke="#2FD8E2" stroke-width="3" stroke-miterlimit="10"/>
<path d="M168.519 274.395C170.385 323.75 128.478 363.825 79.0895 363.825C67.3454 363.825 55.7163 361.511 44.8662 357.017C34.0161 352.523 24.1574 345.936 15.8531 337.631C7.54874 329.327 0.96137 319.468 -3.5329 308.618C-8.02717 297.768 -10.3403 286.139 -10.3403 274.395C-10.3403 262.651 -8.02717 251.022 -3.5329 240.171C0.96137 229.321 7.54874 219.463 15.8531 211.158C24.1574 202.854 34.0161 196.267 44.8662 191.772C55.7163 187.278 67.3454 184.965 79.0895 184.965C128.077 185.237 166.698 226.231 168.519 274.395Z" fill="#2BCFD9" stroke="#2FD8E2" stroke-width="3" stroke-miterlimit="10"/>
<path d="M128.228 248.493C111.371 215.575 72.6235 201.734 41.6825 217.578C10.7414 233.422 -0.676215 272.952 16.1805 305.87C33.0373 338.789 71.7851 352.63 102.726 336.785C133.667 320.941 145.085 281.411 128.228 248.493Z" fill="#2BCFD9" stroke="#5BF1CD" stroke-width="3" stroke-miterlimit="10"/>
<path d="M140.501 244.33C123.644 211.412 84.896 197.571 53.9549 213.415C23.0138 229.26 11.5962 268.789 28.453 301.707C45.3098 334.626 84.0575 348.467 114.999 332.622C145.94 316.778 157.357 277.248 140.501 244.33Z" fill="#2BCFD9" stroke="#5BF1CD" stroke-width="3" stroke-miterlimit="10"/>
<path d="M128.507 250.474C115.244 224.574 84.7793 213.674 60.4614 226.126C36.1434 238.579 27.1814 269.67 40.4441 295.569C53.7067 321.469 84.1718 332.37 108.49 319.917C132.808 307.464 141.77 276.374 128.507 250.474Z" fill="#2BCFD9" stroke="#5BF1CD" stroke-width="3" stroke-miterlimit="10"/>
<path d="M95.9398 305.364L63.9079 278.666L75.1367 238.507L107.169 265.205L95.9398 305.364Z" stroke="white" stroke-width="3"/>
<path d="M63.9084 278.667L89.2099 283.735L107.169 265.206" stroke="white" stroke-width="3"/>
<path d="M75.1365 238.509L95.9396 305.366" stroke="white" stroke-width="3"/>
</svg>
