<svg width="1400" height="1034" viewBox="0 0 1400 1034" fill="none" xmlns="http://www.w3.org/2000/svg">
<path d="M1072.45 877.894C1359.88 877.894 1592.89 644.882 1592.89 357.447C1592.89 70.0121 1359.88 -163 1072.45 -163C785.012 -163 552 70.0121 552 357.447C552 644.882 785.012 877.894 1072.45 877.894Z" fill="#2BCFD9" stroke="#2FD8E2" stroke-width="2" stroke-miterlimit="10"/>
<path d="M1240.11 -118.86L890.29 -117.543L622.82 108.424L563.199 453.302L739.427 756.018L1068.82 874.272L1397.23 753.383L1571.15 449.679L1509.23 105.13L1240.11 -118.86Z" stroke="#2FD8E2" stroke-width="2" stroke-miterlimit="10"/>
<path d="M1191.36 16.521L939.699 17.5092L747.66 179.902L704.839 427.938L831.327 645.34L1068.16 730.653L1304.34 643.693L1429.51 425.303L1384.71 177.596L1191.36 16.521Z" stroke="#2FD8E2" stroke-width="2" stroke-miterlimit="10"/>
<path d="M1137.01 606.142L1314.88 428.597L1249.66 186.161L1007.23 120.941L829.683 298.486L894.574 541.251L1137.01 606.142Z" stroke="#2FD8E2" stroke-width="2" stroke-miterlimit="10"/>
<path d="M1509.23 105.129L1384.72 177.597" stroke="#2FD8E2" stroke-width="2" stroke-miterlimit="10"/>
<path d="M1397.23 753.383L1304.34 643.694" stroke="#2FD8E2" stroke-width="2" stroke-miterlimit="10"/>
<path d="M1068.82 874.27L1068.16 730.653" stroke="#2FD8E2" stroke-width="2" stroke-miterlimit="10"/>
<path d="M739.427 756.017L831.328 645.34" stroke="#2FD8E2" stroke-width="2" stroke-miterlimit="10"/>
<path d="M563.198 453.301L704.839 427.937" stroke="#2FD8E2" stroke-width="2" stroke-miterlimit="10"/>
<path d="M747.662 179.902L622.821 108.423" stroke="#2FD8E2" stroke-width="2" stroke-miterlimit="10"/>
<path d="M890.292 -117.542L939.702 17.5107" stroke="#2FD8E2" stroke-width="2" stroke-miterlimit="10"/>
<path d="M1191.36 16.5218L1240.11 -118.86" stroke="#2FD8E2" stroke-width="2" stroke-miterlimit="10"/>
<path d="M1112.31 513.91L1072.12 354.153L1182.14 253.357L1222.65 403.892L1112.31 513.91Z" fill="#2BCFD9" stroke="#2FD8E2" stroke-width="2" stroke-miterlimit="10"/>
<path d="M921.584 323.19L1072.12 354.153L1182.14 253.358L1031.93 213.171L921.584 323.19Z" fill="#2BCFD9" stroke="#2FD8E2" stroke-width="2" stroke-miterlimit="10"/>
<path d="M1112.3 513.911L962.1 473.724L921.584 323.19L1072.12 354.153L1112.3 513.911Z" fill="#2BCFD9" stroke="#2FD8E2" stroke-width="2" stroke-miterlimit="10"/>
<path d="M894.573 541.25L921.254 514.569" stroke="#2FD8E2" stroke-width="2" stroke-linecap="round" stroke-linejoin="round"/>
<path d="M921.255 514.569L935.09 500.405" stroke="#2FD8E2" stroke-width="2" stroke-linecap="round" stroke-linejoin="round" stroke-dasharray="19.06 19.06"/>
<path d="M935.088 500.404L962.099 473.723" stroke="#2FD8E2" stroke-width="2" stroke-linecap="round" stroke-linejoin="round"/>
<path d="M829.682 298.484L866.245 308.366" stroke="#2FD8E2" stroke-width="2" stroke-linecap="round" stroke-linejoin="round"/>
<path d="M866.245 308.366L885.021 313.637" stroke="#2FD8E2" stroke-width="2" stroke-linecap="round" stroke-linejoin="round" stroke-dasharray="19.06 19.06"/>
<path d="M885.02 313.636L921.583 323.189" stroke="#2FD8E2" stroke-width="2" stroke-linecap="round" stroke-linejoin="round"/>
<path d="M1112.31 513.911L1122.19 550.803" stroke="#2FD8E2" stroke-width="2" stroke-linecap="round" stroke-linejoin="round"/>
<path d="M1122.19 550.802L1127.46 569.578" stroke="#2FD8E2" stroke-width="2" stroke-linecap="round" stroke-linejoin="round" stroke-dasharray="19.06 19.06"/>
<path d="M1127.46 569.58L1137.01 606.143" stroke="#2FD8E2" stroke-width="2" stroke-linecap="round" stroke-linejoin="round"/>
<path d="M1222.65 403.893L1259.22 413.775" stroke="#2FD8E2" stroke-width="2" stroke-linecap="round" stroke-linejoin="round"/>
<path d="M1259.22 413.774L1278.32 418.715" stroke="#2FD8E2" stroke-width="2" stroke-linecap="round" stroke-linejoin="round" stroke-dasharray="19.06 19.06"/>
<path d="M1278.32 418.715L1314.88 428.597" stroke="#2FD8E2" stroke-width="2" stroke-linecap="round" stroke-linejoin="round"/>
<path d="M1249.66 186.161L1222.98 212.842" stroke="#2FD8E2" stroke-width="2" stroke-linecap="round" stroke-linejoin="round"/>
<path d="M1222.98 212.842L1209.15 226.677" stroke="#2FD8E2" stroke-width="2" stroke-linecap="round" stroke-linejoin="round" stroke-dasharray="19.06 19.06"/>
<path d="M1209.15 226.677L1182.14 253.358" stroke="#2FD8E2" stroke-width="2" stroke-linecap="round" stroke-linejoin="round"/>
<path d="M1007.23 120.94L1017.11 157.504" stroke="#2FD8E2" stroke-width="2" stroke-linecap="round" stroke-linejoin="round"/>
<path d="M1017.11 157.503L1022.05 176.608" stroke="#2FD8E2" stroke-width="2" stroke-linecap="round" stroke-linejoin="round" stroke-dasharray="19.06 19.06"/>
<path d="M1022.05 176.608L1031.93 213.171" stroke="#2FD8E2" stroke-width="2" stroke-linecap="round" stroke-linejoin="round"/>
<path d="M1384.71 177.596L1571.15 449.678L1304.34 643.693L1068.82 874.27L831.327 645.34L563.198 453.301L747.661 179.902" stroke="#2FD8E2" stroke-width="2" stroke-miterlimit="10" stroke-linecap="round" stroke-linejoin="round"/>
<path d="M757.203 181.878C757.203 188.603 751.752 194.054 745.027 194.054C738.303 194.054 732.852 188.603 732.852 181.878C732.852 175.154 738.303 169.702 745.027 169.702C751.752 169.702 757.203 175.154 757.203 181.878Z" fill="#2BCFD9" stroke="#2FD8E2" stroke-width="2"/>
<path d="M1394.59 179.244C1394.59 185.968 1389.13 191.419 1382.41 191.419C1375.69 191.419 1370.23 185.968 1370.23 179.244C1370.23 172.519 1375.69 167.068 1382.41 167.068C1389.13 167.068 1394.59 172.519 1394.59 179.244Z" fill="#2BCFD9" stroke="#2FD8E2" stroke-width="2"/>
<path d="M1247.03 200.984C1254.31 200.984 1260.2 195.085 1260.2 187.808C1260.2 180.531 1254.31 174.632 1247.03 174.632C1239.75 174.632 1233.85 180.531 1233.85 187.808C1233.85 195.085 1239.75 200.984 1247.03 200.984Z" fill="#2BCFD9" stroke="#2FD8E2" stroke-width="2" stroke-miterlimit="10"/>
<path d="M958.478 489.536C965.754 489.536 971.653 483.637 971.653 476.36C971.653 469.083 965.754 463.184 958.478 463.184C951.201 463.184 945.302 469.083 945.302 476.36C945.302 483.637 951.201 489.536 958.478 489.536Z" fill="#2BCFD9" stroke="#2FD8E2" stroke-width="2" stroke-miterlimit="10"/>
<path d="M837.905 645.34C837.905 652.065 832.454 657.516 825.73 657.516C819.005 657.516 813.554 652.065 813.554 645.34C813.554 638.616 819.005 633.165 825.73 633.165C832.454 633.165 837.905 638.616 837.905 645.34Z" fill="#2BCFD9" stroke="#2FD8E2" stroke-width="2"/>
<path d="M1313.88 645.339C1313.88 652.064 1308.43 657.515 1301.71 657.515C1294.98 657.515 1289.53 652.064 1289.53 645.339C1289.53 638.615 1294.98 633.164 1301.71 633.164C1308.43 633.164 1313.88 638.615 1313.88 645.339Z" fill="#2BCFD9" stroke="#2FD8E2" stroke-width="2"/>
<path d="M1454.21 426.95C1454.21 442.043 1441.97 454.278 1426.88 454.278C1411.79 454.278 1399.55 442.043 1399.55 426.95C1399.55 411.857 1411.79 399.622 1426.88 399.622C1441.97 399.622 1454.21 411.857 1454.21 426.95Z" fill="#2BCFD9" stroke="#2FD8E2" stroke-width="2"/>
<path d="M1090.22 730.984C1090.22 746.077 1077.99 758.312 1062.9 758.312C1047.8 758.312 1035.57 746.077 1035.57 730.984C1035.57 715.891 1047.8 703.656 1062.9 703.656C1077.99 703.656 1090.22 715.891 1090.22 730.984Z" fill="#2BCFD9" stroke="#2FD8E2" stroke-width="2"/>
<path d="M730.852 434.527C730.852 449.62 718.616 461.855 703.523 461.855C688.431 461.855 676.195 449.62 676.195 434.527C676.195 419.434 688.431 407.199 703.523 407.199C718.616 407.199 730.852 419.434 730.852 434.527Z" fill="#2BCFD9" stroke="#2FD8E2" stroke-width="2"/>
<g filter="url(#filter0_f_424_11106)">
<circle cx="-69.5404" cy="207.02" r="159.82" fill="#7AE9B2"/>
</g>
<g filter="url(#filter1_f_424_11106)">
<circle cx="605.82" cy="559.82" r="159.82" fill="#CAFFF0"/>
</g>
<circle cx="741.76" cy="420.52" r="4.88" fill="#CAFFF0"/>
<circle cx="475.799" cy="632.8" r="4.88" fill="#CAFFF0"/>
<g filter="url(#filter2_f_424_11106)">
<circle cx="59.7797" cy="697.46" r="8.54" fill="#CAFFF0"/>
</g>
<g filter="url(#filter3_f_424_11106)">
<circle cx="597.8" cy="266.8" r="8.54" fill="#CAFFF0"/>
</g>
<circle cx="331.839" cy="186.28" r="4.88" fill="#CAFFF0"/>
<defs>
<filter id="filter0_f_424_11106" x="-473.36" y="-196.8" width="807.64" height="807.64" filterUnits="userSpaceOnUse" color-interpolation-filters="sRGB">
<feFlood flood-opacity="0" result="BackgroundImageFix"/>
<feBlend mode="normal" in="SourceGraphic" in2="BackgroundImageFix" result="shape"/>
<feGaussianBlur stdDeviation="122" result="effect1_foregroundBlur_424_11106"/>
</filter>
<filter id="filter1_f_424_11106" x="132" y="86" width="947.64" height="947.64" filterUnits="userSpaceOnUse" color-interpolation-filters="sRGB">
<feFlood flood-opacity="0" result="BackgroundImageFix"/>
<feBlend mode="normal" in="SourceGraphic" in2="BackgroundImageFix" result="shape"/>
<feGaussianBlur stdDeviation="157" result="effect1_foregroundBlur_424_11106"/>
</filter>
<filter id="filter2_f_424_11106" x="46.3597" y="684.04" width="26.8401" height="26.8401" filterUnits="userSpaceOnUse" color-interpolation-filters="sRGB">
<feFlood flood-opacity="0" result="BackgroundImageFix"/>
<feBlend mode="normal" in="SourceGraphic" in2="BackgroundImageFix" result="shape"/>
<feGaussianBlur stdDeviation="2.44" result="effect1_foregroundBlur_424_11106"/>
</filter>
<filter id="filter3_f_424_11106" x="584.38" y="253.38" width="26.8401" height="26.8401" filterUnits="userSpaceOnUse" color-interpolation-filters="sRGB">
<feFlood flood-opacity="0" result="BackgroundImageFix"/>
<feBlend mode="normal" in="SourceGraphic" in2="BackgroundImageFix" result="shape"/>
<feGaussianBlur stdDeviation="2.44" result="effect1_foregroundBlur_424_11106"/>
</filter>
</defs>
</svg>
