<svg width="40" height="60" viewBox="0 0 115 115" fill="none" xmlns="http://www.w3.org/2000/svg">
<path d="M57.5001 114.999C25.7439 114.999 -2.28882e-05 89.2561 -2.28882e-05 57.4999C-2.28882e-05 25.7436 25.7439 0 57.5001 0C89.2564 0 115 25.7436 115 57.4999C115 89.2561 89.2564 114.999 57.5001 114.999Z" fill="#40C9A8"/>
<path d="M71.6438 48.1145C73.5629 50.9931 74.7623 54.3516 74.7623 57.7101C74.7623 61.0685 73.5629 64.427 71.6438 67.3057L75.722 70.4242C78.3608 66.8259 79.8001 62.268 79.8001 57.7101C79.8001 52.9123 78.3607 48.3544 75.482 44.5161L73.0831 46.6752L71.6438 48.1145Z" fill="#E6FFF9"/>
<path d="M79.5547 73.3003L65.4013 62.5053C66.3609 61.066 67.0804 59.6267 67.0804 57.9475C67.0804 56.2682 66.6007 54.589 65.881 53.1497L72.598 47.1524L79.5547 40.6754C80.0345 40.1956 80.0345 39.4759 79.5547 38.9961L78.5953 38.0365C73.5576 32.9988 66.8406 30.1202 59.6439 29.8803V26.042C59.6439 25.8021 59.6439 25.5622 59.6439 25.3223C59.6439 25.0824 59.404 24.8426 59.1641 24.6027C58.9242 24.3628 58.6843 24.3628 58.4445 24.1229C58.2046 24.1229 57.9647 23.8831 57.7248 23.8831C57.4849 23.8831 57.2451 23.883 57.0052 24.1229C56.7653 24.1229 56.5253 24.3628 56.2854 24.6027C56.0455 24.8426 56.0456 25.0824 55.8057 25.3223C55.8057 25.5622 55.8057 25.8021 55.8057 26.042V30.1201C54.1265 30.36 52.4472 30.6 50.7679 31.0798V26.042C50.7679 25.8021 50.7679 25.5622 50.7679 25.3223C50.7679 25.0824 50.528 24.8426 50.2881 24.6027C50.0482 24.3628 49.8084 24.3628 49.5685 24.1229C49.3286 24.1229 49.0887 23.8831 48.8489 23.8831C48.609 23.8831 48.3691 23.883 48.1292 24.1229C47.8893 24.1229 47.6495 24.3628 47.4096 24.6027C47.1697 24.8426 47.1697 25.0824 46.9298 25.3223C46.9298 25.5622 46.9298 25.8021 46.9298 26.042V32.2792C41.1724 34.918 36.3745 39.4759 33.4958 44.9934C30.6171 50.5108 29.6576 57.2277 30.8571 63.2249C32.0565 69.4621 35.4151 74.9796 40.2129 79.0578C45.0107 83.1359 51.2477 85.5348 57.4848 85.5348H77.8755C78.5952 85.5348 79.0749 85.055 79.0749 84.3354V74.02C80.0345 74.02 79.7946 73.5402 79.5547 73.3003ZM58.6843 80.737C53.6466 80.737 48.8488 79.0578 44.7707 75.9392C40.6926 72.8207 38.0539 68.5025 36.6145 63.7047C35.4151 58.9069 35.6549 53.6294 37.574 49.0715C39.4931 44.5136 42.8517 40.4354 47.4096 38.0365V45.4732C47.4096 45.7131 47.4096 45.9529 47.4096 46.1928C47.4096 46.4327 47.6493 46.6726 47.8892 46.9124C48.1291 47.1523 48.3691 47.1524 48.609 47.3923C48.8489 47.3923 49.0888 47.6321 49.3287 47.6321C49.5686 47.6321 49.8084 47.6321 50.0483 47.3923C50.2882 47.3923 50.5281 47.1523 50.7679 46.9124C51.0078 46.6726 51.0079 46.4327 51.2478 46.1928C51.2478 45.9529 51.2478 45.7131 51.2478 45.4732V36.1174C53.6467 35.1578 56.5253 34.6781 59.1641 34.6781C64.2018 34.6781 68.9996 36.3573 72.8379 39.2359C73.0777 39.4758 73.0777 39.9557 72.8379 40.1956L62.0428 50.031C61.0832 49.5512 59.8838 49.3113 58.9243 49.3113C57.7248 49.3113 56.5253 49.5512 55.5657 50.031C54.3663 50.5108 53.4067 51.2305 52.687 52.1901C51.9674 53.1496 51.2478 54.1091 51.0079 55.3086C50.768 56.508 50.5281 57.7075 50.7679 58.9069C51.0078 60.1064 51.2477 61.3059 51.9674 62.2655C52.6871 63.225 53.4067 64.1846 54.3663 64.6644C55.3259 65.384 56.5254 65.6239 57.7248 65.8638C58.9243 66.1037 60.1237 65.8637 61.3232 65.6238L74.9969 75.9392C75.2368 75.9392 75.2368 76.179 75.2368 76.4189V80.0172C75.2368 80.2571 74.9968 80.4971 74.7569 80.4971L58.6843 80.737ZM62.0428 57.9475C62.0428 58.6671 61.8029 59.1469 61.563 59.8666C61.0832 60.3463 60.6035 60.8261 60.1237 61.066C59.404 61.3059 58.9243 61.3058 58.2046 61.3058C57.485 61.066 57.0051 60.8262 56.5254 60.3464C56.0456 59.8666 55.8056 59.3868 55.5657 58.6671C55.5657 57.9474 55.5658 57.4677 55.8057 56.748C56.0456 56.0284 56.5254 55.5485 57.0052 55.3086C57.485 55.0687 58.2046 54.8288 58.9243 54.8288C59.8838 54.8288 60.6035 55.0687 61.3232 55.7884C61.8029 56.2682 62.0428 56.9879 62.0428 57.9475Z" fill="#E6FFF9"/>
</svg>
