<svg width="1043" height="1044" viewBox="0 0 1043 1044" fill="none" xmlns="http://www.w3.org/2000/svg">
<path d="M521.447 1.78833C234.012 1.78833 0.999878 234.8 0.999878 522.235C0.999878 809.67 234.012 1042.68 521.447 1042.68C808.882 1042.68 1041.89 809.67 1041.89 522.235C1041.89 234.8 808.882 1.78833 521.447 1.78833Z" fill="#2BCFD9" stroke="#2FD8E2" stroke-width="2" stroke-miterlimit="10"/>
<path d="M353.784 998.543L703.604 997.225L971.074 771.259L1030.69 426.38L854.467 123.664L525.071 5.41104L196.662 126.3L22.7403 430.004L84.6669 774.553L353.784 998.543Z" stroke="#2FD8E2" stroke-width="2" stroke-miterlimit="10"/>
<path d="M402.536 863.161L654.195 862.173L846.234 699.781L889.055 451.745L762.567 234.343L525.73 149.029L289.553 235.99L164.382 454.38L209.18 702.086L402.536 863.161Z" stroke="#2FD8E2" stroke-width="2" stroke-miterlimit="10"/>
<path d="M456.884 273.54L279.01 451.085L344.23 693.521L586.667 758.742L764.211 581.197L699.32 338.431L456.884 273.54Z" stroke="#2FD8E2" stroke-width="2" stroke-miterlimit="10"/>
<path d="M84.6652 774.553L209.177 702.086" stroke="#2FD8E2" stroke-width="2" stroke-miterlimit="10"/>
<path d="M22.7402 430.004L164.381 454.379" stroke="#2FD8E2" stroke-width="2" stroke-miterlimit="10"/>
<path d="M196.66 126.299L289.55 235.989" stroke="#2FD8E2" stroke-width="2" stroke-miterlimit="10"/>
<path d="M525.071 5.41193L525.729 149.029" stroke="#2FD8E2" stroke-width="2" stroke-miterlimit="10"/>
<path d="M854.468 123.665L762.566 234.343" stroke="#2FD8E2" stroke-width="2" stroke-miterlimit="10"/>
<path d="M1030.7 426.382L889.055 451.745" stroke="#2FD8E2" stroke-width="2" stroke-miterlimit="10"/>
<path d="M846.232 699.78L971.073 771.259" stroke="#2FD8E2" stroke-width="2" stroke-miterlimit="10"/>
<path d="M703.602 997.224L654.192 862.172" stroke="#2FD8E2" stroke-width="2" stroke-miterlimit="10"/>
<path d="M402.534 863.161L353.783 998.543" stroke="#2FD8E2" stroke-width="2" stroke-miterlimit="10"/>
<path d="M481.589 365.772L521.775 525.53L411.757 626.325L371.241 475.791L481.589 365.772Z" fill="#2BCFD9" stroke="#2FD8E2" stroke-width="2" stroke-miterlimit="10"/>
<path d="M672.31 556.493L521.776 525.529L411.757 626.325L561.962 666.511L672.31 556.493Z" fill="#2BCFD9" stroke="#2FD8E2" stroke-width="2" stroke-miterlimit="10"/>
<path d="M481.589 365.772L631.794 405.958L672.31 556.493L521.776 525.529L481.589 365.772Z" fill="#2BCFD9" stroke="#2FD8E2" stroke-width="2" stroke-miterlimit="10"/>
<path d="M699.322 338.432L672.64 365.113" stroke="#2FD8E2" stroke-width="2" stroke-linecap="round" stroke-linejoin="round"/>
<path d="M672.639 365.114L658.804 379.278" stroke="#2FD8E2" stroke-width="2" stroke-linecap="round" stroke-linejoin="round" stroke-dasharray="19.06 19.06"/>
<path d="M658.806 379.278L631.795 405.959" stroke="#2FD8E2" stroke-width="2" stroke-linecap="round" stroke-linejoin="round"/>
<path d="M764.212 581.198L727.649 571.316" stroke="#2FD8E2" stroke-width="2" stroke-linecap="round" stroke-linejoin="round"/>
<path d="M727.649 571.316L708.874 566.046" stroke="#2FD8E2" stroke-width="2" stroke-linecap="round" stroke-linejoin="round" stroke-dasharray="19.06 19.06"/>
<path d="M708.875 566.046L672.311 556.494" stroke="#2FD8E2" stroke-width="2" stroke-linecap="round" stroke-linejoin="round"/>
<path d="M481.589 365.772L471.707 328.879" stroke="#2FD8E2" stroke-width="2" stroke-linecap="round" stroke-linejoin="round"/>
<path d="M471.708 328.88L466.438 310.104" stroke="#2FD8E2" stroke-width="2" stroke-linecap="round" stroke-linejoin="round" stroke-dasharray="19.06 19.06"/>
<path d="M466.435 310.103L456.883 273.54" stroke="#2FD8E2" stroke-width="2" stroke-linecap="round" stroke-linejoin="round"/>
<path d="M371.24 475.79L334.677 465.908" stroke="#2FD8E2" stroke-width="2" stroke-linecap="round" stroke-linejoin="round"/>
<path d="M334.676 465.908L315.571 460.967" stroke="#2FD8E2" stroke-width="2" stroke-linecap="round" stroke-linejoin="round" stroke-dasharray="19.06 19.06"/>
<path d="M315.573 460.967L279.01 451.085" stroke="#2FD8E2" stroke-width="2" stroke-linecap="round" stroke-linejoin="round"/>
<path d="M344.232 693.522L370.913 666.841" stroke="#2FD8E2" stroke-width="2" stroke-linecap="round" stroke-linejoin="round"/>
<path d="M370.911 666.84L384.746 653.006" stroke="#2FD8E2" stroke-width="2" stroke-linecap="round" stroke-linejoin="round" stroke-dasharray="19.06 19.06"/>
<path d="M384.745 653.005L411.756 626.324" stroke="#2FD8E2" stroke-width="2" stroke-linecap="round" stroke-linejoin="round"/>
<path d="M586.667 758.742L576.785 722.179" stroke="#2FD8E2" stroke-width="2" stroke-linecap="round" stroke-linejoin="round"/>
<path d="M576.786 722.179L571.845 703.074" stroke="#2FD8E2" stroke-width="2" stroke-linecap="round" stroke-linejoin="round" stroke-dasharray="19.06 19.06"/>
<path d="M571.844 703.074L561.962 666.511" stroke="#2FD8E2" stroke-width="2" stroke-linecap="round" stroke-linejoin="round"/>
<path d="M209.18 702.086L22.7413 430.005L289.553 235.99L525.072 5.41203L762.567 234.343L1030.7 426.381L846.234 699.781" stroke="#2FD8E2" stroke-width="2" stroke-miterlimit="10" stroke-linecap="round" stroke-linejoin="round"/>
<path d="M836.691 697.804C836.691 691.08 842.142 685.628 848.867 685.628C855.591 685.628 861.042 691.08 861.042 697.804C861.042 704.529 855.591 709.98 848.867 709.98C842.142 709.98 836.691 704.529 836.691 697.804Z" fill="#2BCFD9" stroke="#2FD8E2" stroke-width="2"/>
<path d="M199.308 700.439C199.308 693.714 204.759 688.263 211.484 688.263C218.208 688.263 223.66 693.714 223.66 700.439C223.66 707.164 218.208 712.615 211.484 712.615C204.759 712.615 199.308 707.164 199.308 700.439Z" fill="#2BCFD9" stroke="#2FD8E2" stroke-width="2"/>
<path d="M346.866 678.698C339.589 678.698 333.69 684.597 333.69 691.874C333.69 699.151 339.589 705.05 346.866 705.05C354.142 705.05 360.042 699.151 360.042 691.874C360.042 684.597 354.142 678.698 346.866 678.698Z" fill="#2BCFD9" stroke="#2FD8E2" stroke-width="2" stroke-miterlimit="10"/>
<path d="M635.416 390.146C628.14 390.146 622.241 396.046 622.241 403.322C622.241 410.599 628.14 416.498 635.416 416.498C642.693 416.498 648.592 410.599 648.592 403.322C648.592 396.046 642.693 390.146 635.416 390.146Z" fill="#2BCFD9" stroke="#2FD8E2" stroke-width="2" stroke-miterlimit="10"/>
<path d="M755.989 234.342C755.989 227.618 761.44 222.166 768.164 222.166C774.889 222.166 780.34 227.618 780.34 234.342C780.34 241.067 774.889 246.518 768.164 246.518C761.44 246.518 755.989 241.067 755.989 234.342Z" fill="#2BCFD9" stroke="#2FD8E2" stroke-width="2"/>
<path d="M280.011 234.343C280.011 227.618 285.462 222.167 292.187 222.167C298.911 222.167 304.363 227.618 304.363 234.343C304.363 241.067 298.911 246.519 292.187 246.519C285.462 246.519 280.011 241.067 280.011 234.343Z" fill="#2BCFD9" stroke="#2FD8E2" stroke-width="2"/>
<path d="M139.688 452.733C139.688 437.64 151.923 425.405 167.016 425.405C182.109 425.405 194.344 437.64 194.344 452.733C194.344 467.826 182.109 480.061 167.016 480.061C151.923 480.061 139.688 467.826 139.688 452.733Z" fill="#2BCFD9" stroke="#2FD8E2" stroke-width="2"/>
<path d="M503.67 148.699C503.67 133.606 515.906 121.371 530.999 121.371C546.091 121.371 558.327 133.606 558.327 148.699C558.327 163.792 546.091 176.027 530.999 176.027C515.906 176.027 503.67 163.792 503.67 148.699Z" fill="#2BCFD9" stroke="#2FD8E2" stroke-width="2"/>
<path d="M863.042 445.156C863.042 430.063 875.278 417.828 890.371 417.828C905.464 417.828 917.699 430.063 917.699 445.156C917.699 460.249 905.464 472.484 890.371 472.484C875.278 472.484 863.042 460.249 863.042 445.156Z" fill="#2BCFD9" stroke="#2FD8E2" stroke-width="2"/>
</svg>
