<svg width="53" height="42" viewBox="0 0 53 42" fill="none" xmlns="http://www.w3.org/2000/svg">
<path d="M50.0005 5.31624C47.3143 4.9099 44.606 4.66612 41.8905 4.58624C40.4165 3.03992 38.4755 2.02047 36.3659 1.68462C34.2562 1.34876 32.0945 1.71508 30.2133 2.72728C28.3321 3.73947 26.8353 5.3415 25.9531 7.28711C25.071 9.23272 24.8522 11.4142 25.3305 13.4962C17.2505 13.0862 11.1305 8.93624 5.41049 2.76624C4.63049 4.28624 3.15049 9.13624 4.30049 12.6362C5.66615 16.0957 8.01213 19.0812 11.0505 21.2262C8.12673 21.0926 5.24639 20.4672 2.53049 19.3762C3.94049 24.0062 8.78049 30.7262 16.3905 31.7762C12.9534 34.4915 8.70072 35.9678 4.32049 35.9662C3.54566 35.9753 2.77098 35.9386 2.00049 35.8562C6.44018 38.7252 11.6145 40.2497 16.9005 40.2462C34.7705 40.2462 44.5505 25.3562 44.5505 12.4362V11.1662L50.0005 5.31624Z" stroke="white" stroke-width="2"/>
</svg>
