<svg width="50" height="37" viewBox="0 0 50 37" fill="none" xmlns="http://www.w3.org/2000/svg">
<path d="M48.16 7.34995C47.9288 6.10021 47.3028 4.95759 46.374 4.09001C45.4452 3.22243 44.2626 2.67562 43 2.52995C37 2.14995 31 1.83995 25 1.82995C19 1.81995 13 2.12995 7.00005 2.50995C5.73567 2.65361 4.55085 3.19952 3.62009 4.06727C2.68934 4.93501 2.06185 6.07872 1.83005 7.32995C0.723317 14.9165 0.723317 22.6234 1.83005 30.2099C2.06205 31.4821 2.6879 32.6492 3.61918 33.5464C4.55047 34.4436 5.74011 35.0255 7.02005 35.2099C13.02 35.5899 19.02 35.9799 25.02 35.9799C31.02 35.9799 37.0201 35.6399 43.0201 35.2499C44.308 35.0476 45.5003 34.4468 46.4294 33.5321C47.3584 32.6174 47.9777 31.4346 48.2001 30.1499C48.7435 26.3812 49.0108 22.5777 49 18.7699C49.0002 14.9478 48.7195 11.1309 48.16 7.34995V7.34995ZM19.56 25.6599V11.7199L32.56 18.7199L19.56 25.6599Z" stroke="white" stroke-width="2"/>
</svg>
