<svg width="79" height="86" viewBox="0 0 79 86" fill="none" xmlns="http://www.w3.org/2000/svg">
<path d="M54.9344 67.5229L65.0677 76.7802C65.4275 77.109 65.8663 77.3192 66.3324 77.3862C66.7984 77.4533 67.2724 77.3743 67.6986 77.1586C68.1247 76.9429 68.4854 76.5994 68.7381 76.1686C68.9908 75.7377 69.125 75.2374 69.125 74.7265V21.4632C69.125 20.7516 68.8649 20.0692 68.4019 19.5661C67.9389 19.0629 67.311 18.7803 66.6562 18.7803H12.3438C11.689 18.7803 11.0611 19.0629 10.5981 19.5661C10.1351 20.0692 9.875 20.7516 9.875 21.4632V64.3894C9.875 65.101 10.1351 65.7834 10.5981 66.2865C11.0611 66.7897 11.689 67.0723 12.3438 67.0723H53.7969L54.9344 67.5229Z" stroke="#FFE171" stroke-width="2.44" stroke-linecap="round" stroke-linejoin="round"/>
<path d="M49.375 37.5605H29.625" stroke="white" stroke-width="2.4375" stroke-linecap="round"/>
<path d="M49.375 48.292H29.625" stroke="white" stroke-width="2.4375" stroke-linecap="round"/>
</svg>
