<svg width="222" height="263" viewBox="0 0 222 263" fill="none" xmlns="http://www.w3.org/2000/svg">
<rect x="0.5" y="0.5" width="221" height="262" rx="2.88371" fill="#E6FFF9" stroke="#00C7F5"/>
<path d="M49.8653 167.122H51.521L54.8876 179.338H55.1083L58.4749 167.122H60.1306L56.4881 180H53.5078L49.8653 167.122ZM65.0664 168.153C65.0664 167.797 65.1891 167.497 65.4344 167.251C65.6919 166.994 65.9985 166.865 66.3542 166.865C66.7099 166.865 67.0103 166.994 67.2556 167.251C67.5132 167.497 67.6419 167.797 67.6419 168.153C67.6419 168.508 67.5132 168.815 67.2556 169.072C67.0103 169.318 66.7099 169.44 66.3542 169.44C65.9985 169.44 65.6919 169.318 65.4344 169.072C65.1891 168.815 65.0664 168.508 65.0664 168.153ZM62.4541 178.675H65.6551V172.2H62.7853V170.875H67.0901V178.675H70.0703V180H62.4541V178.675ZM74.5462 175.879C74.583 176.787 74.8651 177.516 75.3925 178.068C75.9199 178.62 76.6557 178.896 77.6001 178.896C78.0293 178.896 78.4034 178.847 78.7223 178.749C79.0411 178.651 79.3109 178.516 79.5317 178.344C79.7647 178.173 79.9487 177.976 80.0836 177.756C80.2308 177.523 80.3473 177.277 80.4331 177.02L81.7945 177.388C81.5369 178.234 81.0586 178.927 80.3595 179.467C79.6727 179.994 78.7407 180.258 77.5633 180.258C76.9133 180.258 76.3123 180.147 75.7604 179.926C75.2208 179.693 74.7547 179.368 74.3623 178.951C73.9698 178.534 73.6632 178.038 73.4425 177.461C73.2217 176.885 73.1113 176.247 73.1113 175.548V175.107C73.1113 174.469 73.2217 173.874 73.4425 173.322C73.6755 172.77 73.9944 172.298 74.3991 171.906C74.8038 171.501 75.276 171.188 75.8156 170.967C76.3675 170.734 76.9623 170.618 77.6001 170.618C78.3482 170.618 78.9921 170.759 79.5317 171.041C80.0836 171.311 80.5312 171.648 80.8746 172.053C81.2303 172.457 81.4879 172.899 81.6473 173.377C81.819 173.856 81.9049 174.297 81.9049 174.702V175.879H74.5462ZM77.6001 171.979C77.1953 171.979 76.8151 172.047 76.4595 172.181C76.1161 172.304 75.8095 172.482 75.5397 172.715C75.2821 172.948 75.0675 173.224 74.8958 173.543C74.7363 173.849 74.6321 174.187 74.583 174.555H80.4699C80.4454 174.162 80.3473 173.807 80.1756 173.488C80.0161 173.169 79.8015 172.899 79.5317 172.678C79.2741 172.457 78.9737 172.286 78.6303 172.163C78.2991 172.04 77.9557 171.979 77.6001 171.979ZM92.654 180H90.0049L88.9011 171.538H88.6804L87.5766 180H84.9275L83.4926 170.875H84.9643L86.1784 179.338H86.3992L87.4662 170.875H90.1153L91.1823 179.338H91.4031L92.6172 170.875H94.0889L92.654 180ZM114.355 170.839C114.355 170.422 114.269 170.054 114.097 169.735C113.938 169.416 113.717 169.152 113.435 168.944C113.153 168.735 112.828 168.576 112.46 168.465C112.092 168.355 111.706 168.3 111.301 168.3C110.945 168.3 110.608 168.349 110.289 168.447C109.97 168.533 109.682 168.662 109.424 168.833C109.179 169.005 108.983 169.22 108.836 169.477C108.689 169.722 108.615 170.011 108.615 170.342V170.452C108.615 170.808 108.689 171.114 108.836 171.372C108.983 171.617 109.198 171.832 109.48 172.016C109.774 172.188 110.136 172.335 110.565 172.457C110.994 172.568 111.497 172.666 112.074 172.752C113.423 172.96 114.416 173.359 115.054 173.948C115.692 174.524 116.01 175.303 116.01 176.284V176.505C116.01 177.057 115.912 177.566 115.716 178.032C115.532 178.485 115.25 178.878 114.87 179.209C114.502 179.54 114.042 179.798 113.49 179.982C112.938 180.166 112.3 180.258 111.577 180.258C110.755 180.258 110.025 180.141 109.388 179.908C108.762 179.663 108.235 179.332 107.806 178.915C107.389 178.485 107.07 177.989 106.849 177.424C106.628 176.848 106.518 176.223 106.518 175.548V174.996H108.063V175.438C108.063 176.566 108.37 177.412 108.983 177.976C109.608 178.541 110.473 178.823 111.577 178.823C112.533 178.823 113.251 178.614 113.729 178.197C114.22 177.768 114.465 177.204 114.465 176.505V176.394C114.465 175.72 114.214 175.205 113.711 174.849C113.22 174.493 112.417 174.236 111.301 174.076C110.651 173.99 110.062 173.862 109.535 173.69C109.02 173.506 108.578 173.273 108.21 172.991C107.842 172.697 107.56 172.347 107.364 171.942C107.168 171.538 107.07 171.059 107.07 170.507V170.287C107.07 169.784 107.174 169.324 107.382 168.907C107.591 168.49 107.879 168.128 108.247 167.822C108.627 167.515 109.075 167.282 109.59 167.122C110.117 166.951 110.694 166.865 111.319 166.865C112.043 166.865 112.687 166.969 113.251 167.178C113.827 167.386 114.312 167.668 114.704 168.024C115.097 168.367 115.391 168.778 115.587 169.256C115.796 169.722 115.9 170.213 115.9 170.728V171.501H114.355V170.839ZM121.388 168.153C121.388 167.797 121.51 167.497 121.756 167.251C122.013 166.994 122.32 166.865 122.676 166.865C123.031 166.865 123.332 166.994 123.577 167.251C123.835 167.497 123.963 167.797 123.963 168.153C123.963 168.508 123.835 168.815 123.577 169.072C123.332 169.318 123.031 169.44 122.676 169.44C122.32 169.44 122.013 169.318 121.756 169.072C121.51 168.815 121.388 168.508 121.388 168.153ZM118.775 178.675H121.976V172.2H119.107V170.875H123.411V178.675H126.392V180H118.775V178.675ZM136.754 178.602H136.534C136.239 179.154 135.835 179.571 135.32 179.853C134.817 180.123 134.265 180.258 133.664 180.258C133.051 180.258 132.474 180.153 131.935 179.945C131.395 179.736 130.917 179.436 130.5 179.043C130.095 178.651 129.77 178.166 129.525 177.59C129.292 177.001 129.175 176.333 129.175 175.585V175.29C129.175 174.555 129.298 173.898 129.543 173.322C129.788 172.733 130.113 172.243 130.518 171.85C130.923 171.446 131.395 171.139 131.935 170.931C132.474 170.722 133.038 170.618 133.627 170.618C134.289 170.618 134.866 170.765 135.356 171.059C135.859 171.341 136.252 171.758 136.534 172.31H136.754V170.875H138.189V182.244C138.189 182.661 138.055 183.005 137.785 183.275C137.527 183.544 137.19 183.679 136.773 183.679H130.831V182.355H136.258C136.589 182.355 136.754 182.171 136.754 181.803V178.602ZM133.701 178.896C134.13 178.896 134.529 178.816 134.896 178.657C135.264 178.498 135.583 178.271 135.853 177.976C136.135 177.682 136.356 177.333 136.515 176.928C136.675 176.511 136.754 176.051 136.754 175.548V175.327C136.754 174.837 136.675 174.389 136.515 173.984C136.356 173.567 136.135 173.212 135.853 172.917C135.583 172.623 135.258 172.396 134.878 172.237C134.51 172.065 134.118 171.979 133.701 171.979C133.271 171.979 132.867 172.059 132.486 172.218C132.119 172.378 131.794 172.605 131.511 172.899C131.242 173.193 131.027 173.543 130.868 173.948C130.72 174.352 130.647 174.8 130.647 175.29V175.585C130.647 176.1 130.72 176.56 130.868 176.965C131.027 177.369 131.242 177.719 131.511 178.013C131.794 178.295 132.119 178.516 132.486 178.675C132.854 178.823 133.259 178.896 133.701 178.896ZM142.518 180H141.083V170.875H142.518V172.421H142.739C143.303 171.219 144.284 170.618 145.682 170.618C146.737 170.618 147.577 170.949 148.203 171.611C148.828 172.261 149.141 173.242 149.141 174.555V180H147.706V174.849C147.706 173.892 147.491 173.175 147.062 172.697C146.633 172.218 146.05 171.979 145.314 171.979C144.444 171.979 143.757 172.28 143.254 172.881C142.763 173.469 142.518 174.26 142.518 175.254V180ZM153.396 175.879C153.433 176.787 153.715 177.516 154.242 178.068C154.77 178.62 155.506 178.896 156.45 178.896C156.879 178.896 157.253 178.847 157.572 178.749C157.891 178.651 158.161 178.516 158.382 178.344C158.615 178.173 158.799 177.976 158.933 177.756C159.081 177.523 159.197 177.277 159.283 177.02L160.644 177.388C160.387 178.234 159.908 178.927 159.209 179.467C158.523 179.994 157.591 180.258 156.413 180.258C155.763 180.258 155.162 180.147 154.61 179.926C154.071 179.693 153.605 179.368 153.212 178.951C152.82 178.534 152.513 178.038 152.292 177.461C152.072 176.885 151.961 176.247 151.961 175.548V175.107C151.961 174.469 152.072 173.874 152.292 173.322C152.525 172.77 152.844 172.298 153.249 171.906C153.654 171.501 154.126 171.188 154.665 170.967C155.217 170.734 155.812 170.618 156.45 170.618C157.198 170.618 157.842 170.759 158.382 171.041C158.933 171.311 159.381 171.648 159.725 172.053C160.08 172.457 160.338 172.899 160.497 173.377C160.669 173.856 160.755 174.297 160.755 174.702V175.879H153.396ZM156.45 171.979C156.045 171.979 155.665 172.047 155.309 172.181C154.966 172.304 154.659 172.482 154.39 172.715C154.132 172.948 153.917 173.224 153.746 173.543C153.586 173.849 153.482 174.187 153.433 174.555H159.32C159.295 174.162 159.197 173.807 159.025 173.488C158.866 173.169 158.651 172.899 158.382 172.678C158.124 172.457 157.824 172.286 157.48 172.163C157.149 172.04 156.806 171.979 156.45 171.979ZM170.676 178.602H170.455C170.308 178.884 170.118 179.129 169.885 179.338C169.664 179.546 169.419 179.718 169.149 179.853C168.892 179.988 168.616 180.086 168.321 180.147C168.027 180.221 167.745 180.258 167.475 180.258C166.862 180.258 166.292 180.153 165.764 179.945C165.237 179.736 164.771 179.436 164.366 179.043C163.974 178.651 163.661 178.166 163.428 177.59C163.207 177.001 163.097 176.333 163.097 175.585V175.29C163.097 174.555 163.213 173.898 163.446 173.322C163.679 172.733 163.992 172.243 164.384 171.85C164.777 171.446 165.237 171.139 165.764 170.931C166.292 170.722 166.85 170.618 167.438 170.618C168.064 170.618 168.646 170.759 169.186 171.041C169.738 171.311 170.161 171.734 170.455 172.31H170.676V167.122H172.111V180H170.676V178.602ZM167.622 178.896C168.051 178.896 168.45 178.816 168.818 178.657C169.186 178.498 169.505 178.271 169.775 177.976C170.057 177.682 170.277 177.333 170.437 176.928C170.596 176.511 170.676 176.051 170.676 175.548V175.327C170.676 174.837 170.596 174.389 170.437 173.984C170.277 173.567 170.057 173.212 169.775 172.917C169.505 172.623 169.18 172.396 168.8 172.237C168.432 172.065 168.039 171.979 167.622 171.979C167.193 171.979 166.788 172.059 166.408 172.218C166.04 172.378 165.715 172.605 165.433 172.899C165.163 173.193 164.949 173.543 164.789 173.948C164.642 174.352 164.568 174.8 164.568 175.29V175.585C164.568 176.1 164.642 176.56 164.789 176.965C164.949 177.369 165.163 177.719 165.433 178.013C165.715 178.295 166.04 178.516 166.408 178.675C166.776 178.823 167.181 178.896 167.622 178.896ZM83.2322 204.823C83.7596 204.823 84.2072 204.737 84.5751 204.565C84.9553 204.381 85.2619 204.142 85.495 203.848C85.7403 203.541 85.9181 203.198 86.0285 202.817C86.1511 202.425 86.2124 202.014 86.2124 201.585V201.364H87.7577V201.585C87.7577 202.235 87.6596 202.848 87.4634 203.424C87.2672 203.989 86.979 204.485 86.5988 204.915C86.2186 205.332 85.7464 205.663 85.1822 205.908C84.6181 206.141 83.9681 206.258 83.2322 206.258C81.8095 206.258 80.6996 205.81 79.9024 204.915C79.1052 204.019 78.7067 202.713 78.7067 200.996V198.126C78.7067 196.458 79.1052 195.164 79.9024 194.245C80.6996 193.325 81.8095 192.865 83.2322 192.865C83.9681 192.865 84.6181 192.988 85.1822 193.233C85.7464 193.466 86.2186 193.797 86.5988 194.226C86.979 194.643 87.2672 195.14 87.4634 195.716C87.6596 196.281 87.7577 196.888 87.7577 197.538V197.758H86.2124V197.538C86.2002 197.121 86.1327 196.716 86.0101 196.323C85.8997 195.931 85.7219 195.588 85.4766 195.293C85.2436 194.987 84.9431 194.747 84.5751 194.576C84.2072 194.392 83.7596 194.3 83.2322 194.3C82.2388 194.3 81.4907 194.662 80.9878 195.385C80.4973 196.109 80.252 197.059 80.252 198.237V200.886C80.252 202.149 80.4973 203.124 80.9878 203.811C81.4907 204.485 82.2388 204.823 83.2322 204.823ZM99.0036 201.548C99.0036 202.308 98.8748 202.983 98.6173 203.572C98.372 204.148 98.0409 204.639 97.6239 205.043C97.2069 205.436 96.7163 205.736 96.1522 205.945C95.6003 206.153 95.0238 206.258 94.4229 206.258C93.8097 206.258 93.2271 206.153 92.6752 205.945C92.1233 205.736 91.6389 205.436 91.2219 205.043C90.8049 204.639 90.4676 204.148 90.2101 203.572C89.9648 202.983 89.8422 202.308 89.8422 201.548V201.327C89.8422 200.579 89.9648 199.917 90.2101 199.34C90.4676 198.752 90.8049 198.255 91.2219 197.85C91.6511 197.446 92.1417 197.139 92.6936 196.931C93.2455 196.722 93.8219 196.618 94.4229 196.618C95.0238 196.618 95.6003 196.722 96.1522 196.931C96.7041 197.139 97.1885 197.446 97.6055 197.85C98.0347 198.255 98.372 198.752 98.6173 199.34C98.8748 199.917 99.0036 200.579 99.0036 201.327V201.548ZM94.4229 204.896C94.8644 204.896 95.2691 204.823 95.6371 204.675C96.0172 204.516 96.3484 204.289 96.6305 203.995C96.9125 203.7 97.1333 203.351 97.2927 202.946C97.4522 202.529 97.5319 202.063 97.5319 201.548V201.327C97.5319 200.837 97.4522 200.389 97.2927 199.984C97.1333 199.567 96.9125 199.212 96.6305 198.917C96.3484 198.623 96.0172 198.396 95.6371 198.237C95.2569 198.065 94.8521 197.979 94.4229 197.979C93.9936 197.979 93.5889 198.065 93.2087 198.237C92.8285 198.396 92.4974 198.623 92.2153 198.917C91.9332 199.212 91.7125 199.567 91.553 199.984C91.3936 200.389 91.3139 200.837 91.3139 201.327V201.548C91.3139 202.063 91.3936 202.529 91.553 202.946C91.7125 203.351 91.9332 203.7 92.2153 203.995C92.4974 204.289 92.8224 204.516 93.1903 204.675C93.5705 204.823 93.9814 204.896 94.4229 204.896ZM102.762 209.679H101.327V196.875H102.762V198.31H102.983C103.302 197.758 103.743 197.341 104.307 197.059C104.872 196.765 105.485 196.618 106.147 196.618C106.711 196.618 107.245 196.722 107.748 196.931C108.25 197.139 108.692 197.439 109.072 197.832C109.465 198.224 109.771 198.709 109.992 199.285C110.225 199.862 110.341 200.518 110.341 201.254V201.622C110.341 202.37 110.231 203.032 110.01 203.608C109.79 204.185 109.483 204.669 109.091 205.062C108.71 205.454 108.263 205.755 107.748 205.963C107.232 206.159 106.687 206.258 106.11 206.258C105.816 206.258 105.515 206.221 105.209 206.147C104.902 206.086 104.608 205.988 104.326 205.853C104.056 205.706 103.805 205.534 103.572 205.338C103.339 205.129 103.142 204.884 102.983 204.602H102.762V209.679ZM105.816 204.896C106.257 204.896 106.662 204.823 107.03 204.675C107.398 204.516 107.717 204.295 107.987 204.013C108.269 203.731 108.483 203.388 108.631 202.983C108.79 202.578 108.87 202.124 108.87 201.622V201.254C108.87 200.763 108.79 200.322 108.631 199.929C108.483 199.524 108.269 199.181 107.987 198.899C107.717 198.605 107.392 198.378 107.012 198.218C106.644 198.059 106.245 197.979 105.816 197.979C105.387 197.979 104.988 198.065 104.62 198.237C104.252 198.396 103.927 198.623 103.645 198.917C103.375 199.212 103.161 199.567 103.001 199.984C102.842 200.389 102.762 200.837 102.762 201.327V201.548C102.762 202.051 102.842 202.511 103.001 202.928C103.161 203.333 103.375 203.682 103.645 203.976C103.927 204.271 104.252 204.498 104.62 204.657C104.988 204.816 105.387 204.896 105.816 204.896ZM115.756 194.153C115.756 193.797 115.878 193.497 116.124 193.251C116.381 192.994 116.688 192.865 117.043 192.865C117.399 192.865 117.7 192.994 117.945 193.251C118.202 193.497 118.331 193.797 118.331 194.153C118.331 194.508 118.202 194.815 117.945 195.072C117.7 195.318 117.399 195.44 117.043 195.44C116.688 195.44 116.381 195.318 116.124 195.072C115.878 194.815 115.756 194.508 115.756 194.153ZM113.143 204.675H116.344V198.2H113.474V196.875H117.779V204.675H120.76V206H113.143V204.675ZM125.235 201.879C125.272 202.787 125.554 203.516 126.082 204.068C126.609 204.62 127.345 204.896 128.289 204.896C128.719 204.896 129.093 204.847 129.411 204.749C129.73 204.651 130 204.516 130.221 204.344C130.454 204.173 130.638 203.976 130.773 203.756C130.92 203.523 131.036 203.277 131.122 203.02L132.484 203.388C132.226 204.234 131.748 204.927 131.049 205.467C130.362 205.994 129.43 206.258 128.252 206.258C127.602 206.258 127.002 206.147 126.45 205.926C125.91 205.693 125.444 205.368 125.051 204.951C124.659 204.534 124.352 204.038 124.132 203.461C123.911 202.885 123.801 202.247 123.801 201.548V201.107C123.801 200.469 123.911 199.874 124.132 199.322C124.365 198.77 124.684 198.298 125.088 197.906C125.493 197.501 125.965 197.188 126.505 196.967C127.057 196.734 127.652 196.618 128.289 196.618C129.037 196.618 129.681 196.759 130.221 197.041C130.773 197.311 131.22 197.648 131.564 198.053C131.92 198.457 132.177 198.899 132.337 199.377C132.508 199.856 132.594 200.297 132.594 200.702V201.879H125.235ZM128.289 197.979C127.885 197.979 127.504 198.047 127.149 198.181C126.805 198.304 126.499 198.482 126.229 198.715C125.971 198.948 125.757 199.224 125.585 199.543C125.426 199.849 125.321 200.187 125.272 200.555H131.159C131.135 200.162 131.036 199.807 130.865 199.488C130.705 199.169 130.491 198.899 130.221 198.678C129.963 198.457 129.663 198.286 129.319 198.163C128.988 198.04 128.645 197.979 128.289 197.979ZM137.346 199.23C137.346 199.672 137.53 200.009 137.898 200.242C138.278 200.475 138.965 200.628 139.958 200.702C141.025 200.788 141.835 201.045 142.387 201.474C142.951 201.891 143.233 202.505 143.233 203.314V203.424C143.233 203.866 143.141 204.265 142.957 204.62C142.785 204.964 142.54 205.258 142.221 205.503C141.914 205.749 141.534 205.933 141.08 206.055C140.639 206.19 140.155 206.258 139.627 206.258C138.916 206.258 138.303 206.166 137.787 205.982C137.285 205.785 136.862 205.534 136.518 205.227C136.187 204.908 135.936 204.553 135.764 204.16C135.592 203.756 135.494 203.351 135.47 202.946L136.831 202.615C136.892 203.314 137.162 203.878 137.64 204.308C138.119 204.725 138.756 204.933 139.554 204.933C140.228 204.933 140.768 204.804 141.172 204.547C141.589 204.277 141.798 203.903 141.798 203.424C141.798 202.909 141.596 202.541 141.191 202.321C140.786 202.1 140.13 201.959 139.222 201.898C138.168 201.824 137.358 201.579 136.794 201.162C136.23 200.745 135.948 200.138 135.948 199.34V199.23C135.948 198.801 136.04 198.427 136.224 198.108C136.408 197.777 136.653 197.501 136.96 197.28C137.279 197.059 137.634 196.894 138.027 196.783C138.419 196.673 138.83 196.618 139.259 196.618C139.86 196.618 140.388 196.704 140.841 196.875C141.295 197.035 141.675 197.249 141.982 197.519C142.288 197.777 142.522 198.077 142.681 198.421C142.853 198.764 142.963 199.107 143.012 199.451L141.651 199.782C141.589 199.193 141.35 198.733 140.933 198.402C140.529 198.071 139.995 197.906 139.333 197.906C139.075 197.906 138.824 197.936 138.579 197.998C138.346 198.047 138.137 198.126 137.953 198.237C137.769 198.347 137.622 198.488 137.512 198.66C137.401 198.819 137.346 199.009 137.346 199.23Z" fill="#207191"/>
<path d="M86.625 121.812C86.625 119.873 87.3954 118.013 88.7668 116.642C90.1381 115.27 91.9981 114.5 93.9375 114.5H135.375V65.75H93.9375C91.9981 65.75 90.1381 66.5204 88.7668 67.8918C87.3954 69.2631 86.625 71.1231 86.625 73.0625V121.812Z" stroke="#5A6996" stroke-width="2.4375" stroke-linecap="round" stroke-linejoin="round"/>
<path d="M86.625 121.812V124.25H130.5" stroke="#5A6996" stroke-width="2.4375" stroke-linecap="round" stroke-linejoin="round"/>
<path d="M103.688 91.3438L112.219 99.875L120.75 91.3438" stroke="#00CFFF" stroke-width="2.4375" stroke-linecap="round" stroke-linejoin="round"/>
<path d="M112.219 80.375V99.875" stroke="#00CFFF" stroke-width="2.4375" stroke-linecap="round" stroke-linejoin="round"/>
</svg>
