<svg width="548" height="549" viewBox="0 0 548 549" fill="none" xmlns="http://www.w3.org/2000/svg">
<path d="M274.246 210.598L274.246 0.62288" stroke="#2FD8E2" stroke-width="3" stroke-miterlimit="10"/>
<path d="M274.246 547.934L274.246 337.959" stroke="#2FD8E2" stroke-width="3" stroke-miterlimit="10"/>
<path d="M337.927 274.278H542.739" stroke="#2FD8E2" stroke-width="3" stroke-miterlimit="10"/>
<path d="M2.31202 274.278L208.845 274.278" stroke="#2FD8E2" stroke-width="3" stroke-miterlimit="10"/>
<path d="M274.252 132.769V91.3055" stroke="#2FD8E2" stroke-width="3" stroke-miterlimit="10"/>
<path d="M274.252 458.552V417.089" stroke="#2FD8E2" stroke-width="3" stroke-miterlimit="10"/>
<path d="M417.177 274.929L458.641 274.929" stroke="#2FD8E2" stroke-width="3" stroke-miterlimit="10"/>
<path d="M91.3946 274.929L132.858 274.929" stroke="#2FD8E2" stroke-width="3" stroke-miterlimit="10"/>
<path d="M274.091 211.614C239.391 211.614 211.261 239.744 211.261 274.444C211.261 309.144 239.391 337.274 274.091 337.274C308.791 337.274 336.921 309.144 336.921 274.444C336.921 239.744 308.791 211.614 274.091 211.614Z" stroke="#2FD8E2" stroke-width="3" stroke-miterlimit="10"/>
<path d="M274.091 60.5226C155.946 60.5226 60.1708 156.298 60.1708 274.443C60.1708 392.588 155.946 488.364 274.091 488.364C392.236 488.364 488.012 392.588 488.012 274.443C488.012 156.298 392.236 60.5226 274.091 60.5226Z" stroke="#2FD8E2" stroke-width="3" stroke-miterlimit="10"/>
<path d="M274.091 31.4384C139.883 31.4384 31.0863 140.236 31.0863 274.444C31.0863 408.652 139.883 517.449 274.091 517.449C408.3 517.449 517.097 408.652 517.097 274.444C517.097 140.236 408.3 31.4384 274.091 31.4384Z" stroke="#2FD8E2" stroke-width="3" stroke-miterlimit="10"/>
<path d="M274.091 2.35327C123.819 2.35327 2.00012 124.172 2.00012 274.444C2.00012 424.715 123.819 546.534 274.091 546.534C424.362 546.534 546.181 424.715 546.181 274.444C546.181 124.172 424.362 2.35327 274.091 2.35327Z" stroke="#2FD8E2" stroke-width="3" stroke-miterlimit="10"/>
<path d="M211.261 274.444C166.263 263.571 124.648 241.751 90.1127 210.923C68.4895 191.441 50.0818 168.662 35.5712 143.432" stroke="#2FD8E2" stroke-width="3" stroke-miterlimit="10"/>
<path d="M210.565 274.279C173.891 285.63 139.574 303.668 109.307 327.503C80.6807 350.074 56.1277 377.485 36.7332 408.525" stroke="#2FD8E2" stroke-width="3" stroke-miterlimit="10"/>
<path d="M211.261 274.444C139.907 266.364 71.5603 241.168 12.0361 200.999" stroke="#2FD8E2" stroke-width="3" stroke-miterlimit="10"/>
<path d="M211.261 274.443C172.529 281.88 134.338 291.902 96.944 304.44C67.2698 314.391 38.1452 325.912 9.69341 338.954" stroke="#2FD8E2" stroke-width="3" stroke-miterlimit="10"/>
<path d="M274.246 339.681C263.815 384.538 242.66 426.078 212.66 460.61C193.7 482.232 171.5 500.667 146.884 515.234" stroke="#2FD8E2" stroke-width="3" stroke-miterlimit="10"/>
<path d="M274.476 339.566C285.781 375.92 303.633 409.903 327.153 439.839C349.426 468.153 376.428 492.401 406.964 511.512" stroke="#2FD8E2" stroke-width="3" stroke-miterlimit="10"/>
<path d="M274.246 339.681C266.709 410.486 242.501 478.387 203.681 537.609" stroke="#2FD8E2" stroke-width="3" stroke-miterlimit="10"/>
<path d="M274.245 339.681C281.858 378.068 292.05 415.905 304.753 452.94C314.835 482.33 326.483 511.167 339.647 539.329" stroke="#2FD8E2" stroke-width="3" stroke-miterlimit="10"/>
<path d="M337.927 274.279C382.89 285.135 424.472 306.92 458.981 337.699C480.587 357.151 498.98 379.893 513.48 405.083" stroke="#2FD8E2" stroke-width="3" stroke-miterlimit="10"/>
<path d="M337.927 274.279C409.17 252.035 470.241 204.4 510.037 140.032" stroke="#2FD8E2" stroke-width="3" stroke-miterlimit="10"/>
<path d="M337.926 274.279C381.866 279.367 424.815 291.061 465.361 308.976C489.986 319.883 513.58 333.041 535.853 348.286" stroke="#2FD8E2" stroke-width="3" stroke-miterlimit="10"/>
<path d="M337.848 275.101C407.379 261.752 475.053 240.093 539.414 210.59" stroke="#2FD8E2" stroke-width="3" stroke-miterlimit="10"/>
<path d="M274.246 210.598C284.817 165.742 306.258 124.202 336.664 89.67C355.88 68.0478 378.38 49.6121 403.329 35.0454" stroke="#2FD8E2" stroke-width="3" stroke-miterlimit="10"/>
<path d="M274.246 210.598C252.086 138.487 205.062 76.8059 141.72 36.7664" stroke="#2FD8E2" stroke-width="3" stroke-miterlimit="10"/>
<path d="M274.246 210.598C279.073 166.711 290.44 123.782 307.973 83.2248C318.647 58.5915 331.554 34.9761 346.533 12.671" stroke="#2FD8E2" stroke-width="3" stroke-miterlimit="10"/>
<path d="M274.246 210.598C260.582 141.687 238.624 74.657 208.844 10.9499" stroke="#2FD8E2" stroke-width="3" stroke-miterlimit="10"/>
<path d="M184.662 274.444C182.796 225.088 224.704 185.014 274.092 185.014C285.836 185.014 297.465 187.327 308.315 191.822C319.165 196.316 329.024 202.903 337.328 211.208C345.632 219.512 352.22 229.371 356.714 240.221C361.208 251.071 363.521 262.7 363.521 274.444C363.521 286.188 361.208 297.817 356.714 308.667C352.22 319.518 345.632 329.376 337.328 337.681C329.024 345.985 319.165 352.572 308.315 357.066C297.465 361.561 285.836 363.874 274.092 363.874C225.105 363.602 186.483 322.608 184.662 274.444Z" fill="#2BCFD9" stroke="#2FD8E2" stroke-width="3" stroke-miterlimit="10"/>
<path d="M323.228 248.211C306.372 215.293 267.624 201.452 236.683 217.296C205.742 233.14 194.324 272.67 211.181 305.588C228.038 338.507 266.785 352.348 297.726 336.503C328.667 320.659 340.085 281.129 323.228 248.211Z" fill="#2BCFD9" stroke="#5BF1CD" stroke-width="3" stroke-miterlimit="10"/>
<path d="M335.501 244.048C318.644 211.13 279.896 197.289 248.955 213.133C218.014 228.978 206.596 268.507 223.453 301.425C240.31 334.344 279.058 348.185 309.999 332.34C340.94 316.496 352.358 276.966 335.501 244.048Z" fill="#2BCFD9" stroke="#5BF1CD" stroke-width="3" stroke-miterlimit="10"/>
<path d="M323.507 250.192C310.245 224.292 279.78 213.392 255.462 225.844C231.144 238.297 222.182 269.388 235.444 295.287C248.707 321.187 279.172 332.088 303.49 319.635C327.808 307.182 336.77 276.092 323.507 250.192Z" fill="#2BCFD9" stroke="#5BF1CD" stroke-width="3" stroke-miterlimit="10"/>
<path d="M290.94 305.082L258.908 278.384L270.137 238.225L302.169 264.923L290.94 305.082Z" stroke="white" stroke-width="3"/>
<path d="M258.909 278.385L284.21 283.453L302.169 264.924" stroke="white" stroke-width="3"/>
<path d="M270.137 238.227L290.94 305.084" stroke="white" stroke-width="3"/>
</svg>
