<svg width="1400" height="248" viewBox="0 0 1400 248" fill="none" xmlns="http://www.w3.org/2000/svg">
<rect width="1400" height="248" fill="#E6FFF9"/>
<path d="M172.394 100.512V108H170.21V89.8H176.71C177.646 89.8 178.461 89.9387 179.154 90.216C179.847 90.476 180.419 90.8313 180.87 91.282C181.338 91.7327 181.685 92.2613 181.91 92.868C182.153 93.4573 182.274 94.0813 182.274 94.74V95.52C182.274 96.1787 182.153 96.8113 181.91 97.418C181.685 98.0247 181.338 98.562 180.87 99.03C180.402 99.4807 179.821 99.8447 179.128 100.122C178.435 100.382 177.629 100.512 176.71 100.512H172.394ZM172.394 98.484H176.45C178.877 98.484 180.09 97.444 180.09 95.364V94.896C180.09 93.9773 179.787 93.2407 179.18 92.686C178.591 92.114 177.681 91.828 176.45 91.828H172.394V98.484ZM185.454 95.104H190.134V96.82H190.446C190.775 96.1093 191.243 95.5893 191.85 95.26C192.457 94.9133 193.15 94.74 193.93 94.74C195.23 94.74 196.279 95.1647 197.076 96.014C197.873 96.8633 198.298 98.1027 198.35 99.732L196.218 100.044C196.218 98.848 195.932 97.99 195.36 97.47C194.788 96.9327 194.086 96.664 193.254 96.664C192.717 96.664 192.249 96.768 191.85 96.976C191.469 97.184 191.148 97.47 190.888 97.834C190.628 98.198 190.437 98.6227 190.316 99.108C190.195 99.5933 190.134 100.113 190.134 100.668V106.128H193.41V108H185.142V106.128H188.106V96.976H185.454V95.104ZM214.27 101.708C214.27 102.783 214.088 103.736 213.724 104.568C213.377 105.383 212.909 106.076 212.32 106.648C211.731 107.203 211.037 107.627 210.24 107.922C209.46 108.217 208.645 108.364 207.796 108.364C206.929 108.364 206.106 108.217 205.326 107.922C204.546 107.627 203.861 107.203 203.272 106.648C202.683 106.076 202.206 105.383 201.842 104.568C201.495 103.736 201.322 102.783 201.322 101.708V101.396C201.322 100.339 201.495 99.4027 201.842 98.588C202.206 97.756 202.683 97.054 203.272 96.482C203.879 95.91 204.572 95.4767 205.352 95.182C206.132 94.8873 206.947 94.74 207.796 94.74C208.645 94.74 209.46 94.8873 210.24 95.182C211.02 95.4767 211.705 95.91 212.294 96.482C212.901 97.054 213.377 97.756 213.724 98.588C214.088 99.4027 214.27 100.339 214.27 101.396V101.708ZM207.796 106.44C208.42 106.44 208.992 106.336 209.512 106.128C210.049 105.903 210.517 105.582 210.916 105.166C211.315 104.75 211.627 104.256 211.852 103.684C212.077 103.095 212.19 102.436 212.19 101.708V101.396C212.19 100.703 212.077 100.07 211.852 99.498C211.627 98.9087 211.315 98.406 210.916 97.99C210.517 97.574 210.049 97.2533 209.512 97.028C208.975 96.7853 208.403 96.664 207.796 96.664C207.189 96.664 206.617 96.7853 206.08 97.028C205.543 97.2533 205.075 97.574 204.676 97.99C204.277 98.406 203.965 98.9087 203.74 99.498C203.515 100.07 203.402 100.703 203.402 101.396V101.708C203.402 102.436 203.515 103.095 203.74 103.684C203.965 104.256 204.277 104.75 204.676 105.166C205.075 105.582 205.534 105.903 206.054 106.128C206.591 106.336 207.172 106.44 207.796 106.44ZM230.086 103.424C229.947 104.135 229.704 104.793 229.358 105.4C229.028 106.007 228.604 106.535 228.084 106.986C227.564 107.419 226.957 107.757 226.264 108C225.57 108.243 224.799 108.364 223.95 108.364C223.048 108.364 222.19 108.217 221.376 107.922C220.578 107.627 219.876 107.203 219.27 106.648C218.663 106.076 218.178 105.383 217.814 104.568C217.467 103.753 217.294 102.817 217.294 101.76V101.448C217.294 100.408 217.467 99.472 217.814 98.64C218.178 97.808 218.663 97.106 219.27 96.534C219.876 95.962 220.578 95.52 221.376 95.208C222.19 94.896 223.048 94.74 223.95 94.74C224.764 94.74 225.518 94.8613 226.212 95.104C226.905 95.3467 227.512 95.6933 228.032 96.144C228.569 96.5773 229.002 97.0973 229.332 97.704C229.678 98.3107 229.912 98.9693 230.034 99.68L228.006 100.148C227.954 99.6973 227.824 99.264 227.616 98.848C227.425 98.4147 227.156 98.042 226.81 97.73C226.48 97.4007 226.073 97.1407 225.588 96.95C225.102 96.7593 224.539 96.664 223.898 96.664C223.274 96.664 222.684 96.7853 222.13 97.028C221.592 97.2533 221.116 97.5827 220.7 98.016C220.284 98.432 219.954 98.9347 219.712 99.524C219.486 100.113 219.374 100.755 219.374 101.448V101.76C219.374 102.488 219.486 103.147 219.712 103.736C219.954 104.308 220.284 104.793 220.7 105.192C221.116 105.591 221.601 105.903 222.156 106.128C222.71 106.336 223.308 106.44 223.95 106.44C224.591 106.44 225.146 106.345 225.614 106.154C226.099 105.946 226.506 105.686 226.836 105.374C227.182 105.045 227.451 104.672 227.642 104.256C227.85 103.84 227.988 103.407 228.058 102.956L230.086 103.424ZM235.424 102.176C235.476 103.459 235.874 104.49 236.62 105.27C237.365 106.05 238.405 106.44 239.74 106.44C240.346 106.44 240.875 106.371 241.326 106.232C241.776 106.093 242.158 105.903 242.47 105.66C242.799 105.417 243.059 105.14 243.25 104.828C243.458 104.499 243.622 104.152 243.744 103.788L245.668 104.308C245.304 105.504 244.628 106.483 243.64 107.246C242.669 107.991 241.352 108.364 239.688 108.364C238.769 108.364 237.92 108.208 237.14 107.896C236.377 107.567 235.718 107.107 235.164 106.518C234.609 105.929 234.176 105.227 233.864 104.412C233.552 103.597 233.396 102.696 233.396 101.708V101.084C233.396 100.183 233.552 99.342 233.864 98.562C234.193 97.782 234.644 97.1147 235.216 96.56C235.788 95.988 236.455 95.546 237.218 95.234C237.998 94.9047 238.838 94.74 239.74 94.74C240.797 94.74 241.707 94.9393 242.47 95.338C243.25 95.7193 243.882 96.196 244.368 96.768C244.87 97.34 245.234 97.964 245.46 98.64C245.702 99.316 245.824 99.94 245.824 100.512V102.176H235.424ZM239.74 96.664C239.168 96.664 238.63 96.7593 238.128 96.95C237.642 97.1233 237.209 97.3747 236.828 97.704C236.464 98.0333 236.16 98.4233 235.918 98.874C235.692 99.3073 235.545 99.784 235.476 100.304H243.796C243.761 99.7493 243.622 99.2467 243.38 98.796C243.154 98.3453 242.851 97.964 242.47 97.652C242.106 97.34 241.681 97.0973 241.196 96.924C240.728 96.7507 240.242 96.664 239.74 96.664ZM251.344 102.176C251.396 103.459 251.794 104.49 252.54 105.27C253.285 106.05 254.325 106.44 255.66 106.44C256.266 106.44 256.795 106.371 257.246 106.232C257.696 106.093 258.078 105.903 258.39 105.66C258.719 105.417 258.979 105.14 259.17 104.828C259.378 104.499 259.542 104.152 259.664 103.788L261.588 104.308C261.224 105.504 260.548 106.483 259.56 107.246C258.589 107.991 257.272 108.364 255.608 108.364C254.689 108.364 253.84 108.208 253.06 107.896C252.297 107.567 251.638 107.107 251.084 106.518C250.529 105.929 250.096 105.227 249.784 104.412C249.472 103.597 249.316 102.696 249.316 101.708V101.084C249.316 100.183 249.472 99.342 249.784 98.562C250.113 97.782 250.564 97.1147 251.136 96.56C251.708 95.988 252.375 95.546 253.138 95.234C253.918 94.9047 254.758 94.74 255.66 94.74C256.717 94.74 257.627 94.9393 258.39 95.338C259.17 95.7193 259.802 96.196 260.288 96.768C260.79 97.34 261.154 97.964 261.38 98.64C261.622 99.316 261.744 99.94 261.744 100.512V102.176H251.344ZM255.66 96.664C255.088 96.664 254.55 96.7593 254.048 96.95C253.562 97.1233 253.129 97.3747 252.748 97.704C252.384 98.0333 252.08 98.4233 251.838 98.874C251.612 99.3073 251.465 99.784 251.396 100.304H259.716C259.681 99.7493 259.542 99.2467 259.3 98.796C259.074 98.3453 258.771 97.964 258.39 97.652C258.026 97.34 257.601 97.0973 257.116 96.924C256.648 96.7507 256.162 96.664 255.66 96.664ZM275.766 106.024H275.454C275.246 106.423 274.977 106.769 274.648 107.064C274.336 107.359 273.989 107.601 273.608 107.792C273.244 107.983 272.854 108.121 272.438 108.208C272.022 108.312 271.623 108.364 271.242 108.364C270.375 108.364 269.569 108.217 268.824 107.922C268.078 107.627 267.42 107.203 266.848 106.648C266.293 106.093 265.851 105.409 265.522 104.594C265.21 103.762 265.054 102.817 265.054 101.76V101.344C265.054 100.304 265.218 99.3767 265.548 98.562C265.877 97.73 266.319 97.0367 266.874 96.482C267.428 95.91 268.078 95.4767 268.824 95.182C269.569 94.8873 270.358 94.74 271.19 94.74C272.074 94.74 272.897 94.9393 273.66 95.338C274.44 95.7193 275.038 96.3173 275.454 97.132H275.766V89.8H277.794V108H275.766V106.024ZM271.45 106.44C272.056 106.44 272.62 106.327 273.14 106.102C273.66 105.877 274.11 105.556 274.492 105.14C274.89 104.724 275.202 104.23 275.428 103.658C275.653 103.069 275.766 102.419 275.766 101.708V101.396C275.766 100.703 275.653 100.07 275.428 99.498C275.202 98.9087 274.89 98.406 274.492 97.99C274.11 97.574 273.651 97.2533 273.114 97.028C272.594 96.7853 272.039 96.664 271.45 96.664C270.843 96.664 270.271 96.7767 269.734 97.002C269.214 97.2273 268.754 97.548 268.356 97.964C267.974 98.38 267.671 98.874 267.446 99.446C267.238 100.018 267.134 100.651 267.134 101.344V101.76C267.134 102.488 267.238 103.138 267.446 103.71C267.671 104.282 267.974 104.776 268.356 105.192C268.754 105.591 269.214 105.903 269.734 106.128C270.254 106.336 270.826 106.44 271.45 106.44ZM284.379 98.432C284.379 99.056 284.639 99.5327 285.159 99.862C285.697 100.191 286.667 100.408 288.071 100.512C289.579 100.633 290.723 100.997 291.503 101.604C292.301 102.193 292.699 103.06 292.699 104.204V104.36C292.699 104.984 292.569 105.547 292.309 106.05C292.067 106.535 291.72 106.951 291.269 107.298C290.836 107.645 290.299 107.905 289.657 108.078C289.033 108.269 288.349 108.364 287.603 108.364C286.598 108.364 285.731 108.234 285.003 107.974C284.293 107.697 283.695 107.341 283.209 106.908C282.741 106.457 282.386 105.955 282.143 105.4C281.901 104.828 281.762 104.256 281.727 103.684L283.651 103.216C283.738 104.204 284.119 105.001 284.795 105.608C285.471 106.197 286.373 106.492 287.499 106.492C288.453 106.492 289.215 106.31 289.787 105.946C290.377 105.565 290.671 105.036 290.671 104.36C290.671 103.632 290.385 103.112 289.813 102.8C289.241 102.488 288.314 102.289 287.031 102.202C285.541 102.098 284.397 101.751 283.599 101.162C282.802 100.573 282.403 99.7147 282.403 98.588V98.432C282.403 97.8253 282.533 97.2967 282.793 96.846C283.053 96.378 283.4 95.988 283.833 95.676C284.284 95.364 284.787 95.13 285.341 94.974C285.896 94.818 286.477 94.74 287.083 94.74C287.933 94.74 288.678 94.8613 289.319 95.104C289.961 95.3293 290.498 95.6327 290.931 96.014C291.365 96.378 291.694 96.8027 291.919 97.288C292.162 97.7733 292.318 98.2587 292.387 98.744L290.463 99.212C290.377 98.38 290.039 97.73 289.449 97.262C288.877 96.794 288.123 96.56 287.187 96.56C286.823 96.56 286.468 96.6033 286.121 96.69C285.792 96.7593 285.497 96.872 285.237 97.028C284.977 97.184 284.769 97.3833 284.613 97.626C284.457 97.8513 284.379 98.12 284.379 98.432ZM313.411 95.104H317.389V91.828C317.389 91.2387 317.571 90.7533 317.935 90.372C318.317 89.9907 318.802 89.8 319.391 89.8H324.487V91.672H320.119C319.651 91.672 319.417 91.932 319.417 92.452V95.104H324.799V96.976H319.417V108H317.389V96.976H313.411V95.104ZM328.733 95.104H333.413V96.82H333.725C334.055 96.1093 334.523 95.5893 335.129 95.26C335.736 94.9133 336.429 94.74 337.209 94.74C338.509 94.74 339.558 95.1647 340.355 96.014C341.153 96.8633 341.577 98.1027 341.629 99.732L339.497 100.044C339.497 98.848 339.211 97.99 338.639 97.47C338.067 96.9327 337.365 96.664 336.533 96.664C335.996 96.664 335.528 96.768 335.129 96.976C334.748 97.184 334.427 97.47 334.167 97.834C333.907 98.198 333.717 98.6227 333.595 99.108C333.474 99.5933 333.413 100.113 333.413 100.668V106.128H336.689V108H328.421V106.128H331.385V96.976H328.733V95.104ZM357.549 101.708C357.549 102.783 357.367 103.736 357.003 104.568C356.656 105.383 356.188 106.076 355.599 106.648C355.01 107.203 354.316 107.627 353.519 107.922C352.739 108.217 351.924 108.364 351.075 108.364C350.208 108.364 349.385 108.217 348.605 107.922C347.825 107.627 347.14 107.203 346.551 106.648C345.962 106.076 345.485 105.383 345.121 104.568C344.774 103.736 344.601 102.783 344.601 101.708V101.396C344.601 100.339 344.774 99.4027 345.121 98.588C345.485 97.756 345.962 97.054 346.551 96.482C347.158 95.91 347.851 95.4767 348.631 95.182C349.411 94.8873 350.226 94.74 351.075 94.74C351.924 94.74 352.739 94.8873 353.519 95.182C354.299 95.4767 354.984 95.91 355.573 96.482C356.18 97.054 356.656 97.756 357.003 98.588C357.367 99.4027 357.549 100.339 357.549 101.396V101.708ZM351.075 106.44C351.699 106.44 352.271 106.336 352.791 106.128C353.328 105.903 353.796 105.582 354.195 105.166C354.594 104.75 354.906 104.256 355.131 103.684C355.356 103.095 355.469 102.436 355.469 101.708V101.396C355.469 100.703 355.356 100.07 355.131 99.498C354.906 98.9087 354.594 98.406 354.195 97.99C353.796 97.574 353.328 97.2533 352.791 97.028C352.254 96.7853 351.682 96.664 351.075 96.664C350.468 96.664 349.896 96.7853 349.359 97.028C348.822 97.2533 348.354 97.574 347.955 97.99C347.556 98.406 347.244 98.9087 347.019 99.498C346.794 100.07 346.681 100.703 346.681 101.396V101.708C346.681 102.436 346.794 103.095 347.019 103.684C347.244 104.256 347.556 104.75 347.955 105.166C348.354 105.582 348.813 105.903 349.333 106.128C349.87 106.336 350.451 106.44 351.075 106.44ZM373.703 108H371.675V98.744C371.675 98.1373 371.536 97.6433 371.259 97.262C370.982 96.8633 370.54 96.664 369.933 96.664C369.361 96.664 368.893 96.8807 368.529 97.314C368.182 97.73 368.009 98.38 368.009 99.264V108H365.981V98.64C365.981 98.068 365.825 97.6 365.513 97.236C365.201 96.8547 364.785 96.664 364.265 96.664C363.641 96.664 363.156 96.8893 362.809 97.34C362.48 97.7907 362.315 98.38 362.315 99.108V108H360.287V95.104H362.315V96.508H362.627C362.852 95.9013 363.182 95.4593 363.615 95.182C364.048 94.8873 364.56 94.74 365.149 94.74C365.773 94.74 366.284 94.9047 366.683 95.234C367.099 95.5633 367.385 95.988 367.541 96.508H367.853C368.442 95.3293 369.378 94.74 370.661 94.74C371.632 94.74 372.377 95.052 372.897 95.676C373.434 96.2827 373.703 97.08 373.703 98.068V108ZM392.699 95.104H396.755V89.8H398.783V95.104H403.775V96.976H398.783V105.348C398.783 105.868 399.017 106.128 399.485 106.128H403.151V108H398.757C398.168 108 397.682 107.809 397.301 107.428C396.937 107.047 396.755 106.561 396.755 105.972V96.976H392.699V95.104ZM411.089 108H409.061V89.8H411.089V97.444H411.401C411.799 96.612 412.354 95.9533 413.065 95.468C413.793 94.9827 414.677 94.74 415.717 94.74C417.121 94.74 418.256 95.208 419.123 96.144C420.007 97.0627 420.449 98.4493 420.449 100.304V108H418.421V100.72C418.421 99.368 418.117 98.354 417.511 97.678C416.904 97.002 416.081 96.664 415.041 96.664C413.81 96.664 412.839 97.0887 412.129 97.938C411.435 98.77 411.089 99.888 411.089 101.292V108ZM426.463 102.176C426.515 103.459 426.913 104.49 427.659 105.27C428.404 106.05 429.444 106.44 430.779 106.44C431.385 106.44 431.914 106.371 432.365 106.232C432.815 106.093 433.197 105.903 433.509 105.66C433.838 105.417 434.098 105.14 434.289 104.828C434.497 104.499 434.661 104.152 434.783 103.788L436.707 104.308C436.343 105.504 435.667 106.483 434.679 107.246C433.708 107.991 432.391 108.364 430.727 108.364C429.808 108.364 428.959 108.208 428.179 107.896C427.416 107.567 426.757 107.107 426.203 106.518C425.648 105.929 425.215 105.227 424.903 104.412C424.591 103.597 424.435 102.696 424.435 101.708V101.084C424.435 100.183 424.591 99.342 424.903 98.562C425.232 97.782 425.683 97.1147 426.255 96.56C426.827 95.988 427.494 95.546 428.257 95.234C429.037 94.9047 429.877 94.74 430.779 94.74C431.836 94.74 432.746 94.9393 433.509 95.338C434.289 95.7193 434.921 96.196 435.407 96.768C435.909 97.34 436.273 97.964 436.499 98.64C436.741 99.316 436.863 99.94 436.863 100.512V102.176H426.463ZM430.779 96.664C430.207 96.664 429.669 96.7593 429.167 96.95C428.681 97.1233 428.248 97.3747 427.867 97.704C427.503 98.0333 427.199 98.4233 426.957 98.874C426.731 99.3073 426.584 99.784 426.515 100.304H434.835C434.8 99.7493 434.661 99.2467 434.419 98.796C434.193 98.3453 433.89 97.964 433.509 97.652C433.145 97.34 432.72 97.0973 432.235 96.924C431.767 96.7507 431.281 96.664 430.779 96.664ZM458.381 108H456.353V89.8H458.381V97.132H458.693C459.143 96.352 459.767 95.7627 460.565 95.364C461.362 94.948 462.229 94.74 463.165 94.74C463.962 94.74 464.716 94.8873 465.427 95.182C466.137 95.4767 466.761 95.9013 467.299 96.456C467.853 97.0107 468.287 97.6953 468.599 98.51C468.928 99.3247 469.093 100.252 469.093 101.292V101.812C469.093 102.869 468.937 103.805 468.625 104.62C468.313 105.435 467.879 106.119 467.325 106.674C466.787 107.229 466.155 107.653 465.427 107.948C464.699 108.225 463.927 108.364 463.113 108.364C462.697 108.364 462.272 108.312 461.839 108.208C461.405 108.121 460.989 107.983 460.591 107.792C460.209 107.584 459.854 107.341 459.525 107.064C459.195 106.769 458.918 106.423 458.693 106.024H458.381V108ZM462.697 106.44C463.321 106.44 463.893 106.336 464.413 106.128C464.933 105.903 465.383 105.591 465.765 105.192C466.163 104.793 466.467 104.308 466.675 103.736C466.9 103.164 467.013 102.523 467.013 101.812V101.292C467.013 100.599 466.9 99.9747 466.675 99.42C466.467 98.848 466.163 98.3627 465.765 97.964C465.383 97.548 464.924 97.2273 464.387 97.002C463.867 96.7767 463.303 96.664 462.697 96.664C462.09 96.664 461.527 96.7853 461.007 97.028C460.487 97.2533 460.027 97.574 459.629 97.99C459.247 98.406 458.944 98.9087 458.719 99.498C458.493 100.07 458.381 100.703 458.381 101.396V101.708C458.381 102.419 458.493 103.069 458.719 103.658C458.944 104.23 459.247 104.724 459.629 105.14C460.027 105.556 460.487 105.877 461.007 106.102C461.527 106.327 462.09 106.44 462.697 106.44ZM484.909 101.708C484.909 102.783 484.727 103.736 484.363 104.568C484.016 105.383 483.548 106.076 482.959 106.648C482.369 107.203 481.676 107.627 480.879 107.922C480.099 108.217 479.284 108.364 478.435 108.364C477.568 108.364 476.745 108.217 475.965 107.922C475.185 107.627 474.5 107.203 473.911 106.648C473.321 106.076 472.845 105.383 472.481 104.568C472.134 103.736 471.961 102.783 471.961 101.708V101.396C471.961 100.339 472.134 99.4027 472.481 98.588C472.845 97.756 473.321 97.054 473.911 96.482C474.517 95.91 475.211 95.4767 475.991 95.182C476.771 94.8873 477.585 94.74 478.435 94.74C479.284 94.74 480.099 94.8873 480.879 95.182C481.659 95.4767 482.343 95.91 482.933 96.482C483.539 97.054 484.016 97.756 484.363 98.588C484.727 99.4027 484.909 100.339 484.909 101.396V101.708ZM478.435 106.44C479.059 106.44 479.631 106.336 480.151 106.128C480.688 105.903 481.156 105.582 481.555 105.166C481.953 104.75 482.265 104.256 482.491 103.684C482.716 103.095 482.829 102.436 482.829 101.708V101.396C482.829 100.703 482.716 100.07 482.491 99.498C482.265 98.9087 481.953 98.406 481.555 97.99C481.156 97.574 480.688 97.2533 480.151 97.028C479.613 96.7853 479.041 96.664 478.435 96.664C477.828 96.664 477.256 96.7853 476.719 97.028C476.181 97.2533 475.713 97.574 475.315 97.99C474.916 98.406 474.604 98.9087 474.379 99.498C474.153 100.07 474.041 100.703 474.041 101.396V101.708C474.041 102.436 474.153 103.095 474.379 103.684C474.604 104.256 474.916 104.75 475.315 105.166C475.713 105.582 476.173 105.903 476.693 106.128C477.23 106.336 477.811 106.44 478.435 106.44ZM500.828 101.708C500.828 102.783 500.646 103.736 500.282 104.568C499.936 105.383 499.468 106.076 498.878 106.648C498.289 107.203 497.596 107.627 496.798 107.922C496.018 108.217 495.204 108.364 494.354 108.364C493.488 108.364 492.664 108.217 491.884 107.922C491.104 107.627 490.42 107.203 489.83 106.648C489.241 106.076 488.764 105.383 488.4 104.568C488.054 103.736 487.88 102.783 487.88 101.708V101.396C487.88 100.339 488.054 99.4027 488.4 98.588C488.764 97.756 489.241 97.054 489.83 96.482C490.437 95.91 491.13 95.4767 491.91 95.182C492.69 94.8873 493.505 94.74 494.354 94.74C495.204 94.74 496.018 94.8873 496.798 95.182C497.578 95.4767 498.263 95.91 498.852 96.482C499.459 97.054 499.936 97.756 500.282 98.588C500.646 99.4027 500.828 100.339 500.828 101.396V101.708ZM494.354 106.44C494.978 106.44 495.55 106.336 496.07 106.128C496.608 105.903 497.076 105.582 497.474 105.166C497.873 104.75 498.185 104.256 498.41 103.684C498.636 103.095 498.748 102.436 498.748 101.708V101.396C498.748 100.703 498.636 100.07 498.41 99.498C498.185 98.9087 497.873 98.406 497.474 97.99C497.076 97.574 496.608 97.2533 496.07 97.028C495.533 96.7853 494.961 96.664 494.354 96.664C493.748 96.664 493.176 96.7853 492.638 97.028C492.101 97.2533 491.633 97.574 491.234 97.99C490.836 98.406 490.524 98.9087 490.298 99.498C490.073 100.07 489.96 100.703 489.96 101.396V101.708C489.96 102.436 490.073 103.095 490.298 103.684C490.524 104.256 490.836 104.75 491.234 105.166C491.633 105.582 492.092 105.903 492.612 106.128C493.15 106.336 493.73 106.44 494.354 106.44ZM507.908 100.46H508.35L513.264 95.104H515.76V95.26L510.404 101.162V101.63L516.384 107.844V108H513.888L508.402 102.332H507.908V108H505.88V89.8H507.908V100.46ZM546.222 106.024H545.91C545.494 106.804 544.922 107.393 544.194 107.792C543.484 108.173 542.704 108.364 541.854 108.364C540.988 108.364 540.173 108.217 539.41 107.922C538.648 107.627 537.972 107.203 537.382 106.648C536.81 106.093 536.351 105.409 536.004 104.594C535.675 103.762 535.51 102.817 535.51 101.76V101.344C535.51 100.304 535.684 99.3767 536.03 98.562C536.377 97.73 536.836 97.0367 537.408 96.482C537.98 95.91 538.648 95.4767 539.41 95.182C540.173 94.8873 540.97 94.74 541.802 94.74C542.738 94.74 543.553 94.948 544.246 95.364C544.957 95.7627 545.512 96.352 545.91 97.132H546.222V95.104H548.25V111.172C548.25 111.761 548.06 112.247 547.678 112.628C547.314 113.009 546.838 113.2 546.248 113.2H537.85V111.328H545.52C545.988 111.328 546.222 111.068 546.222 110.548V106.024ZM541.906 106.44C542.513 106.44 543.076 106.327 543.596 106.102C544.116 105.877 544.567 105.556 544.948 105.14C545.347 104.724 545.659 104.23 545.884 103.658C546.11 103.069 546.222 102.419 546.222 101.708V101.396C546.222 100.703 546.11 100.07 545.884 99.498C545.659 98.9087 545.347 98.406 544.948 97.99C544.567 97.574 544.108 97.2533 543.57 97.028C543.05 96.7853 542.496 96.664 541.906 96.664C541.3 96.664 540.728 96.7767 540.19 97.002C539.67 97.2273 539.211 97.548 538.812 97.964C538.431 98.38 538.128 98.874 537.902 99.446C537.694 100.018 537.59 100.651 537.59 101.344V101.76C537.59 102.488 537.694 103.138 537.902 103.71C538.128 104.282 538.431 104.776 538.812 105.192C539.211 105.591 539.67 105.903 540.19 106.128C540.71 106.336 541.282 106.44 541.906 106.44ZM564.508 101.708C564.508 102.783 564.326 103.736 563.962 104.568C563.615 105.383 563.147 106.076 562.558 106.648C561.969 107.203 561.275 107.627 560.478 107.922C559.698 108.217 558.883 108.364 558.034 108.364C557.167 108.364 556.344 108.217 555.564 107.922C554.784 107.627 554.099 107.203 553.51 106.648C552.921 106.076 552.444 105.383 552.08 104.568C551.733 103.736 551.56 102.783 551.56 101.708V101.396C551.56 100.339 551.733 99.4027 552.08 98.588C552.444 97.756 552.921 97.054 553.51 96.482C554.117 95.91 554.81 95.4767 555.59 95.182C556.37 94.8873 557.185 94.74 558.034 94.74C558.883 94.74 559.698 94.8873 560.478 95.182C561.258 95.4767 561.943 95.91 562.532 96.482C563.139 97.054 563.615 97.756 563.962 98.588C564.326 99.4027 564.508 100.339 564.508 101.396V101.708ZM558.034 106.44C558.658 106.44 559.23 106.336 559.75 106.128C560.287 105.903 560.755 105.582 561.154 105.166C561.553 104.75 561.865 104.256 562.09 103.684C562.315 103.095 562.428 102.436 562.428 101.708V101.396C562.428 100.703 562.315 100.07 562.09 99.498C561.865 98.9087 561.553 98.406 561.154 97.99C560.755 97.574 560.287 97.2533 559.75 97.028C559.213 96.7853 558.641 96.664 558.034 96.664C557.427 96.664 556.855 96.7853 556.318 97.028C555.781 97.2533 555.313 97.574 554.914 97.99C554.515 98.406 554.203 98.9087 553.978 99.498C553.753 100.07 553.64 100.703 553.64 101.396V101.708C553.64 102.436 553.753 103.095 553.978 103.684C554.203 104.256 554.515 104.75 554.914 105.166C555.313 105.582 555.772 105.903 556.292 106.128C556.829 106.336 557.41 106.44 558.034 106.44ZM583.738 95.104H587.794V89.8H589.822V95.104H594.814V96.976H589.822V105.348C589.822 105.868 590.056 106.128 590.524 106.128H594.19V108H589.796C589.207 108 588.721 107.809 588.34 107.428C587.976 107.047 587.794 106.561 587.794 105.972V96.976H583.738V95.104ZM612.268 101.708C612.268 102.783 612.086 103.736 611.722 104.568C611.375 105.383 610.907 106.076 610.318 106.648C609.729 107.203 609.035 107.627 608.238 107.922C607.458 108.217 606.643 108.364 605.794 108.364C604.927 108.364 604.104 108.217 603.324 107.922C602.544 107.627 601.859 107.203 601.27 106.648C600.681 106.076 600.204 105.383 599.84 104.568C599.493 103.736 599.32 102.783 599.32 101.708V101.396C599.32 100.339 599.493 99.4027 599.84 98.588C600.204 97.756 600.681 97.054 601.27 96.482C601.877 95.91 602.57 95.4767 603.35 95.182C604.13 94.8873 604.945 94.74 605.794 94.74C606.643 94.74 607.458 94.8873 608.238 95.182C609.018 95.4767 609.703 95.91 610.292 96.482C610.899 97.054 611.375 97.756 611.722 98.588C612.086 99.4027 612.268 100.339 612.268 101.396V101.708ZM605.794 106.44C606.418 106.44 606.99 106.336 607.51 106.128C608.047 105.903 608.515 105.582 608.914 105.166C609.313 104.75 609.625 104.256 609.85 103.684C610.075 103.095 610.188 102.436 610.188 101.708V101.396C610.188 100.703 610.075 100.07 609.85 99.498C609.625 98.9087 609.313 98.406 608.914 97.99C608.515 97.574 608.047 97.2533 607.51 97.028C606.973 96.7853 606.401 96.664 605.794 96.664C605.187 96.664 604.615 96.7853 604.078 97.028C603.541 97.2533 603.073 97.574 602.674 97.99C602.275 98.406 601.963 98.9087 601.738 99.498C601.513 100.07 601.4 100.703 601.4 101.396V101.708C601.4 102.436 601.513 103.095 601.738 103.684C601.963 104.256 602.275 104.75 602.674 105.166C603.073 105.582 603.532 105.903 604.052 106.128C604.589 106.336 605.17 106.44 605.794 106.44ZM627.174 108H623.43L621.87 96.04H621.558L619.998 108H616.254L614.226 95.104H616.306L618.022 107.064H618.334L619.842 95.104H623.586L625.094 107.064H625.406L627.122 95.104H629.202L627.174 108ZM641.3 105.816H640.988C640.572 106.683 639.991 107.324 639.246 107.74C638.518 108.156 637.746 108.364 636.932 108.364C636.082 108.364 635.294 108.225 634.566 107.948C633.838 107.653 633.196 107.229 632.642 106.674C632.104 106.102 631.68 105.409 631.368 104.594C631.056 103.779 630.9 102.835 630.9 101.76V101.344C630.9 100.287 631.056 99.3507 631.368 98.536C631.68 97.7213 632.104 97.0367 632.642 96.482C633.196 95.91 633.838 95.4767 634.566 95.182C635.294 94.8873 636.065 94.74 636.88 94.74C637.764 94.74 638.561 94.9393 639.272 95.338C640 95.7193 640.572 96.3173 640.988 97.132H641.3V95.104H643.328V105.348C643.328 105.868 643.562 106.128 644.03 106.128H644.68V108H643.302C642.712 108 642.227 107.809 641.846 107.428C641.482 107.047 641.3 106.561 641.3 105.972V105.816ZM637.14 106.44C637.746 106.44 638.301 106.327 638.804 106.102C639.324 105.877 639.766 105.556 640.13 105.14C640.494 104.724 640.78 104.23 640.988 103.658C641.196 103.069 641.3 102.419 641.3 101.708V101.396C641.3 100.703 641.196 100.07 640.988 99.498C640.78 98.9087 640.485 98.406 640.104 97.99C639.74 97.574 639.298 97.2533 638.778 97.028C638.275 96.7853 637.729 96.664 637.14 96.664C636.533 96.664 635.978 96.7767 635.476 97.002C634.973 97.2273 634.531 97.548 634.15 97.964C633.786 98.3627 633.5 98.8567 633.292 99.446C633.084 100.018 632.98 100.651 632.98 101.344V101.76C632.98 103.233 633.361 104.386 634.124 105.218C634.904 106.033 635.909 106.44 637.14 106.44ZM647.132 95.104H651.812V96.82H652.124C652.453 96.1093 652.921 95.5893 653.528 95.26C654.134 94.9133 654.828 94.74 655.608 94.74C656.908 94.74 657.956 95.1647 658.754 96.014C659.551 96.8633 659.976 98.1027 660.028 99.732L657.896 100.044C657.896 98.848 657.61 97.99 657.038 97.47C656.466 96.9327 655.764 96.664 654.932 96.664C654.394 96.664 653.926 96.768 653.528 96.976C653.146 97.184 652.826 97.47 652.566 97.834C652.306 98.198 652.115 98.6227 651.994 99.108C651.872 99.5933 651.812 100.113 651.812 100.668V106.128H655.088V108H646.82V106.128H649.784V96.976H647.132V95.104ZM673.764 106.024H673.452C673.244 106.423 672.975 106.769 672.646 107.064C672.334 107.359 671.987 107.601 671.606 107.792C671.242 107.983 670.852 108.121 670.436 108.208C670.02 108.312 669.621 108.364 669.24 108.364C668.373 108.364 667.567 108.217 666.822 107.922C666.076 107.627 665.418 107.203 664.846 106.648C664.291 106.093 663.849 105.409 663.52 104.594C663.208 103.762 663.052 102.817 663.052 101.76V101.344C663.052 100.304 663.216 99.3767 663.546 98.562C663.875 97.73 664.317 97.0367 664.872 96.482C665.426 95.91 666.076 95.4767 666.822 95.182C667.567 94.8873 668.356 94.74 669.188 94.74C670.072 94.74 670.895 94.9393 671.658 95.338C672.438 95.7193 673.036 96.3173 673.452 97.132H673.764V89.8H675.792V108H673.764V106.024ZM669.448 106.44C670.054 106.44 670.618 106.327 671.138 106.102C671.658 105.877 672.108 105.556 672.49 105.14C672.888 104.724 673.2 104.23 673.426 103.658C673.651 103.069 673.764 102.419 673.764 101.708V101.396C673.764 100.703 673.651 100.07 673.426 99.498C673.2 98.9087 672.888 98.406 672.49 97.99C672.108 97.574 671.649 97.2533 671.112 97.028C670.592 96.7853 670.037 96.664 669.448 96.664C668.841 96.664 668.269 96.7767 667.732 97.002C667.212 97.2273 666.752 97.548 666.354 97.964C665.972 98.38 665.669 98.874 665.444 99.446C665.236 100.018 665.132 100.651 665.132 101.344V101.76C665.132 102.488 665.236 103.138 665.444 103.71C665.669 104.282 665.972 104.776 666.354 105.192C666.752 105.591 667.212 105.903 667.732 106.128C668.252 106.336 668.824 106.44 669.448 106.44ZM682.378 98.432C682.378 99.056 682.638 99.5327 683.158 99.862C683.695 100.191 684.666 100.408 686.07 100.512C687.578 100.633 688.722 100.997 689.502 101.604C690.299 102.193 690.698 103.06 690.698 104.204V104.36C690.698 104.984 690.568 105.547 690.308 106.05C690.065 106.535 689.718 106.951 689.268 107.298C688.834 107.645 688.297 107.905 687.656 108.078C687.032 108.269 686.347 108.364 685.602 108.364C684.596 108.364 683.73 108.234 683.002 107.974C682.291 107.697 681.693 107.341 681.208 106.908C680.74 106.457 680.384 105.955 680.142 105.4C679.899 104.828 679.76 104.256 679.726 103.684L681.65 103.216C681.736 104.204 682.118 105.001 682.794 105.608C683.47 106.197 684.371 106.492 685.498 106.492C686.451 106.492 687.214 106.31 687.786 105.946C688.375 105.565 688.67 105.036 688.67 104.36C688.67 103.632 688.384 103.112 687.812 102.8C687.24 102.488 686.312 102.289 685.03 102.202C683.539 102.098 682.395 101.751 681.598 101.162C680.8 100.573 680.402 99.7147 680.402 98.588V98.432C680.402 97.8253 680.532 97.2967 680.792 96.846C681.052 96.378 681.398 95.988 681.832 95.676C682.282 95.364 682.785 95.13 683.34 94.974C683.894 94.818 684.475 94.74 685.081 94.74C685.931 94.74 686.676 94.8613 687.318 95.104C687.959 95.3293 688.496 95.6327 688.93 96.014C689.363 96.378 689.692 96.8027 689.918 97.288C690.16 97.7733 690.316 98.2587 690.386 98.744L688.462 99.212C688.375 98.38 688.037 97.73 687.448 97.262C686.876 96.794 686.122 96.56 685.186 96.56C684.822 96.56 684.466 96.6033 684.119 96.69C683.79 96.7593 683.496 96.872 683.236 97.028C682.976 97.184 682.768 97.3833 682.612 97.626C682.456 97.8513 682.378 98.12 682.378 98.432ZM715.491 99.264H723.603V108H721.575V105.816H721.263C720.969 106.579 720.449 107.194 719.703 107.662C718.958 108.13 718.091 108.364 717.103 108.364C715.145 108.364 713.602 107.731 712.475 106.466C711.366 105.201 710.811 103.355 710.811 100.928V96.872C710.811 94.5147 711.375 92.686 712.501 91.386C713.628 90.086 715.197 89.436 717.207 89.436C718.247 89.436 719.166 89.6093 719.963 89.956C720.761 90.2853 721.428 90.7533 721.965 91.36C722.503 91.9493 722.91 92.6513 723.187 93.466C723.465 94.2633 723.603 95.1213 723.603 96.04V96.352H721.419V96.04C721.419 95.4507 721.333 94.8787 721.159 94.324C721.003 93.7693 720.752 93.284 720.405 92.868C720.076 92.4347 719.643 92.0967 719.105 91.854C718.585 91.594 717.953 91.464 717.207 91.464C715.803 91.464 714.746 91.9753 714.035 92.998C713.342 94.0207 712.995 95.364 712.995 97.028V100.772C712.995 102.557 713.342 103.935 714.035 104.906C714.746 105.859 715.821 106.336 717.259 106.336C718.559 106.336 719.573 105.92 720.301 105.088C721.047 104.256 721.419 103.095 721.419 101.604V101.292H715.491V99.264ZM731.463 91.256C731.463 90.7533 731.637 90.3287 731.983 89.982C732.347 89.618 732.781 89.436 733.283 89.436C733.786 89.436 734.211 89.618 734.557 89.982C734.921 90.3287 735.103 90.7533 735.103 91.256C735.103 91.7587 734.921 92.192 734.557 92.556C734.211 92.9027 733.786 93.076 733.283 93.076C732.781 93.076 732.347 92.9027 731.983 92.556C731.637 92.192 731.463 91.7587 731.463 91.256ZM727.771 106.128H732.295V96.976H728.239V95.104H734.323V106.128H738.535V108H727.771V106.128ZM742.937 95.104H746.993V89.8H749.021V95.104H754.013V96.976H749.021V105.348C749.021 105.868 749.255 106.128 749.723 106.128H753.389V108H748.995C748.406 108 747.921 107.809 747.539 107.428C747.175 107.047 746.993 106.561 746.993 105.972V96.976H742.937V95.104ZM771.363 103.424C771.224 104.135 770.982 104.793 770.635 105.4C770.306 106.007 769.881 106.535 769.361 106.986C768.841 107.419 768.234 107.757 767.541 108C766.848 108.243 766.076 108.364 765.227 108.364C764.326 108.364 763.468 108.217 762.653 107.922C761.856 107.627 761.154 107.203 760.547 106.648C759.94 106.076 759.455 105.383 759.091 104.568C758.744 103.753 758.571 102.817 758.571 101.76V101.448C758.571 100.408 758.744 99.472 759.091 98.64C759.455 97.808 759.94 97.106 760.547 96.534C761.154 95.962 761.856 95.52 762.653 95.208C763.468 94.896 764.326 94.74 765.227 94.74C766.042 94.74 766.796 94.8613 767.489 95.104C768.182 95.3467 768.789 95.6933 769.309 96.144C769.846 96.5773 770.28 97.0973 770.609 97.704C770.956 98.3107 771.19 98.9693 771.311 99.68L769.283 100.148C769.231 99.6973 769.101 99.264 768.893 98.848C768.702 98.4147 768.434 98.042 768.087 97.73C767.758 97.4007 767.35 97.1407 766.865 96.95C766.38 96.7593 765.816 96.664 765.175 96.664C764.551 96.664 763.962 96.7853 763.407 97.028C762.87 97.2533 762.393 97.5827 761.977 98.016C761.561 98.432 761.232 98.9347 760.989 99.524C760.764 100.113 760.651 100.755 760.651 101.448V101.76C760.651 102.488 760.764 103.147 760.989 103.736C761.232 104.308 761.561 104.793 761.977 105.192C762.393 105.591 762.878 105.903 763.433 106.128C763.988 106.336 764.586 106.44 765.227 106.44C765.868 106.44 766.423 106.345 766.891 106.154C767.376 105.946 767.784 105.686 768.113 105.374C768.46 105.045 768.728 104.672 768.919 104.256C769.127 103.84 769.266 103.407 769.335 102.956L771.363 103.424ZM787.387 101.708C787.387 102.783 787.205 103.736 786.841 104.568C786.494 105.383 786.026 106.076 785.437 106.648C784.848 107.203 784.154 107.627 783.357 107.922C782.577 108.217 781.762 108.364 780.913 108.364C780.046 108.364 779.223 108.217 778.443 107.922C777.663 107.627 776.978 107.203 776.389 106.648C775.8 106.076 775.323 105.383 774.959 104.568C774.612 103.736 774.439 102.783 774.439 101.708V101.396C774.439 100.339 774.612 99.4027 774.959 98.588C775.323 97.756 775.8 97.054 776.389 96.482C776.996 95.91 777.689 95.4767 778.469 95.182C779.249 94.8873 780.064 94.74 780.913 94.74C781.762 94.74 782.577 94.8873 783.357 95.182C784.137 95.4767 784.822 95.91 785.411 96.482C786.018 97.054 786.494 97.756 786.841 98.588C787.205 99.4027 787.387 100.339 787.387 101.396V101.708ZM780.913 106.44C781.537 106.44 782.109 106.336 782.629 106.128C783.166 105.903 783.634 105.582 784.033 105.166C784.432 104.75 784.744 104.256 784.969 103.684C785.194 103.095 785.307 102.436 785.307 101.708V101.396C785.307 100.703 785.194 100.07 784.969 99.498C784.744 98.9087 784.432 98.406 784.033 97.99C783.634 97.574 783.166 97.2533 782.629 97.028C782.092 96.7853 781.52 96.664 780.913 96.664C780.306 96.664 779.734 96.7853 779.197 97.028C778.66 97.2533 778.192 97.574 777.793 97.99C777.394 98.406 777.082 98.9087 776.857 99.498C776.632 100.07 776.519 100.703 776.519 101.396V101.708C776.519 102.436 776.632 103.095 776.857 103.684C777.082 104.256 777.394 104.75 777.793 105.166C778.192 105.582 778.651 105.903 779.171 106.128C779.708 106.336 780.289 106.44 780.913 106.44ZM795.143 91.256C795.143 90.7533 795.316 90.3287 795.663 89.982C796.027 89.618 796.46 89.436 796.963 89.436C797.466 89.436 797.89 89.618 798.237 89.982C798.601 90.3287 798.783 90.7533 798.783 91.256C798.783 91.7587 798.601 92.192 798.237 92.556C797.89 92.9027 797.466 93.076 796.963 93.076C796.46 93.076 796.027 92.9027 795.663 92.556C795.316 92.192 795.143 91.7587 795.143 91.256ZM791.451 106.128H795.975V96.976H791.919V95.104H798.003V106.128H802.215V108H791.451V106.128ZM809.087 108H807.059V95.104H809.087V97.288H809.399C810.196 95.5893 811.583 94.74 813.559 94.74C815.05 94.74 816.237 95.208 817.121 96.144C818.005 97.0627 818.447 98.4493 818.447 100.304V108H816.419V100.72C816.419 99.368 816.116 98.354 815.509 97.678C814.902 97.002 814.079 96.664 813.039 96.664C811.808 96.664 810.838 97.0887 810.127 97.938C809.434 98.77 809.087 99.888 809.087 101.292V108ZM826.853 91.256C826.853 90.7533 827.026 90.3287 827.373 89.982C827.737 89.618 828.17 89.436 828.673 89.436C829.175 89.436 829.6 89.618 829.947 89.982C830.311 90.3287 830.493 90.7533 830.493 91.256V93.804C830.493 94.3933 830.302 94.8787 829.921 95.26C829.557 95.6413 829.08 95.832 828.491 95.832H827.165V94.428H828.387C828.855 94.428 829.089 94.168 829.089 93.648V92.998C828.95 93.05 828.803 93.076 828.647 93.076C828.161 93.076 827.737 92.9027 827.373 92.556C827.026 92.192 826.853 91.7587 826.853 91.256ZM841.577 98.432C841.577 99.056 841.837 99.5327 842.357 99.862C842.894 100.191 843.865 100.408 845.269 100.512C846.777 100.633 847.921 100.997 848.701 101.604C849.498 102.193 849.897 103.06 849.897 104.204V104.36C849.897 104.984 849.767 105.547 849.507 106.05C849.264 106.535 848.917 106.951 848.467 107.298C848.033 107.645 847.496 107.905 846.855 108.078C846.231 108.269 845.546 108.364 844.801 108.364C843.795 108.364 842.929 108.234 842.201 107.974C841.49 107.697 840.892 107.341 840.407 106.908C839.939 106.457 839.583 105.955 839.341 105.4C839.098 104.828 838.959 104.256 838.925 103.684L840.849 103.216C840.935 104.204 841.317 105.001 841.993 105.608C842.669 106.197 843.57 106.492 844.697 106.492C845.65 106.492 846.413 106.31 846.985 105.946C847.574 105.565 847.869 105.036 847.869 104.36C847.869 103.632 847.583 103.112 847.011 102.8C846.439 102.488 845.511 102.289 844.229 102.202C842.738 102.098 841.594 101.751 840.797 101.162C839.999 100.573 839.601 99.7147 839.601 98.588V98.432C839.601 97.8253 839.731 97.2967 839.991 96.846C840.251 96.378 840.597 95.988 841.031 95.676C841.481 95.364 841.984 95.13 842.539 94.974C843.093 94.818 843.674 94.74 844.281 94.74C845.13 94.74 845.875 94.8613 846.517 95.104C847.158 95.3293 847.695 95.6327 848.129 96.014C848.562 96.378 848.891 96.8027 849.117 97.288C849.359 97.7733 849.515 98.2587 849.585 98.744L847.661 99.212C847.574 98.38 847.236 97.73 846.647 97.262C846.075 96.794 845.321 96.56 844.385 96.56C844.021 96.56 843.665 96.6033 843.319 96.69C842.989 96.7593 842.695 96.872 842.435 97.028C842.175 97.184 841.967 97.3833 841.811 97.626C841.655 97.8513 841.577 98.12 841.577 98.432ZM182.664 147H180.636V137.744C180.636 137.137 180.497 136.643 180.22 136.262C179.943 135.863 179.501 135.664 178.894 135.664C178.322 135.664 177.854 135.881 177.49 136.314C177.143 136.73 176.97 137.38 176.97 138.264V147H174.942V137.64C174.942 137.068 174.786 136.6 174.474 136.236C174.162 135.855 173.746 135.664 173.226 135.664C172.602 135.664 172.117 135.889 171.77 136.34C171.441 136.791 171.276 137.38 171.276 138.108V147H169.248V134.104H171.276V135.508H171.588C171.813 134.901 172.143 134.459 172.576 134.182C173.009 133.887 173.521 133.74 174.11 133.74C174.734 133.74 175.245 133.905 175.644 134.234C176.06 134.563 176.346 134.988 176.502 135.508H176.814C177.403 134.329 178.339 133.74 179.622 133.74C180.593 133.74 181.338 134.052 181.858 134.676C182.395 135.283 182.664 136.08 182.664 137.068V147ZM190.186 130.256C190.186 129.753 190.359 129.329 190.706 128.982C191.07 128.618 191.503 128.436 192.006 128.436C192.509 128.436 192.933 128.618 193.28 128.982C193.644 129.329 193.826 129.753 193.826 130.256C193.826 130.759 193.644 131.192 193.28 131.556C192.933 131.903 192.509 132.076 192.006 132.076C191.503 132.076 191.07 131.903 190.706 131.556C190.359 131.192 190.186 130.759 190.186 130.256ZM186.494 145.128H191.018V135.976H186.962V134.104H193.046V145.128H197.258V147H186.494V145.128ZM204.78 137.432C204.78 138.056 205.04 138.533 205.56 138.862C206.097 139.191 207.068 139.408 208.472 139.512C209.98 139.633 211.124 139.997 211.904 140.604C212.701 141.193 213.1 142.06 213.1 143.204V143.36C213.1 143.984 212.97 144.547 212.71 145.05C212.467 145.535 212.121 145.951 211.67 146.298C211.237 146.645 210.699 146.905 210.058 147.078C209.434 147.269 208.749 147.364 208.004 147.364C206.999 147.364 206.132 147.234 205.404 146.974C204.693 146.697 204.095 146.341 203.61 145.908C203.142 145.457 202.787 144.955 202.544 144.4C202.301 143.828 202.163 143.256 202.128 142.684L204.052 142.216C204.139 143.204 204.52 144.001 205.196 144.608C205.872 145.197 206.773 145.492 207.9 145.492C208.853 145.492 209.616 145.31 210.188 144.946C210.777 144.565 211.072 144.036 211.072 143.36C211.072 142.632 210.786 142.112 210.214 141.8C209.642 141.488 208.715 141.289 207.432 141.202C205.941 141.098 204.797 140.751 204 140.162C203.203 139.573 202.804 138.715 202.804 137.588V137.432C202.804 136.825 202.934 136.297 203.194 135.846C203.454 135.378 203.801 134.988 204.234 134.676C204.685 134.364 205.187 134.13 205.742 133.974C206.297 133.818 206.877 133.74 207.484 133.74C208.333 133.74 209.079 133.861 209.72 134.104C210.361 134.329 210.899 134.633 211.332 135.014C211.765 135.378 212.095 135.803 212.32 136.288C212.563 136.773 212.719 137.259 212.788 137.744L210.864 138.212C210.777 137.38 210.439 136.73 209.85 136.262C209.278 135.794 208.524 135.56 207.588 135.56C207.224 135.56 206.869 135.603 206.522 135.69C206.193 135.759 205.898 135.872 205.638 136.028C205.378 136.184 205.17 136.383 205.014 136.626C204.858 136.851 204.78 137.12 204.78 137.432ZM220.7 137.432C220.7 138.056 220.96 138.533 221.48 138.862C222.017 139.191 222.988 139.408 224.392 139.512C225.9 139.633 227.044 139.997 227.824 140.604C228.621 141.193 229.02 142.06 229.02 143.204V143.36C229.02 143.984 228.89 144.547 228.63 145.05C228.387 145.535 228.04 145.951 227.59 146.298C227.156 146.645 226.619 146.905 225.978 147.078C225.354 147.269 224.669 147.364 223.924 147.364C222.918 147.364 222.052 147.234 221.324 146.974C220.613 146.697 220.015 146.341 219.53 145.908C219.062 145.457 218.706 144.955 218.464 144.4C218.221 143.828 218.082 143.256 218.048 142.684L219.972 142.216C220.058 143.204 220.44 144.001 221.116 144.608C221.792 145.197 222.693 145.492 223.82 145.492C224.773 145.492 225.536 145.31 226.108 144.946C226.697 144.565 226.992 144.036 226.992 143.36C226.992 142.632 226.706 142.112 226.134 141.8C225.562 141.488 224.634 141.289 223.352 141.202C221.861 141.098 220.717 140.751 219.92 140.162C219.122 139.573 218.724 138.715 218.724 137.588V137.432C218.724 136.825 218.854 136.297 219.114 135.846C219.374 135.378 219.72 134.988 220.154 134.676C220.604 134.364 221.107 134.13 221.662 133.974C222.216 133.818 222.797 133.74 223.404 133.74C224.253 133.74 224.998 133.861 225.64 134.104C226.281 134.329 226.818 134.633 227.252 135.014C227.685 135.378 228.014 135.803 228.24 136.288C228.482 136.773 228.638 137.259 228.708 137.744L226.784 138.212C226.697 137.38 226.359 136.73 225.77 136.262C225.198 135.794 224.444 135.56 223.508 135.56C223.144 135.56 222.788 135.603 222.442 135.69C222.112 135.759 221.818 135.872 221.558 136.028C221.298 136.184 221.09 136.383 220.934 136.626C220.778 136.851 220.7 137.12 220.7 137.432ZM237.946 130.256C237.946 129.753 238.119 129.329 238.466 128.982C238.83 128.618 239.263 128.436 239.766 128.436C240.268 128.436 240.693 128.618 241.04 128.982C241.404 129.329 241.586 129.753 241.586 130.256C241.586 130.759 241.404 131.192 241.04 131.556C240.693 131.903 240.268 132.076 239.766 132.076C239.263 132.076 238.83 131.903 238.466 131.556C238.119 131.192 237.946 130.759 237.946 130.256ZM234.254 145.128H238.778V135.976H234.722V134.104H240.806V145.128H245.018V147H234.254V145.128ZM262.03 140.708C262.03 141.783 261.848 142.736 261.484 143.568C261.137 144.383 260.669 145.076 260.08 145.648C259.49 146.203 258.797 146.627 258 146.922C257.22 147.217 256.405 147.364 255.556 147.364C254.689 147.364 253.866 147.217 253.086 146.922C252.306 146.627 251.621 146.203 251.032 145.648C250.442 145.076 249.966 144.383 249.602 143.568C249.255 142.736 249.082 141.783 249.082 140.708V140.396C249.082 139.339 249.255 138.403 249.602 137.588C249.966 136.756 250.442 136.054 251.032 135.482C251.638 134.91 252.332 134.477 253.112 134.182C253.892 133.887 254.706 133.74 255.556 133.74C256.405 133.74 257.22 133.887 258 134.182C258.78 134.477 259.464 134.91 260.054 135.482C260.66 136.054 261.137 136.756 261.484 137.588C261.848 138.403 262.03 139.339 262.03 140.396V140.708ZM255.556 145.44C256.18 145.44 256.752 145.336 257.272 145.128C257.809 144.903 258.277 144.582 258.676 144.166C259.074 143.75 259.386 143.256 259.612 142.684C259.837 142.095 259.95 141.436 259.95 140.708V140.396C259.95 139.703 259.837 139.07 259.612 138.498C259.386 137.909 259.074 137.406 258.676 136.99C258.277 136.574 257.809 136.253 257.272 136.028C256.734 135.785 256.162 135.664 255.556 135.664C254.949 135.664 254.377 135.785 253.84 136.028C253.302 136.253 252.834 136.574 252.436 136.99C252.037 137.406 251.725 137.909 251.5 138.498C251.274 139.07 251.162 139.703 251.162 140.396V140.708C251.162 141.436 251.274 142.095 251.5 142.684C251.725 143.256 252.037 143.75 252.436 144.166C252.834 144.582 253.294 144.903 253.814 145.128C254.351 145.336 254.932 145.44 255.556 145.44ZM267.81 147H265.782V134.104H267.81V136.288H268.122C268.919 134.589 270.306 133.74 272.282 133.74C273.772 133.74 274.96 134.208 275.844 135.144C276.728 136.063 277.17 137.449 277.17 139.304V147H275.142V139.72C275.142 138.368 274.838 137.354 274.232 136.678C273.625 136.002 272.802 135.664 271.762 135.664C270.531 135.664 269.56 136.089 268.85 136.938C268.156 137.77 267.81 138.888 267.81 140.292V147ZM309.789 140.708C309.789 141.783 309.607 142.736 309.243 143.568C308.897 144.383 308.429 145.076 307.839 145.648C307.25 146.203 306.557 146.627 305.759 146.922C304.979 147.217 304.165 147.364 303.315 147.364C302.449 147.364 301.625 147.217 300.845 146.922C300.065 146.627 299.381 146.203 298.791 145.648C298.202 145.076 297.725 144.383 297.361 143.568C297.015 142.736 296.841 141.783 296.841 140.708V140.396C296.841 139.339 297.015 138.403 297.361 137.588C297.725 136.756 298.202 136.054 298.791 135.482C299.398 134.91 300.091 134.477 300.871 134.182C301.651 133.887 302.466 133.74 303.315 133.74C304.165 133.74 304.979 133.887 305.759 134.182C306.539 134.477 307.224 134.91 307.813 135.482C308.42 136.054 308.897 136.756 309.243 137.588C309.607 138.403 309.789 139.339 309.789 140.396V140.708ZM303.315 145.44C303.939 145.44 304.511 145.336 305.031 145.128C305.569 144.903 306.037 144.582 306.435 144.166C306.834 143.75 307.146 143.256 307.371 142.684C307.597 142.095 307.709 141.436 307.709 140.708V140.396C307.709 139.703 307.597 139.07 307.371 138.498C307.146 137.909 306.834 137.406 306.435 136.99C306.037 136.574 305.569 136.253 305.031 136.028C304.494 135.785 303.922 135.664 303.315 135.664C302.709 135.664 302.137 135.785 301.599 136.028C301.062 136.253 300.594 136.574 300.195 136.99C299.797 137.406 299.485 137.909 299.259 138.498C299.034 139.07 298.921 139.703 298.921 140.396V140.708C298.921 141.436 299.034 142.095 299.259 142.684C299.485 143.256 299.797 143.75 300.195 144.166C300.594 144.582 301.053 144.903 301.573 145.128C302.111 145.336 302.691 145.44 303.315 145.44ZM313.411 134.104H317.389V130.828C317.389 130.239 317.571 129.753 317.935 129.372C318.317 128.991 318.802 128.8 319.391 128.8H324.487V130.672H320.119C319.651 130.672 319.417 130.932 319.417 131.452V134.104H324.799V135.976H319.417V147H317.389V135.976H313.411V134.104ZM346.941 147H344.913V128.8H346.941V136.132H347.253C347.704 135.352 348.328 134.763 349.125 134.364C349.922 133.948 350.789 133.74 351.725 133.74C352.522 133.74 353.276 133.887 353.987 134.182C354.698 134.477 355.322 134.901 355.859 135.456C356.414 136.011 356.847 136.695 357.159 137.51C357.488 138.325 357.653 139.252 357.653 140.292V140.812C357.653 141.869 357.497 142.805 357.185 143.62C356.873 144.435 356.44 145.119 355.885 145.674C355.348 146.229 354.715 146.653 353.987 146.948C353.259 147.225 352.488 147.364 351.673 147.364C351.257 147.364 350.832 147.312 350.399 147.208C349.966 147.121 349.55 146.983 349.151 146.792C348.77 146.584 348.414 146.341 348.085 146.064C347.756 145.769 347.478 145.423 347.253 145.024H346.941V147ZM351.257 145.44C351.881 145.44 352.453 145.336 352.973 145.128C353.493 144.903 353.944 144.591 354.325 144.192C354.724 143.793 355.027 143.308 355.235 142.736C355.46 142.164 355.573 141.523 355.573 140.812V140.292C355.573 139.599 355.46 138.975 355.235 138.42C355.027 137.848 354.724 137.363 354.325 136.964C353.944 136.548 353.484 136.227 352.947 136.002C352.427 135.777 351.864 135.664 351.257 135.664C350.65 135.664 350.087 135.785 349.567 136.028C349.047 136.253 348.588 136.574 348.189 136.99C347.808 137.406 347.504 137.909 347.279 138.498C347.054 139.07 346.941 139.703 346.941 140.396V140.708C346.941 141.419 347.054 142.069 347.279 142.658C347.504 143.23 347.808 143.724 348.189 144.14C348.588 144.556 349.047 144.877 349.567 145.102C350.087 145.327 350.65 145.44 351.257 145.44ZM370.505 134.104H372.533V147H370.505V144.66H370.193C369.777 145.492 369.231 146.151 368.555 146.636C367.879 147.121 367.021 147.364 365.981 147.364C365.27 147.364 364.612 147.243 364.005 147C363.416 146.775 362.904 146.428 362.471 145.96C362.055 145.492 361.726 144.911 361.483 144.218C361.258 143.525 361.145 142.719 361.145 141.8V134.104H363.173V141.54C363.173 142.892 363.45 143.88 364.005 144.504C364.56 145.128 365.409 145.44 366.553 145.44C367.784 145.44 368.746 145.024 369.439 144.192C370.15 143.343 370.505 142.216 370.505 140.812V134.104ZM381.225 130.256C381.225 129.753 381.398 129.329 381.745 128.982C382.109 128.618 382.542 128.436 383.045 128.436C383.548 128.436 383.972 128.618 384.319 128.982C384.683 129.329 384.865 129.753 384.865 130.256C384.865 130.759 384.683 131.192 384.319 131.556C383.972 131.903 383.548 132.076 383.045 132.076C382.542 132.076 382.109 131.903 381.745 131.556C381.398 131.192 381.225 130.759 381.225 130.256ZM377.533 145.128H382.057V135.976H378.001V134.104H384.085V145.128H388.297V147H377.533V145.128ZM393.141 145.128H397.821V130.672H393.297V128.8H399.849V145.128H404.529V147H393.141V145.128ZM419.045 145.024H418.733C418.525 145.423 418.256 145.769 417.927 146.064C417.615 146.359 417.268 146.601 416.887 146.792C416.523 146.983 416.133 147.121 415.717 147.208C415.301 147.312 414.902 147.364 414.521 147.364C413.654 147.364 412.848 147.217 412.103 146.922C411.357 146.627 410.699 146.203 410.127 145.648C409.572 145.093 409.13 144.409 408.801 143.594C408.489 142.762 408.333 141.817 408.333 140.76V140.344C408.333 139.304 408.497 138.377 408.827 137.562C409.156 136.73 409.598 136.037 410.153 135.482C410.707 134.91 411.357 134.477 412.103 134.182C412.848 133.887 413.637 133.74 414.469 133.74C415.353 133.74 416.176 133.939 416.939 134.338C417.719 134.719 418.317 135.317 418.733 136.132H419.045V128.8H421.073V147H419.045V145.024ZM414.729 145.44C415.335 145.44 415.899 145.327 416.419 145.102C416.939 144.877 417.389 144.556 417.771 144.14C418.169 143.724 418.481 143.23 418.707 142.658C418.932 142.069 419.045 141.419 419.045 140.708V140.396C419.045 139.703 418.932 139.07 418.707 138.498C418.481 137.909 418.169 137.406 417.771 136.99C417.389 136.574 416.93 136.253 416.393 136.028C415.873 135.785 415.318 135.664 414.729 135.664C414.122 135.664 413.55 135.777 413.013 136.002C412.493 136.227 412.033 136.548 411.635 136.964C411.253 137.38 410.95 137.874 410.725 138.446C410.517 139.018 410.413 139.651 410.413 140.344V140.76C410.413 141.488 410.517 142.138 410.725 142.71C410.95 143.282 411.253 143.776 411.635 144.192C412.033 144.591 412.493 144.903 413.013 145.128C413.533 145.336 414.105 145.44 414.729 145.44ZM428.985 130.256C428.985 129.753 429.158 129.329 429.505 128.982C429.869 128.618 430.302 128.436 430.805 128.436C431.307 128.436 431.732 128.618 432.079 128.982C432.443 129.329 432.625 129.753 432.625 130.256C432.625 130.759 432.443 131.192 432.079 131.556C431.732 131.903 431.307 132.076 430.805 132.076C430.302 132.076 429.869 131.903 429.505 131.556C429.158 131.192 428.985 130.759 428.985 130.256ZM425.293 145.128H429.817V135.976H425.761V134.104H431.845V145.128H436.057V147H425.293V145.128ZM442.929 147H440.901V134.104H442.929V136.288H443.241C444.038 134.589 445.425 133.74 447.401 133.74C448.891 133.74 450.079 134.208 450.963 135.144C451.847 136.063 452.289 137.449 452.289 139.304V147H450.261V139.72C450.261 138.368 449.957 137.354 449.351 136.678C448.744 136.002 447.921 135.664 446.881 135.664C445.65 135.664 444.679 136.089 443.969 136.938C443.275 137.77 442.929 138.888 442.929 140.292V147ZM466.623 145.024H466.311C465.895 145.804 465.323 146.393 464.595 146.792C463.884 147.173 463.104 147.364 462.255 147.364C461.388 147.364 460.573 147.217 459.811 146.922C459.048 146.627 458.372 146.203 457.783 145.648C457.211 145.093 456.751 144.409 456.405 143.594C456.075 142.762 455.911 141.817 455.911 140.76V140.344C455.911 139.304 456.084 138.377 456.431 137.562C456.777 136.73 457.237 136.037 457.809 135.482C458.381 134.91 459.048 134.477 459.811 134.182C460.573 133.887 461.371 133.74 462.203 133.74C463.139 133.74 463.953 133.948 464.647 134.364C465.357 134.763 465.912 135.352 466.311 136.132H466.623V134.104H468.651V150.172C468.651 150.761 468.46 151.247 468.079 151.628C467.715 152.009 467.238 152.2 466.649 152.2H458.251V150.328H465.921C466.389 150.328 466.623 150.068 466.623 149.548V145.024ZM462.307 145.44C462.913 145.44 463.477 145.327 463.997 145.102C464.517 144.877 464.967 144.556 465.349 144.14C465.747 143.724 466.059 143.23 466.285 142.658C466.51 142.069 466.623 141.419 466.623 140.708V140.396C466.623 139.703 466.51 139.07 466.285 138.498C466.059 137.909 465.747 137.406 465.349 136.99C464.967 136.574 464.508 136.253 463.971 136.028C463.451 135.785 462.896 135.664 462.307 135.664C461.7 135.664 461.128 135.777 460.591 136.002C460.071 136.227 459.611 136.548 459.213 136.964C458.831 137.38 458.528 137.874 458.303 138.446C458.095 139.018 457.991 139.651 457.991 140.344V140.76C457.991 141.488 458.095 142.138 458.303 142.71C458.528 143.282 458.831 143.776 459.213 144.192C459.611 144.591 460.071 144.903 460.591 145.128C461.111 145.336 461.683 145.44 462.307 145.44ZM492.534 145.544C492.534 145.041 492.708 144.617 493.054 144.27C493.418 143.906 493.852 143.724 494.354 143.724C494.857 143.724 495.282 143.906 495.628 144.27C495.992 144.617 496.174 145.041 496.174 145.544V148.092C496.174 148.681 495.984 149.167 495.602 149.548C495.238 149.929 494.762 150.12 494.172 150.12H492.846V148.716H494.068C494.536 148.716 494.77 148.456 494.77 147.936V147.286C494.632 147.338 494.484 147.364 494.328 147.364C493.843 147.364 493.418 147.191 493.054 146.844C492.708 146.48 492.534 146.047 492.534 145.544ZM520.37 134.104H524.348V130.828C524.348 130.239 524.53 129.753 524.894 129.372C525.276 128.991 525.761 128.8 526.35 128.8H531.446V130.672H527.078C526.61 130.672 526.376 130.932 526.376 131.452V134.104H531.758V135.976H526.376V147H524.348V135.976H520.37V134.104ZM545.624 134.104H547.652V147H545.624V144.66H545.312C544.896 145.492 544.35 146.151 543.674 146.636C542.998 147.121 542.14 147.364 541.1 147.364C540.39 147.364 539.731 147.243 539.124 147C538.535 146.775 538.024 146.428 537.59 145.96C537.174 145.492 536.845 144.911 536.602 144.218C536.377 143.525 536.264 142.719 536.264 141.8V134.104H538.292V141.54C538.292 142.892 538.57 143.88 539.124 144.504C539.679 145.128 540.528 145.44 541.672 145.44C542.903 145.44 543.865 145.024 544.558 144.192C545.269 143.343 545.624 142.216 545.624 140.812V134.104ZM554.368 147H552.34V134.104H554.368V136.288H554.68C555.477 134.589 556.864 133.74 558.84 133.74C560.331 133.74 561.518 134.208 562.402 135.144C563.286 136.063 563.728 137.449 563.728 139.304V147H561.7V139.72C561.7 138.368 561.397 137.354 560.79 136.678C560.183 136.002 559.36 135.664 558.32 135.664C557.089 135.664 556.119 136.089 555.408 136.938C554.715 137.77 554.368 138.888 554.368 140.292V147ZM578.244 145.024H577.932C577.724 145.423 577.455 145.769 577.126 146.064C576.814 146.359 576.467 146.601 576.086 146.792C575.722 146.983 575.332 147.121 574.916 147.208C574.5 147.312 574.101 147.364 573.72 147.364C572.853 147.364 572.047 147.217 571.302 146.922C570.557 146.627 569.898 146.203 569.326 145.648C568.771 145.093 568.329 144.409 568 143.594C567.688 142.762 567.532 141.817 567.532 140.76V140.344C567.532 139.304 567.697 138.377 568.026 137.562C568.355 136.73 568.797 136.037 569.352 135.482C569.907 134.91 570.557 134.477 571.302 134.182C572.047 133.887 572.836 133.74 573.668 133.74C574.552 133.74 575.375 133.939 576.138 134.338C576.918 134.719 577.516 135.317 577.932 136.132H578.244V128.8H580.272V147H578.244V145.024ZM573.928 145.44C574.535 145.44 575.098 145.327 575.618 145.102C576.138 144.877 576.589 144.556 576.97 144.14C577.369 143.724 577.681 143.23 577.906 142.658C578.131 142.069 578.244 141.419 578.244 140.708V140.396C578.244 139.703 578.131 139.07 577.906 138.498C577.681 137.909 577.369 137.406 576.97 136.99C576.589 136.574 576.129 136.253 575.592 136.028C575.072 135.785 574.517 135.664 573.928 135.664C573.321 135.664 572.749 135.777 572.212 136.002C571.692 136.227 571.233 136.548 570.834 136.964C570.453 137.38 570.149 137.874 569.924 138.446C569.716 139.018 569.612 139.651 569.612 140.344V140.76C569.612 141.488 569.716 142.138 569.924 142.71C570.149 143.282 570.453 143.776 570.834 144.192C571.233 144.591 571.692 144.903 572.212 145.128C572.732 145.336 573.304 145.44 573.928 145.44ZM588.184 130.256C588.184 129.753 588.357 129.329 588.704 128.982C589.068 128.618 589.501 128.436 590.004 128.436C590.507 128.436 590.931 128.618 591.278 128.982C591.642 129.329 591.824 129.753 591.824 130.256C591.824 130.759 591.642 131.192 591.278 131.556C590.931 131.903 590.507 132.076 590.004 132.076C589.501 132.076 589.068 131.903 588.704 131.556C588.357 131.192 588.184 130.759 588.184 130.256ZM584.492 145.128H589.016V135.976H584.96V134.104H591.044V145.128H595.256V147H584.492V145.128ZM602.128 147H600.1V134.104H602.128V136.288H602.44C603.237 134.589 604.624 133.74 606.6 133.74C608.091 133.74 609.278 134.208 610.162 135.144C611.046 136.063 611.488 137.449 611.488 139.304V147H609.46V139.72C609.46 138.368 609.157 137.354 608.55 136.678C607.943 136.002 607.12 135.664 606.08 135.664C604.849 135.664 603.879 136.089 603.168 136.938C602.475 137.77 602.128 138.888 602.128 140.292V147ZM625.822 145.024H625.51C625.094 145.804 624.522 146.393 623.794 146.792C623.083 147.173 622.303 147.364 621.454 147.364C620.587 147.364 619.772 147.217 619.01 146.922C618.247 146.627 617.571 146.203 616.982 145.648C616.41 145.093 615.95 144.409 615.604 143.594C615.274 142.762 615.11 141.817 615.11 140.76V140.344C615.11 139.304 615.283 138.377 615.63 137.562C615.976 136.73 616.436 136.037 617.008 135.482C617.58 134.91 618.247 134.477 619.01 134.182C619.772 133.887 620.57 133.74 621.402 133.74C622.338 133.74 623.152 133.948 623.846 134.364C624.556 134.763 625.111 135.352 625.51 136.132H625.822V134.104H627.85V150.172C627.85 150.761 627.659 151.247 627.278 151.628C626.914 152.009 626.437 152.2 625.848 152.2H617.45V150.328H625.12C625.588 150.328 625.822 150.068 625.822 149.548V145.024ZM621.506 145.44C622.112 145.44 622.676 145.327 623.196 145.102C623.716 144.877 624.166 144.556 624.548 144.14C624.946 143.724 625.258 143.23 625.484 142.658C625.709 142.069 625.822 141.419 625.822 140.708V140.396C625.822 139.703 625.709 139.07 625.484 138.498C625.258 137.909 624.946 137.406 624.548 136.99C624.166 136.574 623.707 136.253 623.17 136.028C622.65 135.785 622.095 135.664 621.506 135.664C620.899 135.664 620.327 135.777 619.79 136.002C619.27 136.227 618.81 136.548 618.412 136.964C618.03 137.38 617.727 137.874 617.502 138.446C617.294 139.018 617.19 139.651 617.19 140.344V140.76C617.19 141.488 617.294 142.138 617.502 142.71C617.727 143.282 618.03 143.776 618.412 144.192C618.81 144.591 619.27 144.903 619.79 145.128C620.31 145.336 620.882 145.44 621.506 145.44ZM660.028 140.708C660.028 141.783 659.846 142.736 659.482 143.568C659.135 144.383 658.667 145.076 658.078 145.648C657.488 146.203 656.795 146.627 655.998 146.922C655.218 147.217 654.403 147.364 653.554 147.364C652.687 147.364 651.864 147.217 651.084 146.922C650.304 146.627 649.619 146.203 649.03 145.648C648.44 145.076 647.964 144.383 647.6 143.568C647.253 142.736 647.08 141.783 647.08 140.708V140.396C647.08 139.339 647.253 138.403 647.6 137.588C647.964 136.756 648.44 136.054 649.03 135.482C649.636 134.91 650.33 134.477 651.11 134.182C651.89 133.887 652.704 133.74 653.554 133.74C654.403 133.74 655.218 133.887 655.998 134.182C656.778 134.477 657.462 134.91 658.052 135.482C658.658 136.054 659.135 136.756 659.482 137.588C659.846 138.403 660.028 139.339 660.028 140.396V140.708ZM653.554 145.44C654.178 145.44 654.75 145.336 655.27 145.128C655.807 144.903 656.275 144.582 656.674 144.166C657.072 143.75 657.384 143.256 657.61 142.684C657.835 142.095 657.948 141.436 657.948 140.708V140.396C657.948 139.703 657.835 139.07 657.61 138.498C657.384 137.909 657.072 137.406 656.674 136.99C656.275 136.574 655.807 136.253 655.27 136.028C654.732 135.785 654.16 135.664 653.554 135.664C652.947 135.664 652.375 135.785 651.838 136.028C651.3 136.253 650.832 136.574 650.434 136.99C650.035 137.406 649.723 137.909 649.498 138.498C649.272 139.07 649.16 139.703 649.16 140.396V140.708C649.16 141.436 649.272 142.095 649.498 142.684C649.723 143.256 650.035 143.75 650.434 144.166C650.832 144.582 651.292 144.903 651.812 145.128C652.349 145.336 652.93 145.44 653.554 145.44ZM665.34 152.2H663.312V134.104H665.34V136.132H665.652C666.102 135.352 666.726 134.763 667.524 134.364C668.321 133.948 669.188 133.74 670.124 133.74C670.921 133.74 671.675 133.887 672.386 134.182C673.096 134.477 673.72 134.901 674.258 135.456C674.812 136.011 675.246 136.695 675.558 137.51C675.887 138.325 676.052 139.252 676.052 140.292V140.812C676.052 141.869 675.896 142.805 675.584 143.62C675.272 144.435 674.838 145.119 674.284 145.674C673.746 146.229 673.114 146.653 672.386 146.948C671.658 147.225 670.886 147.364 670.072 147.364C669.656 147.364 669.231 147.312 668.798 147.208C668.364 147.121 667.948 146.983 667.55 146.792C667.168 146.584 666.813 146.341 666.484 146.064C666.154 145.769 665.877 145.423 665.652 145.024H665.34V152.2ZM669.656 145.44C670.28 145.44 670.852 145.336 671.372 145.128C671.892 144.903 672.342 144.591 672.724 144.192C673.122 143.793 673.426 143.308 673.634 142.736C673.859 142.164 673.972 141.523 673.972 140.812V140.292C673.972 139.599 673.859 138.975 673.634 138.42C673.426 137.848 673.122 137.363 672.724 136.964C672.342 136.548 671.883 136.227 671.346 136.002C670.826 135.777 670.262 135.664 669.656 135.664C669.049 135.664 668.486 135.785 667.966 136.028C667.446 136.253 666.986 136.574 666.588 136.99C666.206 137.406 665.903 137.909 665.678 138.498C665.452 139.07 665.34 139.703 665.34 140.396V140.708C665.34 141.419 665.452 142.069 665.678 142.658C665.903 143.23 666.206 143.724 666.588 144.14C666.986 144.556 667.446 144.877 667.966 145.102C668.486 145.327 669.049 145.44 669.656 145.44ZM681.182 141.176C681.234 142.459 681.632 143.49 682.378 144.27C683.123 145.05 684.163 145.44 685.498 145.44C686.104 145.44 686.633 145.371 687.084 145.232C687.534 145.093 687.916 144.903 688.228 144.66C688.557 144.417 688.817 144.14 689.008 143.828C689.216 143.499 689.38 143.152 689.502 142.788L691.426 143.308C691.062 144.504 690.386 145.483 689.398 146.246C688.427 146.991 687.11 147.364 685.446 147.364C684.527 147.364 683.678 147.208 682.898 146.896C682.135 146.567 681.476 146.107 680.922 145.518C680.367 144.929 679.934 144.227 679.622 143.412C679.31 142.597 679.153 141.696 679.153 140.708V140.084C679.153 139.183 679.31 138.342 679.622 137.562C679.951 136.782 680.402 136.115 680.974 135.56C681.546 134.988 682.213 134.546 682.976 134.234C683.756 133.905 684.596 133.74 685.498 133.74C686.555 133.74 687.465 133.939 688.228 134.338C689.008 134.719 689.64 135.196 690.126 135.768C690.628 136.34 690.992 136.964 691.218 137.64C691.46 138.316 691.582 138.94 691.582 139.512V141.176H681.182ZM685.498 135.664C684.926 135.664 684.388 135.759 683.886 135.95C683.4 136.123 682.967 136.375 682.586 136.704C682.222 137.033 681.918 137.423 681.676 137.874C681.45 138.307 681.303 138.784 681.234 139.304H689.554C689.519 138.749 689.38 138.247 689.138 137.796C688.912 137.345 688.609 136.964 688.228 136.652C687.864 136.34 687.439 136.097 686.954 135.924C686.486 135.751 686 135.664 685.498 135.664ZM697.647 147H695.619V134.104H697.647V136.288H697.959C698.757 134.589 700.143 133.74 702.119 133.74C703.61 133.74 704.797 134.208 705.681 135.144C706.565 136.063 707.007 137.449 707.007 139.304V147H704.979V139.72C704.979 138.368 704.676 137.354 704.069 136.678C703.463 136.002 702.639 135.664 701.599 135.664C700.369 135.664 699.398 136.089 698.687 136.938C697.994 137.77 697.647 138.888 697.647 140.292V147ZM730.137 137.432C730.137 138.056 730.397 138.533 730.917 138.862C731.455 139.191 732.425 139.408 733.829 139.512C735.337 139.633 736.481 139.997 737.261 140.604C738.059 141.193 738.457 142.06 738.457 143.204V143.36C738.457 143.984 738.327 144.547 738.067 145.05C737.825 145.535 737.478 145.951 737.027 146.298C736.594 146.645 736.057 146.905 735.415 147.078C734.791 147.269 734.107 147.364 733.361 147.364C732.356 147.364 731.489 147.234 730.761 146.974C730.051 146.697 729.453 146.341 728.967 145.908C728.499 145.457 728.144 144.955 727.901 144.4C727.659 143.828 727.52 143.256 727.485 142.684L729.409 142.216C729.496 143.204 729.877 144.001 730.553 144.608C731.229 145.197 732.131 145.492 733.257 145.492C734.211 145.492 734.973 145.31 735.545 144.946C736.135 144.565 736.429 144.036 736.429 143.36C736.429 142.632 736.143 142.112 735.571 141.8C734.999 141.488 734.072 141.289 732.789 141.202C731.299 141.098 730.155 140.751 729.357 140.162C728.56 139.573 728.161 138.715 728.161 137.588V137.432C728.161 136.825 728.291 136.297 728.551 135.846C728.811 135.378 729.158 134.988 729.591 134.676C730.042 134.364 730.545 134.13 731.099 133.974C731.654 133.818 732.235 133.74 732.841 133.74C733.691 133.74 734.436 133.861 735.077 134.104C735.719 134.329 736.256 134.633 736.689 135.014C737.123 135.378 737.452 135.803 737.677 136.288C737.92 136.773 738.076 137.259 738.145 137.744L736.221 138.212C736.135 137.38 735.797 136.73 735.207 136.262C734.635 135.794 733.881 135.56 732.945 135.56C732.581 135.56 732.226 135.603 731.879 135.69C731.55 135.759 731.255 135.872 730.995 136.028C730.735 136.184 730.527 136.383 730.371 136.626C730.215 136.851 730.137 137.12 730.137 137.432ZM755.547 140.708C755.547 141.783 755.365 142.736 755.001 143.568C754.655 144.383 754.187 145.076 753.597 145.648C753.008 146.203 752.315 146.627 751.517 146.922C750.737 147.217 749.923 147.364 749.073 147.364C748.207 147.364 747.383 147.217 746.603 146.922C745.823 146.627 745.139 146.203 744.549 145.648C743.96 145.076 743.483 144.383 743.119 143.568C742.773 142.736 742.599 141.783 742.599 140.708V140.396C742.599 139.339 742.773 138.403 743.119 137.588C743.483 136.756 743.96 136.054 744.549 135.482C745.156 134.91 745.849 134.477 746.629 134.182C747.409 133.887 748.224 133.74 749.073 133.74C749.923 133.74 750.737 133.887 751.517 134.182C752.297 134.477 752.982 134.91 753.571 135.482C754.178 136.054 754.655 136.756 755.001 137.588C755.365 138.403 755.547 139.339 755.547 140.396V140.708ZM749.073 145.44C749.697 145.44 750.269 145.336 750.789 145.128C751.327 144.903 751.795 144.582 752.193 144.166C752.592 143.75 752.904 143.256 753.129 142.684C753.355 142.095 753.467 141.436 753.467 140.708V140.396C753.467 139.703 753.355 139.07 753.129 138.498C752.904 137.909 752.592 137.406 752.193 136.99C751.795 136.574 751.327 136.253 750.789 136.028C750.252 135.785 749.68 135.664 749.073 135.664C748.467 135.664 747.895 135.785 747.357 136.028C746.82 136.253 746.352 136.574 745.953 136.99C745.555 137.406 745.243 137.909 745.017 138.498C744.792 139.07 744.679 139.703 744.679 140.396V140.708C744.679 141.436 744.792 142.095 745.017 142.684C745.243 143.256 745.555 143.75 745.953 144.166C746.352 144.582 746.811 144.903 747.331 145.128C747.869 145.336 748.449 145.44 749.073 145.44ZM768.503 134.104H770.531V147H768.503V144.66H768.191C767.775 145.492 767.229 146.151 766.553 146.636C765.877 147.121 765.019 147.364 763.979 147.364C763.268 147.364 762.61 147.243 762.003 147C761.414 146.775 760.902 146.428 760.469 145.96C760.053 145.492 759.724 144.911 759.481 144.218C759.256 143.525 759.143 142.719 759.143 141.8V134.104H761.171V141.54C761.171 142.892 761.448 143.88 762.003 144.504C762.558 145.128 763.407 145.44 764.551 145.44C765.782 145.44 766.744 145.024 767.437 144.192C768.148 143.343 768.503 142.216 768.503 140.812V134.104ZM774.491 134.104H779.171V135.82H779.483C779.812 135.109 780.28 134.589 780.887 134.26C781.494 133.913 782.187 133.74 782.967 133.74C784.267 133.74 785.316 134.165 786.113 135.014C786.91 135.863 787.335 137.103 787.387 138.732L785.255 139.044C785.255 137.848 784.969 136.99 784.397 136.47C783.825 135.933 783.123 135.664 782.291 135.664C781.754 135.664 781.286 135.768 780.887 135.976C780.506 136.184 780.185 136.47 779.925 136.834C779.665 137.198 779.474 137.623 779.353 138.108C779.232 138.593 779.171 139.113 779.171 139.668V145.128H782.447V147H774.179V145.128H777.143V135.976H774.491V134.104ZM803.203 142.424C803.064 143.135 802.822 143.793 802.475 144.4C802.146 145.007 801.721 145.535 801.201 145.986C800.681 146.419 800.074 146.757 799.381 147C798.688 147.243 797.916 147.364 797.067 147.364C796.166 147.364 795.308 147.217 794.493 146.922C793.696 146.627 792.994 146.203 792.387 145.648C791.78 145.076 791.295 144.383 790.931 143.568C790.584 142.753 790.411 141.817 790.411 140.76V140.448C790.411 139.408 790.584 138.472 790.931 137.64C791.295 136.808 791.78 136.106 792.387 135.534C792.994 134.962 793.696 134.52 794.493 134.208C795.308 133.896 796.166 133.74 797.067 133.74C797.882 133.74 798.636 133.861 799.329 134.104C800.022 134.347 800.629 134.693 801.149 135.144C801.686 135.577 802.12 136.097 802.449 136.704C802.796 137.311 803.03 137.969 803.151 138.68L801.123 139.148C801.071 138.697 800.941 138.264 800.733 137.848C800.542 137.415 800.274 137.042 799.927 136.73C799.598 136.401 799.19 136.141 798.705 135.95C798.22 135.759 797.656 135.664 797.015 135.664C796.391 135.664 795.802 135.785 795.247 136.028C794.71 136.253 794.233 136.583 793.817 137.016C793.401 137.432 793.072 137.935 792.829 138.524C792.604 139.113 792.491 139.755 792.491 140.448V140.76C792.491 141.488 792.604 142.147 792.829 142.736C793.072 143.308 793.401 143.793 793.817 144.192C794.233 144.591 794.718 144.903 795.273 145.128C795.828 145.336 796.426 145.44 797.067 145.44C797.708 145.44 798.263 145.345 798.731 145.154C799.216 144.946 799.624 144.686 799.953 144.374C800.3 144.045 800.568 143.672 800.759 143.256C800.967 142.84 801.106 142.407 801.175 141.956L803.203 142.424ZM808.541 141.176C808.593 142.459 808.992 143.49 809.737 144.27C810.482 145.05 811.522 145.44 812.857 145.44C813.464 145.44 813.992 145.371 814.443 145.232C814.894 145.093 815.275 144.903 815.587 144.66C815.916 144.417 816.176 144.14 816.367 143.828C816.575 143.499 816.74 143.152 816.861 142.788L818.785 143.308C818.421 144.504 817.745 145.483 816.757 146.246C815.786 146.991 814.469 147.364 812.805 147.364C811.886 147.364 811.037 147.208 810.257 146.896C809.494 146.567 808.836 146.107 808.281 145.518C807.726 144.929 807.293 144.227 806.981 143.412C806.669 142.597 806.513 141.696 806.513 140.708V140.084C806.513 139.183 806.669 138.342 806.981 137.562C807.31 136.782 807.761 136.115 808.333 135.56C808.905 134.988 809.572 134.546 810.335 134.234C811.115 133.905 811.956 133.74 812.857 133.74C813.914 133.74 814.824 133.939 815.587 134.338C816.367 134.719 817 135.196 817.485 135.768C817.988 136.34 818.352 136.964 818.577 137.64C818.82 138.316 818.941 138.94 818.941 139.512V141.176H808.541ZM812.857 135.664C812.285 135.664 811.748 135.759 811.245 135.95C810.76 136.123 810.326 136.375 809.945 136.704C809.581 137.033 809.278 137.423 809.035 137.874C808.81 138.307 808.662 138.784 808.593 139.304H816.913C816.878 138.749 816.74 138.247 816.497 137.796C816.272 137.345 815.968 136.964 815.587 136.652C815.223 136.34 814.798 136.097 814.313 135.924C813.845 135.751 813.36 135.664 812.857 135.664ZM180.246 183.024H179.934C179.726 183.423 179.457 183.769 179.128 184.064C178.816 184.359 178.469 184.601 178.088 184.792C177.724 184.983 177.334 185.121 176.918 185.208C176.502 185.312 176.103 185.364 175.722 185.364C174.855 185.364 174.049 185.217 173.304 184.922C172.559 184.627 171.9 184.203 171.328 183.648C170.773 183.093 170.331 182.409 170.002 181.594C169.69 180.762 169.534 179.817 169.534 178.76V178.344C169.534 177.304 169.699 176.377 170.028 175.562C170.357 174.73 170.799 174.037 171.354 173.482C171.909 172.91 172.559 172.477 173.304 172.182C174.049 171.887 174.838 171.74 175.67 171.74C176.554 171.74 177.377 171.939 178.14 172.338C178.92 172.719 179.518 173.317 179.934 174.132H180.246V166.8H182.274V185H180.246V183.024ZM175.93 183.44C176.537 183.44 177.1 183.327 177.62 183.102C178.14 182.877 178.591 182.556 178.972 182.14C179.371 181.724 179.683 181.23 179.908 180.658C180.133 180.069 180.246 179.419 180.246 178.708V178.396C180.246 177.703 180.133 177.07 179.908 176.498C179.683 175.909 179.371 175.406 178.972 174.99C178.591 174.574 178.131 174.253 177.594 174.028C177.074 173.785 176.519 173.664 175.93 173.664C175.323 173.664 174.751 173.777 174.214 174.002C173.694 174.227 173.235 174.548 172.836 174.964C172.455 175.38 172.151 175.874 171.926 176.446C171.718 177.018 171.614 177.651 171.614 178.344V178.76C171.614 179.488 171.718 180.138 171.926 180.71C172.151 181.282 172.455 181.776 172.836 182.192C173.235 182.591 173.694 182.903 174.214 183.128C174.734 183.336 175.306 183.44 175.93 183.44ZM190.186 168.256C190.186 167.753 190.359 167.329 190.706 166.982C191.07 166.618 191.503 166.436 192.006 166.436C192.509 166.436 192.933 166.618 193.28 166.982C193.644 167.329 193.826 167.753 193.826 168.256C193.826 168.759 193.644 169.192 193.28 169.556C192.933 169.903 192.509 170.076 192.006 170.076C191.503 170.076 191.07 169.903 190.706 169.556C190.359 169.192 190.186 168.759 190.186 168.256ZM186.494 183.128H191.018V173.976H186.962V172.104H193.046V183.128H197.258V185H186.494V183.128ZM211.904 183.024H211.592C211.176 183.804 210.604 184.393 209.876 184.792C209.165 185.173 208.385 185.364 207.536 185.364C206.669 185.364 205.855 185.217 205.092 184.922C204.329 184.627 203.653 184.203 203.064 183.648C202.492 183.093 202.033 182.409 201.686 181.594C201.357 180.762 201.192 179.817 201.192 178.76V178.344C201.192 177.304 201.365 176.377 201.712 175.562C202.059 174.73 202.518 174.037 203.09 173.482C203.662 172.91 204.329 172.477 205.092 172.182C205.855 171.887 206.652 171.74 207.484 171.74C208.42 171.74 209.235 171.948 209.928 172.364C210.639 172.763 211.193 173.352 211.592 174.132H211.904V172.104H213.932V188.172C213.932 188.761 213.741 189.247 213.36 189.628C212.996 190.009 212.519 190.2 211.93 190.2H203.532V188.328H211.202C211.67 188.328 211.904 188.068 211.904 187.548V183.024ZM207.588 183.44C208.195 183.44 208.758 183.327 209.278 183.102C209.798 182.877 210.249 182.556 210.63 182.14C211.029 181.724 211.341 181.23 211.566 180.658C211.791 180.069 211.904 179.419 211.904 178.708V178.396C211.904 177.703 211.791 177.07 211.566 176.498C211.341 175.909 211.029 175.406 210.63 174.99C210.249 174.574 209.789 174.253 209.252 174.028C208.732 173.785 208.177 173.664 207.588 173.664C206.981 173.664 206.409 173.777 205.872 174.002C205.352 174.227 204.893 174.548 204.494 174.964C204.113 175.38 203.809 175.874 203.584 176.446C203.376 177.018 203.272 177.651 203.272 178.344V178.76C203.272 179.488 203.376 180.138 203.584 180.71C203.809 181.282 204.113 181.776 204.494 182.192C204.893 182.591 205.352 182.903 205.872 183.128C206.392 183.336 206.964 183.44 207.588 183.44ZM222.026 168.256C222.026 167.753 222.199 167.329 222.546 166.982C222.91 166.618 223.343 166.436 223.846 166.436C224.348 166.436 224.773 166.618 225.12 166.982C225.484 167.329 225.666 167.753 225.666 168.256C225.666 168.759 225.484 169.192 225.12 169.556C224.773 169.903 224.348 170.076 223.846 170.076C223.343 170.076 222.91 169.903 222.546 169.556C222.199 169.192 222.026 168.759 222.026 168.256ZM218.334 183.128H222.858V173.976H218.802V172.104H224.886V183.128H229.098V185H218.334V183.128ZM233.5 172.104H237.556V166.8H239.584V172.104H244.576V173.976H239.584V182.348C239.584 182.868 239.818 183.128 240.286 183.128H243.952V185H239.558C238.968 185 238.483 184.809 238.102 184.428C237.738 184.047 237.556 183.561 237.556 182.972V173.976H233.5V172.104ZM259.222 182.816H258.91C258.494 183.683 257.913 184.324 257.168 184.74C256.44 185.156 255.668 185.364 254.854 185.364C254.004 185.364 253.216 185.225 252.488 184.948C251.76 184.653 251.118 184.229 250.564 183.674C250.026 183.102 249.602 182.409 249.29 181.594C248.978 180.779 248.822 179.835 248.822 178.76V178.344C248.822 177.287 248.978 176.351 249.29 175.536C249.602 174.721 250.026 174.037 250.564 173.482C251.118 172.91 251.76 172.477 252.488 172.182C253.216 171.887 253.987 171.74 254.802 171.74C255.686 171.74 256.483 171.939 257.194 172.338C257.922 172.719 258.494 173.317 258.91 174.132H259.222V172.104H261.25V182.348C261.25 182.868 261.484 183.128 261.952 183.128H262.602V185H261.224C260.634 185 260.149 184.809 259.768 184.428C259.404 184.047 259.222 183.561 259.222 182.972V182.816ZM255.062 183.44C255.668 183.44 256.223 183.327 256.726 183.102C257.246 182.877 257.688 182.556 258.052 182.14C258.416 181.724 258.702 181.23 258.91 180.658C259.118 180.069 259.222 179.419 259.222 178.708V178.396C259.222 177.703 259.118 177.07 258.91 176.498C258.702 175.909 258.407 175.406 258.026 174.99C257.662 174.574 257.22 174.253 256.7 174.028C256.197 173.785 255.651 173.664 255.062 173.664C254.455 173.664 253.9 173.777 253.398 174.002C252.895 174.227 252.453 174.548 252.072 174.964C251.708 175.363 251.422 175.857 251.214 176.446C251.006 177.018 250.902 177.651 250.902 178.344V178.76C250.902 180.233 251.283 181.386 252.046 182.218C252.826 183.033 253.831 183.44 255.062 183.44ZM265.782 183.128H270.462V168.672H265.938V166.8H272.49V183.128H277.17V185H265.782V183.128ZM299.181 190.2H297.153V172.104H299.181V174.132H299.493C299.944 173.352 300.568 172.763 301.365 172.364C302.163 171.948 303.029 171.74 303.965 171.74C304.763 171.74 305.517 171.887 306.227 172.182C306.938 172.477 307.562 172.901 308.099 173.456C308.654 174.011 309.087 174.695 309.399 175.51C309.729 176.325 309.893 177.252 309.893 178.292V178.812C309.893 179.869 309.737 180.805 309.425 181.62C309.113 182.435 308.68 183.119 308.125 183.674C307.588 184.229 306.955 184.653 306.227 184.948C305.499 185.225 304.728 185.364 303.913 185.364C303.497 185.364 303.073 185.312 302.639 185.208C302.206 185.121 301.79 184.983 301.391 184.792C301.01 184.584 300.655 184.341 300.325 184.064C299.996 183.769 299.719 183.423 299.493 183.024H299.181V190.2ZM303.497 183.44C304.121 183.44 304.693 183.336 305.213 183.128C305.733 182.903 306.184 182.591 306.565 182.192C306.964 181.793 307.267 181.308 307.475 180.736C307.701 180.164 307.813 179.523 307.813 178.812V178.292C307.813 177.599 307.701 176.975 307.475 176.42C307.267 175.848 306.964 175.363 306.565 174.964C306.184 174.548 305.725 174.227 305.187 174.002C304.667 173.777 304.104 173.664 303.497 173.664C302.891 173.664 302.327 173.785 301.807 174.028C301.287 174.253 300.828 174.574 300.429 174.99C300.048 175.406 299.745 175.909 299.519 176.498C299.294 177.07 299.181 177.703 299.181 178.396V178.708C299.181 179.419 299.294 180.069 299.519 180.658C299.745 181.23 300.048 181.724 300.429 182.14C300.828 182.556 301.287 182.877 301.807 183.102C302.327 183.327 302.891 183.44 303.497 183.44ZM322.745 172.104H324.773V185H322.745V182.66H322.433C322.017 183.492 321.471 184.151 320.795 184.636C320.119 185.121 319.261 185.364 318.221 185.364C317.511 185.364 316.852 185.243 316.245 185C315.656 184.775 315.145 184.428 314.711 183.96C314.295 183.492 313.966 182.911 313.723 182.218C313.498 181.525 313.385 180.719 313.385 179.8V172.104H315.413V179.54C315.413 180.892 315.691 181.88 316.245 182.504C316.8 183.128 317.649 183.44 318.793 183.44C320.024 183.44 320.986 183.024 321.679 182.192C322.39 181.343 322.745 180.216 322.745 178.812V172.104ZM331.021 185H328.993V166.8H331.021V174.132H331.333C331.784 173.352 332.408 172.763 333.205 172.364C334.003 171.948 334.869 171.74 335.805 171.74C336.603 171.74 337.357 171.887 338.067 172.182C338.778 172.477 339.402 172.901 339.939 173.456C340.494 174.011 340.927 174.695 341.239 175.51C341.569 176.325 341.733 177.252 341.733 178.292V178.812C341.733 179.869 341.577 180.805 341.265 181.62C340.953 182.435 340.52 183.119 339.965 183.674C339.428 184.229 338.795 184.653 338.067 184.948C337.339 185.225 336.568 185.364 335.753 185.364C335.337 185.364 334.913 185.312 334.479 185.208C334.046 185.121 333.63 184.983 333.231 184.792C332.85 184.584 332.495 184.341 332.165 184.064C331.836 183.769 331.559 183.423 331.333 183.024H331.021V185ZM335.337 183.44C335.961 183.44 336.533 183.336 337.053 183.128C337.573 182.903 338.024 182.591 338.405 182.192C338.804 181.793 339.107 181.308 339.315 180.736C339.541 180.164 339.653 179.523 339.653 178.812V178.292C339.653 177.599 339.541 176.975 339.315 176.42C339.107 175.848 338.804 175.363 338.405 174.964C338.024 174.548 337.565 174.227 337.027 174.002C336.507 173.777 335.944 173.664 335.337 173.664C334.731 173.664 334.167 173.785 333.647 174.028C333.127 174.253 332.668 174.574 332.269 174.99C331.888 175.406 331.585 175.909 331.359 176.498C331.134 177.07 331.021 177.703 331.021 178.396V178.708C331.021 179.419 331.134 180.069 331.359 180.658C331.585 181.23 331.888 181.724 332.269 182.14C332.668 182.556 333.127 182.877 333.647 183.102C334.167 183.327 334.731 183.44 335.337 183.44ZM345.381 183.128H350.061V168.672H345.537V166.8H352.089V183.128H356.769V185H345.381V183.128ZM365.305 168.256C365.305 167.753 365.478 167.329 365.825 166.982C366.189 166.618 366.622 166.436 367.125 166.436C367.628 166.436 368.052 166.618 368.399 166.982C368.763 167.329 368.945 167.753 368.945 168.256C368.945 168.759 368.763 169.192 368.399 169.556C368.052 169.903 367.628 170.076 367.125 170.076C366.622 170.076 366.189 169.903 365.825 169.556C365.478 169.192 365.305 168.759 365.305 168.256ZM361.613 183.128H366.137V173.976H362.081V172.104H368.165V183.128H372.377V185H361.613V183.128ZM389.285 180.424C389.146 181.135 388.904 181.793 388.557 182.4C388.228 183.007 387.803 183.535 387.283 183.986C386.763 184.419 386.156 184.757 385.463 185C384.77 185.243 383.998 185.364 383.149 185.364C382.248 185.364 381.39 185.217 380.575 184.922C379.778 184.627 379.076 184.203 378.469 183.648C377.862 183.076 377.377 182.383 377.013 181.568C376.666 180.753 376.493 179.817 376.493 178.76V178.448C376.493 177.408 376.666 176.472 377.013 175.64C377.377 174.808 377.862 174.106 378.469 173.534C379.076 172.962 379.778 172.52 380.575 172.208C381.39 171.896 382.248 171.74 383.149 171.74C383.964 171.74 384.718 171.861 385.411 172.104C386.104 172.347 386.711 172.693 387.231 173.144C387.768 173.577 388.202 174.097 388.531 174.704C388.878 175.311 389.112 175.969 389.233 176.68L387.205 177.148C387.153 176.697 387.023 176.264 386.815 175.848C386.624 175.415 386.356 175.042 386.009 174.73C385.68 174.401 385.272 174.141 384.787 173.95C384.302 173.759 383.738 173.664 383.097 173.664C382.473 173.664 381.884 173.785 381.329 174.028C380.792 174.253 380.315 174.583 379.899 175.016C379.483 175.432 379.154 175.935 378.911 176.524C378.686 177.113 378.573 177.755 378.573 178.448V178.76C378.573 179.488 378.686 180.147 378.911 180.736C379.154 181.308 379.483 181.793 379.899 182.192C380.315 182.591 380.8 182.903 381.355 183.128C381.91 183.336 382.508 183.44 383.149 183.44C383.79 183.44 384.345 183.345 384.813 183.154C385.298 182.946 385.706 182.686 386.035 182.374C386.382 182.045 386.65 181.672 386.841 181.256C387.049 180.84 387.188 180.407 387.257 179.956L389.285 180.424ZM418.863 183.024H418.551C418.135 183.804 417.563 184.393 416.835 184.792C416.124 185.173 415.344 185.364 414.495 185.364C413.628 185.364 412.813 185.217 412.051 184.922C411.288 184.627 410.612 184.203 410.023 183.648C409.451 183.093 408.991 182.409 408.645 181.594C408.315 180.762 408.151 179.817 408.151 178.76V178.344C408.151 177.304 408.324 176.377 408.671 175.562C409.017 174.73 409.477 174.037 410.049 173.482C410.621 172.91 411.288 172.477 412.051 172.182C412.813 171.887 413.611 171.74 414.443 171.74C415.379 171.74 416.193 171.948 416.887 172.364C417.597 172.763 418.152 173.352 418.551 174.132H418.863V172.104H420.891V188.172C420.891 188.761 420.7 189.247 420.319 189.628C419.955 190.009 419.478 190.2 418.889 190.2H410.491V188.328H418.161C418.629 188.328 418.863 188.068 418.863 187.548V183.024ZM414.547 183.44C415.153 183.44 415.717 183.327 416.237 183.102C416.757 182.877 417.207 182.556 417.589 182.14C417.987 181.724 418.299 181.23 418.525 180.658C418.75 180.069 418.863 179.419 418.863 178.708V178.396C418.863 177.703 418.75 177.07 418.525 176.498C418.299 175.909 417.987 175.406 417.589 174.99C417.207 174.574 416.748 174.253 416.211 174.028C415.691 173.785 415.136 173.664 414.547 173.664C413.94 173.664 413.368 173.777 412.831 174.002C412.311 174.227 411.851 174.548 411.453 174.964C411.071 175.38 410.768 175.874 410.543 176.446C410.335 177.018 410.231 177.651 410.231 178.344V178.76C410.231 179.488 410.335 180.138 410.543 180.71C410.768 181.282 411.071 181.776 411.453 182.192C411.851 182.591 412.311 182.903 412.831 183.128C413.351 183.336 413.923 183.44 414.547 183.44ZM437.149 178.708C437.149 179.783 436.967 180.736 436.603 181.568C436.256 182.383 435.788 183.076 435.199 183.648C434.609 184.203 433.916 184.627 433.119 184.922C432.339 185.217 431.524 185.364 430.675 185.364C429.808 185.364 428.985 185.217 428.205 184.922C427.425 184.627 426.74 184.203 426.151 183.648C425.561 183.076 425.085 182.383 424.721 181.568C424.374 180.736 424.201 179.783 424.201 178.708V178.396C424.201 177.339 424.374 176.403 424.721 175.588C425.085 174.756 425.561 174.054 426.151 173.482C426.757 172.91 427.451 172.477 428.231 172.182C429.011 171.887 429.825 171.74 430.675 171.74C431.524 171.74 432.339 171.887 433.119 172.182C433.899 172.477 434.583 172.91 435.173 173.482C435.779 174.054 436.256 174.756 436.603 175.588C436.967 176.403 437.149 177.339 437.149 178.396V178.708ZM430.675 183.44C431.299 183.44 431.871 183.336 432.391 183.128C432.928 182.903 433.396 182.582 433.795 182.166C434.193 181.75 434.505 181.256 434.731 180.684C434.956 180.095 435.069 179.436 435.069 178.708V178.396C435.069 177.703 434.956 177.07 434.731 176.498C434.505 175.909 434.193 175.406 433.795 174.99C433.396 174.574 432.928 174.253 432.391 174.028C431.853 173.785 431.281 173.664 430.675 173.664C430.068 173.664 429.496 173.785 428.959 174.028C428.421 174.253 427.953 174.574 427.555 174.99C427.156 175.406 426.844 175.909 426.619 176.498C426.393 177.07 426.281 177.703 426.281 178.396V178.708C426.281 179.436 426.393 180.095 426.619 180.684C426.844 181.256 427.156 181.75 427.555 182.166C427.953 182.582 428.413 182.903 428.933 183.128C429.47 183.336 430.051 183.44 430.675 183.44ZM453.069 178.708C453.069 179.783 452.887 180.736 452.523 181.568C452.176 182.383 451.708 183.076 451.119 183.648C450.529 184.203 449.836 184.627 449.039 184.922C448.259 185.217 447.444 185.364 446.595 185.364C445.728 185.364 444.905 185.217 444.125 184.922C443.345 184.627 442.66 184.203 442.071 183.648C441.481 183.076 441.005 182.383 440.641 181.568C440.294 180.736 440.121 179.783 440.121 178.708V178.396C440.121 177.339 440.294 176.403 440.641 175.588C441.005 174.756 441.481 174.054 442.071 173.482C442.677 172.91 443.371 172.477 444.151 172.182C444.931 171.887 445.745 171.74 446.595 171.74C447.444 171.74 448.259 171.887 449.039 172.182C449.819 172.477 450.503 172.91 451.093 173.482C451.699 174.054 452.176 174.756 452.523 175.588C452.887 176.403 453.069 177.339 453.069 178.396V178.708ZM446.595 183.44C447.219 183.44 447.791 183.336 448.311 183.128C448.848 182.903 449.316 182.582 449.715 182.166C450.113 181.75 450.425 181.256 450.651 180.684C450.876 180.095 450.989 179.436 450.989 178.708V178.396C450.989 177.703 450.876 177.07 450.651 176.498C450.425 175.909 450.113 175.406 449.715 174.99C449.316 174.574 448.848 174.253 448.311 174.028C447.773 173.785 447.201 173.664 446.595 173.664C445.988 173.664 445.416 173.785 444.879 174.028C444.341 174.253 443.873 174.574 443.475 174.99C443.076 175.406 442.764 175.909 442.539 176.498C442.313 177.07 442.201 177.703 442.201 178.396V178.708C442.201 179.436 442.313 180.095 442.539 180.684C442.764 181.256 443.076 181.75 443.475 182.166C443.873 182.582 444.333 182.903 444.853 183.128C445.39 183.336 445.971 183.44 446.595 183.44ZM466.805 183.024H466.493C466.285 183.423 466.016 183.769 465.687 184.064C465.375 184.359 465.028 184.601 464.647 184.792C464.283 184.983 463.893 185.121 463.477 185.208C463.061 185.312 462.662 185.364 462.281 185.364C461.414 185.364 460.608 185.217 459.863 184.922C459.117 184.627 458.459 184.203 457.887 183.648C457.332 183.093 456.89 182.409 456.561 181.594C456.249 180.762 456.093 179.817 456.093 178.76V178.344C456.093 177.304 456.257 176.377 456.587 175.562C456.916 174.73 457.358 174.037 457.913 173.482C458.467 172.91 459.117 172.477 459.863 172.182C460.608 171.887 461.397 171.74 462.229 171.74C463.113 171.74 463.936 171.939 464.699 172.338C465.479 172.719 466.077 173.317 466.493 174.132H466.805V166.8H468.833V185H466.805V183.024ZM462.489 183.44C463.095 183.44 463.659 183.327 464.179 183.102C464.699 182.877 465.149 182.556 465.531 182.14C465.929 181.724 466.241 181.23 466.467 180.658C466.692 180.069 466.805 179.419 466.805 178.708V178.396C466.805 177.703 466.692 177.07 466.467 176.498C466.241 175.909 465.929 175.406 465.531 174.99C465.149 174.574 464.69 174.253 464.153 174.028C463.633 173.785 463.078 173.664 462.489 173.664C461.882 173.664 461.31 173.777 460.773 174.002C460.253 174.227 459.793 174.548 459.395 174.964C459.013 175.38 458.71 175.874 458.485 176.446C458.277 177.018 458.173 177.651 458.173 178.344V178.76C458.173 179.488 458.277 180.138 458.485 180.71C458.71 181.282 459.013 181.776 459.395 182.192C459.793 182.591 460.253 182.903 460.773 183.128C461.293 183.336 461.865 183.44 462.489 183.44ZM475.419 175.432C475.419 176.056 475.679 176.533 476.199 176.862C476.736 177.191 477.707 177.408 479.111 177.512C480.619 177.633 481.763 177.997 482.543 178.604C483.34 179.193 483.739 180.06 483.739 181.204V181.36C483.739 181.984 483.609 182.547 483.349 183.05C483.106 183.535 482.759 183.951 482.309 184.298C481.875 184.645 481.338 184.905 480.697 185.078C480.073 185.269 479.388 185.364 478.643 185.364C477.637 185.364 476.771 185.234 476.043 184.974C475.332 184.697 474.734 184.341 474.249 183.908C473.781 183.457 473.425 182.955 473.183 182.4C472.94 181.828 472.801 181.256 472.767 180.684L474.691 180.216C474.777 181.204 475.159 182.001 475.835 182.608C476.511 183.197 477.412 183.492 478.539 183.492C479.492 183.492 480.255 183.31 480.827 182.946C481.416 182.565 481.711 182.036 481.711 181.36C481.711 180.632 481.425 180.112 480.853 179.8C480.281 179.488 479.353 179.289 478.071 179.202C476.58 179.098 475.436 178.751 474.639 178.162C473.841 177.573 473.443 176.715 473.443 175.588V175.432C473.443 174.825 473.573 174.297 473.833 173.846C474.093 173.378 474.439 172.988 474.873 172.676C475.323 172.364 475.826 172.13 476.381 171.974C476.935 171.818 477.516 171.74 478.123 171.74C478.972 171.74 479.717 171.861 480.359 172.104C481 172.329 481.537 172.633 481.971 173.014C482.404 173.378 482.733 173.803 482.959 174.288C483.201 174.773 483.357 175.259 483.427 175.744L481.503 176.212C481.416 175.38 481.078 174.73 480.489 174.262C479.917 173.794 479.163 173.56 478.227 173.56C477.863 173.56 477.507 173.603 477.161 173.69C476.831 173.759 476.537 173.872 476.277 174.028C476.017 174.184 475.809 174.383 475.653 174.626C475.497 174.851 475.419 175.12 475.419 175.432ZM492.534 183.544C492.534 183.041 492.708 182.617 493.054 182.27C493.418 181.906 493.852 181.724 494.354 181.724C494.857 181.724 495.282 181.906 495.628 182.27C495.992 182.617 496.174 183.041 496.174 183.544C496.174 184.047 495.992 184.48 495.628 184.844C495.282 185.191 494.857 185.364 494.354 185.364C493.852 185.364 493.418 185.191 493.054 184.844C492.708 184.48 492.534 184.047 492.534 183.544Z" fill="#207191"/>
<path d="M92.5004 194.999C60.7441 194.999 35.0002 169.256 35.0002 137.5C35.0002 105.744 60.7441 80 92.5004 80C124.257 80 150 105.744 150 137.5C150 169.256 124.257 194.999 92.5004 194.999Z" fill="#5BF1CD"/>
<path d="M108.644 130.114C110.563 132.993 111.763 136.352 111.763 139.71C111.763 143.069 110.563 146.427 108.644 149.306L112.722 152.424C115.361 148.826 116.8 144.268 116.8 139.71C116.8 134.912 115.361 130.354 112.482 126.516L110.083 128.675L108.644 130.114Z" fill="#E6FFF9"/>
<path d="M116.555 155.3L102.402 144.505C103.361 143.066 104.081 141.627 104.081 139.947C104.081 138.268 103.601 136.589 102.881 135.15L109.598 129.152L116.555 122.675C117.035 122.196 117.035 121.476 116.555 120.996L115.596 120.036C110.558 114.999 103.841 112.12 96.6441 111.88V108.042C96.6441 107.802 96.6441 107.562 96.6441 107.322C96.6441 107.082 96.4042 106.843 96.1643 106.603C95.9244 106.363 95.6846 106.363 95.4447 106.123C95.2048 106.123 94.9649 105.883 94.7251 105.883C94.4852 105.883 94.2453 105.883 94.0054 106.123C93.7655 106.123 93.5255 106.363 93.2856 106.603C93.0457 106.843 93.0459 107.082 92.806 107.322C92.806 107.562 92.806 107.802 92.806 108.042V112.12C91.1267 112.36 89.4474 112.6 87.7682 113.08V108.042C87.7682 107.802 87.7682 107.562 87.7682 107.322C87.7682 107.082 87.5283 106.843 87.2884 106.603C87.0485 106.363 86.8086 106.363 86.5687 106.123C86.3288 106.123 86.089 105.883 85.8491 105.883C85.6092 105.883 85.3693 105.883 85.1295 106.123C84.8896 106.123 84.6497 106.363 84.4098 106.603C84.1699 106.843 84.1699 107.082 83.93 107.322C83.93 107.562 83.93 107.802 83.93 108.042V114.279C78.1726 116.918 73.3748 121.476 70.4961 126.993C67.6174 132.511 66.6579 139.228 67.8573 145.225C69.0568 151.462 72.4153 156.98 77.2131 161.058C82.0109 165.136 88.2479 167.535 94.4851 167.535H114.876C115.595 167.535 116.075 167.055 116.075 166.335V156.02C117.035 156.02 116.795 155.54 116.555 155.3ZM95.6845 162.737C90.6468 162.737 85.8491 161.058 81.7709 157.939C77.6928 154.821 75.0541 150.503 73.6148 145.705C72.4153 140.907 72.6551 135.629 74.5742 131.072C76.4934 126.514 79.8519 122.435 84.4098 120.036V127.473C84.4098 127.713 84.4098 127.953 84.4098 128.193C84.4098 128.433 84.6496 128.673 84.8895 128.912C85.1294 129.152 85.3694 129.152 85.6093 129.392C85.8492 129.392 86.089 129.632 86.3289 129.632C86.5688 129.632 86.8087 129.632 87.0485 129.392C87.2884 129.392 87.5283 129.152 87.7682 128.912C88.0081 128.673 88.0081 128.433 88.248 128.193C88.248 127.953 88.248 127.713 88.248 127.473V118.117C90.6469 117.158 93.5255 116.678 96.1643 116.678C101.202 116.678 106 118.357 109.838 121.236C110.078 121.476 110.078 121.956 109.838 122.196L99.043 132.031C98.0835 131.551 96.8841 131.311 95.9245 131.311C94.7251 131.311 93.5255 131.551 92.566 132.031C91.3665 132.511 90.4069 133.23 89.6873 134.19C88.9676 135.15 88.2481 136.109 88.0082 137.309C87.7683 138.508 87.5283 139.707 87.7682 140.907C88.0081 142.106 88.248 143.306 88.9676 144.265C89.6873 145.225 90.407 146.185 91.3665 146.664C92.3261 147.384 93.5256 147.624 94.7251 147.864C95.9245 148.104 97.124 147.864 98.3234 147.624L111.997 157.939C112.237 157.939 112.237 158.179 112.237 158.419V162.017C112.237 162.257 111.997 162.497 111.757 162.497L95.6845 162.737ZM99.043 139.947C99.043 140.667 98.8031 141.147 98.5632 141.867C98.0835 142.346 97.6037 142.826 97.124 143.066C96.4043 143.306 95.9245 143.306 95.2049 143.306C94.4852 143.066 94.0054 142.826 93.5256 142.346C93.0458 141.867 92.8059 141.387 92.566 140.667C92.566 139.947 92.5661 139.468 92.806 138.748C93.0459 138.028 93.5256 137.548 94.0054 137.309C94.4852 137.069 95.2048 136.829 95.9245 136.829C96.8841 136.829 97.6037 137.069 98.3234 137.788C98.8032 138.268 99.043 138.988 99.043 139.947Z" fill="#E6FFF9"/>
</svg>
