<svg width="676" height="476" viewBox="0 0 676 476" fill="none" xmlns="http://www.w3.org/2000/svg">
<g filter="url(#filter0_d_415_9534)">
<path d="M292.745 67.899C292.745 64.567 293.496 61.578 294.999 58.932C296.501 56.2533 298.543 54.1627 301.124 52.66C303.737 51.1573 306.628 50.406 309.797 50.406C313.521 50.406 316.771 51.3043 319.548 53.101C322.324 54.8977 324.35 57.4457 325.624 60.745H320.283C319.335 58.687 317.963 57.1027 316.167 55.992C314.403 54.8813 312.279 54.326 309.797 54.326C307.412 54.326 305.272 54.8813 303.378 55.992C301.483 57.1027 299.997 58.687 298.919 60.745C297.841 62.7703 297.302 65.155 297.302 67.899C297.302 70.6103 297.841 72.995 298.919 75.053C299.997 77.0783 301.483 78.6463 303.378 79.757C305.272 80.8677 307.412 81.423 309.797 81.423C312.279 81.423 314.403 80.884 316.167 79.806C317.963 78.6953 319.335 77.111 320.283 75.053H325.624C324.35 78.3197 322.324 80.8513 319.548 82.648C316.771 84.412 313.521 85.294 309.797 85.294C306.628 85.294 303.737 84.559 301.124 83.089C298.543 81.5863 296.501 79.512 294.999 76.866C293.496 74.22 292.745 71.231 292.745 67.899ZM343.972 85.441C341.457 85.441 339.17 84.8693 337.112 83.726C335.087 82.5827 333.486 80.9657 332.31 78.875C331.167 76.7517 330.595 74.3017 330.595 71.525C330.595 68.781 331.183 66.3637 332.359 64.273C333.568 62.1497 335.201 60.5327 337.259 59.422C339.317 58.2787 341.62 57.707 344.168 57.707C346.716 57.707 349.019 58.2787 351.077 59.422C353.135 60.5327 354.752 62.1333 355.928 64.224C357.137 66.3147 357.741 68.7483 357.741 71.525C357.741 74.3017 357.121 76.7517 355.879 78.875C354.671 80.9657 353.021 82.5827 350.93 83.726C348.84 84.8693 346.52 85.441 343.972 85.441ZM343.972 81.521C345.573 81.521 347.076 81.1453 348.48 80.394C349.885 79.6427 351.012 78.5157 351.861 77.013C352.743 75.5103 353.184 73.681 353.184 71.525C353.184 69.369 352.76 67.5397 351.91 66.037C351.061 64.5343 349.95 63.4237 348.578 62.705C347.206 61.9537 345.72 61.578 344.119 61.578C342.486 61.578 340.983 61.9537 339.611 62.705C338.272 63.4237 337.194 64.5343 336.377 66.037C335.561 67.5397 335.152 69.369 335.152 71.525C335.152 73.7137 335.544 75.5593 336.328 77.062C337.145 78.5647 338.223 79.6917 339.562 80.443C340.902 81.1617 342.372 81.521 343.972 81.521ZM395.895 57.658C397.986 57.658 399.848 58.099 401.481 58.981C403.114 59.8303 404.405 61.1207 405.352 62.852C406.299 64.5833 406.773 66.6903 406.773 69.173V85H402.363V69.81C402.363 67.1313 401.693 65.0897 400.354 63.685C399.047 62.2477 397.267 61.529 395.013 61.529C392.694 61.529 390.848 62.2803 389.476 63.783C388.104 65.253 387.418 67.3927 387.418 70.202V85H383.008V69.81C383.008 67.1313 382.338 65.0897 380.999 63.685C379.692 62.2477 377.912 61.529 375.658 61.529C373.339 61.529 371.493 62.2803 370.121 63.783C368.749 65.253 368.063 67.3927 368.063 70.202V85H363.604V58.148H368.063V62.019C368.945 60.6143 370.121 59.5363 371.591 58.785C373.094 58.0337 374.743 57.658 376.54 57.658C378.794 57.658 380.787 58.1643 382.518 59.177C384.249 60.1897 385.54 61.676 386.389 63.636C387.14 61.7413 388.382 60.2713 390.113 59.226C391.844 58.1807 393.772 57.658 395.895 57.658ZM416.39 53.787C415.541 53.787 414.822 53.493 414.234 52.905C413.646 52.317 413.352 51.5983 413.352 50.749C413.352 49.8997 413.646 49.181 414.234 48.593C414.822 48.005 415.541 47.711 416.39 47.711C417.207 47.711 417.893 48.005 418.448 48.593C419.036 49.181 419.33 49.8997 419.33 50.749C419.33 51.5983 419.036 52.317 418.448 52.905C417.893 53.493 417.207 53.787 416.39 53.787ZM418.546 58.148V85H414.087V58.148H418.546ZM439.229 57.658C442.496 57.658 445.142 58.6543 447.167 60.647C449.192 62.607 450.205 65.449 450.205 69.173V85H445.795V69.81C445.795 67.1313 445.125 65.0897 443.786 63.685C442.447 62.2477 440.617 61.529 438.298 61.529C435.946 61.529 434.068 62.264 432.663 63.734C431.291 65.204 430.605 67.3437 430.605 70.153V85H426.146V58.148H430.605V61.97C431.487 60.598 432.679 59.5363 434.182 58.785C435.717 58.0337 437.4 57.658 439.229 57.658ZM468.563 57.707C470.882 57.707 472.907 58.2133 474.639 59.226C476.403 60.2387 477.709 61.5127 478.559 63.048V58.148H483.067V85.588C483.067 88.038 482.544 90.2103 481.499 92.105C480.453 94.0323 478.951 95.535 476.991 96.613C475.063 97.691 472.809 98.23 470.229 98.23C466.701 98.23 463.761 97.397 461.409 95.731C459.057 94.065 457.668 91.7947 457.244 88.92H461.654C462.144 90.5533 463.156 91.86 464.692 92.84C466.227 93.8527 468.073 94.359 470.229 94.359C472.679 94.359 474.671 93.5913 476.207 92.056C477.775 90.5207 478.559 88.3647 478.559 85.588V79.953C477.677 81.521 476.37 82.8277 474.639 83.873C472.907 84.9183 470.882 85.441 468.563 85.441C466.178 85.441 464.006 84.853 462.046 83.677C460.118 82.501 458.599 80.8513 457.489 78.728C456.378 76.6047 455.823 74.1873 455.823 71.476C455.823 68.732 456.378 66.331 457.489 64.273C458.599 62.1823 460.118 60.5653 462.046 59.422C464.006 58.2787 466.178 57.707 468.563 57.707ZM478.559 71.525C478.559 69.4997 478.15 67.7357 477.334 66.233C476.517 64.7303 475.406 63.587 474.002 62.803C472.63 61.9863 471.111 61.578 469.445 61.578C467.779 61.578 466.26 61.97 464.888 62.754C463.516 63.538 462.421 64.6813 461.605 66.184C460.788 67.6867 460.38 69.4507 460.38 71.476C460.38 73.534 460.788 75.3307 461.605 76.866C462.421 78.3687 463.516 79.5283 464.888 80.345C466.26 81.129 467.779 81.521 469.445 81.521C471.111 81.521 472.63 81.129 474.002 80.345C475.406 79.5283 476.517 78.3687 477.334 76.866C478.15 75.3307 478.559 73.5503 478.559 71.525ZM514.495 85.343C512.241 85.343 510.215 84.951 508.419 84.167C506.655 83.3503 505.266 82.2397 504.254 80.835C503.241 79.3977 502.718 77.748 502.686 75.886H507.439C507.602 77.4867 508.255 78.8423 509.399 79.953C510.575 81.031 512.273 81.57 514.495 81.57C516.618 81.57 518.284 81.0473 519.493 80.002C520.734 78.924 521.355 77.552 521.355 75.886C521.355 74.5793 520.995 73.5177 520.277 72.701C519.558 71.8843 518.66 71.2637 517.582 70.839C516.504 70.4143 515.05 69.957 513.221 69.467C510.967 68.879 509.154 68.291 507.782 67.703C506.442 67.115 505.283 66.2003 504.303 64.959C503.355 63.685 502.882 61.9863 502.882 59.863C502.882 58.001 503.355 56.3513 504.303 54.914C505.25 53.4767 506.573 52.366 508.272 51.582C510.003 50.798 511.979 50.406 514.201 50.406C517.402 50.406 520.015 51.2063 522.041 52.807C524.099 54.4077 525.258 56.531 525.52 59.177H520.62C520.456 57.8703 519.77 56.727 518.562 55.747C517.353 54.7343 515.752 54.228 513.76 54.228C511.898 54.228 510.379 54.718 509.203 55.698C508.027 56.6453 507.439 57.9847 507.439 59.716C507.439 60.9573 507.782 61.97 508.468 62.754C509.186 63.538 510.052 64.1423 511.065 64.567C512.11 64.959 513.564 65.4163 515.426 65.939C517.68 66.5597 519.493 67.1803 520.865 67.801C522.237 68.389 523.413 69.32 524.393 70.594C525.373 71.8353 525.863 73.534 525.863 75.69C525.863 77.356 525.422 78.924 524.54 80.394C523.658 81.864 522.351 83.0563 520.62 83.971C518.888 84.8857 516.847 85.343 514.495 85.343ZM544.135 85.441C541.62 85.441 539.333 84.8693 537.275 83.726C535.25 82.5827 533.649 80.9657 532.473 78.875C531.33 76.7517 530.758 74.3017 530.758 71.525C530.758 68.781 531.346 66.3637 532.522 64.273C533.731 62.1497 535.364 60.5327 537.422 59.422C539.48 58.2787 541.783 57.707 544.331 57.707C546.879 57.707 549.182 58.2787 551.24 59.422C553.298 60.5327 554.915 62.1333 556.091 64.224C557.3 66.3147 557.904 68.7483 557.904 71.525C557.904 74.3017 557.284 76.7517 556.042 78.875C554.834 80.9657 553.184 82.5827 551.093 83.726C549.003 84.8693 546.683 85.441 544.135 85.441ZM544.135 81.521C545.736 81.521 547.239 81.1453 548.643 80.394C550.048 79.6427 551.175 78.5157 552.024 77.013C552.906 75.5103 553.347 73.681 553.347 71.525C553.347 69.369 552.923 67.5397 552.073 66.037C551.224 64.5343 550.113 63.4237 548.741 62.705C547.369 61.9537 545.883 61.578 544.282 61.578C542.649 61.578 541.146 61.9537 539.774 62.705C538.435 63.4237 537.357 64.5343 536.54 66.037C535.724 67.5397 535.315 69.369 535.315 71.525C535.315 73.7137 535.707 75.5593 536.491 77.062C537.308 78.5647 538.386 79.6917 539.725 80.443C541.065 81.1617 542.535 81.521 544.135 81.521ZM575.478 85.441C572.963 85.441 570.676 84.8693 568.618 83.726C566.593 82.5827 564.992 80.9657 563.816 78.875C562.673 76.7517 562.101 74.3017 562.101 71.525C562.101 68.781 562.689 66.3637 563.865 64.273C565.074 62.1497 566.707 60.5327 568.765 59.422C570.823 58.2787 573.126 57.707 575.674 57.707C578.222 57.707 580.525 58.2787 582.583 59.422C584.641 60.5327 586.258 62.1333 587.434 64.224C588.643 66.3147 589.247 68.7483 589.247 71.525C589.247 74.3017 588.626 76.7517 587.385 78.875C586.176 80.9657 584.527 82.5827 582.436 83.726C580.345 84.8693 578.026 85.441 575.478 85.441ZM575.478 81.521C577.079 81.521 578.581 81.1453 579.986 80.394C581.391 79.6427 582.518 78.5157 583.367 77.013C584.249 75.5103 584.69 73.681 584.69 71.525C584.69 69.369 584.265 67.5397 583.416 66.037C582.567 64.5343 581.456 63.4237 580.084 62.705C578.712 61.9537 577.226 61.578 575.625 61.578C573.992 61.578 572.489 61.9537 571.117 62.705C569.778 63.4237 568.7 64.5343 567.883 66.037C567.066 67.5397 566.658 69.369 566.658 71.525C566.658 73.7137 567.05 75.5593 567.834 77.062C568.651 78.5647 569.729 79.6917 571.068 80.443C572.407 81.1617 573.877 81.521 575.478 81.521ZM608.193 57.658C611.46 57.658 614.106 58.6543 616.131 60.647C618.156 62.607 619.169 65.449 619.169 69.173V85H614.759V69.81C614.759 67.1313 614.089 65.0897 612.75 63.685C611.411 62.2477 609.581 61.529 607.262 61.529C604.91 61.529 603.032 62.264 601.627 63.734C600.255 65.204 599.569 67.3437 599.569 70.153V85H595.11V58.148H599.569V61.97C600.451 60.598 601.643 59.5363 603.146 58.785C604.681 58.0337 606.364 57.658 608.193 57.658Z" fill="#FFE171"/>
<path d="M668.015 56.712V64.736H639.183V56.712H668.015ZM197.517 164.556C197.517 169.857 196.239 174.827 193.683 179.466C191.221 184.105 187.293 187.844 181.897 190.684C176.595 193.524 169.874 194.944 161.733 194.944H145.119V233H125.239V133.884H161.733C169.401 133.884 175.933 135.209 181.329 137.86C186.725 140.511 190.748 144.155 193.399 148.794C196.144 153.433 197.517 158.687 197.517 164.556ZM160.881 178.898C166.371 178.898 170.442 177.667 173.093 175.206C175.743 172.65 177.069 169.1 177.069 164.556C177.069 154.9 171.673 150.072 160.881 150.072H145.119V178.898H160.881ZM232.931 166.544C235.487 162.379 238.801 159.113 242.871 156.746C247.037 154.379 251.77 153.196 257.071 153.196V174.07H251.817C245.569 174.07 240.836 175.537 237.617 178.472C234.493 181.407 232.931 186.519 232.931 193.808V233H213.051V154.332H232.931V166.544ZM306.814 234.278C299.24 234.278 292.424 232.621 286.366 229.308C280.307 225.9 275.526 221.119 272.024 214.966C268.616 208.813 266.912 201.713 266.912 193.666C266.912 185.619 268.663 178.519 272.166 172.366C275.763 166.213 280.638 161.479 286.792 158.166C292.945 154.758 299.808 153.054 307.382 153.054C314.955 153.054 321.818 154.758 327.972 158.166C334.125 161.479 338.953 166.213 342.456 172.366C346.053 178.519 347.852 185.619 347.852 193.666C347.852 201.713 346.006 208.813 342.314 214.966C338.716 221.119 333.794 225.9 327.546 229.308C321.392 232.621 314.482 234.278 306.814 234.278ZM306.814 216.954C310.411 216.954 313.772 216.102 316.896 214.398C320.114 212.599 322.67 209.949 324.564 206.446C326.457 202.943 327.404 198.683 327.404 193.666C327.404 186.187 325.416 180.46 321.44 176.484C317.558 172.413 312.778 170.378 307.098 170.378C301.418 170.378 296.637 172.413 292.756 176.484C288.969 180.46 287.076 186.187 287.076 193.666C287.076 201.145 288.922 206.919 292.614 210.99C296.4 214.966 301.134 216.954 306.814 216.954ZM398.786 234.278C391.213 234.278 384.397 232.621 378.338 229.308C372.28 225.9 367.499 221.119 363.996 214.966C360.588 208.813 358.884 201.713 358.884 193.666C358.884 185.619 360.636 178.519 364.138 172.366C367.736 166.213 372.611 161.479 378.764 158.166C384.918 154.758 391.781 153.054 399.354 153.054C406.928 153.054 413.791 154.758 419.944 158.166C426.098 161.479 430.926 166.213 434.428 172.366C438.026 178.519 439.824 185.619 439.824 193.666C439.824 201.713 437.978 208.813 434.286 214.966C430.689 221.119 425.766 225.9 419.518 229.308C413.365 232.621 406.454 234.278 398.786 234.278ZM398.786 216.954C402.384 216.954 405.744 216.102 408.868 214.398C412.087 212.599 414.643 209.949 416.536 206.446C418.43 202.943 419.376 198.683 419.376 193.666C419.376 186.187 417.388 180.46 413.412 176.484C409.531 172.413 404.75 170.378 399.07 170.378C393.39 170.378 388.61 172.413 384.728 176.484C380.942 180.46 379.048 186.187 379.048 193.666C379.048 201.145 380.894 206.919 384.586 210.99C388.373 214.966 393.106 216.954 398.786 216.954ZM491.895 170.662H478.121V233H457.957V170.662H449.011V154.332H457.957V150.356C457.957 140.7 460.702 133.6 466.193 129.056C471.684 124.512 479.967 122.382 491.043 122.666V139.422C486.215 139.327 482.854 140.132 480.961 141.836C479.068 143.54 478.121 146.617 478.121 151.066V154.332H491.895V170.662ZM576.386 234.278C568.813 234.278 561.997 232.621 555.938 229.308C549.879 225.9 545.099 221.119 541.596 214.966C538.188 208.813 536.484 201.713 536.484 193.666C536.484 185.619 538.235 178.519 541.738 172.366C545.335 166.213 550.211 161.479 556.364 158.166C562.517 154.758 569.381 153.054 576.954 153.054C584.527 153.054 591.391 154.758 597.544 158.166C603.697 161.479 608.525 166.213 612.028 172.366C615.625 178.519 617.424 185.619 617.424 193.666C617.424 201.713 615.578 208.813 611.886 214.966C608.289 221.119 603.366 225.9 597.118 229.308C590.965 232.621 584.054 234.278 576.386 234.278ZM576.386 216.954C579.983 216.954 583.344 216.102 586.468 214.398C589.687 212.599 592.243 209.949 594.136 206.446C596.029 202.943 596.976 198.683 596.976 193.666C596.976 186.187 594.988 180.46 591.012 176.484C587.131 172.413 582.35 170.378 576.67 170.378C570.99 170.378 566.209 172.413 562.328 176.484C558.541 180.46 556.648 186.187 556.648 193.666C556.648 201.145 558.494 206.919 562.186 210.99C565.973 214.966 570.706 216.954 576.386 216.954ZM669.495 170.662H655.721V233H635.557V170.662H626.611V154.332H635.557V150.356C635.557 140.7 638.302 133.6 643.793 129.056C649.284 124.512 657.567 122.382 668.643 122.666V139.422C663.815 139.327 660.454 140.132 658.561 141.836C656.668 143.54 655.721 146.617 655.721 151.066V154.332H669.495V170.662ZM303.951 380.994C297.041 380.994 290.793 379.811 285.207 377.444C279.717 375.077 275.362 371.669 272.143 367.22C268.925 362.771 267.268 357.517 267.173 351.458H288.473C288.757 355.529 290.177 358.747 292.733 361.114C295.384 363.481 298.981 364.664 303.525 364.664C308.164 364.664 311.809 363.575 314.459 361.398C317.11 359.126 318.435 356.191 318.435 352.594C318.435 349.659 317.536 347.245 315.737 345.352C313.939 343.459 311.667 341.991 308.921 340.95C306.271 339.814 302.579 338.583 297.845 337.258C291.408 335.365 286.154 333.519 282.083 331.72C278.107 329.827 274.652 327.034 271.717 323.342C268.877 319.555 267.457 314.538 267.457 308.29C267.457 302.421 268.925 297.309 271.859 292.954C274.794 288.599 278.912 285.286 284.213 283.014C289.515 280.647 295.573 279.464 302.389 279.464C312.613 279.464 320.897 281.973 327.239 286.99C333.677 291.913 337.227 298.823 337.889 307.722H316.021C315.832 304.314 314.365 301.521 311.619 299.344C308.969 297.072 305.419 295.936 300.969 295.936C297.088 295.936 293.964 296.93 291.597 298.918C289.325 300.906 288.189 303.793 288.189 307.58C288.189 310.231 289.041 312.455 290.745 314.254C292.544 315.958 294.721 317.378 297.277 318.514C299.928 319.555 303.62 320.786 308.353 322.206C314.791 324.099 320.045 325.993 324.115 327.886C328.186 329.779 331.689 332.619 334.623 336.406C337.558 340.193 339.025 345.163 339.025 351.316C339.025 356.617 337.653 361.54 334.907 366.084C332.162 370.628 328.139 374.273 322.837 377.018C317.536 379.669 311.241 380.994 303.951 380.994ZM380.827 317.662V355.718C380.827 358.369 381.442 360.309 382.673 361.54C383.998 362.676 386.175 363.244 389.205 363.244H398.435V380H385.939C369.183 380 360.805 371.859 360.805 355.576V317.662H351.433V301.332H360.805V281.878H380.827V301.332H398.435V317.662H380.827ZM409.041 340.382C409.041 332.43 410.603 325.377 413.727 319.224C416.946 313.071 421.253 308.337 426.649 305.024C432.14 301.711 438.246 300.054 444.967 300.054C450.837 300.054 455.949 301.237 460.303 303.604C464.753 305.971 468.303 308.953 470.953 312.55V301.332H490.975V380H470.953V368.498C468.397 372.19 464.847 375.267 460.303 377.728C455.854 380.095 450.695 381.278 444.825 381.278C438.199 381.278 432.14 379.574 426.649 376.166C421.253 372.758 416.946 367.977 413.727 361.824C410.603 355.576 409.041 348.429 409.041 340.382ZM470.953 340.666C470.953 335.838 470.007 331.72 468.113 328.312C466.22 324.809 463.664 322.159 460.445 320.36C457.227 318.467 453.771 317.52 450.079 317.52C446.387 317.52 442.979 318.419 439.855 320.218C436.731 322.017 434.175 324.667 432.187 328.17C430.294 331.578 429.347 335.649 429.347 340.382C429.347 345.115 430.294 349.281 432.187 352.878C434.175 356.381 436.731 359.079 439.855 360.972C443.074 362.865 446.482 363.812 450.079 363.812C453.771 363.812 457.227 362.913 460.445 361.114C463.664 359.221 466.22 356.57 468.113 353.162C470.007 349.659 470.953 345.494 470.953 340.666ZM558.388 380L531.692 346.488V380H511.812V274.92H531.692V334.702L558.104 301.332H583.948L549.3 340.808L584.232 380H558.388ZM669.287 338.962C669.287 341.802 669.098 344.358 668.719 346.63H611.209C611.683 352.31 613.671 356.759 617.173 359.978C620.676 363.197 624.983 364.806 630.095 364.806C637.479 364.806 642.733 361.635 645.857 355.292H667.299C665.027 362.865 660.673 369.113 654.235 374.036C647.798 378.864 639.893 381.278 630.521 381.278C622.948 381.278 616.132 379.621 610.073 376.308C604.109 372.9 599.423 368.119 596.015 361.966C592.702 355.813 591.045 348.713 591.045 340.666C591.045 332.525 592.702 325.377 596.015 319.224C599.329 313.071 603.967 308.337 609.931 305.024C615.895 301.711 622.759 300.054 630.521 300.054C638 300.054 644.674 301.663 650.543 304.882C656.507 308.101 661.099 312.692 664.317 318.656C667.631 324.525 669.287 331.294 669.287 338.962ZM648.697 333.282C648.603 328.17 646.757 324.099 643.159 321.07C639.562 317.946 635.16 316.384 629.953 316.384C625.031 316.384 620.865 317.899 617.457 320.928C614.144 323.863 612.109 327.981 611.351 333.282H648.697Z" fill="white"/>
<g filter="url(#filter1_i_415_9534)">
<path d="M388.923 450.972H390.483V436.828H388.923V434.8H396.281C397.148 434.8 397.911 434.921 398.569 435.164C399.245 435.407 399.809 435.736 400.259 436.152C400.727 436.568 401.074 437.071 401.299 437.66C401.542 438.232 401.663 438.856 401.663 439.532V439.844C401.663 440.347 401.585 440.806 401.429 441.222C401.273 441.638 401.057 442.011 400.779 442.34C400.502 442.669 400.173 442.955 399.791 443.198C399.427 443.423 399.029 443.597 398.595 443.718V444.03C399.462 444.273 400.19 444.741 400.779 445.434C401.369 446.11 401.663 446.942 401.663 447.93V448.242C401.663 448.918 401.542 449.551 401.299 450.14C401.074 450.712 400.727 451.215 400.259 451.648C399.809 452.064 399.245 452.393 398.569 452.636C397.911 452.879 397.148 453 396.281 453H388.923V450.972ZM392.667 450.972H396.125C397.148 450.972 397.98 450.721 398.621 450.218C399.263 449.698 399.583 448.987 399.583 448.086V447.93C399.583 446.994 399.28 446.257 398.673 445.72C398.067 445.165 397.243 444.888 396.203 444.888H392.667V450.972ZM392.667 442.86H396.203C397.243 442.86 398.067 442.591 398.673 442.054C399.28 441.517 399.583 440.78 399.583 439.844V439.688C399.583 438.804 399.263 438.111 398.621 437.608C397.98 437.088 397.148 436.828 396.125 436.828H392.667V442.86ZM414.983 450.66H414.671C414.255 451.492 413.709 452.151 413.033 452.636C412.357 453.121 411.499 453.364 410.459 453.364C409.749 453.364 409.09 453.243 408.483 453C407.894 452.775 407.383 452.428 406.949 451.96C406.533 451.492 406.204 450.911 405.961 450.218C405.736 449.525 405.623 448.719 405.623 447.8V440.104H407.651V447.54C407.651 448.892 407.929 449.88 408.483 450.504C409.038 451.128 409.887 451.44 411.031 451.44C412.262 451.44 413.224 451.024 413.917 450.192C414.628 449.343 414.983 448.216 414.983 446.812V440.104H417.011V456.172C417.011 456.761 416.821 457.247 416.439 457.628C416.075 458.009 415.599 458.2 415.009 458.2H407.651V456.328H414.281C414.749 456.328 414.983 456.068 414.983 455.548V450.66ZM435.903 434.8H438.243L443.001 452.064H443.313L448.071 434.8H450.411L445.263 453H441.051L435.903 434.8ZM457.387 436.256C457.387 435.753 457.56 435.329 457.907 434.982C458.271 434.618 458.704 434.436 459.207 434.436C459.71 434.436 460.134 434.618 460.481 434.982C460.845 435.329 461.027 435.753 461.027 436.256C461.027 436.759 460.845 437.192 460.481 437.556C460.134 437.903 459.71 438.076 459.207 438.076C458.704 438.076 458.271 437.903 457.907 437.556C457.56 437.192 457.387 436.759 457.387 436.256ZM453.695 451.128H458.219V441.976H454.163V440.104H460.247V451.128H464.459V453H453.695V451.128ZM468.861 440.104H472.917V434.8H474.945V440.104H479.937V441.976H474.945V450.348C474.945 450.868 475.179 451.128 475.647 451.128H479.313V453H474.919C474.33 453 473.844 452.809 473.463 452.428C473.099 452.047 472.917 451.561 472.917 450.972V441.976H468.861V440.104ZM494.583 450.816H494.271C493.855 451.683 493.274 452.324 492.529 452.74C491.801 453.156 491.03 453.364 490.215 453.364C489.366 453.364 488.577 453.225 487.849 452.948C487.121 452.653 486.48 452.229 485.925 451.674C485.388 451.102 484.963 450.409 484.651 449.594C484.339 448.779 484.183 447.835 484.183 446.76V446.344C484.183 445.287 484.339 444.351 484.651 443.536C484.963 442.721 485.388 442.037 485.925 441.482C486.48 440.91 487.121 440.477 487.849 440.182C488.577 439.887 489.348 439.74 490.163 439.74C491.047 439.74 491.844 439.939 492.555 440.338C493.283 440.719 493.855 441.317 494.271 442.132H494.583V440.104H496.611V450.348C496.611 450.868 496.845 451.128 497.313 451.128H497.963V453H496.585C495.996 453 495.51 452.809 495.129 452.428C494.765 452.047 494.583 451.561 494.583 450.972V450.816ZM490.423 451.44C491.03 451.44 491.584 451.327 492.087 451.102C492.607 450.877 493.049 450.556 493.413 450.14C493.777 449.724 494.063 449.23 494.271 448.658C494.479 448.069 494.583 447.419 494.583 446.708V446.396C494.583 445.703 494.479 445.07 494.271 444.498C494.063 443.909 493.768 443.406 493.387 442.99C493.023 442.574 492.581 442.253 492.061 442.028C491.558 441.785 491.012 441.664 490.423 441.664C489.816 441.664 489.262 441.777 488.759 442.002C488.256 442.227 487.814 442.548 487.433 442.964C487.069 443.363 486.783 443.857 486.575 444.446C486.367 445.018 486.263 445.651 486.263 446.344V446.76C486.263 448.233 486.644 449.386 487.407 450.218C488.187 451.033 489.192 451.44 490.423 451.44ZM501.143 451.128H505.823V436.672H501.299V434.8H507.851V451.128H512.531V453H501.143V451.128ZM521.067 436.256C521.067 435.753 521.24 435.329 521.587 434.982C521.951 434.618 522.384 434.436 522.887 434.436C523.389 434.436 523.814 434.618 524.161 434.982C524.525 435.329 524.707 435.753 524.707 436.256C524.707 436.759 524.525 437.192 524.161 437.556C523.814 437.903 523.389 438.076 522.887 438.076C522.384 438.076 521.951 437.903 521.587 437.556C521.24 437.192 521.067 436.759 521.067 436.256ZM517.375 451.128H521.899V441.976H517.843V440.104H523.927V451.128H528.139V453H517.375V451.128ZM536.311 445.46H536.753L541.667 440.104H544.163V440.26L538.807 446.162V446.63L544.787 452.844V453H542.291L536.805 447.332H536.311V453H534.283V434.8H536.311V445.46ZM564.043 450.972H565.603V436.828H564.043V434.8H571.401C572.267 434.8 573.03 434.921 573.689 435.164C574.365 435.407 574.928 435.736 575.379 436.152C575.847 436.568 576.193 437.071 576.419 437.66C576.661 438.232 576.783 438.856 576.783 439.532V439.844C576.783 440.347 576.705 440.806 576.549 441.222C576.393 441.638 576.176 442.011 575.899 442.34C575.621 442.669 575.292 442.955 574.911 443.198C574.547 443.423 574.148 443.597 573.715 443.718V444.03C574.581 444.273 575.309 444.741 575.899 445.434C576.488 446.11 576.783 446.942 576.783 447.93V448.242C576.783 448.918 576.661 449.551 576.419 450.14C576.193 450.712 575.847 451.215 575.379 451.648C574.928 452.064 574.365 452.393 573.689 452.636C573.03 452.879 572.267 453 571.401 453H564.043V450.972ZM567.787 450.972H571.245C572.267 450.972 573.099 450.721 573.741 450.218C574.382 449.698 574.703 448.987 574.703 448.086V447.93C574.703 446.994 574.399 446.257 573.793 445.72C573.186 445.165 572.363 444.888 571.323 444.888H567.787V450.972ZM567.787 442.86H571.323C572.363 442.86 573.186 442.591 573.793 442.054C574.399 441.517 574.703 440.78 574.703 439.844V439.688C574.703 438.804 574.382 438.111 573.741 437.608C573.099 437.088 572.267 436.828 571.245 436.828H567.787V442.86ZM589.946 440.104H591.974V453H589.946V450.66H589.634C589.218 451.492 588.672 452.151 587.996 452.636C587.32 453.121 586.462 453.364 585.422 453.364C584.712 453.364 584.053 453.243 583.446 453C582.857 452.775 582.346 452.428 581.912 451.96C581.496 451.492 581.167 450.911 580.924 450.218C580.699 449.525 580.586 448.719 580.586 447.8V440.104H582.614V447.54C582.614 448.892 582.892 449.88 583.446 450.504C584.001 451.128 584.85 451.44 585.994 451.44C587.225 451.44 588.187 451.024 588.88 450.192C589.591 449.343 589.946 448.216 589.946 446.812V440.104ZM596.22 440.104H600.276V434.8H602.304V440.104H607.296V441.976H602.304V450.348C602.304 450.868 602.538 451.128 603.006 451.128H606.672V453H602.278C601.689 453 601.204 452.809 600.822 452.428C600.458 452.047 600.276 451.561 600.276 450.972V441.976H596.22V440.104ZM614.064 447.176C614.116 448.459 614.515 449.49 615.26 450.27C616.006 451.05 617.046 451.44 618.38 451.44C618.987 451.44 619.516 451.371 619.966 451.232C620.417 451.093 620.798 450.903 621.11 450.66C621.44 450.417 621.7 450.14 621.89 449.828C622.098 449.499 622.263 449.152 622.384 448.788L624.308 449.308C623.944 450.504 623.268 451.483 622.28 452.246C621.31 452.991 619.992 453.364 618.328 453.364C617.41 453.364 616.56 453.208 615.78 452.896C615.018 452.567 614.359 452.107 613.804 451.518C613.25 450.929 612.816 450.227 612.504 449.412C612.192 448.597 612.036 447.696 612.036 446.708V446.084C612.036 445.183 612.192 444.342 612.504 443.562C612.834 442.782 613.284 442.115 613.856 441.56C614.428 440.988 615.096 440.546 615.858 440.234C616.638 439.905 617.479 439.74 618.38 439.74C619.438 439.74 620.348 439.939 621.11 440.338C621.89 440.719 622.523 441.196 623.008 441.768C623.511 442.34 623.875 442.964 624.1 443.64C624.343 444.316 624.464 444.94 624.464 445.512V447.176H614.064ZM618.38 441.664C617.808 441.664 617.271 441.759 616.768 441.95C616.283 442.123 615.85 442.375 615.468 442.704C615.104 443.033 614.801 443.423 614.558 443.874C614.333 444.307 614.186 444.784 614.116 445.304H622.436C622.402 444.749 622.263 444.247 622.02 443.796C621.795 443.345 621.492 442.964 621.11 442.652C620.746 442.34 620.322 442.097 619.836 441.924C619.368 441.751 618.883 441.664 618.38 441.664ZM627.774 440.104H632.454V441.82H632.766C633.096 441.109 633.564 440.589 634.17 440.26C634.777 439.913 635.47 439.74 636.25 439.74C637.55 439.74 638.599 440.165 639.396 441.014C640.194 441.863 640.618 443.103 640.67 444.732L638.538 445.044C638.538 443.848 638.252 442.99 637.68 442.47C637.108 441.933 636.406 441.664 635.574 441.664C635.037 441.664 634.569 441.768 634.17 441.976C633.789 442.184 633.468 442.47 633.208 442.834C632.948 443.198 632.758 443.623 632.636 444.108C632.515 444.593 632.454 445.113 632.454 445.668V451.128H635.73V453H627.462V451.128H630.426V441.976H627.774V440.104ZM648.426 436.256C648.426 435.753 648.599 435.329 648.946 434.982C649.31 434.618 649.743 434.436 650.246 434.436C650.749 434.436 651.173 434.618 651.52 434.982C651.884 435.329 652.066 435.753 652.066 436.256C652.066 436.759 651.884 437.192 651.52 437.556C651.173 437.903 650.749 438.076 650.246 438.076C649.743 438.076 649.31 437.903 648.946 437.556C648.599 437.192 648.426 436.759 648.426 436.256ZM644.734 451.128H649.258V441.976H645.202V440.104H651.286V451.128H655.498V453H644.734V451.128ZM662.37 453H660.342V440.104H662.37V442.288H662.682C663.479 440.589 664.866 439.74 666.842 439.74C668.333 439.74 669.52 440.208 670.404 441.144C671.288 442.063 671.73 443.449 671.73 445.304V453H669.702V445.72C669.702 444.368 669.399 443.354 668.792 442.678C668.185 442.002 667.362 441.664 666.322 441.664C665.091 441.664 664.121 442.089 663.41 442.938C662.717 443.77 662.37 444.888 662.37 446.292V453Z" fill="#207191"/>
</g>
</g>
<defs>
<filter id="filter0_d_415_9534" x="-4" y="0" width="682" height="484" filterUnits="userSpaceOnUse" color-interpolation-filters="sRGB">
<feFlood flood-opacity="0" result="BackgroundImageFix"/>
<feColorMatrix in="SourceAlpha" type="matrix" values="0 0 0 0 0 0 0 0 0 0 0 0 0 0 0 0 0 0 127 0" result="hardAlpha"/>
<feOffset dy="4"/>
<feGaussianBlur stdDeviation="2"/>
<feComposite in2="hardAlpha" operator="out"/>
<feColorMatrix type="matrix" values="0 0 0 0 0 0 0 0 0 0 0 0 0 0 0 0 0 0 0.25 0"/>
<feBlend mode="normal" in2="BackgroundImageFix" result="effect1_dropShadow_415_9534"/>
<feBlend mode="normal" in="SourceGraphic" in2="effect1_dropShadow_415_9534" result="shape"/>
</filter>
<filter id="filter1_i_415_9534" x="388.923" y="434.436" width="282.807" height="27.7639" filterUnits="userSpaceOnUse" color-interpolation-filters="sRGB">
<feFlood flood-opacity="0" result="BackgroundImageFix"/>
<feBlend mode="normal" in="SourceGraphic" in2="BackgroundImageFix" result="shape"/>
<feColorMatrix in="SourceAlpha" type="matrix" values="0 0 0 0 0 0 0 0 0 0 0 0 0 0 0 0 0 0 127 0" result="hardAlpha"/>
<feOffset dy="4"/>
<feGaussianBlur stdDeviation="2"/>
<feComposite in2="hardAlpha" operator="arithmetic" k2="-1" k3="1"/>
<feColorMatrix type="matrix" values="0 0 0 0 0 0 0 0 0 0 0 0 0 0 0 0 0 0 0.25 0"/>
<feBlend mode="normal" in2="shape" result="effect1_innerShadow_415_9534"/>
</filter>
</defs>
</svg>
