<svg width="674" height="458" viewBox="0 0 674 458" fill="none" xmlns="http://www.w3.org/2000/svg">
<g filter="url(#filter0_d_430_14038)">
<path d="M359.923 432.972H361.483V418.828H359.923V416.8H367.281C368.148 416.8 368.911 416.921 369.569 417.164C370.245 417.407 370.809 417.736 371.259 418.152C371.727 418.568 372.074 419.071 372.299 419.66C372.542 420.232 372.663 420.856 372.663 421.532V421.844C372.663 422.347 372.585 422.806 372.429 423.222C372.273 423.638 372.057 424.011 371.779 424.34C371.502 424.669 371.173 424.955 370.791 425.198C370.427 425.423 370.029 425.597 369.595 425.718V426.03C370.462 426.273 371.19 426.741 371.779 427.434C372.369 428.11 372.663 428.942 372.663 429.93V430.242C372.663 430.918 372.542 431.551 372.299 432.14C372.074 432.712 371.727 433.215 371.259 433.648C370.809 434.064 370.245 434.393 369.569 434.636C368.911 434.879 368.148 435 367.281 435H359.923V432.972ZM363.667 432.972H367.125C368.148 432.972 368.98 432.721 369.621 432.218C370.263 431.698 370.583 430.987 370.583 430.086V429.93C370.583 428.994 370.28 428.257 369.673 427.72C369.067 427.165 368.243 426.888 367.203 426.888H363.667V432.972ZM363.667 424.86H367.203C368.243 424.86 369.067 424.591 369.673 424.054C370.28 423.517 370.583 422.78 370.583 421.844V421.688C370.583 420.804 370.263 420.111 369.621 419.608C368.98 419.088 368.148 418.828 367.125 418.828H363.667V424.86ZM385.983 432.66H385.671C385.255 433.492 384.709 434.151 384.033 434.636C383.357 435.121 382.499 435.364 381.459 435.364C380.749 435.364 380.09 435.243 379.483 435C378.894 434.775 378.383 434.428 377.949 433.96C377.533 433.492 377.204 432.911 376.961 432.218C376.736 431.525 376.623 430.719 376.623 429.8V422.104H378.651V429.54C378.651 430.892 378.929 431.88 379.483 432.504C380.038 433.128 380.887 433.44 382.031 433.44C383.262 433.44 384.224 433.024 384.917 432.192C385.628 431.343 385.983 430.216 385.983 428.812V422.104H388.011V438.172C388.011 438.761 387.821 439.247 387.439 439.628C387.075 440.009 386.599 440.2 386.009 440.2H378.651V438.328H385.281C385.749 438.328 385.983 438.068 385.983 437.548V432.66ZM406.903 416.8H409.243L414.001 434.064H414.313L419.071 416.8H421.411L416.263 435H412.051L406.903 416.8ZM428.387 418.256C428.387 417.753 428.56 417.329 428.907 416.982C429.271 416.618 429.704 416.436 430.207 416.436C430.71 416.436 431.134 416.618 431.481 416.982C431.845 417.329 432.027 417.753 432.027 418.256C432.027 418.759 431.845 419.192 431.481 419.556C431.134 419.903 430.71 420.076 430.207 420.076C429.704 420.076 429.271 419.903 428.907 419.556C428.56 419.192 428.387 418.759 428.387 418.256ZM424.695 433.128H429.219V423.976H425.163V422.104H431.247V433.128H435.459V435H424.695V433.128ZM439.861 422.104H443.917V416.8H445.945V422.104H450.937V423.976H445.945V432.348C445.945 432.868 446.179 433.128 446.647 433.128H450.313V435H445.919C445.33 435 444.844 434.809 444.463 434.428C444.099 434.047 443.917 433.561 443.917 432.972V423.976H439.861V422.104ZM465.583 432.816H465.271C464.855 433.683 464.274 434.324 463.529 434.74C462.801 435.156 462.03 435.364 461.215 435.364C460.366 435.364 459.577 435.225 458.849 434.948C458.121 434.653 457.48 434.229 456.925 433.674C456.388 433.102 455.963 432.409 455.651 431.594C455.339 430.779 455.183 429.835 455.183 428.76V428.344C455.183 427.287 455.339 426.351 455.651 425.536C455.963 424.721 456.388 424.037 456.925 423.482C457.48 422.91 458.121 422.477 458.849 422.182C459.577 421.887 460.348 421.74 461.163 421.74C462.047 421.74 462.844 421.939 463.555 422.338C464.283 422.719 464.855 423.317 465.271 424.132H465.583V422.104H467.611V432.348C467.611 432.868 467.845 433.128 468.313 433.128H468.963V435H467.585C466.996 435 466.51 434.809 466.129 434.428C465.765 434.047 465.583 433.561 465.583 432.972V432.816ZM461.423 433.44C462.03 433.44 462.584 433.327 463.087 433.102C463.607 432.877 464.049 432.556 464.413 432.14C464.777 431.724 465.063 431.23 465.271 430.658C465.479 430.069 465.583 429.419 465.583 428.708V428.396C465.583 427.703 465.479 427.07 465.271 426.498C465.063 425.909 464.768 425.406 464.387 424.99C464.023 424.574 463.581 424.253 463.061 424.028C462.558 423.785 462.012 423.664 461.423 423.664C460.816 423.664 460.262 423.777 459.759 424.002C459.256 424.227 458.814 424.548 458.433 424.964C458.069 425.363 457.783 425.857 457.575 426.446C457.367 427.018 457.263 427.651 457.263 428.344V428.76C457.263 430.233 457.644 431.386 458.407 432.218C459.187 433.033 460.192 433.44 461.423 433.44ZM472.143 433.128H476.823V418.672H472.299V416.8H478.851V433.128H483.531V435H472.143V433.128ZM492.067 418.256C492.067 417.753 492.24 417.329 492.587 416.982C492.951 416.618 493.384 416.436 493.887 416.436C494.389 416.436 494.814 416.618 495.161 416.982C495.525 417.329 495.707 417.753 495.707 418.256C495.707 418.759 495.525 419.192 495.161 419.556C494.814 419.903 494.389 420.076 493.887 420.076C493.384 420.076 492.951 419.903 492.587 419.556C492.24 419.192 492.067 418.759 492.067 418.256ZM488.375 433.128H492.899V423.976H488.843V422.104H494.927V433.128H499.139V435H488.375V433.128ZM507.311 427.46H507.753L512.667 422.104H515.163V422.26L509.807 428.162V428.63L515.787 434.844V435H513.291L507.805 429.332H507.311V435H505.283V416.8H507.311V427.46ZM535.043 432.972H536.603V418.828H535.043V416.8H542.401C543.267 416.8 544.03 416.921 544.689 417.164C545.365 417.407 545.928 417.736 546.379 418.152C546.847 418.568 547.193 419.071 547.419 419.66C547.661 420.232 547.783 420.856 547.783 421.532V421.844C547.783 422.347 547.705 422.806 547.549 423.222C547.393 423.638 547.176 424.011 546.899 424.34C546.621 424.669 546.292 424.955 545.911 425.198C545.547 425.423 545.148 425.597 544.715 425.718V426.03C545.581 426.273 546.309 426.741 546.899 427.434C547.488 428.11 547.783 428.942 547.783 429.93V430.242C547.783 430.918 547.661 431.551 547.419 432.14C547.193 432.712 546.847 433.215 546.379 433.648C545.928 434.064 545.365 434.393 544.689 434.636C544.03 434.879 543.267 435 542.401 435H535.043V432.972ZM538.787 432.972H542.245C543.267 432.972 544.099 432.721 544.741 432.218C545.382 431.698 545.703 430.987 545.703 430.086V429.93C545.703 428.994 545.399 428.257 544.793 427.72C544.186 427.165 543.363 426.888 542.323 426.888H538.787V432.972ZM538.787 424.86H542.323C543.363 424.86 544.186 424.591 544.793 424.054C545.399 423.517 545.703 422.78 545.703 421.844V421.688C545.703 420.804 545.382 420.111 544.741 419.608C544.099 419.088 543.267 418.828 542.245 418.828H538.787V424.86ZM560.946 422.104H562.974V435H560.946V432.66H560.634C560.218 433.492 559.672 434.151 558.996 434.636C558.32 435.121 557.462 435.364 556.422 435.364C555.712 435.364 555.053 435.243 554.446 435C553.857 434.775 553.346 434.428 552.912 433.96C552.496 433.492 552.167 432.911 551.924 432.218C551.699 431.525 551.586 430.719 551.586 429.8V422.104H553.614V429.54C553.614 430.892 553.892 431.88 554.446 432.504C555.001 433.128 555.85 433.44 556.994 433.44C558.225 433.44 559.187 433.024 559.88 432.192C560.591 431.343 560.946 430.216 560.946 428.812V422.104ZM567.22 422.104H571.276V416.8H573.304V422.104H578.296V423.976H573.304V432.348C573.304 432.868 573.538 433.128 574.006 433.128H577.672V435H573.278C572.689 435 572.204 434.809 571.822 434.428C571.458 434.047 571.276 433.561 571.276 432.972V423.976H567.22V422.104ZM585.064 429.176C585.116 430.459 585.515 431.49 586.26 432.27C587.006 433.05 588.046 433.44 589.38 433.44C589.987 433.44 590.516 433.371 590.966 433.232C591.417 433.093 591.798 432.903 592.11 432.66C592.44 432.417 592.7 432.14 592.89 431.828C593.098 431.499 593.263 431.152 593.384 430.788L595.308 431.308C594.944 432.504 594.268 433.483 593.28 434.246C592.31 434.991 590.992 435.364 589.328 435.364C588.41 435.364 587.56 435.208 586.78 434.896C586.018 434.567 585.359 434.107 584.804 433.518C584.25 432.929 583.816 432.227 583.504 431.412C583.192 430.597 583.036 429.696 583.036 428.708V428.084C583.036 427.183 583.192 426.342 583.504 425.562C583.834 424.782 584.284 424.115 584.856 423.56C585.428 422.988 586.096 422.546 586.858 422.234C587.638 421.905 588.479 421.74 589.38 421.74C590.438 421.74 591.348 421.939 592.11 422.338C592.89 422.719 593.523 423.196 594.008 423.768C594.511 424.34 594.875 424.964 595.1 425.64C595.343 426.316 595.464 426.94 595.464 427.512V429.176H585.064ZM589.38 423.664C588.808 423.664 588.271 423.759 587.768 423.95C587.283 424.123 586.85 424.375 586.468 424.704C586.104 425.033 585.801 425.423 585.558 425.874C585.333 426.307 585.186 426.784 585.116 427.304H593.436C593.402 426.749 593.263 426.247 593.02 425.796C592.795 425.345 592.492 424.964 592.11 424.652C591.746 424.34 591.322 424.097 590.836 423.924C590.368 423.751 589.883 423.664 589.38 423.664ZM598.774 422.104H603.454V423.82H603.766C604.096 423.109 604.564 422.589 605.17 422.26C605.777 421.913 606.47 421.74 607.25 421.74C608.55 421.74 609.599 422.165 610.396 423.014C611.194 423.863 611.618 425.103 611.67 426.732L609.538 427.044C609.538 425.848 609.252 424.99 608.68 424.47C608.108 423.933 607.406 423.664 606.574 423.664C606.037 423.664 605.569 423.768 605.17 423.976C604.789 424.184 604.468 424.47 604.208 424.834C603.948 425.198 603.758 425.623 603.636 426.108C603.515 426.593 603.454 427.113 603.454 427.668V433.128H606.73V435H598.462V433.128H601.426V423.976H598.774V422.104ZM619.426 418.256C619.426 417.753 619.599 417.329 619.946 416.982C620.31 416.618 620.743 416.436 621.246 416.436C621.749 416.436 622.173 416.618 622.52 416.982C622.884 417.329 623.066 417.753 623.066 418.256C623.066 418.759 622.884 419.192 622.52 419.556C622.173 419.903 621.749 420.076 621.246 420.076C620.743 420.076 620.31 419.903 619.946 419.556C619.599 419.192 619.426 418.759 619.426 418.256ZM615.734 433.128H620.258V423.976H616.202V422.104H622.286V433.128H626.498V435H615.734V433.128ZM633.37 435H631.342V422.104H633.37V424.288H633.682C634.479 422.589 635.866 421.74 637.842 421.74C639.333 421.74 640.52 422.208 641.404 423.144C642.288 424.063 642.73 425.449 642.73 427.304V435H640.702V427.72C640.702 426.368 640.399 425.354 639.792 424.678C639.185 424.002 638.362 423.664 637.322 423.664C636.091 423.664 635.121 424.089 634.41 424.938C633.717 425.77 633.37 426.888 633.37 428.292V435Z" fill="#207191"/>
<path d="M406.679 60.843C406.679 63.685 405.699 66.0533 403.739 67.948C401.812 69.81 398.856 70.741 394.87 70.741H388.304V85H383.845V50.847H394.87C398.725 50.847 401.649 51.778 403.641 53.64C405.667 55.502 406.679 57.903 406.679 60.843ZM394.87 67.066C397.353 67.066 399.182 66.527 400.358 65.449C401.534 64.371 402.122 62.8357 402.122 60.843C402.122 56.629 399.705 54.522 394.87 54.522H388.304V67.066H394.87ZM416.68 62.509C417.464 60.9737 418.575 59.7813 420.012 58.932C421.482 58.0827 423.263 57.658 425.353 57.658V62.264H424.177C419.179 62.264 416.68 64.9753 416.68 70.398V85H412.221V58.148H416.68V62.509ZM455.001 70.545C455.001 71.3943 454.952 72.2927 454.854 73.24H433.392C433.555 75.886 434.453 77.9603 436.087 79.463C437.753 80.933 439.762 81.668 442.114 81.668C444.041 81.668 445.642 81.227 446.916 80.345C448.222 79.4303 449.137 78.2217 449.66 76.719H454.462C453.743 79.2997 452.306 81.4067 450.15 83.04C447.994 84.6407 445.315 85.441 442.114 85.441C439.566 85.441 437.279 84.8693 435.254 83.726C433.261 82.5827 431.693 80.9657 430.55 78.875C429.406 76.7517 428.835 74.3017 428.835 71.525C428.835 68.7483 429.39 66.3147 430.501 64.224C431.611 62.1333 433.163 60.5327 435.156 59.422C437.181 58.2787 439.5 57.707 442.114 57.707C444.662 57.707 446.916 58.2623 448.876 59.373C450.836 60.4837 452.338 62.019 453.384 63.979C454.462 65.9063 455.001 68.095 455.001 70.545ZM450.395 69.614C450.395 67.9153 450.019 66.4617 449.268 65.253C448.516 64.0117 447.487 63.0807 446.181 62.46C444.907 61.8067 443.486 61.48 441.918 61.48C439.664 61.48 437.736 62.1987 436.136 63.636C434.568 65.0733 433.669 67.066 433.441 69.614H450.395ZM479.506 65.155V68.928H459.955V65.155H479.506ZM503.359 85.343C500.19 85.343 497.299 84.608 494.686 83.138C492.072 81.6353 489.998 79.561 488.463 76.915C486.96 74.2363 486.209 71.231 486.209 67.899C486.209 64.567 486.96 61.578 488.463 58.932C489.998 56.2533 492.072 54.179 494.686 52.709C497.299 51.2063 500.19 50.455 503.359 50.455C506.56 50.455 509.467 51.2063 512.081 52.709C514.694 54.179 516.752 56.237 518.255 58.883C519.757 61.529 520.509 64.5343 520.509 67.899C520.509 71.2637 519.757 74.269 518.255 76.915C516.752 79.561 514.694 81.6353 512.081 83.138C509.467 84.608 506.56 85.343 503.359 85.343ZM503.359 81.472C505.743 81.472 507.883 80.9167 509.778 79.806C511.705 78.6953 513.208 77.111 514.286 75.053C515.396 72.995 515.952 70.6103 515.952 67.899C515.952 65.155 515.396 62.7703 514.286 60.745C513.208 58.687 511.721 57.1027 509.827 55.992C507.932 54.8813 505.776 54.326 503.359 54.326C500.941 54.326 498.785 54.8813 496.891 55.992C494.996 57.1027 493.493 58.687 492.383 60.745C491.305 62.7703 490.766 65.155 490.766 67.899C490.766 70.6103 491.305 72.995 492.383 75.053C493.493 77.111 494.996 78.6953 496.891 79.806C498.818 80.9167 500.974 81.472 503.359 81.472ZM530.854 62.509C531.638 60.9737 532.749 59.7813 534.186 58.932C535.656 58.0827 537.436 57.658 539.527 57.658V62.264H538.351C533.353 62.264 530.854 64.9753 530.854 70.398V85H526.395V58.148H530.854V62.509ZM543.008 71.476C543.008 68.732 543.564 66.331 544.674 64.273C545.785 62.1823 547.304 60.5653 549.231 59.422C551.191 58.2787 553.38 57.707 555.797 57.707C557.888 57.707 559.832 58.197 561.628 59.177C563.425 60.1243 564.797 61.382 565.744 62.95V48.74H570.252V85H565.744V79.953C564.862 81.5537 563.556 82.8767 561.824 83.922C560.093 84.9347 558.068 85.441 555.748 85.441C553.364 85.441 551.191 84.853 549.231 83.677C547.304 82.501 545.785 80.8513 544.674 78.728C543.564 76.6047 543.008 74.1873 543.008 71.476ZM565.744 71.525C565.744 69.4997 565.336 67.7357 564.519 66.233C563.703 64.7303 562.592 63.587 561.187 62.803C559.815 61.9863 558.296 61.578 556.63 61.578C554.964 61.578 553.445 61.97 552.073 62.754C550.701 63.538 549.607 64.6813 548.79 66.184C547.974 67.6867 547.565 69.4507 547.565 71.476C547.565 73.534 547.974 75.3307 548.79 76.866C549.607 78.3687 550.701 79.5283 552.073 80.345C553.445 81.129 554.964 81.521 556.63 81.521C558.296 81.521 559.815 81.129 561.187 80.345C562.592 79.5283 563.703 78.3687 564.519 76.866C565.336 75.3307 565.744 73.5503 565.744 71.525ZM602.288 70.545C602.288 71.3943 602.239 72.2927 602.141 73.24H580.679C580.842 75.886 581.74 77.9603 583.374 79.463C585.04 80.933 587.049 81.668 589.401 81.668C591.328 81.668 592.929 81.227 594.203 80.345C595.509 79.4303 596.424 78.2217 596.947 76.719H601.749C601.03 79.2997 599.593 81.4067 597.437 83.04C595.281 84.6407 592.602 85.441 589.401 85.441C586.853 85.441 584.566 84.8693 582.541 83.726C580.548 82.5827 578.98 80.9657 577.837 78.875C576.693 76.7517 576.122 74.3017 576.122 71.525C576.122 68.7483 576.677 66.3147 577.788 64.224C578.898 62.1333 580.45 60.5327 582.443 59.422C584.468 58.2787 586.787 57.707 589.401 57.707C591.949 57.707 594.203 58.2623 596.163 59.373C598.123 60.4837 599.625 62.019 600.671 63.979C601.749 65.9063 602.288 68.095 602.288 70.545ZM597.682 69.614C597.682 67.9153 597.306 66.4617 596.555 65.253C595.803 64.0117 594.774 63.0807 593.468 62.46C592.194 61.8067 590.773 61.48 589.205 61.48C586.951 61.48 585.023 62.1987 583.423 63.636C581.855 65.0733 580.956 67.066 580.728 69.614H597.682ZM612.632 62.509C613.416 60.9737 614.527 59.7813 615.964 58.932C617.434 58.0827 619.215 57.658 621.305 57.658V62.264H620.129C615.131 62.264 612.632 64.9753 612.632 70.398V85H608.173V58.148H612.632V62.509Z" fill="#FFE171"/>
<path d="M668.015 56.712V64.736H639.183V56.712H668.015ZM197.517 164.556C197.517 169.857 196.239 174.827 193.683 179.466C191.221 184.105 187.293 187.844 181.897 190.684C176.595 193.524 169.874 194.944 161.733 194.944H145.119V233H125.239V133.884H161.733C169.401 133.884 175.933 135.209 181.329 137.86C186.725 140.511 190.748 144.155 193.399 148.794C196.144 153.433 197.517 158.687 197.517 164.556ZM160.881 178.898C166.371 178.898 170.442 177.667 173.093 175.206C175.743 172.65 177.069 169.1 177.069 164.556C177.069 154.9 171.673 150.072 160.881 150.072H145.119V178.898H160.881ZM232.931 166.544C235.487 162.379 238.801 159.113 242.871 156.746C247.037 154.379 251.77 153.196 257.071 153.196V174.07H251.817C245.569 174.07 240.836 175.537 237.617 178.472C234.493 181.407 232.931 186.519 232.931 193.808V233H213.051V154.332H232.931V166.544ZM306.814 234.278C299.24 234.278 292.424 232.621 286.366 229.308C280.307 225.9 275.526 221.119 272.024 214.966C268.616 208.813 266.912 201.713 266.912 193.666C266.912 185.619 268.663 178.519 272.166 172.366C275.763 166.213 280.638 161.479 286.792 158.166C292.945 154.758 299.808 153.054 307.382 153.054C314.955 153.054 321.818 154.758 327.972 158.166C334.125 161.479 338.953 166.213 342.456 172.366C346.053 178.519 347.852 185.619 347.852 193.666C347.852 201.713 346.006 208.813 342.314 214.966C338.716 221.119 333.794 225.9 327.546 229.308C321.392 232.621 314.482 234.278 306.814 234.278ZM306.814 216.954C310.411 216.954 313.772 216.102 316.896 214.398C320.114 212.599 322.67 209.949 324.564 206.446C326.457 202.943 327.404 198.683 327.404 193.666C327.404 186.187 325.416 180.46 321.44 176.484C317.558 172.413 312.778 170.378 307.098 170.378C301.418 170.378 296.637 172.413 292.756 176.484C288.969 180.46 287.076 186.187 287.076 193.666C287.076 201.145 288.922 206.919 292.614 210.99C296.4 214.966 301.134 216.954 306.814 216.954ZM398.786 234.278C391.213 234.278 384.397 232.621 378.338 229.308C372.28 225.9 367.499 221.119 363.996 214.966C360.588 208.813 358.884 201.713 358.884 193.666C358.884 185.619 360.636 178.519 364.138 172.366C367.736 166.213 372.611 161.479 378.764 158.166C384.918 154.758 391.781 153.054 399.354 153.054C406.928 153.054 413.791 154.758 419.944 158.166C426.098 161.479 430.926 166.213 434.428 172.366C438.026 178.519 439.824 185.619 439.824 193.666C439.824 201.713 437.978 208.813 434.286 214.966C430.689 221.119 425.766 225.9 419.518 229.308C413.365 232.621 406.454 234.278 398.786 234.278ZM398.786 216.954C402.384 216.954 405.744 216.102 408.868 214.398C412.087 212.599 414.643 209.949 416.536 206.446C418.43 202.943 419.376 198.683 419.376 193.666C419.376 186.187 417.388 180.46 413.412 176.484C409.531 172.413 404.75 170.378 399.07 170.378C393.39 170.378 388.61 172.413 384.728 176.484C380.942 180.46 379.048 186.187 379.048 193.666C379.048 201.145 380.894 206.919 384.586 210.99C388.373 214.966 393.106 216.954 398.786 216.954ZM491.895 170.662H478.121V233H457.957V170.662H449.011V154.332H457.957V150.356C457.957 140.7 460.702 133.6 466.193 129.056C471.684 124.512 479.967 122.382 491.043 122.666V139.422C486.215 139.327 482.854 140.132 480.961 141.836C479.068 143.54 478.121 146.617 478.121 151.066V154.332H491.895V170.662ZM576.386 234.278C568.813 234.278 561.997 232.621 555.938 229.308C549.879 225.9 545.099 221.119 541.596 214.966C538.188 208.813 536.484 201.713 536.484 193.666C536.484 185.619 538.235 178.519 541.738 172.366C545.335 166.213 550.211 161.479 556.364 158.166C562.517 154.758 569.381 153.054 576.954 153.054C584.527 153.054 591.391 154.758 597.544 158.166C603.697 161.479 608.525 166.213 612.028 172.366C615.625 178.519 617.424 185.619 617.424 193.666C617.424 201.713 615.578 208.813 611.886 214.966C608.289 221.119 603.366 225.9 597.118 229.308C590.965 232.621 584.054 234.278 576.386 234.278ZM576.386 216.954C579.983 216.954 583.344 216.102 586.468 214.398C589.687 212.599 592.243 209.949 594.136 206.446C596.029 202.943 596.976 198.683 596.976 193.666C596.976 186.187 594.988 180.46 591.012 176.484C587.131 172.413 582.35 170.378 576.67 170.378C570.99 170.378 566.209 172.413 562.328 176.484C558.541 180.46 556.648 186.187 556.648 193.666C556.648 201.145 558.494 206.919 562.186 210.99C565.973 214.966 570.706 216.954 576.386 216.954ZM669.495 170.662H655.721V233H635.557V170.662H626.611V154.332H635.557V150.356C635.557 140.7 638.302 133.6 643.793 129.056C649.284 124.512 657.567 122.382 668.643 122.666V139.422C663.815 139.327 660.454 140.132 658.561 141.836C656.668 143.54 655.721 146.617 655.721 151.066V154.332H669.495V170.662ZM303.951 380.994C297.041 380.994 290.793 379.811 285.207 377.444C279.717 375.077 275.362 371.669 272.143 367.22C268.925 362.771 267.268 357.517 267.173 351.458H288.473C288.757 355.529 290.177 358.747 292.733 361.114C295.384 363.481 298.981 364.664 303.525 364.664C308.164 364.664 311.809 363.575 314.459 361.398C317.11 359.126 318.435 356.191 318.435 352.594C318.435 349.659 317.536 347.245 315.737 345.352C313.939 343.459 311.667 341.991 308.921 340.95C306.271 339.814 302.579 338.583 297.845 337.258C291.408 335.365 286.154 333.519 282.083 331.72C278.107 329.827 274.652 327.034 271.717 323.342C268.877 319.555 267.457 314.538 267.457 308.29C267.457 302.421 268.925 297.309 271.859 292.954C274.794 288.599 278.912 285.286 284.213 283.014C289.515 280.647 295.573 279.464 302.389 279.464C312.613 279.464 320.897 281.973 327.239 286.99C333.677 291.913 337.227 298.823 337.889 307.722H316.021C315.832 304.314 314.365 301.521 311.619 299.344C308.969 297.072 305.419 295.936 300.969 295.936C297.088 295.936 293.964 296.93 291.597 298.918C289.325 300.906 288.189 303.793 288.189 307.58C288.189 310.231 289.041 312.455 290.745 314.254C292.544 315.958 294.721 317.378 297.277 318.514C299.928 319.555 303.62 320.786 308.353 322.206C314.791 324.099 320.045 325.993 324.115 327.886C328.186 329.779 331.689 332.619 334.623 336.406C337.558 340.193 339.025 345.163 339.025 351.316C339.025 356.617 337.653 361.54 334.907 366.084C332.162 370.628 328.139 374.273 322.837 377.018C317.536 379.669 311.241 380.994 303.951 380.994ZM380.827 317.662V355.718C380.827 358.369 381.442 360.309 382.673 361.54C383.998 362.676 386.175 363.244 389.205 363.244H398.435V380H385.939C369.183 380 360.805 371.859 360.805 355.576V317.662H351.433V301.332H360.805V281.878H380.827V301.332H398.435V317.662H380.827ZM409.041 340.382C409.041 332.43 410.603 325.377 413.727 319.224C416.946 313.071 421.253 308.337 426.649 305.024C432.14 301.711 438.246 300.054 444.967 300.054C450.837 300.054 455.949 301.237 460.303 303.604C464.753 305.971 468.303 308.953 470.953 312.55V301.332H490.975V380H470.953V368.498C468.397 372.19 464.847 375.267 460.303 377.728C455.854 380.095 450.695 381.278 444.825 381.278C438.199 381.278 432.14 379.574 426.649 376.166C421.253 372.758 416.946 367.977 413.727 361.824C410.603 355.576 409.041 348.429 409.041 340.382ZM470.953 340.666C470.953 335.838 470.007 331.72 468.113 328.312C466.22 324.809 463.664 322.159 460.445 320.36C457.227 318.467 453.771 317.52 450.079 317.52C446.387 317.52 442.979 318.419 439.855 320.218C436.731 322.017 434.175 324.667 432.187 328.17C430.294 331.578 429.347 335.649 429.347 340.382C429.347 345.115 430.294 349.281 432.187 352.878C434.175 356.381 436.731 359.079 439.855 360.972C443.074 362.865 446.482 363.812 450.079 363.812C453.771 363.812 457.227 362.913 460.445 361.114C463.664 359.221 466.22 356.57 468.113 353.162C470.007 349.659 470.953 345.494 470.953 340.666ZM558.388 380L531.692 346.488V380H511.812V274.92H531.692V334.702L558.104 301.332H583.948L549.3 340.808L584.232 380H558.388ZM669.287 338.962C669.287 341.802 669.098 344.358 668.719 346.63H611.209C611.683 352.31 613.671 356.759 617.173 359.978C620.676 363.197 624.983 364.806 630.095 364.806C637.479 364.806 642.733 361.635 645.857 355.292H667.299C665.027 362.865 660.673 369.113 654.235 374.036C647.798 378.864 639.893 381.278 630.521 381.278C622.948 381.278 616.132 379.621 610.073 376.308C604.109 372.9 599.423 368.119 596.015 361.966C592.702 355.813 591.045 348.713 591.045 340.666C591.045 332.525 592.702 325.377 596.015 319.224C599.329 313.071 603.967 308.337 609.931 305.024C615.895 301.711 622.759 300.054 630.521 300.054C638 300.054 644.674 301.663 650.543 304.882C656.507 308.101 661.099 312.692 664.317 318.656C667.631 324.525 669.287 331.294 669.287 338.962ZM648.697 333.282C648.603 328.17 646.757 324.099 643.159 321.07C639.562 317.946 635.16 316.384 629.953 316.384C625.031 316.384 620.865 317.899 617.457 320.928C614.144 323.863 612.109 327.981 611.351 333.282H648.697Z" fill="white"/>
</g>
<defs>
<filter id="filter0_d_430_14038" x="-4" y="0" width="682" height="466" filterUnits="userSpaceOnUse" color-interpolation-filters="sRGB">
<feFlood flood-opacity="0" result="BackgroundImageFix"/>
<feColorMatrix in="SourceAlpha" type="matrix" values="0 0 0 0 0 0 0 0 0 0 0 0 0 0 0 0 0 0 127 0" result="hardAlpha"/>
<feOffset dy="4"/>
<feGaussianBlur stdDeviation="2"/>
<feComposite in2="hardAlpha" operator="out"/>
<feColorMatrix type="matrix" values="0 0 0 0 0 0 0 0 0 0 0 0 0 0 0 0 0 0 0.25 0"/>
<feBlend mode="normal" in2="BackgroundImageFix" result="effect1_dropShadow_430_14038"/>
<feBlend mode="normal" in="SourceGraphic" in2="effect1_dropShadow_430_14038" result="shape"/>
</filter>
</defs>
</svg>
