<svg width="222" height="261" viewBox="0 0 222 261" fill="none" xmlns="http://www.w3.org/2000/svg">
<rect x="0.5" y="0.5" width="221" height="260" rx="2.88371" fill="#E6FFF9" stroke="#00C7F5"/>
<path d="M33.576 175.126C33.576 173.458 33.9746 172.164 34.7718 171.245C35.5689 170.325 36.6789 169.865 38.1015 169.865C39.5242 169.865 40.6341 170.325 41.4313 171.245C42.2285 172.164 42.6271 173.458 42.6271 175.126V177.996C42.6271 179.713 42.2285 181.019 41.4313 181.915C40.6341 182.81 39.5242 183.258 38.1015 183.258C36.6789 183.258 35.5689 182.81 34.7718 181.915C33.9746 181.019 33.576 179.713 33.576 177.996V175.126ZM38.1015 181.823C39.0949 181.823 39.8369 181.485 40.3275 180.811C40.8303 180.124 41.0818 179.149 41.0818 177.886V175.237C41.0818 174.059 40.8303 173.109 40.3275 172.385C39.8369 171.662 39.0949 171.3 38.1015 171.3C37.1081 171.3 36.36 171.662 35.8572 172.385C35.3666 173.109 35.1213 174.059 35.1213 175.237V177.886C35.1213 179.149 35.3666 180.124 35.8572 180.811C36.36 181.485 37.1081 181.823 38.1015 181.823ZM44.8219 173.875H48.1332V175.09H48.354C48.587 174.587 48.9182 174.219 49.3474 173.986C49.7767 173.74 50.2672 173.618 50.8191 173.618C51.739 173.618 52.4809 173.918 53.0451 174.519C53.6093 175.12 53.9097 175.997 53.9465 177.15L52.438 177.371C52.438 176.524 52.2357 175.917 51.8309 175.549C51.4262 175.169 50.9295 174.979 50.3408 174.979C49.9606 174.979 49.6295 175.053 49.3474 175.2C49.0776 175.347 48.8507 175.549 48.6667 175.807C48.4828 176.065 48.3479 176.365 48.262 176.708C48.1762 177.052 48.1332 177.42 48.1332 177.812V181.675H50.4512V183H44.6011V181.675H46.6983V175.2H44.8219V173.875ZM63.6655 181.602H63.4447C63.2976 181.884 63.1075 182.129 62.8744 182.338C62.6537 182.546 62.4084 182.718 62.1386 182.853C61.881 182.988 61.6051 183.086 61.3107 183.147C61.0164 183.221 60.7343 183.258 60.4645 183.258C59.8513 183.258 59.281 183.153 58.7536 182.945C58.2263 182.736 57.7602 182.436 57.3555 182.043C56.963 181.651 56.6503 181.166 56.4173 180.59C56.1965 180.001 56.0861 179.333 56.0861 178.585V178.29C56.0861 177.555 56.2026 176.898 56.4357 176.322C56.6687 175.733 56.9814 175.243 57.3739 174.85C57.7663 174.446 58.2263 174.139 58.7536 173.931C59.281 173.722 59.839 173.618 60.4277 173.618C61.0532 173.618 61.6357 173.759 62.1754 174.041C62.7273 174.311 63.1504 174.734 63.4447 175.31H63.6655V170.122H65.1004V183H63.6655V181.602ZM60.6117 181.896C61.0409 181.896 61.4395 181.816 61.8074 181.657C62.1754 181.498 62.4943 181.271 62.7641 180.976C63.0461 180.682 63.2669 180.333 63.4263 179.928C63.5858 179.511 63.6655 179.051 63.6655 178.548V178.327C63.6655 177.837 63.5858 177.389 63.4263 176.984C63.2669 176.567 63.0461 176.212 62.7641 175.917C62.4943 175.623 62.1692 175.396 61.7891 175.237C61.4211 175.065 61.0287 174.979 60.6117 174.979C60.1824 174.979 59.7777 175.059 59.3975 175.218C59.0296 175.378 58.7046 175.605 58.4225 175.899C58.1527 176.193 57.938 176.543 57.7786 176.948C57.6314 177.352 57.5579 177.8 57.5579 178.29V178.585C57.5579 179.1 57.6314 179.56 57.7786 179.965C57.938 180.369 58.1527 180.719 58.4225 181.013C58.7046 181.295 59.0296 181.516 59.3975 181.675C59.7654 181.823 60.1702 181.896 60.6117 181.896ZM68.9141 178.879C68.9509 179.787 69.233 180.516 69.7603 181.068C70.2877 181.62 71.0236 181.896 71.9679 181.896C72.3972 181.896 72.7712 181.847 73.0901 181.749C73.409 181.651 73.6788 181.516 73.8996 181.344C74.1326 181.173 74.3165 180.976 74.4515 180.756C74.5986 180.523 74.7151 180.277 74.801 180.02L76.1623 180.388C75.9048 181.234 75.4265 181.927 74.7274 182.467C74.0406 182.994 73.1085 183.258 71.9311 183.258C71.2811 183.258 70.6802 183.147 70.1283 182.926C69.5886 182.693 69.1226 182.368 68.7301 181.951C68.3377 181.534 68.0311 181.038 67.8103 180.461C67.5896 179.885 67.4792 179.247 67.4792 178.548V178.107C67.4792 177.469 67.5896 176.874 67.8103 176.322C68.0433 175.77 68.3622 175.298 68.7669 174.906C69.1717 174.501 69.6438 174.188 70.1835 173.967C70.7354 173.734 71.3302 173.618 71.9679 173.618C72.7161 173.618 73.3599 173.759 73.8996 174.041C74.4515 174.311 74.8991 174.648 75.2425 175.053C75.5982 175.457 75.8557 175.899 76.0152 176.377C76.1869 176.856 76.2727 177.297 76.2727 177.702V178.879H68.9141ZM71.9679 174.979C71.5632 174.979 71.183 175.047 70.8273 175.181C70.4839 175.304 70.1773 175.482 69.9075 175.715C69.65 175.948 69.4353 176.224 69.2636 176.543C69.1042 176.849 69 177.187 68.9509 177.555H74.8378C74.8133 177.162 74.7151 176.807 74.5434 176.488C74.384 176.169 74.1694 175.899 73.8996 175.678C73.642 175.457 73.3415 175.286 72.9981 175.163C72.667 175.04 72.3236 174.979 71.9679 174.979ZM78.6147 173.875H81.926V175.09H82.1468C82.3798 174.587 82.711 174.219 83.1402 173.986C83.5695 173.74 84.06 173.618 84.6119 173.618C85.5318 173.618 86.2738 173.918 86.8379 174.519C87.4021 175.12 87.7025 175.997 87.7393 177.15L86.2308 177.371C86.2308 176.524 86.0285 175.917 85.6237 175.549C85.219 175.169 84.7223 174.979 84.1336 174.979C83.7534 174.979 83.4223 175.053 83.1402 175.2C82.8704 175.347 82.6435 175.549 82.4595 175.807C82.2756 176.065 82.1407 176.365 82.0548 176.708C81.969 177.052 81.926 177.42 81.926 177.812V181.675H84.244V183H78.3939V181.675H80.4911V175.2H78.6147V173.875ZM108.281 181.455H108.06C107.766 182.068 107.355 182.522 106.828 182.816C106.313 183.11 105.767 183.258 105.19 183.258C104.589 183.258 104.031 183.159 103.516 182.963C103.001 182.755 102.547 182.454 102.155 182.062C101.775 181.657 101.474 181.166 101.254 180.59C101.033 180.014 100.922 179.345 100.922 178.585V178.29C100.922 177.542 101.033 176.88 101.254 176.304C101.474 175.727 101.775 175.243 102.155 174.85C102.547 174.446 103.001 174.139 103.516 173.931C104.031 173.722 104.577 173.618 105.154 173.618C105.779 173.618 106.343 173.759 106.846 174.041C107.361 174.311 107.766 174.734 108.06 175.31H108.281V173.875H109.716V181.124C109.716 181.491 109.882 181.675 110.213 181.675H110.673V183H109.698C109.281 183 108.937 182.865 108.667 182.595C108.41 182.325 108.281 181.982 108.281 181.565V181.455ZM105.338 181.896C105.767 181.896 106.159 181.816 106.515 181.657C106.883 181.498 107.196 181.271 107.453 180.976C107.711 180.682 107.913 180.333 108.06 179.928C108.207 179.511 108.281 179.051 108.281 178.548V178.327C108.281 177.837 108.207 177.389 108.06 176.984C107.913 176.567 107.705 176.212 107.435 175.917C107.177 175.623 106.865 175.396 106.497 175.237C106.141 175.065 105.755 174.979 105.338 174.979C104.908 174.979 104.516 175.059 104.16 175.218C103.805 175.378 103.492 175.605 103.222 175.899C102.964 176.181 102.762 176.531 102.615 176.948C102.468 177.352 102.394 177.8 102.394 178.29V178.585C102.394 179.627 102.664 180.443 103.204 181.032C103.756 181.608 104.467 181.896 105.338 181.896ZM126.082 176.23C126.082 176.672 126.266 177.009 126.634 177.242C127.014 177.475 127.701 177.628 128.694 177.702C129.761 177.788 130.57 178.045 131.122 178.474C131.686 178.891 131.969 179.505 131.969 180.314V180.424C131.969 180.866 131.877 181.265 131.693 181.62C131.521 181.964 131.276 182.258 130.957 182.503C130.65 182.749 130.27 182.933 129.816 183.055C129.375 183.19 128.89 183.258 128.363 183.258C127.652 183.258 127.038 183.166 126.523 182.982C126.02 182.785 125.597 182.534 125.254 182.227C124.923 181.908 124.671 181.553 124.5 181.16C124.328 180.756 124.23 180.351 124.205 179.946L125.567 179.615C125.628 180.314 125.898 180.878 126.376 181.308C126.854 181.725 127.492 181.933 128.289 181.933C128.964 181.933 129.503 181.804 129.908 181.547C130.325 181.277 130.534 180.903 130.534 180.424C130.534 179.909 130.331 179.541 129.927 179.321C129.522 179.1 128.866 178.959 127.958 178.898C126.903 178.824 126.094 178.579 125.53 178.162C124.966 177.745 124.684 177.138 124.684 176.34V176.23C124.684 175.801 124.776 175.427 124.96 175.108C125.143 174.777 125.389 174.501 125.695 174.28C126.014 174.059 126.37 173.894 126.762 173.783C127.155 173.673 127.566 173.618 127.995 173.618C128.596 173.618 129.123 173.704 129.577 173.875C130.031 174.035 130.411 174.249 130.718 174.519C131.024 174.777 131.257 175.077 131.417 175.421C131.588 175.764 131.699 176.107 131.748 176.451L130.386 176.782C130.325 176.193 130.086 175.733 129.669 175.402C129.264 175.071 128.731 174.906 128.069 174.906C127.811 174.906 127.56 174.936 127.314 174.998C127.081 175.047 126.873 175.126 126.689 175.237C126.505 175.347 126.358 175.488 126.247 175.66C126.137 175.819 126.082 176.009 126.082 176.23ZM138.284 171.153C138.284 170.797 138.407 170.497 138.652 170.251C138.91 169.994 139.216 169.865 139.572 169.865C139.928 169.865 140.228 169.994 140.473 170.251C140.731 170.497 140.86 170.797 140.86 171.153C140.86 171.508 140.731 171.815 140.473 172.072C140.228 172.318 139.928 172.44 139.572 172.44C139.216 172.44 138.91 172.318 138.652 172.072C138.407 171.815 138.284 171.508 138.284 171.153ZM135.672 181.675H138.873V175.2H136.003V173.875H140.308V181.675H143.288V183H135.672V181.675ZM153.651 181.602H153.43C153.136 182.154 152.731 182.571 152.216 182.853C151.713 183.123 151.161 183.258 150.56 183.258C149.947 183.258 149.371 183.153 148.831 182.945C148.291 182.736 147.813 182.436 147.396 182.043C146.991 181.651 146.666 181.166 146.421 180.59C146.188 180.001 146.072 179.333 146.072 178.585V178.29C146.072 177.555 146.194 176.898 146.439 176.322C146.685 175.733 147.01 175.243 147.414 174.85C147.819 174.446 148.291 174.139 148.831 173.931C149.371 173.722 149.935 173.618 150.523 173.618C151.186 173.618 151.762 173.765 152.253 174.059C152.756 174.341 153.148 174.758 153.43 175.31H153.651V173.875H155.086V185.244C155.086 185.661 154.951 186.005 154.681 186.275C154.424 186.544 154.086 186.679 153.669 186.679H147.727V185.355H153.154C153.485 185.355 153.651 185.171 153.651 184.803V181.602ZM150.597 181.896C151.026 181.896 151.425 181.816 151.793 181.657C152.161 181.498 152.48 181.271 152.749 180.976C153.032 180.682 153.252 180.333 153.412 179.928C153.571 179.511 153.651 179.051 153.651 178.548V178.327C153.651 177.837 153.571 177.389 153.412 176.984C153.252 176.567 153.032 176.212 152.749 175.917C152.48 175.623 152.155 175.396 151.774 175.237C151.407 175.065 151.014 174.979 150.597 174.979C150.168 174.979 149.763 175.059 149.383 175.218C149.015 175.378 148.69 175.605 148.408 175.899C148.138 176.193 147.923 176.543 147.764 176.948C147.617 177.352 147.543 177.8 147.543 178.29V178.585C147.543 179.1 147.617 179.56 147.764 179.965C147.923 180.369 148.138 180.719 148.408 181.013C148.69 181.295 149.015 181.516 149.383 181.675C149.751 181.823 150.156 181.896 150.597 181.896ZM159.415 183H157.98V173.875H159.415V175.421H159.635C160.2 174.219 161.181 173.618 162.579 173.618C163.634 173.618 164.474 173.949 165.099 174.611C165.725 175.261 166.037 176.242 166.037 177.555V183H164.602V177.849C164.602 176.892 164.388 176.175 163.959 175.697C163.529 175.218 162.947 174.979 162.211 174.979C161.34 174.979 160.653 175.28 160.15 175.881C159.66 176.469 159.415 177.26 159.415 178.254V183ZM170.293 178.879C170.329 179.787 170.611 180.516 171.139 181.068C171.666 181.62 172.402 181.896 173.346 181.896C173.776 181.896 174.15 181.847 174.469 181.749C174.787 181.651 175.057 181.516 175.278 181.344C175.511 181.173 175.695 180.976 175.83 180.756C175.977 180.523 176.094 180.277 176.179 180.02L177.541 180.388C177.283 181.234 176.805 181.927 176.106 182.467C175.419 182.994 174.487 183.258 173.31 183.258C172.66 183.258 172.059 183.147 171.507 182.926C170.967 182.693 170.501 182.368 170.109 181.951C169.716 181.534 169.409 181.038 169.189 180.461C168.968 179.885 168.858 179.247 168.858 178.548V178.107C168.858 177.469 168.968 176.874 169.189 176.322C169.422 175.77 169.741 175.298 170.145 174.906C170.55 174.501 171.022 174.188 171.562 173.967C172.114 173.734 172.709 173.618 173.346 173.618C174.094 173.618 174.738 173.759 175.278 174.041C175.83 174.311 176.278 174.648 176.621 175.053C176.977 175.457 177.234 175.899 177.394 176.377C177.565 176.856 177.651 177.297 177.651 177.702V178.879H170.293ZM173.346 174.979C172.942 174.979 172.561 175.047 172.206 175.181C171.862 175.304 171.556 175.482 171.286 175.715C171.028 175.948 170.814 176.224 170.642 176.543C170.483 176.849 170.378 177.187 170.329 177.555H176.216C176.192 177.162 176.094 176.807 175.922 176.488C175.762 176.169 175.548 175.899 175.278 175.678C175.02 175.457 174.72 175.286 174.377 175.163C174.045 175.04 173.702 174.979 173.346 174.979ZM187.572 181.602H187.352C187.205 181.884 187.014 182.129 186.781 182.338C186.561 182.546 186.315 182.718 186.046 182.853C185.788 182.988 185.512 183.086 185.218 183.147C184.923 183.221 184.641 183.258 184.371 183.258C183.758 183.258 183.188 183.153 182.661 182.945C182.133 182.736 181.667 182.436 181.262 182.043C180.87 181.651 180.557 181.166 180.324 180.59C180.103 180.001 179.993 179.333 179.993 178.585V178.29C179.993 177.555 180.11 176.898 180.343 176.322C180.576 175.733 180.888 175.243 181.281 174.85C181.673 174.446 182.133 174.139 182.661 173.931C183.188 173.722 183.746 173.618 184.335 173.618C184.96 173.618 185.543 173.759 186.082 174.041C186.634 174.311 187.057 174.734 187.352 175.31H187.572V170.122H189.007V183H187.572V181.602ZM184.519 181.896C184.948 181.896 185.346 181.816 185.714 181.657C186.082 181.498 186.401 181.271 186.671 180.976C186.953 180.682 187.174 180.333 187.333 179.928C187.493 179.511 187.572 179.051 187.572 178.548V178.327C187.572 177.837 187.493 177.389 187.333 176.984C187.174 176.567 186.953 176.212 186.671 175.917C186.401 175.623 186.076 175.396 185.696 175.237C185.328 175.065 184.936 174.979 184.519 174.979C184.089 174.979 183.685 175.059 183.304 175.218C182.937 175.378 182.612 175.605 182.329 175.899C182.06 176.193 181.845 176.543 181.686 176.948C181.538 177.352 181.465 177.8 181.465 178.29V178.585C181.465 179.1 181.538 179.56 181.686 179.965C181.845 180.369 182.06 180.719 182.329 181.013C182.612 181.295 182.937 181.516 183.304 181.675C183.672 181.823 184.077 181.896 184.519 181.896ZM40.8086 212.679H39.3737V199.875H40.8086V201.31H41.0294C41.3483 200.758 41.7898 200.341 42.3539 200.059C42.9181 199.765 43.5313 199.618 44.1936 199.618C44.7577 199.618 45.2912 199.722 45.7941 199.931C46.2969 200.139 46.7384 200.439 47.1186 200.832C47.5111 201.224 47.8177 201.709 48.0385 202.285C48.2715 202.862 48.388 203.518 48.388 204.254V204.622C48.388 205.37 48.2776 206.032 48.0569 206.608C47.8361 207.185 47.5295 207.669 47.137 208.062C46.7568 208.454 46.3092 208.755 45.7941 208.963C45.279 209.159 44.7332 209.258 44.1568 209.258C43.8624 209.258 43.562 209.221 43.2554 209.147C42.9488 209.086 42.6544 208.988 42.3723 208.853C42.1025 208.706 41.8511 208.534 41.6181 208.338C41.3851 208.129 41.1888 207.884 41.0294 207.602H40.8086V212.679ZM43.8624 207.896C44.304 207.896 44.7087 207.823 45.0766 207.675C45.4445 207.516 45.7634 207.295 46.0332 207.013C46.3153 206.731 46.5299 206.388 46.6771 205.983C46.8366 205.578 46.9163 205.124 46.9163 204.622V204.254C46.9163 203.763 46.8366 203.322 46.6771 202.929C46.5299 202.524 46.3153 202.181 46.0332 201.899C45.7634 201.605 45.4384 201.378 45.0582 201.218C44.6903 201.059 44.2917 200.979 43.8624 200.979C43.4332 200.979 43.0346 201.065 42.6667 201.237C42.2987 201.396 41.9737 201.623 41.6917 201.917C41.4218 202.212 41.2072 202.567 41.0478 202.984C40.8883 203.389 40.8086 203.837 40.8086 204.327V204.548C40.8086 205.051 40.8883 205.511 41.0478 205.928C41.2072 206.333 41.4218 206.682 41.6917 206.976C41.9737 207.271 42.2987 207.498 42.6667 207.657C43.0346 207.816 43.4332 207.896 43.8624 207.896ZM52.404 209H50.9691V196.122H52.404V201.531H52.6248C52.9069 200.942 53.2993 200.476 53.8022 200.133C54.3173 199.789 54.9428 199.618 55.6786 199.618C56.672 199.618 57.4753 199.949 58.0886 200.611C58.714 201.261 59.0268 202.242 59.0268 203.555V209H57.5919V203.849C57.5919 202.892 57.3772 202.175 56.948 201.697C56.5187 201.218 55.9362 200.979 55.2003 200.979C54.3295 200.979 53.6427 201.28 53.1399 201.881C52.6493 202.469 52.404 203.26 52.404 204.254V209ZM68.8561 207.344H68.6354C68.341 207.933 67.9547 208.399 67.4764 208.742C66.9981 209.086 66.391 209.258 65.6551 209.258C65.1523 209.258 64.6862 209.172 64.257 209C63.84 208.841 63.4782 208.595 63.1716 208.264C62.8773 207.933 62.6442 207.522 62.4725 207.032C62.3131 206.541 62.2334 205.971 62.2334 205.321V199.875H63.6683V205.137C63.6683 206.093 63.8645 206.792 64.257 207.234C64.6495 207.675 65.2504 207.896 66.0599 207.896C66.9306 207.896 67.6113 207.602 68.1019 207.013C68.6047 206.412 68.8561 205.615 68.8561 204.622V199.875H70.2911V211.244C70.2911 211.661 70.1561 212.005 69.8863 212.275C69.6288 212.544 69.2915 212.679 68.8745 212.679H63.6683V211.355H68.3594C68.6906 211.355 68.8561 211.171 68.8561 210.803V207.344ZM75.3925 202.23C75.3925 202.672 75.5765 203.009 75.9444 203.242C76.3246 203.475 77.0114 203.628 78.0048 203.702C79.0718 203.788 79.8812 204.045 80.4331 204.474C80.9973 204.891 81.2794 205.505 81.2794 206.314V206.424C81.2794 206.866 81.1874 207.265 81.0034 207.62C80.8317 207.964 80.5864 208.258 80.2676 208.503C79.961 208.749 79.5808 208.933 79.127 209.055C78.6855 209.19 78.201 209.258 77.6737 209.258C76.9623 209.258 76.3491 209.166 75.834 208.982C75.3312 208.785 74.908 208.534 74.5646 208.227C74.2335 207.908 73.9821 207.553 73.8104 207.16C73.6387 206.756 73.5406 206.351 73.516 205.946L74.8774 205.615C74.9387 206.314 75.2085 206.878 75.6868 207.308C76.1651 207.725 76.8029 207.933 77.6001 207.933C78.2746 207.933 78.8142 207.804 79.219 207.547C79.6359 207.277 79.8444 206.903 79.8444 206.424C79.8444 205.909 79.6421 205.541 79.2374 205.321C78.8326 205.1 78.1765 204.959 77.2689 204.898C76.2142 204.824 75.4047 204.579 74.8406 204.162C74.2764 203.745 73.9944 203.138 73.9944 202.34V202.23C73.9944 201.801 74.0863 201.427 74.2703 201.108C74.4543 200.777 74.6996 200.501 75.0062 200.28C75.325 200.059 75.6807 199.894 76.0732 199.783C76.4656 199.673 76.8765 199.618 77.3057 199.618C77.9067 199.618 78.434 199.704 78.8878 199.875C79.3416 200.035 79.7218 200.249 80.0284 200.519C80.335 200.777 80.568 201.077 80.7275 201.421C80.8992 201.764 81.0096 202.107 81.0586 202.451L79.6973 202.782C79.6359 202.193 79.3968 201.733 78.9798 201.402C78.5751 201.071 78.0416 200.906 77.3793 200.906C77.1218 200.906 76.8703 200.936 76.6251 200.998C76.392 201.047 76.1835 201.126 75.9996 201.237C75.8156 201.347 75.6684 201.488 75.5581 201.66C75.4477 201.819 75.3925 202.009 75.3925 202.23ZM87.595 197.153C87.595 196.797 87.7176 196.497 87.9629 196.251C88.2205 195.994 88.5271 195.865 88.8827 195.865C89.2384 195.865 89.5389 195.994 89.7842 196.251C90.0417 196.497 90.1705 196.797 90.1705 197.153C90.1705 197.508 90.0417 197.815 89.7842 198.072C89.5389 198.318 89.2384 198.44 88.8827 198.44C88.5271 198.44 88.2205 198.318 87.9629 198.072C87.7176 197.815 87.595 197.508 87.595 197.153ZM84.9827 207.675H88.1837V201.2H85.3138V199.875H89.6186V207.675H92.5988V209H84.9827V207.675ZM104.562 205.762C104.464 206.265 104.292 206.731 104.047 207.16C103.814 207.59 103.514 207.964 103.146 208.283C102.778 208.589 102.348 208.828 101.858 209C101.367 209.172 100.822 209.258 100.221 209.258C99.5828 209.258 98.9758 209.153 98.3993 208.945C97.8352 208.736 97.3385 208.436 96.9092 208.043C96.48 207.639 96.1366 207.148 95.879 206.572C95.6337 205.995 95.5111 205.333 95.5111 204.585V204.364C95.5111 203.628 95.6337 202.966 95.879 202.377C96.1366 201.789 96.48 201.292 96.9092 200.887C97.3385 200.482 97.8352 200.17 98.3993 199.949C98.9758 199.728 99.5828 199.618 100.221 199.618C100.797 199.618 101.331 199.704 101.821 199.875C102.312 200.047 102.741 200.292 103.109 200.611C103.489 200.918 103.796 201.286 104.029 201.715C104.274 202.144 104.44 202.61 104.525 203.113L103.09 203.444C103.054 203.125 102.962 202.819 102.814 202.524C102.68 202.218 102.489 201.954 102.244 201.733C102.011 201.5 101.723 201.316 101.38 201.181C101.036 201.047 100.638 200.979 100.184 200.979C99.7423 200.979 99.3253 201.065 98.9328 201.237C98.5526 201.396 98.2154 201.629 97.921 201.936C97.6267 202.23 97.3937 202.586 97.222 203.003C97.0625 203.42 96.9828 203.874 96.9828 204.364V204.585C96.9828 205.1 97.0625 205.566 97.222 205.983C97.3937 206.388 97.6267 206.731 97.921 207.013C98.2154 207.295 98.5588 207.516 98.9512 207.675C99.3437 207.823 99.7668 207.896 100.221 207.896C100.674 207.896 101.067 207.829 101.398 207.694C101.741 207.547 102.03 207.363 102.263 207.142C102.508 206.909 102.698 206.645 102.833 206.351C102.98 206.057 103.078 205.75 103.127 205.431L104.562 205.762ZM113.913 207.455H113.692C113.398 208.068 112.987 208.522 112.46 208.816C111.945 209.11 111.399 209.258 110.823 209.258C110.222 209.258 109.664 209.159 109.149 208.963C108.633 208.755 108.18 208.454 107.787 208.062C107.407 207.657 107.106 207.166 106.886 206.59C106.665 206.014 106.555 205.345 106.555 204.585V204.29C106.555 203.542 106.665 202.88 106.886 202.304C107.106 201.727 107.407 201.243 107.787 200.85C108.18 200.446 108.633 200.139 109.149 199.931C109.664 199.722 110.209 199.618 110.786 199.618C111.411 199.618 111.975 199.759 112.478 200.041C112.993 200.311 113.398 200.734 113.692 201.31H113.913V199.875H115.348V207.124C115.348 207.491 115.514 207.675 115.845 207.675H116.305V209H115.33C114.913 209 114.569 208.865 114.3 208.595C114.042 208.325 113.913 207.982 113.913 207.565V207.455ZM110.97 207.896C111.399 207.896 111.791 207.816 112.147 207.657C112.515 207.498 112.828 207.271 113.085 206.976C113.343 206.682 113.545 206.333 113.692 205.928C113.84 205.511 113.913 205.051 113.913 204.548V204.327C113.913 203.837 113.84 203.389 113.692 202.984C113.545 202.567 113.337 202.212 113.067 201.917C112.809 201.623 112.497 201.396 112.129 201.237C111.773 201.065 111.387 200.979 110.97 200.979C110.541 200.979 110.148 201.059 109.792 201.218C109.437 201.378 109.124 201.605 108.854 201.899C108.597 202.181 108.394 202.531 108.247 202.948C108.1 203.352 108.026 203.8 108.026 204.29V204.585C108.026 205.627 108.296 206.443 108.836 207.032C109.388 207.608 110.099 207.896 110.97 207.896ZM118.555 207.675H121.866V197.447H118.665V196.122H123.301V207.675H126.612V209H118.555V207.675ZM149.619 205.762C149.521 206.265 149.349 206.731 149.104 207.16C148.871 207.59 148.571 207.964 148.203 208.283C147.835 208.589 147.406 208.828 146.915 209C146.424 209.172 145.879 209.258 145.278 209.258C144.64 209.258 144.033 209.153 143.456 208.945C142.892 208.736 142.396 208.436 141.966 208.043C141.537 207.639 141.194 207.148 140.936 206.572C140.691 205.995 140.568 205.333 140.568 204.585V204.364C140.568 203.628 140.691 202.966 140.936 202.377C141.194 201.789 141.537 201.292 141.966 200.887C142.396 200.482 142.892 200.17 143.456 199.949C144.033 199.728 144.64 199.618 145.278 199.618C145.854 199.618 146.388 199.704 146.878 199.875C147.369 200.047 147.798 200.292 148.166 200.611C148.546 200.918 148.853 201.286 149.086 201.715C149.331 202.144 149.497 202.61 149.582 203.113L148.148 203.444C148.111 203.125 148.019 202.819 147.872 202.524C147.737 202.218 147.547 201.954 147.301 201.733C147.068 201.5 146.78 201.316 146.437 201.181C146.093 201.047 145.695 200.979 145.241 200.979C144.799 200.979 144.382 201.065 143.99 201.237C143.61 201.396 143.272 201.629 142.978 201.936C142.684 202.23 142.451 202.586 142.279 203.003C142.12 203.42 142.04 203.874 142.04 204.364V204.585C142.04 205.1 142.12 205.566 142.279 205.983C142.451 206.388 142.684 206.731 142.978 207.013C143.272 207.295 143.616 207.516 144.008 207.675C144.401 207.823 144.824 207.896 145.278 207.896C145.731 207.896 146.124 207.829 146.455 207.694C146.798 207.547 147.087 207.363 147.32 207.142C147.565 206.909 147.755 206.645 147.89 206.351C148.037 206.057 148.135 205.75 148.184 205.431L149.619 205.762ZM160.957 204.548C160.957 205.308 160.828 205.983 160.571 206.572C160.325 207.148 159.994 207.639 159.577 208.043C159.16 208.436 158.67 208.736 158.106 208.945C157.554 209.153 156.977 209.258 156.376 209.258C155.763 209.258 155.181 209.153 154.629 208.945C154.077 208.736 153.592 208.436 153.175 208.043C152.758 207.639 152.421 207.148 152.164 206.572C151.918 205.983 151.796 205.308 151.796 204.548V204.327C151.796 203.579 151.918 202.917 152.164 202.34C152.421 201.752 152.758 201.255 153.175 200.85C153.605 200.446 154.095 200.139 154.647 199.931C155.199 199.722 155.775 199.618 156.376 199.618C156.977 199.618 157.554 199.722 158.106 199.931C158.658 200.139 159.142 200.446 159.559 200.85C159.988 201.255 160.325 201.752 160.571 202.34C160.828 202.917 160.957 203.579 160.957 204.327V204.548ZM156.376 207.896C156.818 207.896 157.223 207.823 157.591 207.675C157.971 207.516 158.302 207.289 158.584 206.995C158.866 206.7 159.087 206.351 159.246 205.946C159.406 205.529 159.485 205.063 159.485 204.548V204.327C159.485 203.837 159.406 203.389 159.246 202.984C159.087 202.567 158.866 202.212 158.584 201.917C158.302 201.623 157.971 201.396 157.591 201.237C157.21 201.065 156.806 200.979 156.376 200.979C155.947 200.979 155.542 201.065 155.162 201.237C154.782 201.396 154.451 201.623 154.169 201.917C153.887 202.212 153.666 202.567 153.507 202.984C153.347 203.389 153.267 203.837 153.267 204.327V204.548C153.267 205.063 153.347 205.529 153.507 205.946C153.666 206.351 153.887 206.7 154.169 206.995C154.451 207.289 154.776 207.516 155.144 207.675C155.524 207.823 155.935 207.896 156.376 207.896ZM164.716 212.679H163.281V199.875H164.716V201.31H164.936C165.255 200.758 165.697 200.341 166.261 200.059C166.825 199.765 167.438 199.618 168.101 199.618C168.665 199.618 169.198 199.722 169.701 199.931C170.204 200.139 170.645 200.439 171.026 200.832C171.418 201.224 171.725 201.709 171.945 202.285C172.178 202.862 172.295 203.518 172.295 204.254V204.622C172.295 205.37 172.185 206.032 171.964 206.608C171.743 207.185 171.436 207.669 171.044 208.062C170.664 208.454 170.216 208.755 169.701 208.963C169.186 209.159 168.64 209.258 168.064 209.258C167.769 209.258 167.469 209.221 167.162 209.147C166.856 209.086 166.561 208.988 166.279 208.853C166.009 208.706 165.758 208.534 165.525 208.338C165.292 208.129 165.096 207.884 164.936 207.602H164.716V212.679ZM167.769 207.896C168.211 207.896 168.616 207.823 168.984 207.675C169.352 207.516 169.67 207.295 169.94 207.013C170.222 206.731 170.437 206.388 170.584 205.983C170.744 205.578 170.823 205.124 170.823 204.622V204.254C170.823 203.763 170.744 203.322 170.584 202.929C170.437 202.524 170.222 202.181 169.94 201.899C169.67 201.605 169.345 201.378 168.965 201.218C168.597 201.059 168.199 200.979 167.769 200.979C167.34 200.979 166.942 201.065 166.574 201.237C166.206 201.396 165.881 201.623 165.599 201.917C165.329 202.212 165.114 202.567 164.955 202.984C164.795 203.389 164.716 203.837 164.716 204.327V204.548C164.716 205.051 164.795 205.511 164.955 205.928C165.114 206.333 165.329 206.682 165.599 206.976C165.881 207.271 166.206 207.498 166.574 207.657C166.942 207.816 167.34 207.896 167.769 207.896ZM181.499 207.344H181.278C180.984 207.933 180.597 208.399 180.119 208.742C179.641 209.086 179.034 209.258 178.298 209.258C177.795 209.258 177.329 209.172 176.9 209C176.483 208.841 176.121 208.595 175.814 208.264C175.52 207.933 175.287 207.522 175.115 207.032C174.956 206.541 174.876 205.971 174.876 205.321V199.875H176.311V205.137C176.311 206.093 176.507 206.792 176.9 207.234C177.292 207.675 177.893 207.896 178.703 207.896C179.573 207.896 180.254 207.602 180.745 207.013C181.247 206.412 181.499 205.615 181.499 204.622V199.875H182.934V211.244C182.934 211.661 182.799 212.005 182.529 212.275C182.271 212.544 181.934 212.679 181.517 212.679H176.311V211.355H181.002C181.333 211.355 181.499 211.171 181.499 210.803V207.344Z" fill="#207191"/>
<path d="M111 76.8125C111 74.2266 112.027 71.7467 113.856 69.9182C115.684 68.0897 118.164 67.0625 120.75 67.0625H140.25C140.896 67.0625 141.516 67.3193 141.974 67.7764C142.431 68.2335 142.688 68.8535 142.688 69.5V108.5C142.688 109.146 142.431 109.766 141.974 110.224C141.516 110.681 140.896 110.938 140.25 110.938H120.75C118.164 110.938 115.684 111.965 113.856 113.793C112.027 115.622 111 118.102 111 120.688" stroke="#5A6996" stroke-width="2.4375" stroke-linecap="round" stroke-linejoin="round"/>
<path d="M79.3125 104.844V108.5C79.3125 109.146 79.5693 109.766 80.0264 110.224C80.4835 110.681 81.1035 110.938 81.75 110.938H101.25C103.836 110.938 106.316 111.965 108.144 113.793C109.973 115.622 111 118.102 111 120.688V76.8125C111 74.2266 109.973 71.7467 108.144 69.9182C106.316 68.0897 103.836 67.0625 101.25 67.0625H81.75C81.1035 67.0625 80.4835 67.3193 80.0264 67.7764C79.5693 68.2335 79.3125 68.8535 79.3125 69.5V90.2188" stroke="#5A6996" stroke-width="2.4375" stroke-linecap="round" stroke-linejoin="round"/>
<path d="M64.6875 101.363C64.9233 101.527 65.1791 101.749 65.555 101.84C65.9908 101.945 66.5211 101.904 66.9389 101.803C67.501 101.666 68.2176 101.333 68.6174 101.097C69.5302 100.558 70.1794 99.9117 70.6146 99.2242C71.1413 98.3921 71.3854 97.5087 71.4941 96.6339C71.5168 96.4519 71.5143 96.4508 71.5143 96.3171C71.5143 96.2944 71.5034 96.3621 71.4982 96.3846C71.4945 96.4004 71.4469 96.6338 71.4134 96.6328C71.327 96.6303 71.1866 96.3554 71.0382 96.3225C70.9216 96.2967 70.8423 96.3539 70.786 96.3977C70.4862 96.6309 70.4836 97.0338 70.5056 97.2927C70.5503 97.8173 70.7499 98.4732 71.0584 98.9607C71.6282 99.8613 72.5743 100.821 74.1591 101.314C74.8068 101.515 75.4108 101.603 76.0353 101.344C76.563 101.125 76.672 100.754 76.7716 100.433C76.894 100.038 76.9007 99.6616 76.9128 99.2634C76.9224 98.9509 76.9352 98.6309 76.8886 98.3183C76.8727 98.2117 76.903 98.5327 76.933 98.6384C77.0311 98.9838 77.1903 99.3959 77.4454 99.7142C77.6541 99.9746 78.1922 100.498 78.7285 100.642C79.9975 100.983 81.3352 100.095 81.9422 99.6761C82.7893 99.0911 83.3706 98.543 83.782 97.8371C83.9322 97.5793 84.1228 96.8061 83.8345 97.027C83.3223 97.4192 83.6621 98.4546 83.7578 98.6842C84 99.2652 84.3292 99.8403 84.7846 100.383C86.1451 102.003 87.218 102.588 89.1624 103.989C89.301 104.089 91.5684 105.302 90.861 105.883C90.6427 106.063 90.0984 106.085 89.7071 106.047C87.9332 105.875 89.0546 105.026 89.7252 104.578C91.5297 103.371 94.978 102.048 97.1855 101.184C99.3006 100.356 101.502 99.5712 103.687 98.7952" stroke="#00CFFF" stroke-width="2.4375" stroke-linecap="round"/>
</svg>
