<svg width="222" height="261" viewBox="0 0 222 261" fill="none" xmlns="http://www.w3.org/2000/svg">
<rect x="0.5" y="0.5" width="221" height="260" rx="2.88371" fill="#E6FFF9" stroke="#00C7F5"/>
<path d="M73.0009 175.126C73.0009 173.458 73.3995 172.164 74.1967 171.245C74.9939 170.325 76.1038 169.865 77.5265 169.865C78.9491 169.865 80.0591 170.325 80.8562 171.245C81.6534 172.164 82.052 173.458 82.052 175.126V177.996C82.052 179.713 81.6534 181.019 80.8562 181.915C80.0591 182.81 78.9491 183.258 77.5265 183.258C76.1038 183.258 74.9939 182.81 74.1967 181.915C73.3995 181.019 73.0009 179.713 73.0009 177.996V175.126ZM77.5265 181.823C78.5199 181.823 79.2619 181.485 79.7525 180.811C80.2553 180.124 80.5067 179.149 80.5067 177.886V175.237C80.5067 174.059 80.2553 173.109 79.7525 172.385C79.2619 171.662 78.5199 171.3 77.5265 171.3C76.5331 171.3 75.7849 171.662 75.2821 172.385C74.7915 173.109 74.5462 174.059 74.5462 175.237V177.886C74.5462 179.149 74.7915 180.124 75.2821 180.811C75.7849 181.485 76.5331 181.823 77.5265 181.823ZM84.2468 173.875H87.5582V175.09H87.7789C88.012 174.587 88.3431 174.219 88.7724 173.986C89.2016 173.74 89.6922 173.618 90.2441 173.618C91.1639 173.618 91.9059 173.918 92.4701 174.519C93.0342 175.12 93.3347 175.997 93.3715 177.15L91.863 177.371C91.863 176.524 91.6606 175.917 91.2559 175.549C90.8512 175.169 90.3545 174.979 89.7658 174.979C89.3856 174.979 89.0544 175.053 88.7724 175.2C88.5025 175.347 88.2756 175.549 88.0917 175.807C87.9077 176.065 87.7728 176.365 87.687 176.708C87.6011 177.052 87.5582 177.42 87.5582 177.812V181.675H89.8761V183H84.0261V181.675H86.1233V175.2H84.2468V173.875ZM103.09 181.602H102.87C102.723 181.884 102.532 182.129 102.299 182.338C102.079 182.546 101.833 182.718 101.564 182.853C101.306 182.988 101.03 183.086 100.736 183.147C100.441 183.221 100.159 183.258 99.8894 183.258C99.2762 183.258 98.7059 183.153 98.1786 182.945C97.6512 182.736 97.1852 182.436 96.7804 182.043C96.388 181.651 96.0752 181.166 95.8422 180.59C95.6215 180.001 95.5111 179.333 95.5111 178.585V178.29C95.5111 177.555 95.6276 176.898 95.8606 176.322C96.0936 175.733 96.4064 175.243 96.7988 174.85C97.1913 174.446 97.6512 174.139 98.1786 173.931C98.7059 173.722 99.264 173.618 99.8527 173.618C100.478 173.618 101.061 173.759 101.6 174.041C102.152 174.311 102.575 174.734 102.87 175.31H103.09V170.122H104.525V183H103.09V181.602ZM100.037 181.896C100.466 181.896 100.864 181.816 101.232 181.657C101.6 181.498 101.919 181.271 102.189 180.976C102.471 180.682 102.692 180.333 102.851 179.928C103.011 179.511 103.09 179.051 103.09 178.548V178.327C103.09 177.837 103.011 177.389 102.851 176.984C102.692 176.567 102.471 176.212 102.189 175.917C101.919 175.623 101.594 175.396 101.214 175.237C100.846 175.065 100.454 174.979 100.037 174.979C99.6074 174.979 99.2026 175.059 98.8224 175.218C98.4545 175.378 98.1295 175.605 97.8474 175.899C97.5776 176.193 97.363 176.543 97.2036 176.948C97.0564 177.352 96.9828 177.8 96.9828 178.29V178.585C96.9828 179.1 97.0564 179.56 97.2036 179.965C97.363 180.369 97.5776 180.719 97.8474 181.013C98.1295 181.295 98.4545 181.516 98.8224 181.675C99.1904 181.823 99.5951 181.896 100.037 181.896ZM108.339 178.879C108.376 179.787 108.658 180.516 109.185 181.068C109.713 181.62 110.449 181.896 111.393 181.896C111.822 181.896 112.196 181.847 112.515 181.749C112.834 181.651 113.104 181.516 113.325 181.344C113.558 181.173 113.741 180.976 113.876 180.756C114.024 180.523 114.14 180.277 114.226 180.02L115.587 180.388C115.33 181.234 114.851 181.927 114.152 182.467C113.466 182.994 112.533 183.258 111.356 183.258C110.706 183.258 110.105 183.147 109.553 182.926C109.014 182.693 108.548 182.368 108.155 181.951C107.763 181.534 107.456 181.038 107.235 180.461C107.015 179.885 106.904 179.247 106.904 178.548V178.107C106.904 177.469 107.015 176.874 107.235 176.322C107.468 175.77 107.787 175.298 108.192 174.906C108.597 174.501 109.069 174.188 109.608 173.967C110.16 173.734 110.755 173.618 111.393 173.618C112.141 173.618 112.785 173.759 113.325 174.041C113.876 174.311 114.324 174.648 114.667 175.053C115.023 175.457 115.281 175.899 115.44 176.377C115.612 176.856 115.698 177.297 115.698 177.702V178.879H108.339ZM111.393 174.979C110.988 174.979 110.608 175.047 110.252 175.181C109.909 175.304 109.602 175.482 109.332 175.715C109.075 175.948 108.86 176.224 108.689 176.543C108.529 176.849 108.425 177.187 108.376 177.555H114.263C114.238 177.162 114.14 176.807 113.968 176.488C113.809 176.169 113.594 175.899 113.325 175.678C113.067 175.457 112.766 175.286 112.423 175.163C112.092 175.04 111.749 174.979 111.393 174.979ZM118.04 173.875H121.351V175.09H121.572C121.805 174.587 122.136 174.219 122.565 173.986C122.994 173.74 123.485 173.618 124.037 173.618C124.957 173.618 125.699 173.918 126.263 174.519C126.827 175.12 127.127 175.997 127.164 177.15L125.656 177.371C125.656 176.524 125.453 175.917 125.049 175.549C124.644 175.169 124.147 174.979 123.559 174.979C123.178 174.979 122.847 175.053 122.565 175.2C122.295 175.347 122.068 175.549 121.884 175.807C121.701 176.065 121.566 176.365 121.48 176.708C121.394 177.052 121.351 177.42 121.351 177.812V181.675H123.669V183H117.819V181.675H119.916V175.2H118.04V173.875ZM147.706 181.455H147.485C147.191 182.068 146.78 182.522 146.253 182.816C145.738 183.11 145.192 183.258 144.615 183.258C144.014 183.258 143.456 183.159 142.941 182.963C142.426 182.755 141.972 182.454 141.58 182.062C141.2 181.657 140.899 181.166 140.679 180.59C140.458 180.014 140.347 179.345 140.347 178.585V178.29C140.347 177.542 140.458 176.88 140.679 176.304C140.899 175.727 141.2 175.243 141.58 174.85C141.972 174.446 142.426 174.139 142.941 173.931C143.456 173.722 144.002 173.618 144.579 173.618C145.204 173.618 145.768 173.759 146.271 174.041C146.786 174.311 147.191 174.734 147.485 175.31H147.706V173.875H149.141V181.124C149.141 181.491 149.306 181.675 149.638 181.675H150.098V183H149.123C148.706 183 148.362 182.865 148.092 182.595C147.835 182.325 147.706 181.982 147.706 181.565V181.455ZM144.763 181.896C145.192 181.896 145.584 181.816 145.94 181.657C146.308 181.498 146.621 181.271 146.878 180.976C147.136 180.682 147.338 180.333 147.485 179.928C147.632 179.511 147.706 179.051 147.706 178.548V178.327C147.706 177.837 147.632 177.389 147.485 176.984C147.338 176.567 147.13 176.212 146.86 175.917C146.602 175.623 146.289 175.396 145.922 175.237C145.566 175.065 145.18 174.979 144.763 174.979C144.333 174.979 143.941 175.059 143.585 175.218C143.23 175.378 142.917 175.605 142.647 175.899C142.389 176.181 142.187 176.531 142.04 176.948C141.893 177.352 141.819 177.8 141.819 178.29V178.585C141.819 179.627 142.089 180.443 142.629 181.032C143.18 181.608 143.892 181.896 144.763 181.896ZM40.8086 212.679H39.3737V199.875H40.8086V201.31H41.0294C41.3483 200.758 41.7898 200.341 42.3539 200.059C42.9181 199.765 43.5313 199.618 44.1936 199.618C44.7577 199.618 45.2912 199.722 45.7941 199.931C46.2969 200.139 46.7384 200.439 47.1186 200.832C47.5111 201.224 47.8177 201.709 48.0385 202.285C48.2715 202.862 48.388 203.518 48.388 204.254V204.622C48.388 205.37 48.2776 206.032 48.0569 206.608C47.8361 207.185 47.5295 207.669 47.137 208.062C46.7568 208.454 46.3092 208.755 45.7941 208.963C45.279 209.159 44.7332 209.258 44.1568 209.258C43.8624 209.258 43.562 209.221 43.2554 209.147C42.9488 209.086 42.6544 208.988 42.3723 208.853C42.1025 208.706 41.8511 208.534 41.6181 208.338C41.3851 208.129 41.1888 207.884 41.0294 207.602H40.8086V212.679ZM43.8624 207.896C44.304 207.896 44.7087 207.823 45.0766 207.675C45.4445 207.516 45.7634 207.295 46.0332 207.013C46.3153 206.731 46.5299 206.388 46.6771 205.983C46.8366 205.578 46.9163 205.124 46.9163 204.622V204.254C46.9163 203.763 46.8366 203.322 46.6771 202.929C46.5299 202.524 46.3153 202.181 46.0332 201.899C45.7634 201.605 45.4384 201.378 45.0582 201.218C44.6903 201.059 44.2917 200.979 43.8624 200.979C43.4332 200.979 43.0346 201.065 42.6667 201.237C42.2987 201.396 41.9737 201.623 41.6917 201.917C41.4218 202.212 41.2072 202.567 41.0478 202.984C40.8883 203.389 40.8086 203.837 40.8086 204.327V204.548C40.8086 205.051 40.8883 205.511 41.0478 205.928C41.2072 206.333 41.4218 206.682 41.6917 206.976C41.9737 207.271 42.2987 207.498 42.6667 207.657C43.0346 207.816 43.4332 207.896 43.8624 207.896ZM52.404 209H50.9691V196.122H52.404V201.531H52.6248C52.9069 200.942 53.2993 200.476 53.8022 200.133C54.3173 199.789 54.9428 199.618 55.6786 199.618C56.672 199.618 57.4753 199.949 58.0886 200.611C58.714 201.261 59.0268 202.242 59.0268 203.555V209H57.5919V203.849C57.5919 202.892 57.3772 202.175 56.948 201.697C56.5187 201.218 55.9362 200.979 55.2003 200.979C54.3295 200.979 53.6427 201.28 53.1399 201.881C52.6493 202.469 52.404 203.26 52.404 204.254V209ZM68.8561 207.344H68.6354C68.341 207.933 67.9547 208.399 67.4764 208.742C66.9981 209.086 66.391 209.258 65.6551 209.258C65.1523 209.258 64.6862 209.172 64.257 209C63.84 208.841 63.4782 208.595 63.1716 208.264C62.8773 207.933 62.6442 207.522 62.4725 207.032C62.3131 206.541 62.2334 205.971 62.2334 205.321V199.875H63.6683V205.137C63.6683 206.093 63.8645 206.792 64.257 207.234C64.6495 207.675 65.2504 207.896 66.0599 207.896C66.9306 207.896 67.6113 207.602 68.1019 207.013C68.6047 206.412 68.8561 205.615 68.8561 204.622V199.875H70.2911V211.244C70.2911 211.661 70.1561 212.005 69.8863 212.275C69.6288 212.544 69.2915 212.679 68.8745 212.679H63.6683V211.355H68.3594C68.6906 211.355 68.8561 211.171 68.8561 210.803V207.344ZM75.3925 202.23C75.3925 202.672 75.5765 203.009 75.9444 203.242C76.3246 203.475 77.0114 203.628 78.0048 203.702C79.0718 203.788 79.8812 204.045 80.4331 204.474C80.9973 204.891 81.2794 205.505 81.2794 206.314V206.424C81.2794 206.866 81.1874 207.265 81.0034 207.62C80.8317 207.964 80.5864 208.258 80.2676 208.503C79.961 208.749 79.5808 208.933 79.127 209.055C78.6855 209.19 78.201 209.258 77.6737 209.258C76.9623 209.258 76.3491 209.166 75.834 208.982C75.3312 208.785 74.908 208.534 74.5646 208.227C74.2335 207.908 73.9821 207.553 73.8104 207.16C73.6387 206.756 73.5406 206.351 73.516 205.946L74.8774 205.615C74.9387 206.314 75.2085 206.878 75.6868 207.308C76.1651 207.725 76.8029 207.933 77.6001 207.933C78.2746 207.933 78.8142 207.804 79.219 207.547C79.6359 207.277 79.8444 206.903 79.8444 206.424C79.8444 205.909 79.6421 205.541 79.2374 205.321C78.8326 205.1 78.1765 204.959 77.2689 204.898C76.2142 204.824 75.4047 204.579 74.8406 204.162C74.2764 203.745 73.9944 203.138 73.9944 202.34V202.23C73.9944 201.801 74.0863 201.427 74.2703 201.108C74.4543 200.777 74.6996 200.501 75.0062 200.28C75.325 200.059 75.6807 199.894 76.0732 199.783C76.4656 199.673 76.8765 199.618 77.3057 199.618C77.9067 199.618 78.434 199.704 78.8878 199.875C79.3416 200.035 79.7218 200.249 80.0284 200.519C80.335 200.777 80.568 201.077 80.7275 201.421C80.8992 201.764 81.0096 202.107 81.0586 202.451L79.6973 202.782C79.6359 202.193 79.3968 201.733 78.9798 201.402C78.5751 201.071 78.0416 200.906 77.3793 200.906C77.1218 200.906 76.8703 200.936 76.6251 200.998C76.392 201.047 76.1835 201.126 75.9996 201.237C75.8156 201.347 75.6684 201.488 75.5581 201.66C75.4477 201.819 75.3925 202.009 75.3925 202.23ZM87.595 197.153C87.595 196.797 87.7176 196.497 87.9629 196.251C88.2205 195.994 88.5271 195.865 88.8827 195.865C89.2384 195.865 89.5389 195.994 89.7842 196.251C90.0417 196.497 90.1705 196.797 90.1705 197.153C90.1705 197.508 90.0417 197.815 89.7842 198.072C89.5389 198.318 89.2384 198.44 88.8827 198.44C88.5271 198.44 88.2205 198.318 87.9629 198.072C87.7176 197.815 87.595 197.508 87.595 197.153ZM84.9827 207.675H88.1837V201.2H85.3138V199.875H89.6186V207.675H92.5988V209H84.9827V207.675ZM104.562 205.762C104.464 206.265 104.292 206.731 104.047 207.16C103.814 207.59 103.514 207.964 103.146 208.283C102.778 208.589 102.348 208.828 101.858 209C101.367 209.172 100.822 209.258 100.221 209.258C99.5828 209.258 98.9758 209.153 98.3993 208.945C97.8352 208.736 97.3385 208.436 96.9092 208.043C96.48 207.639 96.1366 207.148 95.879 206.572C95.6337 205.995 95.5111 205.333 95.5111 204.585V204.364C95.5111 203.628 95.6337 202.966 95.879 202.377C96.1366 201.789 96.48 201.292 96.9092 200.887C97.3385 200.482 97.8352 200.17 98.3993 199.949C98.9758 199.728 99.5828 199.618 100.221 199.618C100.797 199.618 101.331 199.704 101.821 199.875C102.312 200.047 102.741 200.292 103.109 200.611C103.489 200.918 103.796 201.286 104.029 201.715C104.274 202.144 104.44 202.61 104.525 203.113L103.09 203.444C103.054 203.125 102.962 202.819 102.814 202.524C102.68 202.218 102.489 201.954 102.244 201.733C102.011 201.5 101.723 201.316 101.38 201.181C101.036 201.047 100.638 200.979 100.184 200.979C99.7423 200.979 99.3253 201.065 98.9328 201.237C98.5526 201.396 98.2154 201.629 97.921 201.936C97.6267 202.23 97.3937 202.586 97.222 203.003C97.0625 203.42 96.9828 203.874 96.9828 204.364V204.585C96.9828 205.1 97.0625 205.566 97.222 205.983C97.3937 206.388 97.6267 206.731 97.921 207.013C98.2154 207.295 98.5588 207.516 98.9512 207.675C99.3437 207.823 99.7668 207.896 100.221 207.896C100.674 207.896 101.067 207.829 101.398 207.694C101.741 207.547 102.03 207.363 102.263 207.142C102.508 206.909 102.698 206.645 102.833 206.351C102.98 206.057 103.078 205.75 103.127 205.431L104.562 205.762ZM113.913 207.455H113.692C113.398 208.068 112.987 208.522 112.46 208.816C111.945 209.11 111.399 209.258 110.823 209.258C110.222 209.258 109.664 209.159 109.149 208.963C108.633 208.755 108.18 208.454 107.787 208.062C107.407 207.657 107.106 207.166 106.886 206.59C106.665 206.014 106.555 205.345 106.555 204.585V204.29C106.555 203.542 106.665 202.88 106.886 202.304C107.106 201.727 107.407 201.243 107.787 200.85C108.18 200.446 108.633 200.139 109.149 199.931C109.664 199.722 110.209 199.618 110.786 199.618C111.411 199.618 111.975 199.759 112.478 200.041C112.993 200.311 113.398 200.734 113.692 201.31H113.913V199.875H115.348V207.124C115.348 207.491 115.514 207.675 115.845 207.675H116.305V209H115.33C114.913 209 114.569 208.865 114.3 208.595C114.042 208.325 113.913 207.982 113.913 207.565V207.455ZM110.97 207.896C111.399 207.896 111.791 207.816 112.147 207.657C112.515 207.498 112.828 207.271 113.085 206.976C113.343 206.682 113.545 206.333 113.692 205.928C113.84 205.511 113.913 205.051 113.913 204.548V204.327C113.913 203.837 113.84 203.389 113.692 202.984C113.545 202.567 113.337 202.212 113.067 201.917C112.809 201.623 112.497 201.396 112.129 201.237C111.773 201.065 111.387 200.979 110.97 200.979C110.541 200.979 110.148 201.059 109.792 201.218C109.437 201.378 109.124 201.605 108.854 201.899C108.597 202.181 108.394 202.531 108.247 202.948C108.1 203.352 108.026 203.8 108.026 204.29V204.585C108.026 205.627 108.296 206.443 108.836 207.032C109.388 207.608 110.099 207.896 110.97 207.896ZM118.555 207.675H121.866V197.447H118.665V196.122H123.301V207.675H126.612V209H118.555V207.675ZM149.619 205.762C149.521 206.265 149.349 206.731 149.104 207.16C148.871 207.59 148.571 207.964 148.203 208.283C147.835 208.589 147.406 208.828 146.915 209C146.424 209.172 145.879 209.258 145.278 209.258C144.64 209.258 144.033 209.153 143.456 208.945C142.892 208.736 142.396 208.436 141.966 208.043C141.537 207.639 141.194 207.148 140.936 206.572C140.691 205.995 140.568 205.333 140.568 204.585V204.364C140.568 203.628 140.691 202.966 140.936 202.377C141.194 201.789 141.537 201.292 141.966 200.887C142.396 200.482 142.892 200.17 143.456 199.949C144.033 199.728 144.64 199.618 145.278 199.618C145.854 199.618 146.388 199.704 146.878 199.875C147.369 200.047 147.798 200.292 148.166 200.611C148.546 200.918 148.853 201.286 149.086 201.715C149.331 202.144 149.497 202.61 149.582 203.113L148.148 203.444C148.111 203.125 148.019 202.819 147.872 202.524C147.737 202.218 147.547 201.954 147.301 201.733C147.068 201.5 146.78 201.316 146.437 201.181C146.093 201.047 145.695 200.979 145.241 200.979C144.799 200.979 144.382 201.065 143.99 201.237C143.61 201.396 143.272 201.629 142.978 201.936C142.684 202.23 142.451 202.586 142.279 203.003C142.12 203.42 142.04 203.874 142.04 204.364V204.585C142.04 205.1 142.12 205.566 142.279 205.983C142.451 206.388 142.684 206.731 142.978 207.013C143.272 207.295 143.616 207.516 144.008 207.675C144.401 207.823 144.824 207.896 145.278 207.896C145.731 207.896 146.124 207.829 146.455 207.694C146.798 207.547 147.087 207.363 147.32 207.142C147.565 206.909 147.755 206.645 147.89 206.351C148.037 206.057 148.135 205.75 148.184 205.431L149.619 205.762ZM160.957 204.548C160.957 205.308 160.828 205.983 160.571 206.572C160.325 207.148 159.994 207.639 159.577 208.043C159.16 208.436 158.67 208.736 158.106 208.945C157.554 209.153 156.977 209.258 156.376 209.258C155.763 209.258 155.181 209.153 154.629 208.945C154.077 208.736 153.592 208.436 153.175 208.043C152.758 207.639 152.421 207.148 152.164 206.572C151.918 205.983 151.796 205.308 151.796 204.548V204.327C151.796 203.579 151.918 202.917 152.164 202.34C152.421 201.752 152.758 201.255 153.175 200.85C153.605 200.446 154.095 200.139 154.647 199.931C155.199 199.722 155.775 199.618 156.376 199.618C156.977 199.618 157.554 199.722 158.106 199.931C158.658 200.139 159.142 200.446 159.559 200.85C159.988 201.255 160.325 201.752 160.571 202.34C160.828 202.917 160.957 203.579 160.957 204.327V204.548ZM156.376 207.896C156.818 207.896 157.223 207.823 157.591 207.675C157.971 207.516 158.302 207.289 158.584 206.995C158.866 206.7 159.087 206.351 159.246 205.946C159.406 205.529 159.485 205.063 159.485 204.548V204.327C159.485 203.837 159.406 203.389 159.246 202.984C159.087 202.567 158.866 202.212 158.584 201.917C158.302 201.623 157.971 201.396 157.591 201.237C157.21 201.065 156.806 200.979 156.376 200.979C155.947 200.979 155.542 201.065 155.162 201.237C154.782 201.396 154.451 201.623 154.169 201.917C153.887 202.212 153.666 202.567 153.507 202.984C153.347 203.389 153.267 203.837 153.267 204.327V204.548C153.267 205.063 153.347 205.529 153.507 205.946C153.666 206.351 153.887 206.7 154.169 206.995C154.451 207.289 154.776 207.516 155.144 207.675C155.524 207.823 155.935 207.896 156.376 207.896ZM164.716 212.679H163.281V199.875H164.716V201.31H164.936C165.255 200.758 165.697 200.341 166.261 200.059C166.825 199.765 167.438 199.618 168.101 199.618C168.665 199.618 169.198 199.722 169.701 199.931C170.204 200.139 170.645 200.439 171.026 200.832C171.418 201.224 171.725 201.709 171.945 202.285C172.178 202.862 172.295 203.518 172.295 204.254V204.622C172.295 205.37 172.185 206.032 171.964 206.608C171.743 207.185 171.436 207.669 171.044 208.062C170.664 208.454 170.216 208.755 169.701 208.963C169.186 209.159 168.64 209.258 168.064 209.258C167.769 209.258 167.469 209.221 167.162 209.147C166.856 209.086 166.561 208.988 166.279 208.853C166.009 208.706 165.758 208.534 165.525 208.338C165.292 208.129 165.096 207.884 164.936 207.602H164.716V212.679ZM167.769 207.896C168.211 207.896 168.616 207.823 168.984 207.675C169.352 207.516 169.67 207.295 169.94 207.013C170.222 206.731 170.437 206.388 170.584 205.983C170.744 205.578 170.823 205.124 170.823 204.622V204.254C170.823 203.763 170.744 203.322 170.584 202.929C170.437 202.524 170.222 202.181 169.94 201.899C169.67 201.605 169.345 201.378 168.965 201.218C168.597 201.059 168.199 200.979 167.769 200.979C167.34 200.979 166.942 201.065 166.574 201.237C166.206 201.396 165.881 201.623 165.599 201.917C165.329 202.212 165.114 202.567 164.955 202.984C164.795 203.389 164.716 203.837 164.716 204.327V204.548C164.716 205.051 164.795 205.511 164.955 205.928C165.114 206.333 165.329 206.682 165.599 206.976C165.881 207.271 166.206 207.498 166.574 207.657C166.942 207.816 167.34 207.896 167.769 207.896ZM181.499 207.344H181.278C180.984 207.933 180.597 208.399 180.119 208.742C179.641 209.086 179.034 209.258 178.298 209.258C177.795 209.258 177.329 209.172 176.9 209C176.483 208.841 176.121 208.595 175.814 208.264C175.52 207.933 175.287 207.522 175.115 207.032C174.956 206.541 174.876 205.971 174.876 205.321V199.875H176.311V205.137C176.311 206.093 176.507 206.792 176.9 207.234C177.292 207.675 177.893 207.896 178.703 207.896C179.573 207.896 180.254 207.602 180.745 207.013C181.247 206.412 181.499 205.615 181.499 204.622V199.875H182.934V211.244C182.934 211.661 182.799 212.005 182.529 212.275C182.271 212.544 181.934 212.679 181.517 212.679H176.311V211.355H181.002C181.333 211.355 181.499 211.171 181.499 210.803V207.344Z" fill="#207191"/>
<path d="M111 76.8125C111 74.2266 112.027 71.7467 113.856 69.9182C115.684 68.0897 118.164 67.0625 120.75 67.0625H140.25C140.896 67.0625 141.516 67.3193 141.974 67.7764C142.431 68.2335 142.688 68.8535 142.688 69.5V108.5C142.688 109.146 142.431 109.766 141.974 110.224C141.516 110.681 140.896 110.938 140.25 110.938H120.75C118.164 110.938 115.684 111.965 113.856 113.793C112.027 115.622 111 118.102 111 120.688" stroke="#5A6996" stroke-width="2.4375" stroke-linecap="round" stroke-linejoin="round"/>
<path d="M79.3125 104.844V108.5C79.3125 109.146 79.5693 109.766 80.0264 110.224C80.4835 110.681 81.1035 110.938 81.75 110.938H101.25C103.836 110.938 106.316 111.965 108.144 113.793C109.973 115.622 111 118.102 111 120.688V76.8125C111 74.2266 109.973 71.7467 108.144 69.9182C106.316 68.0897 103.836 67.0625 101.25 67.0625H81.75C81.1035 67.0625 80.4835 67.3193 80.0264 67.7764C79.5693 68.2335 79.3125 68.8535 79.3125 69.5V90.2188" stroke="#5A6996" stroke-width="2.4375" stroke-linecap="round" stroke-linejoin="round"/>
<path d="M64.6875 101.363C64.9233 101.527 65.1791 101.749 65.555 101.84C65.9908 101.945 66.5211 101.904 66.9389 101.803C67.501 101.666 68.2176 101.333 68.6174 101.097C69.5302 100.558 70.1794 99.9117 70.6146 99.2242C71.1413 98.3921 71.3854 97.5087 71.4941 96.6339C71.5168 96.4519 71.5143 96.4508 71.5143 96.3171C71.5143 96.2944 71.5034 96.3621 71.4982 96.3846C71.4945 96.4004 71.4469 96.6338 71.4134 96.6328C71.327 96.6303 71.1866 96.3554 71.0382 96.3225C70.9216 96.2967 70.8423 96.3539 70.786 96.3977C70.4862 96.6309 70.4836 97.0338 70.5056 97.2927C70.5503 97.8173 70.7499 98.4732 71.0584 98.9607C71.6282 99.8613 72.5743 100.821 74.1591 101.314C74.8068 101.515 75.4108 101.603 76.0353 101.344C76.563 101.125 76.672 100.754 76.7716 100.433C76.894 100.038 76.9007 99.6616 76.9128 99.2634C76.9224 98.9509 76.9352 98.6309 76.8886 98.3183C76.8727 98.2117 76.903 98.5327 76.933 98.6384C77.0311 98.9838 77.1903 99.3959 77.4454 99.7142C77.6541 99.9746 78.1922 100.498 78.7285 100.642C79.9975 100.983 81.3352 100.095 81.9422 99.6761C82.7893 99.0911 83.3706 98.543 83.782 97.8371C83.9322 97.5793 84.1228 96.8061 83.8345 97.027C83.3223 97.4192 83.6621 98.4546 83.7578 98.6842C84 99.2652 84.3292 99.8403 84.7846 100.383C86.1451 102.003 87.218 102.588 89.1624 103.989C89.301 104.089 91.5684 105.302 90.861 105.883C90.6427 106.063 90.0984 106.085 89.7071 106.047C87.9332 105.875 89.0546 105.026 89.7252 104.578C91.5297 103.371 94.978 102.048 97.1855 101.184C99.3006 100.356 101.502 99.5712 103.687 98.7952" stroke="#00CFFF" stroke-width="2.4375" stroke-linecap="round"/>
</svg>
