<svg width="222" height="267" viewBox="0 0 222 267" fill="none" xmlns="http://www.w3.org/2000/svg">
<rect x="0.5" y="0.5" width="221" height="266" rx="2.88371" fill="#E6FFF9" stroke="#00C7F5"/>
<path d="M22.2321 155.122H25.1755L26.9048 167.338H27.1256L28.8548 155.122H31.7983V168H30.3633V155.785H30.1426L28.4133 168H25.617L23.8878 155.785H23.667V168H22.2321V155.122ZM40.8734 166.455H40.6526C40.3582 167.068 39.9474 167.522 39.42 167.816C38.9049 168.11 38.3592 168.258 37.7827 168.258C37.1818 168.258 36.6238 168.159 36.1087 167.963C35.5936 167.755 35.1398 167.454 34.7473 167.062C34.3671 166.657 34.0666 166.166 33.8459 165.59C33.6251 165.014 33.5147 164.345 33.5147 163.585V163.29C33.5147 162.542 33.6251 161.88 33.8459 161.304C34.0666 160.727 34.3671 160.243 34.7473 159.85C35.1398 159.446 35.5936 159.139 36.1087 158.931C36.6238 158.722 37.1695 158.618 37.7459 158.618C38.3714 158.618 38.9356 158.759 39.4384 159.041C39.9535 159.311 40.3582 159.734 40.6526 160.31H40.8734V158.875H42.3083V166.124C42.3083 166.491 42.4738 166.675 42.805 166.675H43.2649V168H42.2899C41.8729 168 41.5295 167.865 41.2597 167.595C41.0021 167.325 40.8734 166.982 40.8734 166.565V166.455ZM37.9299 166.896C38.3592 166.896 38.7516 166.816 39.1073 166.657C39.4752 166.498 39.788 166.271 40.0455 165.976C40.3031 165.682 40.5054 165.333 40.6526 164.928C40.7998 164.511 40.8734 164.051 40.8734 163.548V163.327C40.8734 162.837 40.7998 162.389 40.6526 161.984C40.5054 161.567 40.2969 161.212 40.0271 160.917C39.7696 160.623 39.4568 160.396 39.0889 160.237C38.7332 160.065 38.3469 159.979 37.9299 159.979C37.5007 159.979 37.1082 160.059 36.7525 160.218C36.3969 160.378 36.0841 160.605 35.8143 160.899C35.5568 161.181 35.3544 161.531 35.2072 161.948C35.0601 162.352 34.9865 162.8 34.9865 163.29V163.585C34.9865 164.627 35.2563 165.443 35.7959 166.032C36.3478 166.608 37.0591 166.896 37.9299 166.896ZM47.8696 162.665H48.1824L51.6593 158.875H53.4254V158.986L49.6357 163.162V163.493L53.8669 167.89V168H52.1008L48.2192 163.99H47.8696V168H46.4347V155.122H47.8696V162.665ZM57.8277 163.879C57.8645 164.787 58.1466 165.516 58.674 166.068C59.2014 166.62 59.9372 166.896 60.8816 166.896C61.3108 166.896 61.6849 166.847 62.0038 166.749C62.3226 166.651 62.5924 166.516 62.8132 166.344C63.0462 166.173 63.2302 165.976 63.3651 165.756C63.5123 165.523 63.6288 165.277 63.7146 165.02L65.076 165.388C64.8184 166.234 64.3401 166.927 63.641 167.467C62.9542 167.994 62.0222 168.258 60.8448 168.258C60.1948 168.258 59.5938 168.147 59.0419 167.926C58.5023 167.693 58.0362 167.368 57.6438 166.951C57.2513 166.534 56.9447 166.038 56.724 165.461C56.5032 164.885 56.3928 164.247 56.3928 163.548V163.107C56.3928 162.469 56.5032 161.874 56.724 161.322C56.957 160.77 57.2759 160.298 57.6806 159.906C58.0853 159.501 58.5575 159.188 59.0971 158.967C59.649 158.734 60.2438 158.618 60.8816 158.618C61.6297 158.618 62.2736 158.759 62.8132 159.041C63.3651 159.311 63.8127 159.648 64.1561 160.053C64.5118 160.457 64.7694 160.899 64.9288 161.377C65.1005 161.856 65.1864 162.297 65.1864 162.702V163.879H57.8277ZM60.8816 159.979C60.4768 159.979 60.0967 160.047 59.741 160.181C59.3976 160.304 59.091 160.482 58.8212 160.715C58.5636 160.948 58.349 161.224 58.1773 161.543C58.0178 161.849 57.9136 162.187 57.8645 162.555H63.7514C63.7269 162.162 63.6288 161.807 63.4571 161.488C63.2976 161.169 63.083 160.899 62.8132 160.678C62.5557 160.457 62.2552 160.286 61.9118 160.163C61.5806 160.04 61.2372 159.979 60.8816 159.979ZM85.9304 166.455H85.7097C85.4153 167.068 85.0045 167.522 84.4771 167.816C83.962 168.11 83.4162 168.258 82.8398 168.258C82.2389 168.258 81.6808 168.159 81.1657 167.963C80.6506 167.755 80.1969 167.454 79.8044 167.062C79.4242 166.657 79.1237 166.166 78.903 165.59C78.6822 165.014 78.5718 164.345 78.5718 163.585V163.29C78.5718 162.542 78.6822 161.88 78.903 161.304C79.1237 160.727 79.4242 160.243 79.8044 159.85C80.1969 159.446 80.6506 159.139 81.1657 158.931C81.6808 158.722 82.2266 158.618 82.803 158.618C83.4285 158.618 83.9927 158.759 84.4955 159.041C85.0106 159.311 85.4153 159.734 85.7097 160.31H85.9304V158.875H87.3654V166.124C87.3654 166.491 87.5309 166.675 87.8621 166.675H88.322V168H87.347C86.93 168 86.5866 167.865 86.3168 167.595C86.0592 167.325 85.9304 166.982 85.9304 166.565V166.455ZM82.987 166.896C83.4162 166.896 83.8087 166.816 84.1644 166.657C84.5323 166.498 84.845 166.271 85.1026 165.976C85.3601 165.682 85.5625 165.333 85.7097 164.928C85.8568 164.511 85.9304 164.051 85.9304 163.548V163.327C85.9304 162.837 85.8568 162.389 85.7097 161.984C85.5625 161.567 85.354 161.212 85.0842 160.917C84.8266 160.623 84.5139 160.396 84.146 160.237C83.7903 160.065 83.404 159.979 82.987 159.979C82.5577 159.979 82.1653 160.059 81.8096 160.218C81.4539 160.378 81.1412 160.605 80.8714 160.899C80.6138 161.181 80.4115 161.531 80.2643 161.948C80.1171 162.352 80.0435 162.8 80.0435 163.29V163.585C80.0435 164.627 80.3134 165.443 80.853 166.032C81.4049 166.608 82.1162 166.896 82.987 166.896ZM102.94 171.679H101.505V158.875H102.94V160.31H103.161C103.48 159.758 103.921 159.341 104.485 159.059C105.049 158.765 105.663 158.618 106.325 158.618C106.889 158.618 107.423 158.722 107.925 158.931C108.428 159.139 108.87 159.439 109.25 159.832C109.642 160.224 109.949 160.709 110.17 161.285C110.403 161.862 110.519 162.518 110.519 163.254V163.622C110.519 164.37 110.409 165.032 110.188 165.608C109.967 166.185 109.661 166.669 109.268 167.062C108.888 167.454 108.441 167.755 107.925 167.963C107.41 168.159 106.865 168.258 106.288 168.258C105.994 168.258 105.693 168.221 105.387 168.147C105.08 168.086 104.786 167.988 104.504 167.853C104.234 167.706 103.982 167.534 103.749 167.338C103.516 167.129 103.32 166.884 103.161 166.602H102.94V171.679ZM105.994 166.896C106.435 166.896 106.84 166.823 107.208 166.675C107.576 166.516 107.895 166.295 108.165 166.013C108.447 165.731 108.661 165.388 108.809 164.983C108.968 164.578 109.048 164.124 109.048 163.622V163.254C109.048 162.763 108.968 162.322 108.809 161.929C108.661 161.524 108.447 161.181 108.165 160.899C107.895 160.605 107.57 160.378 107.19 160.218C106.822 160.059 106.423 159.979 105.994 159.979C105.565 159.979 105.166 160.065 104.798 160.237C104.43 160.396 104.105 160.623 103.823 160.917C103.553 161.212 103.339 161.567 103.179 161.984C103.02 162.389 102.94 162.837 102.94 163.327V163.548C102.94 164.051 103.02 164.511 103.179 164.928C103.339 165.333 103.553 165.682 103.823 165.976C104.105 166.271 104.43 166.498 104.798 166.657C105.166 166.816 105.565 166.896 105.994 166.896ZM113.1 166.675H116.412V156.447H113.211V155.122H117.847V166.675H121.158V168H113.1V166.675ZM125.413 163.879C125.45 164.787 125.732 165.516 126.26 166.068C126.787 166.62 127.523 166.896 128.467 166.896C128.896 166.896 129.271 166.847 129.589 166.749C129.908 166.651 130.178 166.516 130.399 166.344C130.632 166.173 130.816 165.976 130.951 165.756C131.098 165.523 131.214 165.277 131.3 165.02L132.662 165.388C132.404 166.234 131.926 166.927 131.227 167.467C130.54 167.994 129.608 168.258 128.43 168.258C127.78 168.258 127.179 168.147 126.628 167.926C126.088 167.693 125.622 167.368 125.229 166.951C124.837 166.534 124.53 166.038 124.31 165.461C124.089 164.885 123.978 164.247 123.978 163.548V163.107C123.978 162.469 124.089 161.874 124.31 161.322C124.543 160.77 124.861 160.298 125.266 159.906C125.671 159.501 126.143 159.188 126.683 158.967C127.235 158.734 127.829 158.618 128.467 158.618C129.215 158.618 129.859 158.759 130.399 159.041C130.951 159.311 131.398 159.648 131.742 160.053C132.097 160.457 132.355 160.899 132.514 161.377C132.686 161.856 132.772 162.297 132.772 162.702V163.879H125.413ZM128.467 159.979C128.062 159.979 127.682 160.047 127.327 160.181C126.983 160.304 126.677 160.482 126.407 160.715C126.149 160.948 125.935 161.224 125.763 161.543C125.603 161.849 125.499 162.187 125.45 162.555H131.337C131.313 162.162 131.214 161.807 131.043 161.488C130.883 161.169 130.669 160.899 130.399 160.678C130.141 160.457 129.841 160.286 129.497 160.163C129.166 160.04 128.823 159.979 128.467 159.979ZM142.693 166.602H142.473C142.325 166.884 142.135 167.129 141.902 167.338C141.681 167.546 141.436 167.718 141.166 167.853C140.909 167.988 140.633 168.086 140.339 168.147C140.044 168.221 139.762 168.258 139.492 168.258C138.879 168.258 138.309 168.153 137.781 167.945C137.254 167.736 136.788 167.436 136.383 167.043C135.991 166.651 135.678 166.166 135.445 165.59C135.224 165.001 135.114 164.333 135.114 163.585V163.29C135.114 162.555 135.23 161.898 135.463 161.322C135.696 160.733 136.009 160.243 136.402 159.85C136.794 159.446 137.254 159.139 137.781 158.931C138.309 158.722 138.867 158.618 139.456 158.618C140.081 158.618 140.664 158.759 141.203 159.041C141.755 159.311 142.178 159.734 142.473 160.31H142.693V155.122H144.128V168H142.693V166.602ZM139.639 166.896C140.069 166.896 140.467 166.816 140.835 166.657C141.203 166.498 141.522 166.271 141.792 165.976C142.074 165.682 142.295 165.333 142.454 164.928C142.614 164.511 142.693 164.051 142.693 163.548V163.327C142.693 162.837 142.614 162.389 142.454 161.984C142.295 161.567 142.074 161.212 141.792 160.917C141.522 160.623 141.197 160.396 140.817 160.237C140.449 160.065 140.056 159.979 139.639 159.979C139.21 159.979 138.806 160.059 138.425 160.218C138.057 160.378 137.732 160.605 137.45 160.899C137.18 161.193 136.966 161.543 136.806 161.948C136.659 162.352 136.586 162.8 136.586 163.29V163.585C136.586 164.1 136.659 164.56 136.806 164.965C136.966 165.369 137.18 165.719 137.45 166.013C137.732 166.295 138.057 166.516 138.425 166.675C138.793 166.823 139.198 166.896 139.639 166.896ZM153.829 166.602H153.608C153.314 167.154 152.909 167.571 152.394 167.853C151.891 168.123 151.339 168.258 150.738 168.258C150.125 168.258 149.549 168.153 149.009 167.945C148.469 167.736 147.991 167.436 147.574 167.043C147.169 166.651 146.844 166.166 146.599 165.59C146.366 165.001 146.249 164.333 146.249 163.585V163.29C146.249 162.555 146.372 161.898 146.617 161.322C146.863 160.733 147.188 160.243 147.592 159.85C147.997 159.446 148.469 159.139 149.009 158.931C149.549 158.722 150.113 158.618 150.701 158.618C151.364 158.618 151.94 158.765 152.431 159.059C152.933 159.341 153.326 159.758 153.608 160.31H153.829V158.875H155.264V170.244C155.264 170.661 155.129 171.005 154.859 171.275C154.601 171.544 154.264 171.679 153.847 171.679H147.905V170.355H153.332C153.663 170.355 153.829 170.171 153.829 169.803V166.602ZM150.775 166.896C151.204 166.896 151.603 166.816 151.971 166.657C152.339 166.498 152.658 166.271 152.927 165.976C153.209 165.682 153.43 165.333 153.59 164.928C153.749 164.511 153.829 164.051 153.829 163.548V163.327C153.829 162.837 153.749 162.389 153.59 161.984C153.43 161.567 153.209 161.212 152.927 160.917C152.658 160.623 152.333 160.396 151.952 160.237C151.584 160.065 151.192 159.979 150.775 159.979C150.346 159.979 149.941 160.059 149.561 160.218C149.193 160.378 148.868 160.605 148.586 160.899C148.316 161.193 148.101 161.543 147.942 161.948C147.795 162.352 147.721 162.8 147.721 163.29V163.585C147.721 164.1 147.795 164.56 147.942 164.965C148.101 165.369 148.316 165.719 148.586 166.013C148.868 166.295 149.193 166.516 149.561 166.675C149.929 166.823 150.333 166.896 150.775 166.896ZM159.206 163.879C159.243 164.787 159.525 165.516 160.052 166.068C160.58 166.62 161.316 166.896 162.26 166.896C162.689 166.896 163.063 166.847 163.382 166.749C163.701 166.651 163.971 166.516 164.192 166.344C164.425 166.173 164.609 165.976 164.744 165.756C164.891 165.523 165.007 165.277 165.093 165.02L166.454 165.388C166.197 166.234 165.719 166.927 165.019 167.467C164.333 167.994 163.401 168.258 162.223 168.258C161.573 168.258 160.972 168.147 160.42 167.926C159.881 167.693 159.415 167.368 159.022 166.951C158.63 166.534 158.323 166.038 158.102 165.461C157.882 164.885 157.771 164.247 157.771 163.548V163.107C157.771 162.469 157.882 161.874 158.102 161.322C158.335 160.77 158.654 160.298 159.059 159.906C159.464 159.501 159.936 159.188 160.476 158.967C161.027 158.734 161.622 158.618 162.26 158.618C163.008 158.618 163.652 158.759 164.192 159.041C164.744 159.311 165.191 159.648 165.535 160.053C165.89 160.457 166.148 160.899 166.307 161.377C166.479 161.856 166.565 162.297 166.565 162.702V163.879H159.206ZM162.26 159.979C161.855 159.979 161.475 160.047 161.119 160.181C160.776 160.304 160.469 160.482 160.2 160.715C159.942 160.948 159.727 161.224 159.556 161.543C159.396 161.849 159.292 162.187 159.243 162.555H165.13C165.105 162.162 165.007 161.807 164.835 161.488C164.676 161.169 164.461 160.899 164.192 160.678C163.934 160.457 163.634 160.286 163.29 160.163C162.959 160.04 162.616 159.979 162.26 159.979ZM180.373 158.875H183.243V155.122H184.678V158.875H188.21V160.2H184.678V166.124C184.678 166.491 184.844 166.675 185.175 166.675H187.769V168H184.66C184.243 168 183.899 167.865 183.63 167.595C183.372 167.325 183.243 166.982 183.243 166.565V160.2H180.373V158.875ZM200.56 163.548C200.56 164.308 200.431 164.983 200.174 165.572C199.928 166.148 199.597 166.639 199.18 167.043C198.763 167.436 198.273 167.736 197.708 167.945C197.157 168.153 196.58 168.258 195.979 168.258C195.366 168.258 194.783 168.153 194.232 167.945C193.68 167.736 193.195 167.436 192.778 167.043C192.361 166.639 192.024 166.148 191.766 165.572C191.521 164.983 191.398 164.308 191.398 163.548V163.327C191.398 162.579 191.521 161.917 191.766 161.34C192.024 160.752 192.361 160.255 192.778 159.85C193.207 159.446 193.698 159.139 194.25 158.931C194.802 158.722 195.378 158.618 195.979 158.618C196.58 158.618 197.157 158.722 197.708 158.931C198.26 159.139 198.745 159.446 199.162 159.85C199.591 160.255 199.928 160.752 200.174 161.34C200.431 161.917 200.56 162.579 200.56 163.327V163.548ZM195.979 166.896C196.421 166.896 196.825 166.823 197.193 166.675C197.574 166.516 197.905 166.289 198.187 165.995C198.469 165.7 198.69 165.351 198.849 164.946C199.009 164.529 199.088 164.063 199.088 163.548V163.327C199.088 162.837 199.009 162.389 198.849 161.984C198.69 161.567 198.469 161.212 198.187 160.917C197.905 160.623 197.574 160.396 197.193 160.237C196.813 160.065 196.408 159.979 195.979 159.979C195.55 159.979 195.145 160.065 194.765 160.237C194.385 160.396 194.054 160.623 193.772 160.917C193.49 161.212 193.269 161.567 193.109 161.984C192.95 162.389 192.87 162.837 192.87 163.327V163.548C192.87 164.063 192.95 164.529 193.109 164.946C193.269 165.351 193.49 165.7 193.772 165.995C194.054 166.289 194.379 166.516 194.747 166.675C195.127 166.823 195.538 166.896 195.979 166.896ZM22.4712 185.875H25.7826V187.09H26.0034C26.2364 186.587 26.5675 186.219 26.9968 185.986C27.426 185.74 27.9166 185.618 28.4685 185.618C29.3883 185.618 30.1303 185.918 30.6945 186.519C31.2586 187.12 31.5591 187.997 31.5959 189.15L30.0874 189.371C30.0874 188.524 29.885 187.917 29.4803 187.549C29.0756 187.169 28.5789 186.979 27.9902 186.979C27.61 186.979 27.2789 187.053 26.9968 187.2C26.727 187.347 26.5001 187.549 26.3161 187.807C26.1321 188.065 25.9972 188.365 25.9114 188.708C25.8255 189.052 25.7826 189.42 25.7826 189.812V193.675H28.1006V195H22.2505V193.675H24.3477V187.2H22.4712V185.875ZM35.2992 190.879C35.336 191.787 35.6181 192.516 36.1454 193.068C36.6728 193.62 37.4087 193.896 38.353 193.896C38.7823 193.896 39.1563 193.847 39.4752 193.749C39.7941 193.651 40.0639 193.516 40.2847 193.344C40.5177 193.173 40.7017 192.976 40.8366 192.756C40.9837 192.523 41.1002 192.277 41.1861 192.02L42.5474 192.388C42.2899 193.234 41.8116 193.927 41.1125 194.467C40.4257 194.994 39.4936 195.258 38.3162 195.258C37.6662 195.258 37.0653 195.147 36.5134 194.926C35.9737 194.693 35.5077 194.368 35.1152 193.951C34.7228 193.534 34.4162 193.038 34.1954 192.461C33.9747 191.885 33.8643 191.247 33.8643 190.548V190.107C33.8643 189.469 33.9747 188.874 34.1954 188.322C34.4284 187.77 34.7473 187.298 35.152 186.906C35.5568 186.501 36.0289 186.188 36.5686 185.967C37.1205 185.734 37.7153 185.618 38.353 185.618C39.1012 185.618 39.745 185.759 40.2847 186.041C40.8366 186.311 41.2842 186.648 41.6276 187.053C41.9833 187.457 42.2408 187.899 42.4003 188.377C42.572 188.856 42.6578 189.297 42.6578 189.702V190.879H35.2992ZM38.353 186.979C37.9483 186.979 37.5681 187.047 37.2124 187.181C36.869 187.304 36.5624 187.482 36.2926 187.715C36.0351 187.948 35.8204 188.224 35.6487 188.543C35.4893 188.849 35.3851 189.187 35.336 189.555H41.2229C41.1984 189.162 41.1002 188.807 40.9285 188.488C40.7691 188.169 40.5545 187.899 40.2847 187.678C40.0271 187.457 39.7266 187.286 39.3832 187.163C39.0521 187.04 38.7087 186.979 38.353 186.979ZM54.0509 191.762C53.9527 192.265 53.781 192.731 53.5358 193.16C53.3027 193.59 53.0023 193.964 52.6343 194.283C52.2664 194.589 51.8371 194.828 51.3466 195C50.856 195.172 50.3102 195.258 49.7093 195.258C49.0715 195.258 48.4645 195.153 47.888 194.945C47.3239 194.736 46.8272 194.436 46.3979 194.043C45.9687 193.639 45.6253 193.148 45.3677 192.572C45.1224 191.995 44.9998 191.333 44.9998 190.585V190.364C44.9998 189.628 45.1224 188.966 45.3677 188.377C45.6253 187.789 45.9687 187.292 46.3979 186.887C46.8272 186.482 47.3239 186.17 47.888 185.949C48.4645 185.728 49.0715 185.618 49.7093 185.618C50.2857 185.618 50.8192 185.704 51.3098 185.875C51.8004 186.047 52.2296 186.292 52.5975 186.611C52.9777 186.918 53.2843 187.286 53.5174 187.715C53.7626 188.144 53.9282 188.61 54.0141 189.113L52.5791 189.444C52.5423 189.125 52.4504 188.819 52.3032 188.524C52.1683 188.218 51.9782 187.954 51.7329 187.733C51.4999 187.5 51.2117 187.316 50.8683 187.181C50.5249 187.047 50.1263 186.979 49.6725 186.979C49.231 186.979 48.814 187.065 48.4215 187.237C48.0413 187.396 47.7041 187.629 47.4097 187.936C47.1154 188.23 46.8824 188.586 46.7107 189.003C46.5512 189.42 46.4715 189.874 46.4715 190.364V190.585C46.4715 191.1 46.5512 191.566 46.7107 191.983C46.8824 192.388 47.1154 192.731 47.4097 193.013C47.7041 193.295 48.0475 193.516 48.4399 193.675C48.8324 193.823 49.2555 193.896 49.7093 193.896C50.1631 193.896 50.5555 193.829 50.8867 193.694C51.2301 193.547 51.5183 193.363 51.7513 193.142C51.9966 192.909 52.1867 192.645 52.3216 192.351C52.4688 192.057 52.5669 191.75 52.6159 191.431L54.0509 191.762ZM57.8277 190.879C57.8645 191.787 58.1466 192.516 58.674 193.068C59.2014 193.62 59.9372 193.896 60.8816 193.896C61.3108 193.896 61.6849 193.847 62.0038 193.749C62.3226 193.651 62.5924 193.516 62.8132 193.344C63.0462 193.173 63.2302 192.976 63.3651 192.756C63.5123 192.523 63.6288 192.277 63.7146 192.02L65.076 192.388C64.8184 193.234 64.3401 193.927 63.641 194.467C62.9542 194.994 62.0222 195.258 60.8448 195.258C60.1948 195.258 59.5938 195.147 59.0419 194.926C58.5023 194.693 58.0362 194.368 57.6438 193.951C57.2513 193.534 56.9447 193.038 56.724 192.461C56.5032 191.885 56.3928 191.247 56.3928 190.548V190.107C56.3928 189.469 56.5032 188.874 56.724 188.322C56.957 187.77 57.2759 187.298 57.6806 186.906C58.0853 186.501 58.5575 186.188 59.0971 185.967C59.649 185.734 60.2438 185.618 60.8816 185.618C61.6297 185.618 62.2736 185.759 62.8132 186.041C63.3651 186.311 63.8127 186.648 64.1561 187.053C64.5118 187.457 64.7694 187.899 64.9288 188.377C65.1005 188.856 65.1864 189.297 65.1864 189.702V190.879H57.8277ZM60.8816 186.979C60.4768 186.979 60.0967 187.047 59.741 187.181C59.3976 187.304 59.091 187.482 58.8212 187.715C58.5636 187.948 58.349 188.224 58.1773 188.543C58.0178 188.849 57.9136 189.187 57.8645 189.555H63.7514C63.7269 189.162 63.6288 188.807 63.4571 188.488C63.2976 188.169 63.083 187.899 62.8132 187.678C62.5557 187.457 62.2552 187.286 61.9118 187.163C61.5806 187.04 61.2372 186.979 60.8816 186.979ZM70.8765 183.153C70.8765 182.797 70.9991 182.497 71.2444 182.251C71.502 181.994 71.8086 181.865 72.1642 181.865C72.5199 181.865 72.8204 181.994 73.0657 182.251C73.3232 182.497 73.452 182.797 73.452 183.153C73.452 183.508 73.3232 183.815 73.0657 184.072C72.8204 184.318 72.5199 184.44 72.1642 184.44C71.8086 184.44 71.502 184.318 71.2444 184.072C70.9991 183.815 70.8765 183.508 70.8765 183.153ZM68.2642 193.675H71.4652V187.2H68.5953V185.875H72.9001V193.675H75.8803V195H68.2642V193.675ZM84.7347 195H81.9016L78.719 185.875H80.4115L83.2077 194.338H83.4285L86.2248 185.875H87.9173L84.7347 195ZM91.6206 190.879C91.6573 191.787 91.9394 192.516 92.4668 193.068C92.9942 193.62 93.73 193.896 94.6744 193.896C95.1036 193.896 95.4777 193.847 95.7966 193.749C96.1154 193.651 96.3853 193.516 96.606 193.344C96.839 193.173 97.023 192.976 97.1579 192.756C97.3051 192.523 97.4216 192.277 97.5074 192.02L98.8688 192.388C98.6112 193.234 98.1329 193.927 97.4339 194.467C96.7471 194.994 95.815 195.258 94.6376 195.258C93.9876 195.258 93.3866 195.147 92.8347 194.926C92.2951 194.693 91.829 194.368 91.4366 193.951C91.0441 193.534 90.7375 193.038 90.5168 192.461C90.296 191.885 90.1856 191.247 90.1856 190.548V190.107C90.1856 189.469 90.296 188.874 90.5168 188.322C90.7498 187.77 91.0687 187.298 91.4734 186.906C91.8781 186.501 92.3503 186.188 92.8899 185.967C93.4418 185.734 94.0366 185.618 94.6744 185.618C95.4225 185.618 96.0664 185.759 96.606 186.041C97.1579 186.311 97.6056 186.648 97.949 187.053C98.3046 187.457 98.5622 187.899 98.7216 188.377C98.8933 188.856 98.9792 189.297 98.9792 189.702V190.879H91.6206ZM94.6744 186.979C94.2697 186.979 93.8895 187.047 93.5338 187.181C93.1904 187.304 92.8838 187.482 92.614 187.715C92.3564 187.948 92.1418 188.224 91.9701 188.543C91.8107 188.849 91.7064 189.187 91.6573 189.555H97.5442C97.5197 189.162 97.4216 188.807 97.2499 188.488C97.0905 188.169 96.8758 187.899 96.606 187.678C96.3485 187.457 96.048 187.286 95.7046 187.163C95.3734 187.04 95.03 186.979 94.6744 186.979ZM119.723 193.455H119.502C119.208 194.068 118.797 194.522 118.27 194.816C117.755 195.11 117.209 195.258 116.633 195.258C116.032 195.258 115.474 195.159 114.959 194.963C114.443 194.755 113.99 194.454 113.597 194.062C113.217 193.657 112.917 193.166 112.696 192.59C112.475 192.014 112.365 191.345 112.365 190.585V190.29C112.365 189.542 112.475 188.88 112.696 188.304C112.917 187.727 113.217 187.243 113.597 186.85C113.99 186.446 114.443 186.139 114.959 185.931C115.474 185.722 116.019 185.618 116.596 185.618C117.221 185.618 117.785 185.759 118.288 186.041C118.803 186.311 119.208 186.734 119.502 187.31H119.723V185.875H121.158V193.124C121.158 193.491 121.324 193.675 121.655 193.675H122.115V195H121.14C120.723 195 120.379 194.865 120.11 194.595C119.852 194.325 119.723 193.982 119.723 193.565V193.455ZM116.78 193.896C117.209 193.896 117.602 193.816 117.957 193.657C118.325 193.498 118.638 193.271 118.895 192.976C119.153 192.682 119.355 192.333 119.502 191.928C119.65 191.511 119.723 191.051 119.723 190.548V190.327C119.723 189.837 119.65 189.389 119.502 188.984C119.355 188.567 119.147 188.212 118.877 187.917C118.619 187.623 118.307 187.396 117.939 187.237C117.583 187.065 117.197 186.979 116.78 186.979C116.351 186.979 115.958 187.059 115.602 187.218C115.247 187.378 114.934 187.605 114.664 187.899C114.407 188.181 114.204 188.531 114.057 188.948C113.91 189.352 113.836 189.8 113.836 190.29V190.585C113.836 191.627 114.106 192.443 114.646 193.032C115.198 193.608 115.909 193.896 116.78 193.896ZM137.524 188.23C137.524 188.672 137.708 189.009 138.076 189.242C138.456 189.475 139.143 189.628 140.136 189.702C141.203 189.788 142.013 190.045 142.565 190.474C143.129 190.891 143.411 191.505 143.411 192.314V192.424C143.411 192.866 143.319 193.265 143.135 193.62C142.963 193.964 142.718 194.258 142.399 194.503C142.092 194.749 141.712 194.933 141.258 195.055C140.817 195.19 140.332 195.258 139.805 195.258C139.094 195.258 138.48 195.166 137.965 194.982C137.463 194.785 137.039 194.534 136.696 194.227C136.365 193.908 136.113 193.553 135.942 193.16C135.77 192.756 135.672 192.351 135.647 191.946L137.009 191.615C137.07 192.314 137.34 192.878 137.818 193.308C138.297 193.725 138.934 193.933 139.731 193.933C140.406 193.933 140.946 193.804 141.35 193.547C141.767 193.277 141.976 192.903 141.976 192.424C141.976 191.909 141.773 191.541 141.369 191.321C140.964 191.1 140.308 190.959 139.4 190.898C138.346 190.824 137.536 190.579 136.972 190.162C136.408 189.745 136.126 189.138 136.126 188.34V188.23C136.126 187.801 136.218 187.427 136.402 187.108C136.586 186.777 136.831 186.501 137.138 186.28C137.456 186.059 137.812 185.894 138.205 185.783C138.597 185.673 139.008 185.618 139.437 185.618C140.038 185.618 140.565 185.704 141.019 185.875C141.473 186.035 141.853 186.249 142.16 186.519C142.466 186.777 142.699 187.077 142.859 187.421C143.031 187.764 143.141 188.107 143.19 188.451L141.829 188.782C141.767 188.193 141.528 187.733 141.111 187.402C140.706 187.071 140.173 186.906 139.511 186.906C139.253 186.906 139.002 186.936 138.756 186.998C138.523 187.047 138.315 187.126 138.131 187.237C137.947 187.347 137.8 187.488 137.689 187.66C137.579 187.819 137.524 188.009 137.524 188.23ZM149.726 183.153C149.726 182.797 149.849 182.497 150.094 182.251C150.352 181.994 150.658 181.865 151.014 181.865C151.37 181.865 151.67 181.994 151.916 182.251C152.173 182.497 152.302 182.797 152.302 183.153C152.302 183.508 152.173 183.815 151.916 184.072C151.67 184.318 151.37 184.44 151.014 184.44C150.658 184.44 150.352 184.318 150.094 184.072C149.849 183.815 149.726 183.508 149.726 183.153ZM147.114 193.675H150.315V187.2H147.445V185.875H151.75V193.675H154.73V195H147.114V193.675ZM165.093 193.602H164.872C164.578 194.154 164.173 194.571 163.658 194.853C163.155 195.123 162.603 195.258 162.002 195.258C161.389 195.258 160.813 195.153 160.273 194.945C159.734 194.736 159.255 194.436 158.838 194.043C158.434 193.651 158.109 193.166 157.863 192.59C157.63 192.001 157.514 191.333 157.514 190.585V190.29C157.514 189.555 157.636 188.898 157.882 188.322C158.127 187.733 158.452 187.243 158.857 186.85C159.261 186.446 159.734 186.139 160.273 185.931C160.813 185.722 161.377 185.618 161.966 185.618C162.628 185.618 163.204 185.765 163.695 186.059C164.198 186.341 164.59 186.758 164.872 187.31H165.093V185.875H166.528V197.244C166.528 197.661 166.393 198.005 166.123 198.275C165.866 198.544 165.528 198.679 165.111 198.679H159.169V197.355H164.596C164.927 197.355 165.093 197.171 165.093 196.803V193.602ZM162.039 193.896C162.468 193.896 162.867 193.816 163.235 193.657C163.603 193.498 163.922 193.271 164.192 192.976C164.474 192.682 164.694 192.333 164.854 191.928C165.013 191.511 165.093 191.051 165.093 190.548V190.327C165.093 189.837 165.013 189.389 164.854 188.984C164.694 188.567 164.474 188.212 164.192 187.917C163.922 187.623 163.597 187.396 163.217 187.237C162.849 187.065 162.456 186.979 162.039 186.979C161.61 186.979 161.205 187.059 160.825 187.218C160.457 187.378 160.132 187.605 159.85 187.899C159.58 188.193 159.366 188.543 159.206 188.948C159.059 189.352 158.985 189.8 158.985 190.29V190.585C158.985 191.1 159.059 191.56 159.206 191.965C159.366 192.369 159.58 192.719 159.85 193.013C160.132 193.295 160.457 193.516 160.825 193.675C161.193 193.823 161.598 193.896 162.039 193.896ZM170.857 195H169.422V185.875H170.857V187.421H171.078C171.642 186.219 172.623 185.618 174.021 185.618C175.076 185.618 175.916 185.949 176.541 186.611C177.167 187.261 177.48 188.242 177.48 189.555V195H176.045V189.849C176.045 188.892 175.83 188.175 175.401 187.697C174.971 187.218 174.389 186.979 173.653 186.979C172.782 186.979 172.095 187.28 171.593 187.881C171.102 188.469 170.857 189.26 170.857 190.254V195ZM181.735 190.879C181.772 191.787 182.054 192.516 182.581 193.068C183.108 193.62 183.844 193.896 184.789 193.896C185.218 193.896 185.592 193.847 185.911 193.749C186.23 193.651 186.499 193.516 186.72 193.344C186.953 193.173 187.137 192.976 187.272 192.756C187.419 192.523 187.536 192.277 187.622 192.02L188.983 192.388C188.725 193.234 188.247 193.927 187.548 194.467C186.861 194.994 185.929 195.258 184.752 195.258C184.102 195.258 183.501 195.147 182.949 194.926C182.409 194.693 181.943 194.368 181.551 193.951C181.158 193.534 180.852 193.038 180.631 192.461C180.41 191.885 180.3 191.247 180.3 190.548V190.107C180.3 189.469 180.41 188.874 180.631 188.322C180.864 187.77 181.183 187.298 181.588 186.906C181.992 186.501 182.464 186.188 183.004 185.967C183.556 185.734 184.151 185.618 184.789 185.618C185.537 185.618 186.181 185.759 186.72 186.041C187.272 186.311 187.72 186.648 188.063 187.053C188.419 187.457 188.676 187.899 188.836 188.377C189.007 188.856 189.093 189.297 189.093 189.702V190.879H181.735ZM184.789 186.979C184.384 186.979 184.004 187.047 183.648 187.181C183.305 187.304 182.998 187.482 182.728 187.715C182.471 187.948 182.256 188.224 182.084 188.543C181.925 188.849 181.821 189.187 181.772 189.555H187.658C187.634 189.162 187.536 188.807 187.364 188.488C187.205 188.169 186.99 187.899 186.72 187.678C186.463 187.457 186.162 187.286 185.819 187.163C185.488 187.04 185.144 186.979 184.789 186.979ZM199.015 193.602H198.794C198.647 193.884 198.457 194.129 198.224 194.338C198.003 194.546 197.758 194.718 197.488 194.853C197.23 194.988 196.954 195.086 196.66 195.147C196.366 195.221 196.083 195.258 195.814 195.258C195.2 195.258 194.63 195.153 194.103 194.945C193.575 194.736 193.109 194.436 192.705 194.043C192.312 193.651 191.999 193.166 191.766 192.59C191.546 192.001 191.435 191.333 191.435 190.585V190.29C191.435 189.555 191.552 188.898 191.785 188.322C192.018 187.733 192.331 187.243 192.723 186.85C193.115 186.446 193.575 186.139 194.103 185.931C194.63 185.722 195.188 185.618 195.777 185.618C196.402 185.618 196.985 185.759 197.525 186.041C198.076 186.311 198.5 186.734 198.794 187.31H199.015V182.122H200.45V195H199.015V193.602ZM195.961 193.896C196.39 193.896 196.789 193.816 197.157 193.657C197.525 193.498 197.843 193.271 198.113 192.976C198.395 192.682 198.616 192.333 198.775 191.928C198.935 191.511 199.015 191.051 199.015 190.548V190.327C199.015 189.837 198.935 189.389 198.775 188.984C198.616 188.567 198.395 188.212 198.113 187.917C197.843 187.623 197.518 187.396 197.138 187.237C196.77 187.065 196.378 186.979 195.961 186.979C195.532 186.979 195.127 187.059 194.747 187.218C194.379 187.378 194.054 187.605 193.772 187.899C193.502 188.193 193.287 188.543 193.128 188.948C192.981 189.352 192.907 189.8 192.907 190.29V190.585C192.907 191.1 192.981 191.56 193.128 191.965C193.287 192.369 193.502 192.719 193.772 193.013C194.054 193.295 194.379 193.516 194.747 193.675C195.115 193.823 195.519 193.896 195.961 193.896ZM52.5791 219.602H52.3584C52.2112 219.884 52.0211 220.129 51.7881 220.338C51.5673 220.546 51.322 220.718 51.0522 220.853C50.7947 220.988 50.5187 221.086 50.2244 221.147C49.93 221.221 49.648 221.258 49.3781 221.258C48.7649 221.258 48.1946 221.153 47.6673 220.945C47.1399 220.736 46.6739 220.436 46.2691 220.043C45.8767 219.651 45.5639 219.166 45.3309 218.59C45.1102 218.001 44.9998 217.333 44.9998 216.585V216.29C44.9998 215.555 45.1163 214.898 45.3493 214.322C45.5823 213.733 45.8951 213.243 46.2875 212.85C46.68 212.446 47.1399 212.139 47.6673 211.931C48.1946 211.722 48.7527 211.618 49.3414 211.618C49.9668 211.618 50.5494 211.759 51.089 212.041C51.6409 212.311 52.064 212.734 52.3584 213.31H52.5791V208.122H54.0141V221H52.5791V219.602ZM49.5253 219.896C49.9546 219.896 50.3532 219.816 50.7211 219.657C51.089 219.498 51.4079 219.271 51.6777 218.976C51.9598 218.682 52.1805 218.333 52.34 217.928C52.4994 217.511 52.5791 217.051 52.5791 216.548V216.327C52.5791 215.837 52.4994 215.389 52.34 214.984C52.1805 214.567 51.9598 214.212 51.6777 213.917C51.4079 213.623 51.0829 213.396 50.7027 213.237C50.3348 213.065 49.9423 212.979 49.5253 212.979C49.0961 212.979 48.6913 213.059 48.3111 213.218C47.9432 213.378 47.6182 213.605 47.3361 213.899C47.0663 214.193 46.8517 214.543 46.6923 214.948C46.5451 215.352 46.4715 215.8 46.4715 216.29V216.585C46.4715 217.1 46.5451 217.56 46.6923 217.965C46.8517 218.369 47.0663 218.719 47.3361 219.013C47.6182 219.295 47.9432 219.516 48.3111 219.675C48.6791 219.823 49.0838 219.896 49.5253 219.896ZM59.6122 209.153C59.6122 208.797 59.7349 208.497 59.9801 208.251C60.2377 207.994 60.5443 207.865 60.9 207.865C61.2556 207.865 61.5561 207.994 61.8014 208.251C62.0589 208.497 62.1877 208.797 62.1877 209.153C62.1877 209.508 62.0589 209.815 61.8014 210.072C61.5561 210.318 61.2556 210.44 60.9 210.44C60.5443 210.44 60.2377 210.318 59.9801 210.072C59.7349 209.815 59.6122 209.508 59.6122 209.153ZM56.9999 219.675H60.2009V213.2H57.331V211.875H61.6358V219.675H64.6161V221H56.9999V219.675ZM74.9789 219.602H74.7581C74.4638 220.154 74.0591 220.571 73.544 220.853C73.0411 221.123 72.4892 221.258 71.8883 221.258C71.2751 221.258 70.6987 221.153 70.159 220.945C69.6194 220.736 69.1411 220.436 68.7241 220.043C68.3194 219.651 67.9944 219.166 67.7491 218.59C67.5161 218.001 67.3995 217.333 67.3995 216.585V216.29C67.3995 215.555 67.5222 214.898 67.7675 214.322C68.0128 213.733 68.3378 213.243 68.7425 212.85C69.1472 212.446 69.6194 212.139 70.159 211.931C70.6987 211.722 71.2628 211.618 71.8515 211.618C72.5138 211.618 73.0902 211.765 73.5808 212.059C74.0836 212.341 74.4761 212.758 74.7581 213.31H74.9789V211.875H76.4138V223.244C76.4138 223.661 76.2789 224.005 76.0091 224.275C75.7516 224.544 75.4143 224.679 74.9973 224.679H69.0552V223.355H74.4822C74.8133 223.355 74.9789 223.171 74.9789 222.803V219.602ZM71.9251 219.896C72.3543 219.896 72.7529 219.816 73.1209 219.657C73.4888 219.498 73.8077 219.271 74.0775 218.976C74.3596 218.682 74.5803 218.333 74.7398 217.928C74.8992 217.511 74.9789 217.051 74.9789 216.548V216.327C74.9789 215.837 74.8992 215.389 74.7398 214.984C74.5803 214.567 74.3596 214.212 74.0775 213.917C73.8077 213.623 73.4827 213.396 73.1025 213.237C72.7345 213.065 72.3421 212.979 71.9251 212.979C71.4958 212.979 71.0911 213.059 70.7109 213.218C70.343 213.378 70.018 213.605 69.7359 213.899C69.4661 214.193 69.2515 214.543 69.092 214.948C68.9449 215.352 68.8713 215.8 68.8713 216.29V216.585C68.8713 217.1 68.9449 217.56 69.092 217.965C69.2515 218.369 69.4661 218.719 69.7359 219.013C70.018 219.295 70.343 219.516 70.7109 219.675C71.0788 219.823 71.4836 219.896 71.9251 219.896ZM82.1408 209.153C82.1408 208.797 82.2634 208.497 82.5087 208.251C82.7662 207.994 83.0728 207.865 83.4285 207.865C83.7842 207.865 84.0846 207.994 84.3299 208.251C84.5875 208.497 84.7163 208.797 84.7163 209.153C84.7163 209.508 84.5875 209.815 84.3299 210.072C84.0846 210.318 83.7842 210.44 83.4285 210.44C83.0728 210.44 82.7662 210.318 82.5087 210.072C82.2634 209.815 82.1408 209.508 82.1408 209.153ZM79.5284 219.675H82.7294V213.2H79.8596V211.875H84.1644V219.675H87.1446V221H79.5284V219.675ZM90.2592 211.875H93.1291V208.122H94.564V211.875H98.0961V213.2H94.564V219.124C94.564 219.491 94.7296 219.675 95.0607 219.675H97.6546V221H94.5456C94.1286 221 93.7852 220.865 93.5154 220.595C93.2579 220.325 93.1291 219.982 93.1291 219.565V213.2H90.2592V211.875ZM108.459 219.455H108.238C107.944 220.068 107.533 220.522 107.006 220.816C106.491 221.11 105.945 221.258 105.368 221.258C104.767 221.258 104.209 221.159 103.694 220.963C103.179 220.755 102.725 220.454 102.333 220.062C101.953 219.657 101.652 219.166 101.432 218.59C101.211 218.014 101.1 217.345 101.1 216.585V216.29C101.1 215.542 101.211 214.88 101.432 214.304C101.652 213.727 101.953 213.243 102.333 212.85C102.725 212.446 103.179 212.139 103.694 211.931C104.209 211.722 104.755 211.618 105.332 211.618C105.957 211.618 106.521 211.759 107.024 212.041C107.539 212.311 107.944 212.734 108.238 213.31H108.459V211.875H109.894V219.124C109.894 219.491 110.059 219.675 110.391 219.675H110.851V221H109.876C109.459 221 109.115 220.865 108.845 220.595C108.588 220.325 108.459 219.982 108.459 219.565V219.455ZM105.516 219.896C105.945 219.896 106.337 219.816 106.693 219.657C107.061 219.498 107.374 219.271 107.631 218.976C107.889 218.682 108.091 218.333 108.238 217.928C108.385 217.511 108.459 217.051 108.459 216.548V216.327C108.459 215.837 108.385 215.389 108.238 214.984C108.091 214.567 107.883 214.212 107.613 213.917C107.355 213.623 107.042 213.396 106.675 213.237C106.319 213.065 105.933 212.979 105.516 212.979C105.086 212.979 104.694 213.059 104.338 213.218C103.982 213.378 103.67 213.605 103.4 213.899C103.142 214.181 102.94 214.531 102.793 214.948C102.646 215.352 102.572 215.8 102.572 216.29V216.585C102.572 217.627 102.842 218.443 103.382 219.032C103.933 219.608 104.645 219.896 105.516 219.896ZM113.1 219.675H116.412V209.447H113.211V208.122H117.847V219.675H121.158V221H113.1V219.675ZM144.165 217.762C144.067 218.265 143.895 218.731 143.65 219.16C143.417 219.59 143.116 219.964 142.748 220.283C142.381 220.589 141.951 220.828 141.461 221C140.97 221.172 140.424 221.258 139.823 221.258C139.186 221.258 138.579 221.153 138.002 220.945C137.438 220.736 136.941 220.436 136.512 220.043C136.083 219.639 135.739 219.148 135.482 218.572C135.237 217.995 135.114 217.333 135.114 216.585V216.364C135.114 215.628 135.237 214.966 135.482 214.377C135.739 213.789 136.083 213.292 136.512 212.887C136.941 212.482 137.438 212.17 138.002 211.949C138.579 211.728 139.186 211.618 139.823 211.618C140.4 211.618 140.933 211.704 141.424 211.875C141.915 212.047 142.344 212.292 142.712 212.611C143.092 212.918 143.398 213.286 143.632 213.715C143.877 214.144 144.042 214.61 144.128 215.113L142.693 215.444C142.657 215.125 142.565 214.819 142.417 214.524C142.282 214.218 142.092 213.954 141.847 213.733C141.614 213.5 141.326 213.316 140.982 213.181C140.639 213.047 140.24 212.979 139.787 212.979C139.345 212.979 138.928 213.065 138.536 213.237C138.155 213.396 137.818 213.629 137.524 213.936C137.23 214.23 136.997 214.586 136.825 215.003C136.665 215.42 136.586 215.874 136.586 216.364V216.585C136.586 217.1 136.665 217.566 136.825 217.983C136.997 218.388 137.23 218.731 137.524 219.013C137.818 219.295 138.162 219.516 138.554 219.675C138.947 219.823 139.37 219.896 139.823 219.896C140.277 219.896 140.67 219.829 141.001 219.694C141.344 219.547 141.632 219.363 141.865 219.142C142.111 218.909 142.301 218.645 142.436 218.351C142.583 218.057 142.681 217.75 142.73 217.431L144.165 217.762ZM155.503 216.548C155.503 217.308 155.374 217.983 155.117 218.572C154.871 219.148 154.54 219.639 154.123 220.043C153.706 220.436 153.216 220.736 152.651 220.945C152.1 221.153 151.523 221.258 150.922 221.258C150.309 221.258 149.726 221.153 149.174 220.945C148.623 220.736 148.138 220.436 147.721 220.043C147.304 219.639 146.967 219.148 146.709 218.572C146.464 217.983 146.341 217.308 146.341 216.548V216.327C146.341 215.579 146.464 214.917 146.709 214.34C146.967 213.752 147.304 213.255 147.721 212.85C148.15 212.446 148.641 212.139 149.193 211.931C149.745 211.722 150.321 211.618 150.922 211.618C151.523 211.618 152.1 211.722 152.651 211.931C153.203 212.139 153.688 212.446 154.105 212.85C154.534 213.255 154.871 213.752 155.117 214.34C155.374 214.917 155.503 215.579 155.503 216.327V216.548ZM150.922 219.896C151.364 219.896 151.768 219.823 152.136 219.675C152.517 219.516 152.848 219.289 153.13 218.995C153.412 218.7 153.633 218.351 153.792 217.946C153.951 217.529 154.031 217.063 154.031 216.548V216.327C154.031 215.837 153.951 215.389 153.792 214.984C153.633 214.567 153.412 214.212 153.13 213.917C152.848 213.623 152.517 213.396 152.136 213.237C151.756 213.065 151.351 212.979 150.922 212.979C150.493 212.979 150.088 213.065 149.708 213.237C149.328 213.396 148.997 213.623 148.715 213.917C148.432 214.212 148.212 214.567 148.052 214.984C147.893 215.389 147.813 215.837 147.813 216.327V216.548C147.813 217.063 147.893 217.529 148.052 217.946C148.212 218.351 148.432 218.7 148.715 218.995C148.997 219.289 149.322 219.516 149.69 219.675C150.07 219.823 150.481 219.896 150.922 219.896ZM159.261 224.679H157.826V211.875H159.261V213.31H159.482C159.801 212.758 160.243 212.341 160.807 212.059C161.371 211.765 161.984 211.618 162.646 211.618C163.21 211.618 163.744 211.722 164.247 211.931C164.75 212.139 165.191 212.439 165.571 212.832C165.964 213.224 166.27 213.709 166.491 214.285C166.724 214.862 166.841 215.518 166.841 216.254V216.622C166.841 217.37 166.73 218.032 166.51 218.608C166.289 219.185 165.982 219.669 165.59 220.062C165.21 220.454 164.762 220.755 164.247 220.963C163.732 221.159 163.186 221.258 162.61 221.258C162.315 221.258 162.015 221.221 161.708 221.147C161.401 221.086 161.107 220.988 160.825 220.853C160.555 220.706 160.304 220.534 160.071 220.338C159.838 220.129 159.642 219.884 159.482 219.602H159.261V224.679ZM162.315 219.896C162.757 219.896 163.161 219.823 163.529 219.675C163.897 219.516 164.216 219.295 164.486 219.013C164.768 218.731 164.983 218.388 165.13 217.983C165.289 217.578 165.369 217.124 165.369 216.622V216.254C165.369 215.763 165.289 215.322 165.13 214.929C164.983 214.524 164.768 214.181 164.486 213.899C164.216 213.605 163.891 213.378 163.511 213.218C163.143 213.059 162.744 212.979 162.315 212.979C161.886 212.979 161.487 213.065 161.119 213.237C160.751 213.396 160.426 213.623 160.144 213.917C159.875 214.212 159.66 214.567 159.501 214.984C159.341 215.389 159.261 215.837 159.261 216.327V216.548C159.261 217.051 159.341 217.511 159.501 217.928C159.66 218.333 159.875 218.682 160.144 218.976C160.426 219.271 160.751 219.498 161.119 219.657C161.487 219.816 161.886 219.896 162.315 219.896ZM176.045 219.344H175.824C175.529 219.933 175.143 220.399 174.665 220.742C174.187 221.086 173.579 221.258 172.844 221.258C172.341 221.258 171.875 221.172 171.445 221C171.028 220.841 170.667 220.595 170.36 220.264C170.066 219.933 169.833 219.522 169.661 219.032C169.502 218.541 169.422 217.971 169.422 217.321V211.875H170.857V217.137C170.857 218.093 171.053 218.792 171.445 219.234C171.838 219.675 172.439 219.896 173.248 219.896C174.119 219.896 174.8 219.602 175.29 219.013C175.793 218.412 176.045 217.615 176.045 216.622V211.875H177.48V223.244C177.48 223.661 177.345 224.005 177.075 224.275C176.817 224.544 176.48 224.679 176.063 224.679H170.857V223.355H175.548C175.879 223.355 176.045 223.171 176.045 222.803V219.344Z" fill="#207191"/>
<path d="M124.188 62.875V75.0625L116.873 69.8393L109.562 75.0625V62.875" stroke="#5A6996" stroke-width="2.4375" stroke-linecap="round" stroke-linejoin="round"/>
<path d="M133.938 90.9062V62.875H92.5C90.5606 62.875 88.7006 63.6454 87.3293 65.0168C85.9579 66.3881 85.1875 68.2481 85.1875 70.1875V118.938C85.1875 116.998 85.9579 115.138 87.3293 113.767C88.7006 112.395 90.5606 111.625 92.5 111.625H113.219" stroke="#5A6996" stroke-width="2.4375" stroke-linecap="round" stroke-linejoin="round"/>
<path d="M85.1875 118.938V121.375H109.561" stroke="#5A6996" stroke-width="2.4375" stroke-linecap="round" stroke-linejoin="round"/>
<path d="M127.539 107.969V99.0566C127.539 98.1475 127.9 97.2757 128.543 96.6329C129.186 95.99 130.058 95.6289 130.967 95.6289C131.876 95.6289 132.748 95.99 133.391 96.6329C134.033 97.2757 134.395 98.1475 134.395 99.0566V112.768" stroke="#00CFFF" stroke-width="2.4375" stroke-linecap="round" stroke-linejoin="round"/>
<path d="M120.684 109.34V96.3145C120.684 95.4054 121.045 94.5335 121.688 93.8907C122.33 93.2479 123.202 92.8867 124.111 92.8867C125.02 92.8867 125.892 93.2479 126.535 93.8907C127.178 94.5335 127.539 95.4054 127.539 96.3145V107.969" stroke="#00CFFF" stroke-width="2.4375" stroke-linecap="round" stroke-linejoin="round"/>
<path d="M127.539 119.623C127.539 117.805 128.261 116.061 129.547 114.775C130.833 113.49 132.576 112.768 134.395 112.768V109.34C134.395 108.431 134.756 107.559 135.398 106.916C136.041 106.273 136.913 105.912 137.822 105.912C138.731 105.912 139.603 106.273 140.246 106.916C140.889 107.559 141.25 108.431 141.25 109.34V116.195C141.25 119.832 139.805 123.319 137.234 125.89C134.663 128.462 131.175 129.906 127.539 129.906C123.903 129.906 120.415 128.462 117.844 125.89C115.273 123.319 113.828 119.832 113.828 116.195V101.799C113.828 100.89 114.189 100.018 114.832 99.3751C115.475 98.7322 116.347 98.3711 117.256 98.3711C118.165 98.3711 119.037 98.7322 119.68 99.3751C120.322 100.018 120.684 100.89 120.684 101.799V109.34" stroke="#00CFFF" stroke-width="2.4375" stroke-linecap="round" stroke-linejoin="round"/>
</svg>
