<svg width="222" height="267" viewBox="0 0 222 267" fill="none" xmlns="http://www.w3.org/2000/svg">
<rect x="0.5" y="0.5" width="221" height="266" rx="2.88371" fill="#E6FFF9" stroke="#00C7F5"/>
<path d="M38.8462 182.122H41.7897L43.519 194.338H43.7397L45.469 182.122H48.4124V195H46.9775V182.785H46.7567L45.0275 195H42.2312L40.5019 182.785H40.2812V195H38.8462V182.122ZM57.4875 193.455H57.2668C56.9724 194.068 56.5616 194.522 56.0342 194.816C55.5191 195.11 54.9733 195.258 54.3969 195.258C53.7959 195.258 53.2379 195.159 52.7228 194.963C52.2077 194.755 51.7539 194.454 51.3615 194.062C50.9813 193.657 50.6808 193.166 50.46 192.59C50.2393 192.014 50.1289 191.345 50.1289 190.585V190.29C50.1289 189.542 50.2393 188.88 50.46 188.304C50.6808 187.727 50.9813 187.243 51.3615 186.85C51.7539 186.446 52.2077 186.139 52.7228 185.931C53.2379 185.722 53.7837 185.618 54.3601 185.618C54.9856 185.618 55.5497 185.759 56.0526 186.041C56.5677 186.311 56.9724 186.734 57.2668 187.31H57.4875V185.875H58.9224V193.124C58.9224 193.491 59.088 193.675 59.4191 193.675H59.8791V195H58.904C58.4871 195 58.1437 194.865 57.8738 194.595C57.6163 194.325 57.4875 193.982 57.4875 193.565V193.455ZM54.5441 193.896C54.9733 193.896 55.3658 193.816 55.7214 193.657C56.0894 193.498 56.4021 193.271 56.6597 192.976C56.9172 192.682 57.1196 192.333 57.2668 191.928C57.4139 191.511 57.4875 191.051 57.4875 190.548V190.327C57.4875 189.837 57.4139 189.389 57.2668 188.984C57.1196 188.567 56.9111 188.212 56.6413 187.917C56.3837 187.623 56.071 187.396 55.703 187.237C55.3474 187.065 54.9611 186.979 54.5441 186.979C54.1148 186.979 53.7224 187.059 53.3667 187.218C53.011 187.378 52.6983 187.605 52.4285 187.899C52.1709 188.181 51.9686 188.531 51.8214 188.948C51.6742 189.352 51.6006 189.8 51.6006 190.29V190.585C51.6006 191.627 51.8704 192.443 52.4101 193.032C52.962 193.608 53.6733 193.896 54.5441 193.896ZM64.4838 189.665H64.7965L68.2735 185.875H70.0395V185.986L66.2499 190.162V190.493L70.4811 194.89V195H68.715L64.8333 190.99H64.4838V195H63.0489V182.122H64.4838V189.665ZM74.4419 190.879C74.4787 191.787 74.7608 192.516 75.2881 193.068C75.8155 193.62 76.5514 193.896 77.4957 193.896C77.925 193.896 78.299 193.847 78.6179 193.749C78.9368 193.651 79.2066 193.516 79.4274 193.344C79.6604 193.173 79.8443 192.976 79.9793 192.756C80.1264 192.523 80.2429 192.277 80.3288 192.02L81.6901 192.388C81.4326 193.234 80.9543 193.927 80.2552 194.467C79.5684 194.994 78.6363 195.258 77.4589 195.258C76.8089 195.258 76.208 195.147 75.6561 194.926C75.1164 194.693 74.6504 194.368 74.2579 193.951C73.8655 193.534 73.5589 193.038 73.3381 192.461C73.1174 191.885 73.007 191.247 73.007 190.548V190.107C73.007 189.469 73.1174 188.874 73.3381 188.322C73.5711 187.77 73.89 187.298 74.2947 186.906C74.6995 186.501 75.1716 186.188 75.7113 185.967C76.2632 185.734 76.858 185.618 77.4957 185.618C78.2439 185.618 78.8877 185.759 79.4274 186.041C79.9793 186.311 80.4269 186.648 80.7703 187.053C81.126 187.457 81.3835 187.899 81.543 188.377C81.7147 188.856 81.8005 189.297 81.8005 189.702V190.879H74.4419ZM77.4957 186.979C77.091 186.979 76.7108 187.047 76.3551 187.181C76.0117 187.304 75.7051 187.482 75.4353 187.715C75.1778 187.948 74.9631 188.224 74.7914 188.543C74.632 188.849 74.5278 189.187 74.4787 189.555H80.3656C80.3411 189.162 80.2429 188.807 80.0712 188.488C79.9118 188.169 79.6972 187.899 79.4274 187.678C79.1698 187.457 78.8693 187.286 78.5259 187.163C78.1948 187.04 77.8514 186.979 77.4957 186.979ZM102.545 193.455H102.324C102.029 194.068 101.619 194.522 101.091 194.816C100.576 195.11 100.03 195.258 99.454 195.258C98.853 195.258 98.295 195.159 97.7799 194.963C97.2648 194.755 96.811 194.454 96.4186 194.062C96.0384 193.657 95.7379 193.166 95.5171 192.59C95.2964 192.014 95.186 191.345 95.186 190.585V190.29C95.186 189.542 95.2964 188.88 95.5171 188.304C95.7379 187.727 96.0384 187.243 96.4186 186.85C96.811 186.446 97.2648 186.139 97.7799 185.931C98.295 185.722 98.8408 185.618 99.4172 185.618C100.043 185.618 100.607 185.759 101.11 186.041C101.625 186.311 102.029 186.734 102.324 187.31H102.545V185.875H103.98V193.124C103.98 193.491 104.145 193.675 104.476 193.675H104.936V195H103.961C103.544 195 103.201 194.865 102.931 194.595C102.673 194.325 102.545 193.982 102.545 193.565V193.455ZM99.6011 193.896C100.03 193.896 100.423 193.816 100.779 193.657C101.146 193.498 101.459 193.271 101.717 192.976C101.974 192.682 102.177 192.333 102.324 191.928C102.471 191.511 102.545 191.051 102.545 190.548V190.327C102.545 189.837 102.471 189.389 102.324 188.984C102.177 188.567 101.968 188.212 101.698 187.917C101.441 187.623 101.128 187.396 100.76 187.237C100.404 187.065 100.018 186.979 99.6011 186.979C99.1719 186.979 98.7794 187.059 98.4238 187.218C98.0681 187.378 97.7554 187.605 97.4856 187.899C97.228 188.181 97.0256 188.531 96.8785 188.948C96.7313 189.352 96.6577 189.8 96.6577 190.29V190.585C96.6577 191.627 96.9275 192.443 97.4672 193.032C98.019 193.608 98.7304 193.896 99.6011 193.896ZM119.554 198.679H118.119V185.875H119.554V187.31H119.775C120.094 186.758 120.535 186.341 121.099 186.059C121.664 185.765 122.277 185.618 122.939 185.618C123.503 185.618 124.037 185.722 124.54 185.931C125.042 186.139 125.484 186.439 125.864 186.832C126.257 187.224 126.563 187.709 126.784 188.285C127.017 188.862 127.134 189.518 127.134 190.254V190.622C127.134 191.37 127.023 192.032 126.802 192.608C126.582 193.185 126.275 193.669 125.883 194.062C125.502 194.454 125.055 194.755 124.54 194.963C124.025 195.159 123.479 195.258 122.902 195.258C122.608 195.258 122.308 195.221 122.001 195.147C121.694 195.086 121.4 194.988 121.118 194.853C120.848 194.706 120.597 194.534 120.364 194.338C120.131 194.129 119.934 193.884 119.775 193.602H119.554V198.679ZM122.608 193.896C123.05 193.896 123.454 193.823 123.822 193.675C124.19 193.516 124.509 193.295 124.779 193.013C125.061 192.731 125.275 192.388 125.423 191.983C125.582 191.578 125.662 191.124 125.662 190.622V190.254C125.662 189.763 125.582 189.322 125.423 188.929C125.275 188.524 125.061 188.181 124.779 187.899C124.509 187.605 124.184 187.378 123.804 187.218C123.436 187.059 123.037 186.979 122.608 186.979C122.179 186.979 121.78 187.065 121.412 187.237C121.044 187.396 120.719 187.623 120.437 187.917C120.167 188.212 119.953 188.567 119.793 188.984C119.634 189.389 119.554 189.837 119.554 190.327V190.548C119.554 191.051 119.634 191.511 119.793 191.928C119.953 192.333 120.167 192.682 120.437 192.976C120.719 193.271 121.044 193.498 121.412 193.657C121.78 193.816 122.179 193.896 122.608 193.896ZM129.715 193.675H133.026V183.447H129.825V182.122H134.461V193.675H137.772V195H129.715V193.675ZM142.028 190.879C142.064 191.787 142.346 192.516 142.874 193.068C143.401 193.62 144.137 193.896 145.081 193.896C145.511 193.896 145.885 193.847 146.204 193.749C146.522 193.651 146.792 193.516 147.013 193.344C147.246 193.173 147.43 192.976 147.565 192.756C147.712 192.523 147.829 192.277 147.914 192.02L149.276 192.388C149.018 193.234 148.54 193.927 147.841 194.467C147.154 194.994 146.222 195.258 145.045 195.258C144.395 195.258 143.794 195.147 143.242 194.926C142.702 194.693 142.236 194.368 141.844 193.951C141.451 193.534 141.144 193.038 140.924 192.461C140.703 191.885 140.593 191.247 140.593 190.548V190.107C140.593 189.469 140.703 188.874 140.924 188.322C141.157 187.77 141.476 187.298 141.88 186.906C142.285 186.501 142.757 186.188 143.297 185.967C143.849 185.734 144.444 185.618 145.081 185.618C145.829 185.618 146.473 185.759 147.013 186.041C147.565 186.311 148.013 186.648 148.356 187.053C148.712 187.457 148.969 187.899 149.129 188.377C149.3 188.856 149.386 189.297 149.386 189.702V190.879H142.028ZM145.081 186.979C144.677 186.979 144.296 187.047 143.941 187.181C143.597 187.304 143.291 187.482 143.021 187.715C142.763 187.948 142.549 188.224 142.377 188.543C142.218 188.849 142.113 189.187 142.064 189.555H147.951C147.927 189.162 147.829 188.807 147.657 188.488C147.497 188.169 147.283 187.899 147.013 187.678C146.755 187.457 146.455 187.286 146.112 187.163C145.78 187.04 145.437 186.979 145.081 186.979ZM159.307 193.602H159.087C158.94 193.884 158.749 194.129 158.516 194.338C158.296 194.546 158.05 194.718 157.781 194.853C157.523 194.988 157.247 195.086 156.953 195.147C156.658 195.221 156.376 195.258 156.106 195.258C155.493 195.258 154.923 195.153 154.396 194.945C153.868 194.736 153.402 194.436 152.997 194.043C152.605 193.651 152.292 193.166 152.059 192.59C151.838 192.001 151.728 191.333 151.728 190.585V190.29C151.728 189.555 151.845 188.898 152.078 188.322C152.311 187.733 152.623 187.243 153.016 186.85C153.408 186.446 153.868 186.139 154.396 185.931C154.923 185.722 155.481 185.618 156.07 185.618C156.695 185.618 157.278 185.759 157.817 186.041C158.369 186.311 158.792 186.734 159.087 187.31H159.307V182.122H160.742V195H159.307V193.602ZM156.254 193.896C156.683 193.896 157.081 193.816 157.449 193.657C157.817 193.498 158.136 193.271 158.406 192.976C158.688 192.682 158.909 192.333 159.068 191.928C159.228 191.511 159.307 191.051 159.307 190.548V190.327C159.307 189.837 159.228 189.389 159.068 188.984C158.909 188.567 158.688 188.212 158.406 187.917C158.136 187.623 157.811 187.396 157.431 187.237C157.063 187.065 156.671 186.979 156.254 186.979C155.824 186.979 155.42 187.059 155.039 187.218C154.672 187.378 154.347 187.605 154.064 187.899C153.795 188.193 153.58 188.543 153.421 188.948C153.273 189.352 153.2 189.8 153.2 190.29V190.585C153.2 191.1 153.273 191.56 153.421 191.965C153.58 192.369 153.795 192.719 154.064 193.013C154.347 193.295 154.672 193.516 155.039 193.675C155.407 193.823 155.812 193.896 156.254 193.896ZM170.443 193.602H170.222C169.928 194.154 169.523 194.571 169.008 194.853C168.505 195.123 167.953 195.258 167.352 195.258C166.739 195.258 166.163 195.153 165.623 194.945C165.083 194.736 164.605 194.436 164.188 194.043C163.783 193.651 163.458 193.166 163.213 192.59C162.98 192.001 162.864 191.333 162.864 190.585V190.29C162.864 189.555 162.986 188.898 163.232 188.322C163.477 187.733 163.802 187.243 164.207 186.85C164.611 186.446 165.083 186.139 165.623 185.931C166.163 185.722 166.727 185.618 167.316 185.618C167.978 185.618 168.554 185.765 169.045 186.059C169.548 186.341 169.94 186.758 170.222 187.31H170.443V185.875H171.878V197.244C171.878 197.661 171.743 198.005 171.473 198.275C171.216 198.544 170.878 198.679 170.461 198.679H164.519V197.355H169.946C170.277 197.355 170.443 197.171 170.443 196.803V193.602ZM167.389 193.896C167.818 193.896 168.217 193.816 168.585 193.657C168.953 193.498 169.272 193.271 169.542 192.976C169.824 192.682 170.044 192.333 170.204 191.928C170.363 191.511 170.443 191.051 170.443 190.548V190.327C170.443 189.837 170.363 189.389 170.204 188.984C170.044 188.567 169.824 188.212 169.542 187.917C169.272 187.623 168.947 187.396 168.567 187.237C168.199 187.065 167.806 186.979 167.389 186.979C166.96 186.979 166.555 187.059 166.175 187.218C165.807 187.378 165.482 187.605 165.2 187.899C164.93 188.193 164.716 188.543 164.556 188.948C164.409 189.352 164.335 189.8 164.335 190.29V190.585C164.335 191.1 164.409 191.56 164.556 191.965C164.716 192.369 164.93 192.719 165.2 193.013C165.482 193.295 165.807 193.516 166.175 193.675C166.543 193.823 166.948 193.896 167.389 193.896ZM175.82 190.879C175.857 191.787 176.139 192.516 176.667 193.068C177.194 193.62 177.93 193.896 178.874 193.896C179.303 193.896 179.677 193.847 179.996 193.749C180.315 193.651 180.585 193.516 180.806 193.344C181.039 193.173 181.223 192.976 181.358 192.756C181.505 192.523 181.621 192.277 181.707 192.02L183.069 192.388C182.811 193.234 182.333 193.927 181.634 194.467C180.947 194.994 180.015 195.258 178.837 195.258C178.187 195.258 177.586 195.147 177.035 194.926C176.495 194.693 176.029 194.368 175.636 193.951C175.244 193.534 174.937 193.038 174.717 192.461C174.496 191.885 174.385 191.247 174.385 190.548V190.107C174.385 189.469 174.496 188.874 174.717 188.322C174.95 187.77 175.268 187.298 175.673 186.906C176.078 186.501 176.55 186.188 177.09 185.967C177.642 185.734 178.236 185.618 178.874 185.618C179.622 185.618 180.266 185.759 180.806 186.041C181.358 186.311 181.805 186.648 182.149 187.053C182.504 187.457 182.762 187.899 182.921 188.377C183.093 188.856 183.179 189.297 183.179 189.702V190.879H175.82ZM178.874 186.979C178.469 186.979 178.089 187.047 177.734 187.181C177.39 187.304 177.084 187.482 176.814 187.715C176.556 187.948 176.342 188.224 176.17 188.543C176.01 188.849 175.906 189.187 175.857 189.555H181.744C181.719 189.162 181.621 188.807 181.45 188.488C181.29 188.169 181.076 187.899 180.806 187.678C180.548 187.457 180.248 187.286 179.904 187.163C179.573 187.04 179.23 186.979 178.874 186.979Z" fill="#207191"/>
<path d="M124.188 62.875V75.0625L116.873 69.8393L109.562 75.0625V62.875" stroke="#5A6996" stroke-width="2.4375" stroke-linecap="round" stroke-linejoin="round"/>
<path d="M133.938 90.9062V62.875H92.5C90.5606 62.875 88.7006 63.6454 87.3293 65.0168C85.9579 66.3881 85.1875 68.2481 85.1875 70.1875V118.938C85.1875 116.998 85.9579 115.138 87.3293 113.767C88.7006 112.395 90.5606 111.625 92.5 111.625H113.219" stroke="#5A6996" stroke-width="2.4375" stroke-linecap="round" stroke-linejoin="round"/>
<path d="M85.1875 118.938V121.375H109.561" stroke="#5A6996" stroke-width="2.4375" stroke-linecap="round" stroke-linejoin="round"/>
<path d="M127.539 107.969V99.0566C127.539 98.1475 127.9 97.2757 128.543 96.6329C129.186 95.99 130.058 95.6289 130.967 95.6289C131.876 95.6289 132.748 95.99 133.391 96.6329C134.033 97.2757 134.395 98.1475 134.395 99.0566V112.768" stroke="#00CFFF" stroke-width="2.4375" stroke-linecap="round" stroke-linejoin="round"/>
<path d="M120.684 109.34V96.3145C120.684 95.4054 121.045 94.5335 121.688 93.8907C122.33 93.2479 123.202 92.8867 124.111 92.8867C125.02 92.8867 125.892 93.2479 126.535 93.8907C127.178 94.5335 127.539 95.4054 127.539 96.3145V107.969" stroke="#00CFFF" stroke-width="2.4375" stroke-linecap="round" stroke-linejoin="round"/>
<path d="M127.539 119.623C127.539 117.805 128.261 116.061 129.547 114.775C130.833 113.49 132.576 112.768 134.395 112.768V109.34C134.395 108.431 134.756 107.559 135.398 106.916C136.041 106.273 136.913 105.912 137.822 105.912C138.731 105.912 139.603 106.273 140.246 106.916C140.889 107.559 141.25 108.431 141.25 109.34V116.195C141.25 119.832 139.805 123.319 137.234 125.89C134.663 128.462 131.175 129.906 127.539 129.906C123.903 129.906 120.415 128.462 117.844 125.89C115.273 123.319 113.828 119.832 113.828 116.195V101.799C113.828 100.89 114.189 100.018 114.832 99.3751C115.475 98.7322 116.347 98.3711 117.256 98.3711C118.165 98.3711 119.037 98.7322 119.68 99.3751C120.322 100.018 120.684 100.89 120.684 101.799V109.34" stroke="#00CFFF" stroke-width="2.4375" stroke-linecap="round" stroke-linejoin="round"/>
</svg>
