<svg width="545" height="335" viewBox="0 0 545 335" fill="none" xmlns="http://www.w3.org/2000/svg">
<path d="M167.745 20.899C167.745 17.567 168.496 14.578 169.999 11.932C171.501 9.25333 173.543 7.16267 176.124 5.66C178.737 4.15733 181.628 3.406 184.797 3.406C188.521 3.406 191.771 4.30433 194.548 6.101C197.324 7.89767 199.35 10.4457 200.624 13.745H195.283C194.335 11.687 192.963 10.1027 191.167 8.992C189.403 7.88133 187.279 7.326 184.797 7.326C182.412 7.326 180.272 7.88133 178.378 8.992C176.483 10.1027 174.997 11.687 173.919 13.745C172.841 15.7703 172.302 18.155 172.302 20.899C172.302 23.6103 172.841 25.995 173.919 28.053C174.997 30.0783 176.483 31.6463 178.378 32.757C180.272 33.8677 182.412 34.423 184.797 34.423C187.279 34.423 189.403 33.884 191.167 32.806C192.963 31.6953 194.335 30.111 195.283 28.053H200.624C199.35 31.3197 197.324 33.8513 194.548 35.648C191.771 37.412 188.521 38.294 184.797 38.294C181.628 38.294 178.737 37.559 176.124 36.089C173.543 34.5863 171.501 32.512 169.999 29.866C168.496 27.22 167.745 24.231 167.745 20.899ZM218.972 38.441C216.457 38.441 214.17 37.8693 212.112 36.726C210.087 35.5827 208.486 33.9657 207.31 31.875C206.167 29.7517 205.595 27.3017 205.595 24.525C205.595 21.781 206.183 19.3637 207.359 17.273C208.568 15.1497 210.201 13.5327 212.259 12.422C214.317 11.2787 216.62 10.707 219.168 10.707C221.716 10.707 224.019 11.2787 226.077 12.422C228.135 13.5327 229.752 15.1333 230.928 17.224C232.137 19.3147 232.741 21.7483 232.741 24.525C232.741 27.3017 232.121 29.7517 230.879 31.875C229.671 33.9657 228.021 35.5827 225.93 36.726C223.84 37.8693 221.52 38.441 218.972 38.441ZM218.972 34.521C220.573 34.521 222.076 34.1453 223.48 33.394C224.885 32.6427 226.012 31.5157 226.861 30.013C227.743 28.5103 228.184 26.681 228.184 24.525C228.184 22.369 227.76 20.5397 226.91 19.037C226.061 17.5343 224.95 16.4237 223.578 15.705C222.206 14.9537 220.72 14.578 219.119 14.578C217.486 14.578 215.983 14.9537 214.611 15.705C213.272 16.4237 212.194 17.5343 211.377 19.037C210.561 20.5397 210.152 22.369 210.152 24.525C210.152 26.7137 210.544 28.5593 211.328 30.062C212.145 31.5647 213.223 32.6917 214.562 33.443C215.902 34.1617 217.372 34.521 218.972 34.521ZM270.895 10.658C272.986 10.658 274.848 11.099 276.481 11.981C278.114 12.8303 279.405 14.1207 280.352 15.852C281.299 17.5833 281.773 19.6903 281.773 22.173V38H277.363V22.81C277.363 20.1313 276.693 18.0897 275.354 16.685C274.047 15.2477 272.267 14.529 270.013 14.529C267.694 14.529 265.848 15.2803 264.476 16.783C263.104 18.253 262.418 20.3927 262.418 23.202V38H258.008V22.81C258.008 20.1313 257.338 18.0897 255.999 16.685C254.692 15.2477 252.912 14.529 250.658 14.529C248.339 14.529 246.493 15.2803 245.121 16.783C243.749 18.253 243.063 20.3927 243.063 23.202V38H238.604V11.148H243.063V15.019C243.945 13.6143 245.121 12.5363 246.591 11.785C248.094 11.0337 249.743 10.658 251.54 10.658C253.794 10.658 255.787 11.1643 257.518 12.177C259.249 13.1897 260.54 14.676 261.389 16.636C262.14 14.7413 263.382 13.2713 265.113 12.226C266.844 11.1807 268.772 10.658 270.895 10.658ZM291.39 6.787C290.541 6.787 289.822 6.493 289.234 5.905C288.646 5.317 288.352 4.59833 288.352 3.749C288.352 2.89966 288.646 2.181 289.234 1.593C289.822 1.005 290.541 0.710998 291.39 0.710998C292.207 0.710998 292.893 1.005 293.448 1.593C294.036 2.181 294.33 2.89966 294.33 3.749C294.33 4.59833 294.036 5.317 293.448 5.905C292.893 6.493 292.207 6.787 291.39 6.787ZM293.546 11.148V38H289.087V11.148H293.546ZM314.229 10.658C317.496 10.658 320.142 11.6543 322.167 13.647C324.192 15.607 325.205 18.449 325.205 22.173V38H320.795V22.81C320.795 20.1313 320.125 18.0897 318.786 16.685C317.447 15.2477 315.617 14.529 313.298 14.529C310.946 14.529 309.068 15.264 307.663 16.734C306.291 18.204 305.605 20.3437 305.605 23.153V38H301.146V11.148H305.605V14.97C306.487 13.598 307.679 12.5363 309.182 11.785C310.717 11.0337 312.4 10.658 314.229 10.658ZM343.563 10.707C345.882 10.707 347.907 11.2133 349.639 12.226C351.403 13.2387 352.709 14.5127 353.559 16.048V11.148H358.067V38.588C358.067 41.038 357.544 43.2103 356.499 45.105C355.453 47.0323 353.951 48.535 351.991 49.613C350.063 50.691 347.809 51.23 345.229 51.23C341.701 51.23 338.761 50.397 336.409 48.731C334.057 47.065 332.668 44.7947 332.244 41.92H336.654C337.144 43.5533 338.156 44.86 339.692 45.84C341.227 46.8527 343.073 47.359 345.229 47.359C347.679 47.359 349.671 46.5913 351.207 45.056C352.775 43.5207 353.559 41.3647 353.559 38.588V32.953C352.677 34.521 351.37 35.8277 349.639 36.873C347.907 37.9183 345.882 38.441 343.563 38.441C341.178 38.441 339.006 37.853 337.046 36.677C335.118 35.501 333.599 33.8513 332.489 31.728C331.378 29.6047 330.823 27.1873 330.823 24.476C330.823 21.732 331.378 19.331 332.489 17.273C333.599 15.1823 335.118 13.5653 337.046 12.422C339.006 11.2787 341.178 10.707 343.563 10.707ZM353.559 24.525C353.559 22.4997 353.15 20.7357 352.334 19.233C351.517 17.7303 350.406 16.587 349.002 15.803C347.63 14.9863 346.111 14.578 344.445 14.578C342.779 14.578 341.26 14.97 339.888 15.754C338.516 16.538 337.421 17.6813 336.605 19.184C335.788 20.6867 335.38 22.4507 335.38 24.476C335.38 26.534 335.788 28.3307 336.605 29.866C337.421 31.3687 338.516 32.5283 339.888 33.345C341.26 34.129 342.779 34.521 344.445 34.521C346.111 34.521 347.63 34.129 349.002 33.345C350.406 32.5283 351.517 31.3687 352.334 29.866C353.15 28.3307 353.559 26.5503 353.559 24.525ZM389.495 38.343C387.241 38.343 385.215 37.951 383.419 37.167C381.655 36.3503 380.266 35.2397 379.254 33.835C378.241 32.3977 377.718 30.748 377.686 28.886H382.439C382.602 30.4867 383.255 31.8423 384.399 32.953C385.575 34.031 387.273 34.57 389.495 34.57C391.618 34.57 393.284 34.0473 394.493 33.002C395.734 31.924 396.355 30.552 396.355 28.886C396.355 27.5793 395.995 26.5177 395.277 25.701C394.558 24.8843 393.66 24.2637 392.582 23.839C391.504 23.4143 390.05 22.957 388.221 22.467C385.967 21.879 384.154 21.291 382.782 20.703C381.442 20.115 380.283 19.2003 379.303 17.959C378.355 16.685 377.882 14.9863 377.882 12.863C377.882 11.001 378.355 9.35133 379.303 7.914C380.25 6.47666 381.573 5.366 383.272 4.582C385.003 3.798 386.979 3.406 389.201 3.406C392.402 3.406 395.015 4.20633 397.041 5.807C399.099 7.40767 400.258 9.531 400.52 12.177H395.62C395.456 10.8703 394.77 9.727 393.562 8.747C392.353 7.73433 390.752 7.228 388.76 7.228C386.898 7.228 385.379 7.718 384.203 8.698C383.027 9.64533 382.439 10.9847 382.439 12.716C382.439 13.9573 382.782 14.97 383.468 15.754C384.186 16.538 385.052 17.1423 386.065 17.567C387.11 17.959 388.564 18.4163 390.426 18.939C392.68 19.5597 394.493 20.1803 395.865 20.801C397.237 21.389 398.413 22.32 399.393 23.594C400.373 24.8353 400.863 26.534 400.863 28.69C400.863 30.356 400.422 31.924 399.54 33.394C398.658 34.864 397.351 36.0563 395.62 36.971C393.888 37.8857 391.847 38.343 389.495 38.343ZM419.135 38.441C416.62 38.441 414.333 37.8693 412.275 36.726C410.25 35.5827 408.649 33.9657 407.473 31.875C406.33 29.7517 405.758 27.3017 405.758 24.525C405.758 21.781 406.346 19.3637 407.522 17.273C408.731 15.1497 410.364 13.5327 412.422 12.422C414.48 11.2787 416.783 10.707 419.331 10.707C421.879 10.707 424.182 11.2787 426.24 12.422C428.298 13.5327 429.915 15.1333 431.091 17.224C432.3 19.3147 432.904 21.7483 432.904 24.525C432.904 27.3017 432.284 29.7517 431.042 31.875C429.834 33.9657 428.184 35.5827 426.093 36.726C424.003 37.8693 421.683 38.441 419.135 38.441ZM419.135 34.521C420.736 34.521 422.239 34.1453 423.643 33.394C425.048 32.6427 426.175 31.5157 427.024 30.013C427.906 28.5103 428.347 26.681 428.347 24.525C428.347 22.369 427.923 20.5397 427.073 19.037C426.224 17.5343 425.113 16.4237 423.741 15.705C422.369 14.9537 420.883 14.578 419.282 14.578C417.649 14.578 416.146 14.9537 414.774 15.705C413.435 16.4237 412.357 17.5343 411.54 19.037C410.724 20.5397 410.315 22.369 410.315 24.525C410.315 26.7137 410.707 28.5593 411.491 30.062C412.308 31.5647 413.386 32.6917 414.725 33.443C416.065 34.1617 417.535 34.521 419.135 34.521ZM450.478 38.441C447.963 38.441 445.676 37.8693 443.618 36.726C441.593 35.5827 439.992 33.9657 438.816 31.875C437.673 29.7517 437.101 27.3017 437.101 24.525C437.101 21.781 437.689 19.3637 438.865 17.273C440.074 15.1497 441.707 13.5327 443.765 12.422C445.823 11.2787 448.126 10.707 450.674 10.707C453.222 10.707 455.525 11.2787 457.583 12.422C459.641 13.5327 461.258 15.1333 462.434 17.224C463.643 19.3147 464.247 21.7483 464.247 24.525C464.247 27.3017 463.626 29.7517 462.385 31.875C461.176 33.9657 459.527 35.5827 457.436 36.726C455.345 37.8693 453.026 38.441 450.478 38.441ZM450.478 34.521C452.079 34.521 453.581 34.1453 454.986 33.394C456.391 32.6427 457.518 31.5157 458.367 30.013C459.249 28.5103 459.69 26.681 459.69 24.525C459.69 22.369 459.265 20.5397 458.416 19.037C457.567 17.5343 456.456 16.4237 455.084 15.705C453.712 14.9537 452.226 14.578 450.625 14.578C448.992 14.578 447.489 14.9537 446.117 15.705C444.778 16.4237 443.7 17.5343 442.883 19.037C442.066 20.5397 441.658 22.369 441.658 24.525C441.658 26.7137 442.05 28.5593 442.834 30.062C443.651 31.5647 444.729 32.6917 446.068 33.443C447.407 34.1617 448.877 34.521 450.478 34.521ZM483.193 10.658C486.46 10.658 489.106 11.6543 491.131 13.647C493.156 15.607 494.169 18.449 494.169 22.173V38H489.759V22.81C489.759 20.1313 489.089 18.0897 487.75 16.685C486.411 15.2477 484.581 14.529 482.262 14.529C479.91 14.529 478.032 15.264 476.627 16.734C475.255 18.204 474.569 20.3437 474.569 23.153V38H470.11V11.148H474.569V14.97C475.451 13.598 476.643 12.5363 478.146 11.785C479.681 11.0337 481.364 10.658 483.193 10.658Z" fill="#FFE171"/>
<path d="M543.015 9.712V17.736H514.183V9.712H543.015ZM72.5168 117.556C72.5168 122.857 71.2388 127.827 68.6828 132.466C66.2215 137.105 62.2928 140.844 56.8968 143.684C51.5955 146.524 44.8741 147.944 36.7328 147.944H20.1188V186H0.238797V86.884H36.7328C44.4008 86.884 50.9328 88.2093 56.3288 90.86C61.7248 93.5107 65.7481 97.1553 68.3988 101.794C71.1441 106.433 72.5168 111.687 72.5168 117.556ZM35.8808 131.898C41.3715 131.898 45.4421 130.667 48.0928 128.206C50.7435 125.65 52.0688 122.1 52.0688 117.556C52.0688 107.9 46.6728 103.072 35.8808 103.072H20.1188V131.898H35.8808ZM107.931 119.544C110.487 115.379 113.801 112.113 117.871 109.746C122.037 107.379 126.77 106.196 132.071 106.196V127.07H126.817C120.569 127.07 115.836 128.537 112.617 131.472C109.493 134.407 107.931 139.519 107.931 146.808V186H88.0514V107.332H107.931V119.544ZM181.814 187.278C174.24 187.278 167.424 185.621 161.366 182.308C155.307 178.9 150.526 174.119 147.024 167.966C143.616 161.813 141.912 154.713 141.912 146.666C141.912 138.619 143.663 131.519 147.166 125.366C150.763 119.213 155.638 114.479 161.792 111.166C167.945 107.758 174.808 106.054 182.382 106.054C189.955 106.054 196.818 107.758 202.972 111.166C209.125 114.479 213.953 119.213 217.456 125.366C221.053 131.519 222.852 138.619 222.852 146.666C222.852 154.713 221.006 161.813 217.314 167.966C213.716 174.119 208.794 178.9 202.546 182.308C196.392 185.621 189.482 187.278 181.814 187.278ZM181.814 169.954C185.411 169.954 188.772 169.102 191.896 167.398C195.114 165.599 197.67 162.949 199.564 159.446C201.457 155.943 202.404 151.683 202.404 146.666C202.404 139.187 200.416 133.46 196.44 129.484C192.558 125.413 187.778 123.378 182.098 123.378C176.418 123.378 171.637 125.413 167.756 129.484C163.969 133.46 162.076 139.187 162.076 146.666C162.076 154.145 163.922 159.919 167.614 163.99C171.4 167.966 176.134 169.954 181.814 169.954ZM273.786 187.278C266.213 187.278 259.397 185.621 253.338 182.308C247.28 178.9 242.499 174.119 238.996 167.966C235.588 161.813 233.884 154.713 233.884 146.666C233.884 138.619 235.636 131.519 239.138 125.366C242.736 119.213 247.611 114.479 253.764 111.166C259.918 107.758 266.781 106.054 274.354 106.054C281.928 106.054 288.791 107.758 294.944 111.166C301.098 114.479 305.926 119.213 309.428 125.366C313.026 131.519 314.824 138.619 314.824 146.666C314.824 154.713 312.978 161.813 309.286 167.966C305.689 174.119 300.766 178.9 294.518 182.308C288.365 185.621 281.454 187.278 273.786 187.278ZM273.786 169.954C277.384 169.954 280.744 169.102 283.868 167.398C287.087 165.599 289.643 162.949 291.536 159.446C293.43 155.943 294.376 151.683 294.376 146.666C294.376 139.187 292.388 133.46 288.412 129.484C284.531 125.413 279.75 123.378 274.07 123.378C268.39 123.378 263.61 125.413 259.728 129.484C255.942 133.46 254.048 139.187 254.048 146.666C254.048 154.145 255.894 159.919 259.586 163.99C263.373 167.966 268.106 169.954 273.786 169.954ZM366.895 123.662H353.121V186H332.957V123.662H324.011V107.332H332.957V103.356C332.957 93.7 335.702 86.6 341.193 82.056C346.684 77.512 354.967 75.382 366.043 75.666V92.422C361.215 92.3273 357.854 93.132 355.961 94.836C354.068 96.54 353.121 99.6167 353.121 104.066V107.332H366.895V123.662ZM451.386 187.278C443.813 187.278 436.997 185.621 430.938 182.308C424.879 178.9 420.099 174.119 416.596 167.966C413.188 161.813 411.484 154.713 411.484 146.666C411.484 138.619 413.235 131.519 416.738 125.366C420.335 119.213 425.211 114.479 431.364 111.166C437.517 107.758 444.381 106.054 451.954 106.054C459.527 106.054 466.391 107.758 472.544 111.166C478.697 114.479 483.525 119.213 487.028 125.366C490.625 131.519 492.424 138.619 492.424 146.666C492.424 154.713 490.578 161.813 486.886 167.966C483.289 174.119 478.366 178.9 472.118 182.308C465.965 185.621 459.054 187.278 451.386 187.278ZM451.386 169.954C454.983 169.954 458.344 169.102 461.468 167.398C464.687 165.599 467.243 162.949 469.136 159.446C471.029 155.943 471.976 151.683 471.976 146.666C471.976 139.187 469.988 133.46 466.012 129.484C462.131 125.413 457.35 123.378 451.67 123.378C445.99 123.378 441.209 125.413 437.328 129.484C433.541 133.46 431.648 139.187 431.648 146.666C431.648 154.145 433.494 159.919 437.186 163.99C440.973 167.966 445.706 169.954 451.386 169.954ZM544.495 123.662H530.721V186H510.557V123.662H501.611V107.332H510.557V103.356C510.557 93.7 513.302 86.6 518.793 82.056C524.284 77.512 532.567 75.382 543.643 75.666V92.422C538.815 92.3273 535.454 93.132 533.561 94.836C531.668 96.54 530.721 99.6167 530.721 104.066V107.332H544.495V123.662ZM178.951 333.994C172.041 333.994 165.793 332.811 160.207 330.444C154.717 328.077 150.362 324.669 147.143 320.22C143.925 315.771 142.268 310.517 142.173 304.458H163.473C163.757 308.529 165.177 311.747 167.733 314.114C170.384 316.481 173.981 317.664 178.525 317.664C183.164 317.664 186.809 316.575 189.459 314.398C192.11 312.126 193.435 309.191 193.435 305.594C193.435 302.659 192.536 300.245 190.737 298.352C188.939 296.459 186.667 294.991 183.921 293.95C181.271 292.814 177.579 291.583 172.845 290.258C166.408 288.365 161.154 286.519 157.083 284.72C153.107 282.827 149.652 280.034 146.717 276.342C143.877 272.555 142.457 267.538 142.457 261.29C142.457 255.421 143.925 250.309 146.859 245.954C149.794 241.599 153.912 238.286 159.213 236.014C164.515 233.647 170.573 232.464 177.389 232.464C187.613 232.464 195.897 234.973 202.239 239.99C208.677 244.913 212.227 251.823 212.889 260.722H191.021C190.832 257.314 189.365 254.521 186.619 252.344C183.969 250.072 180.419 248.936 175.969 248.936C172.088 248.936 168.964 249.93 166.597 251.918C164.325 253.906 163.189 256.793 163.189 260.58C163.189 263.231 164.041 265.455 165.745 267.254C167.544 268.958 169.721 270.378 172.277 271.514C174.928 272.555 178.62 273.786 183.353 275.206C189.791 277.099 195.045 278.993 199.115 280.886C203.186 282.779 206.689 285.619 209.623 289.406C212.558 293.193 214.025 298.163 214.025 304.316C214.025 309.617 212.653 314.54 209.907 319.084C207.162 323.628 203.139 327.273 197.837 330.018C192.536 332.669 186.241 333.994 178.951 333.994ZM255.827 270.662V308.718C255.827 311.369 256.442 313.309 257.673 314.54C258.998 315.676 261.175 316.244 264.205 316.244H273.435V333H260.939C244.183 333 235.805 324.859 235.805 308.576V270.662H226.433V254.332H235.805V234.878H255.827V254.332H273.435V270.662H255.827ZM284.041 293.382C284.041 285.43 285.603 278.377 288.727 272.224C291.946 266.071 296.253 261.337 301.649 258.024C307.14 254.711 313.246 253.054 319.967 253.054C325.837 253.054 330.949 254.237 335.303 256.604C339.753 258.971 343.303 261.953 345.953 265.55V254.332H365.975V333H345.953V321.498C343.397 325.19 339.847 328.267 335.303 330.728C330.854 333.095 325.695 334.278 319.825 334.278C313.199 334.278 307.14 332.574 301.649 329.166C296.253 325.758 291.946 320.977 288.727 314.824C285.603 308.576 284.041 301.429 284.041 293.382ZM345.953 293.666C345.953 288.838 345.007 284.72 343.113 281.312C341.22 277.809 338.664 275.159 335.445 273.36C332.227 271.467 328.771 270.52 325.079 270.52C321.387 270.52 317.979 271.419 314.855 273.218C311.731 275.017 309.175 277.667 307.187 281.17C305.294 284.578 304.347 288.649 304.347 293.382C304.347 298.115 305.294 302.281 307.187 305.878C309.175 309.381 311.731 312.079 314.855 313.972C318.074 315.865 321.482 316.812 325.079 316.812C328.771 316.812 332.227 315.913 335.445 314.114C338.664 312.221 341.22 309.57 343.113 306.162C345.007 302.659 345.953 298.494 345.953 293.666ZM433.388 333L406.692 299.488V333H386.812V227.92H406.692V287.702L433.104 254.332H458.948L424.3 293.808L459.232 333H433.388ZM544.287 291.962C544.287 294.802 544.098 297.358 543.719 299.63H486.209C486.683 305.31 488.671 309.759 492.173 312.978C495.676 316.197 499.983 317.806 505.095 317.806C512.479 317.806 517.733 314.635 520.857 308.292H542.299C540.027 315.865 535.673 322.113 529.235 327.036C522.798 331.864 514.893 334.278 505.521 334.278C497.948 334.278 491.132 332.621 485.073 329.308C479.109 325.9 474.423 321.119 471.015 314.966C467.702 308.813 466.045 301.713 466.045 293.666C466.045 285.525 467.702 278.377 471.015 272.224C474.329 266.071 478.967 261.337 484.931 258.024C490.895 254.711 497.759 253.054 505.521 253.054C513 253.054 519.674 254.663 525.543 257.882C531.507 261.101 536.099 265.692 539.317 271.656C542.631 277.525 544.287 284.294 544.287 291.962ZM523.697 286.282C523.603 281.17 521.757 277.099 518.159 274.07C514.562 270.946 510.16 269.384 504.953 269.384C500.031 269.384 495.865 270.899 492.457 273.928C489.144 276.863 487.109 280.981 486.351 286.282H523.697Z" fill="white"/>
</svg>
